<?xml version="1.0" standalone="no"?>
<!DOCTYPE svg PUBLIC "-//W3C//DTD SVG 1.1//EN" "http://www.w3.org/Graphics/SVG/1.1/DTD/svg11.dtd" >
<svg>
<metadata>
Created by FontForge 20110222 at Mon Jan 20 07:52:53 2014
 By Orthosie Webhosting
2003 Erik Spiekermann, Christian Schwartz; published by FontShop International for the FontFont library.
</metadata>
<defs>
<font id="UnitMediumRegular" horiz-adv-x="533" >
  <font-face 
    font-family="UnitMediumRegular"
    font-weight="500"
    font-stretch="normal"
    units-per-em="1000"
    panose-1="0 0 0 0 0 0 0 0 0 0"
    ascent="800"
    descent="-200"
    x-height="506"
    cap-height="692"
    bbox="-81 -218 1172 948"
    underline-thickness="20"
    underline-position="-132"
    unicode-range="U+0020-FB04"
  />
<missing-glyph horiz-adv-x="246" 
 />
    <glyph glyph-name=".notdef" horiz-adv-x="246" 
 />
    <glyph glyph-name=".null" horiz-adv-x="0" 
 />
    <glyph glyph-name="nonmarkingreturn" horiz-adv-x="333" 
 />
    <glyph glyph-name="space" unicode=" " horiz-adv-x="246" 
 />
    <glyph glyph-name="exclam" unicode="!" horiz-adv-x="289" 
d="M102 208l-26 484h137l-25 -484h-86zM147 -10q-31 0 -53 22t-22 53q0 32 21.5 54t53.5 22t53.5 -22t21.5 -54q0 -31 -22 -53t-53 -22z" />
    <glyph glyph-name="quotedbl" unicode="&#x22;" horiz-adv-x="447" 
d="M73 434v275h107v-275h-107zM267 434v275h106v-275h-106z" />
    <glyph glyph-name="numbersign" unicode="#" horiz-adv-x="547" 
d="M69 390v83h93l24 165h81l-23 -165h101l23 165h82l-24 -165h79v-83h-90l-19 -131h82v-83h-93l-25 -176h-81l24 176h-101l-24 -176h-82l25 176h-79v83h90l19 131h-82zM232 390l-18 -131h101l18 131h-101z" />
    <glyph glyph-name="dollar" unicode="$" horiz-adv-x="507" 
d="M211 -131v119q-108 9 -179 65l46 88q67 -48 138 -54v197q-79 28 -118 69t-39 120q0 157 153 176v134h88v-135q74 -8 131 -47l-47 -86q-46 28 -89 35v-170q80 -28 121.5 -70.5t41.5 -128.5q0 -168 -159 -190v-122h-88zM343 174q0 33 -11 50t-37 30v-159q48 17 48 79z
M172 479q0 -28 10 -43.5t34 -26.5v137q-44 -15 -44 -67z" />
    <glyph glyph-name="percent" unicode="%" horiz-adv-x="855" 
d="M645 -12q-73 0 -116.5 46.5t-43.5 127.5q0 80 43.5 126t116.5 46t116.5 -46.5t43.5 -127.5q0 -80 -44 -126t-116 -46zM209 304q-73 0 -116.5 46.5t-43.5 126.5q0 81 44 127t116 46q73 0 116.5 -46.5t43.5 -127.5q0 -80 -44 -126t-116 -46zM182 0l390 638h100l-390 -638
h-100zM645 61q31 0 45 23t14 74q0 59 -13.5 81.5t-45.5 22.5t-46 -22.5t-14 -74.5q0 -58 14 -81t46 -23zM209 377q31 0 45 22.5t14 74.5q0 59 -13.5 81.5t-45.5 22.5t-45.5 -22.5t-13.5 -75.5q0 -58 13.5 -80.5t45.5 -22.5z" />
    <glyph glyph-name="ampersand" unicode="&#x26;" horiz-adv-x="666" 
d="M282 -13q-116 0 -177 54t-61 149q0 72 35 119t109 80q-71 84 -71 157t48 116t131 43q80 0 128 -43t48 -119q0 -55 -33.5 -94t-100.5 -73l125 -151q20 56 34 133l95 -18q-23 -127 -60 -199l117 -141h-148l-39 48q-70 -61 -180 -61zM290 77q66 0 111 45l-163 201
q-68 -38 -68 -127q0 -58 28 -88.5t92 -30.5zM230 549q0 -39 40 -89l20 -25q40 26 54.5 48.5t14.5 56.5q0 78 -61 78q-68 0 -68 -69z" />
    <glyph glyph-name="quotesingle" unicode="'" horiz-adv-x="253" 
d="M73 434v275h106v-275h-106z" />
    <glyph glyph-name="parenleft" unicode="(" horiz-adv-x="356" 
d="M290 -166q-121 52 -178 167.5t-57 300.5q0 189 55.5 307t179.5 171l33 -71q-50 -33 -80 -75.5t-48.5 -122t-18.5 -199.5q0 -182 35 -270.5t112 -136.5z" />
    <glyph glyph-name="parenright" unicode=")" horiz-adv-x="356" 
d="M64 -166l-33 71q38 24 63 52t45.5 72.5t30.5 110.5t10 158q0 181 -35.5 272t-113.5 139l34 71q122 -53 178.5 -169.5t56.5 -305.5q0 -184 -56.5 -301t-179.5 -170z" />
    <glyph glyph-name="asterisk" unicode="*" horiz-adv-x="487" 
d="M166 304l-71 50l87 119l-133 47l29 82l123 -50v144h89v-144l124 46l29 -82l-134 -42l88 -120l-71 -50l-80 117z" />
    <glyph glyph-name="plus" unicode="+" horiz-adv-x="565" 
d="M227 70v177h-161v104h161v176h110v-176h161v-104h-161v-177h-110z" />
    <glyph glyph-name="comma" unicode="," horiz-adv-x="284" 
d="M81 -138l-18 58q64 24 64 74q-25 4 -45.5 23.5t-20.5 54.5q0 33 21.5 55t51.5 22q39 0 63 -28.5t24 -75.5q0 -149 -140 -183z" />
    <glyph glyph-name="hyphen" unicode="-" horiz-adv-x="311" 
d="M50 215v116h211v-116h-211z" />
    <glyph glyph-name="period" unicode="." horiz-adv-x="280" 
d="M140 -10q-33 0 -56 23t-23 56t23 56.5t56 23.5t56 -23.5t23 -56.5t-23 -56t-56 -23z" />
    <glyph glyph-name="slash" unicode="/" horiz-adv-x="380" 
d="M22 -152l239 916h96l-239 -916h-96z" />
    <glyph glyph-name="zero" unicode="0" horiz-adv-x="627" 
d="M314 -12q-124 0 -192 81.5t-68 247.5q0 165 69 249.5t190 84.5q123 0 191 -82.5t68 -247.5q0 -168 -67 -250.5t-191 -82.5zM313 80q71 0 101.5 54.5t30.5 183.5q0 130 -30.5 185.5t-101.5 55.5t-101.5 -55t-30.5 -183q0 -130 30.5 -185.5t101.5 -55.5z" />
    <glyph glyph-name="one" unicode="1" horiz-adv-x="467" 
d="M73 0v94h123v394l-117 -58l-34 66l183 147h86v-549h108v-94h-349z" />
    <glyph glyph-name="two" unicode="2" horiz-adv-x="510" 
d="M44 0v105q169 139 223.5 206.5t54.5 136.5q0 103 -96 103q-71 0 -147 -45l-39 87q94 58 199 58q98 0 153.5 -48t55.5 -144q0 -92 -56 -168t-212 -193h279v-98h-415z" />
    <glyph glyph-name="three" unicode="3" horiz-adv-x="516" 
d="M215 -66q-98 0 -181 31l21 93q88 -21 147 -21q73 0 102.5 28.5t29.5 96.5q0 62 -30.5 86t-102.5 24h-47v93h54q61 0 86 23.5t25 76.5q0 44 -23 65t-76 21q-72 0 -143 -34l-33 86q90 48 197 48q93 0 146.5 -46.5t53.5 -125.5q0 -122 -97 -159q58 -18 88.5 -62.5
t30.5 -103.5q0 -220 -248 -220z" />
    <glyph glyph-name="four" unicode="4" horiz-adv-x="588" 
d="M48 94v108l188 436h123l-194 -445h192v251l118 20v-271h70v-99h-70v-147h-118v147h-309z" />
    <glyph glyph-name="five" unicode="5" horiz-adv-x="526" 
d="M204 -66q-82 0 -164 31l22 93q72 -23 135 -23q77 0 113 34.5t36 103.5q0 67 -33.5 94t-108.5 27q-64 0 -125 -19l30 363h337v-101h-239l-13 -152q23 5 54 5q100 0 162.5 -54.5t62.5 -154.5q0 -119 -68 -183t-201 -64z" />
    <glyph glyph-name="six" unicode="6" horiz-adv-x="582" 
d="M298 -13q-112 0 -178 74.5t-66 213.5q0 190 91.5 296t282.5 142l23 -88q-62 -17 -101 -33t-73.5 -40.5t-54.5 -60.5t-30 -88q58 45 130 45q96 0 152.5 -59t56.5 -165q0 -111 -65 -174t-168 -63zM297 355q-63 0 -116 -44q-1 -16 -1 -51q0 -95 28.5 -137t89.5 -42
q109 0 109 141q0 133 -110 133z" />
    <glyph glyph-name="seven" unicode="7" horiz-adv-x="507" 
d="M232 -67l-121 17q13 136 53 257t84.5 195.5t96.5 131.5h-303v104h416v-110q-82 -90 -149 -248.5t-77 -346.5z" />
    <glyph glyph-name="eight" unicode="8" horiz-adv-x="576" 
d="M285 -13q-115 0 -174 55t-59 140q0 123 126 174q-100 52 -100 168q0 85 57.5 133t156.5 48q96 0 153.5 -48t57.5 -129q0 -108 -116 -160q74 -31 105 -76t31 -110q0 -93 -63 -144t-175 -51zM308 292l-56 22q-82 -43 -82 -127q0 -59 30 -85t87 -26q55 0 83.5 25.5
t28.5 70.5q0 44 -19 71.5t-72 48.5zM198 527q0 -39 16.5 -63t65.5 -45l22 -9q49 24 66 50.5t17 67.5q0 87 -95 87q-92 0 -92 -88z" />
    <glyph glyph-name="nine" unicode="9" horiz-adv-x="582" 
d="M144 -74l-24 89q128 35 188 79t81 142q-56 -46 -132 -46q-97 0 -152 60.5t-55 166.5q0 109 66 171.5t168 62.5q114 0 178.5 -71.5t64.5 -212.5q0 -194 -90.5 -299t-292.5 -142zM282 282q64 0 118 43q2 34 2 56q0 95 -29 135.5t-90 40.5q-108 0 -108 -140q0 -70 26 -102.5
t81 -32.5z" />
    <glyph glyph-name="colon" unicode=":" horiz-adv-x="308" 
d="M152 283q-32 0 -55.5 23.5t-23.5 56.5t23.5 56t55.5 23q33 0 56 -23t23 -56q0 -34 -23 -57t-56 -23zM152 -10q-32 0 -55.5 23t-23.5 56t23.5 56.5t55.5 23.5q33 0 56 -23.5t23 -56.5t-23 -56t-56 -23z" />
    <glyph glyph-name="semicolon" unicode=";" horiz-adv-x="308" 
d="M93 -138l-18 58q65 24 65 74q-26 4 -46.5 23.5t-20.5 54.5q0 33 21.5 55t52.5 22q38 0 62.5 -28.5t24.5 -75.5q0 -71 -35 -118.5t-106 -64.5zM152 283q-32 0 -55.5 23.5t-23.5 56.5t23.5 56t55.5 23q33 0 56 -23t23 -56q0 -34 -23 -57t-56 -23z" />
    <glyph glyph-name="less" unicode="&#x3c;" horiz-adv-x="416" 
d="M304 60l-249 206v61l249 206l64 -77l-192 -159l192 -160z" />
    <glyph glyph-name="equal" unicode="=" horiz-adv-x="559" 
d="M67 352v104h424v-104h-424zM67 138v104h424v-104h-424z" />
    <glyph glyph-name="greater" unicode="&#x3e;" horiz-adv-x="416" 
d="M111 60l-64 77l192 159l-192 160l64 77l249 -206v-61z" />
    <glyph glyph-name="question" unicode="?" horiz-adv-x="445" 
d="M144 208v86q0 55 16 86.5t52 55.5q36 25 49.5 44t13.5 56q0 36 -17 52t-58 16q-56 0 -112 -40l-47 82q76 57 172 57q83 0 131.5 -39t48.5 -122q0 -35 -7.5 -61.5t-24 -47t-32.5 -34t-44 -31.5q-26 -18 -35 -37.5t-9 -51.5v-71h-97zM194 -10q-32 0 -53.5 22t-21.5 53
q0 32 21.5 54t53.5 22t53.5 -22t21.5 -54t-21.5 -53.5t-53.5 -21.5z" />
    <glyph glyph-name="at" unicode="@" horiz-adv-x="849" 
d="M403 -174q-170 0 -262.5 95.5t-92.5 279.5q0 192 109.5 315t295.5 123q166 0 257 -94.5t91 -259.5q0 -149 -53 -222.5t-145 -73.5q-112 0 -132 100q-70 -85 -143 -85q-60 0 -86.5 61.5t0.5 186.5q23 109 67 156.5t114 47.5q52 0 96 -44l7 34h102l-62 -293q-9 -43 2 -64
t36 -21q101 0 101 217q0 141 -59.5 207.5t-196.5 66.5q-147 0 -224.5 -97.5t-77.5 -260.5q0 -158 61.5 -226t193.5 -68q74 0 141 25l25 -75q-82 -31 -165 -31zM367 86q37 0 94 57l44 208q-33 29 -64 29q-37 0 -56 -28.5t-36 -111.5q-19 -88 -14 -121t32 -33z" />
    <glyph glyph-name="A" unicode="A" horiz-adv-x="576" 
d="M22 0l206 692h128l197 -692h-130l-44 171h-188l-46 -171h-123zM249 384l-32 -118h138l-30 118q-22 87 -36 172h-2q-12 -79 -38 -172z" />
    <glyph glyph-name="B" unicode="B" horiz-adv-x="575" 
d="M78 0v692h232q95 0 142.5 -46.5t47.5 -134.5q0 -58 -19 -90.5t-68 -52.5q115 -30 115 -169q0 -199 -217 -199h-233zM197 100h95q57 0 82 25t25 80q0 54 -23.5 79t-81.5 25h-97v-209zM197 407h94q48 0 66.5 22t18.5 71q0 47 -20 69.5t-69 22.5h-90v-185z" />
    <glyph glyph-name="C" unicode="C" horiz-adv-x="547" 
d="M330 -13q-141 0 -207.5 87.5t-66.5 269.5q0 184 67 272.5t205 88.5q110 0 172 -54l-52 -91q-53 43 -116 43q-84 0 -113.5 -54.5t-29.5 -197.5q0 -147 31 -204.5t114 -57.5q64 0 123 50l54 -88q-78 -64 -181 -64z" />
    <glyph glyph-name="D" unicode="D" horiz-adv-x="607" 
d="M78 0v692h200q141 0 206.5 -78.5t65.5 -266.5q0 -186 -61.5 -266.5t-205.5 -80.5h-205zM199 103h81q81 0 110 51t29 198q0 139 -29 188.5t-110 49.5h-81v-487z" />
    <glyph glyph-name="E" unicode="E" horiz-adv-x="509" 
d="M85 0v692h362v-103h-241v-177h193v-101h-193v-207h256v-104h-377z" />
    <glyph glyph-name="F" unicode="F" horiz-adv-x="481" 
d="M85 0v692h354v-103h-234v-177h187v-101h-186v-311h-121z" />
    <glyph glyph-name="G" unicode="G" horiz-adv-x="615" 
d="M456 0l-14 45q-58 -58 -135 -58q-122 0 -186.5 89t-64.5 268q0 361 271 361q114 0 196 -69l-63 -88q-34 28 -62.5 40.5t-66.5 12.5q-81 0 -111.5 -54.5t-30.5 -195.5q0 -146 29.5 -204.5t104.5 -58.5q58 0 102 39v149h-107v101h226v-377h-88z" />
    <glyph glyph-name="H" unicode="H" horiz-adv-x="618" 
d="M85 0v692h121v-273h206v273h121v-692h-121v314h-206v-314h-121z" />
    <glyph glyph-name="I" unicode="I" horiz-adv-x="372" 
d="M56 0v67l69 11v536l-69 12v66h260v-66l-69 -12v-536l69 -11v-67h-260z" />
    <glyph glyph-name="J" unicode="J" horiz-adv-x="299" 
d="M43 -164l-41 82q38 25 53 39t25.5 47t10.5 90v598h122v-620q0 -102 -38.5 -153t-131.5 -83z" />
    <glyph glyph-name="K" unicode="K" horiz-adv-x="561" 
d="M85 0v692h121v-317l194 317h130l-199 -313l212 -379h-136l-201 372v-372h-121z" />
    <glyph glyph-name="L" unicode="L" horiz-adv-x="473" 
d="M85 0v692h120v-588h223v-104h-343z" />
    <glyph glyph-name="M" unicode="M" horiz-adv-x="753" 
d="M85 0v692h167l94 -322q22 -75 28 -157h2q10 98 27 157l92 322h173v-692h-118v355q0 136 8 237h-2q-16 -106 -52 -220l-79 -250h-111l-78 239q-28 90 -50 231h-2q8 -99 8 -239v-353h-107z" />
    <glyph glyph-name="N" unicode="N" horiz-adv-x="617" 
d="M85 0v692h117l168 -350q36 -78 64 -165h1q-13 114 -13 190v325h111v-692h-123l-156 330q-37 77 -70 178h-2q13 -107 13 -204v-304h-110z" />
    <glyph glyph-name="O" unicode="O" horiz-adv-x="644" 
d="M323 -13q-134 0 -200.5 87t-66.5 270q0 361 266 361q265 0 265 -358q0 -184 -65.5 -272t-198.5 -88zM322 84q74 0 104 59.5t30 201.5t-30 202t-104 60t-104.5 -59.5t-30.5 -199.5q0 -142 30.5 -203t104.5 -61z" />
    <glyph glyph-name="P" unicode="P" horiz-adv-x="561" 
d="M85 0v692h202q116 0 174 -51t58 -159t-50.5 -164t-169.5 -56h-93v-262h-121zM206 362h86q53 0 77 24.5t24 87.5q0 65 -23 90.5t-77 25.5h-87v-228z" />
    <glyph glyph-name="Q" unicode="Q" horiz-adv-x="644" 
d="M587 347q0 -137 -35 -216.5t-115 -111.5l172 -48l-41 -103l-329 124q-93 35 -138 117t-45 235q0 361 266 361q265 0 265 -358zM322 82q74 0 104 60.5t30 202.5t-30 202t-104 60t-104.5 -59.5t-30.5 -199.5q0 -143 30.5 -204.5t104.5 -61.5z" />
    <glyph glyph-name="R" unicode="R" horiz-adv-x="577" 
d="M85 0v692h204q229 0 229 -195q0 -80 -31 -122t-96 -60q55 -19 89 -122l63 -193h-131l-61 196q-18 56 -38.5 74.5t-58.5 18.5h-48v-289h-121zM206 382h85q56 0 78 26t22 84q0 53 -23 75.5t-78 22.5h-84v-208z" />
    <glyph glyph-name="S" unicode="S" horiz-adv-x="537" 
d="M254 -13q-130 0 -215 67l45 91q76 -55 160 -55q113 0 113 97q0 49 -25 71.5t-87 44.5q-94 33 -135.5 77.5t-41.5 133.5q0 94 55 142.5t151 48.5q103 0 177 -48l-45 -92q-58 38 -123 38q-94 0 -94 -82q0 -43 19.5 -63t75.5 -40q39 -13 63.5 -23.5t53 -28.5t44 -39.5
t26.5 -55t11 -75.5q0 -209 -228 -209z" />
    <glyph glyph-name="T" unicode="T" horiz-adv-x="506" 
d="M193 0v588h-157v104h433v-104h-157v-588h-119z" />
    <glyph glyph-name="U" unicode="U" horiz-adv-x="622" 
d="M273 -13q-89 0 -141.5 54t-52.5 173v478h121v-479q0 -67 18.5 -94.5t73.5 -27.5q69 0 124 48v553h121v-692h-88l-18 56q-65 -69 -158 -69z" />
    <glyph glyph-name="V" unicode="V" horiz-adv-x="575" 
d="M229 0l-205 692h131l100 -373q21 -80 32 -148h2q18 85 36 148l102 373h124l-208 -692h-114z" />
    <glyph glyph-name="W" unicode="W" horiz-adv-x="803" 
d="M173 0l-142 692h127l56 -293q17 -89 34 -260h2q12 119 37 248l61 305h117l62 -306q21 -106 35 -247h1q12 132 35 264l53 289h121l-143 -692h-133l-63 316q-19 96 -29 209h-2q-12 -118 -29 -206l-65 -319h-135z" />
    <glyph glyph-name="X" unicode="X" horiz-adv-x="561" 
d="M19 0l194 369l-166 323h139l97 -217l100 217h133l-168 -315l194 -377h-140l-125 270l-124 -270h-134z" />
    <glyph glyph-name="Y" unicode="Y" horiz-adv-x="545" 
d="M210 0v287l-189 405h136l79 -189q28 -70 39 -115q20 74 36 114l83 190h130l-193 -405v-287h-121z" />
    <glyph glyph-name="Z" unicode="Z" horiz-adv-x="503" 
d="M41 0v88l274 500h-252v104h394v-91l-274 -497h273v-104h-415z" />
    <glyph glyph-name="bracketleft" unicode="[" horiz-adv-x="321" 
d="M76 -155v888h202v-87h-92v-715h92v-86h-202z" />
    <glyph glyph-name="backslash" unicode="\" horiz-adv-x="381" 
d="M262 -152l-239 916h96l239 -916h-96z" />
    <glyph glyph-name="bracketright" unicode="]" horiz-adv-x="321" 
d="M42 -155v86h93v715h-93v87h203v-888h-203z" />
    <glyph glyph-name="asciicircum" unicode="^" horiz-adv-x="525" 
d="M61 427l149 281h104l149 -281h-116l-85 163l-86 -163h-115z" />
    <glyph glyph-name="underscore" unicode="_" horiz-adv-x="359" 
d="M7 -145v90h345v-90h-345z" />
    <glyph glyph-name="grave" unicode="`" 
d="M331 561l-211 103l56 100l193 -138z" />
    <glyph glyph-name="a" unicode="a" horiz-adv-x="490" 
d="M194 -13q-75 0 -113 41.5t-38 118.5q0 87 54 127t172 40h36v29q0 44 -12 63t-52 19q-59 0 -140 -46l-42 81q91 59 194 59q86 0 126 -37t40 -121v-361h-89l-14 44q-53 -57 -122 -57zM219 70q44 0 86 42v128h-18q-78 0 -103 -20.5t-25 -71.5q0 -43 13.5 -60.5t46.5 -17.5z
" />
    <glyph glyph-name="b" unicode="b" horiz-adv-x="534" 
d="M311 -13q-39 0 -75 17t-58 43l-13 -47h-91v728h114v-266q53 57 125 57q83 0 127 -57.5t44 -201.5q0 -147 -42 -210t-131 -63zM276 81q50 0 68 33.5t18 139.5q0 105 -16.5 138.5t-62.5 33.5q-48 0 -95 -45v-262q40 -38 88 -38z" />
    <glyph glyph-name="c" unicode="c" horiz-adv-x="437" 
d="M255 -13q-209 0 -209 267q0 139 52 202t154 63q89 0 150 -58l-59 -76q-39 41 -86 41q-51 0 -70 -33t-19 -137t20.5 -140t73.5 -36q27 0 46 10t42 32l56 -75q-60 -60 -151 -60z" />
    <glyph glyph-name="d" unicode="d" horiz-adv-x="534" 
d="M224 -13q-83 0 -128.5 59t-45.5 203q0 147 41 208.5t130 61.5q67 0 125 -54v263h114v-728h-91l-13 50q-58 -63 -132 -63zM250 81q53 0 96 41v262q-44 42 -89 42q-49 0 -67 -34t-18 -139t16 -138.5t62 -33.5z" />
    <glyph glyph-name="e" unicode="e" horiz-adv-x="497" 
d="M272 -13q-115 0 -170.5 63.5t-55.5 203.5q0 265 205 265q103 0 151.5 -62t48.5 -199v-37h-284q3 -84 25.5 -113t78.5 -29t116 45l54 -78q-70 -59 -169 -59zM252 434q-40 0 -60 -28t-24 -104h166q-1 75 -18 103.5t-64 28.5z" />
    <glyph glyph-name="f" unicode="f" horiz-adv-x="313" 
d="M27 418v88h54v70q0 90 37.5 124.5t103.5 34.5q65 0 110 -25l-32 -81q-25 13 -56 13q-26 0 -38 -14t-12 -45v-77h90v-88h-90v-418h-113v418h-54z" />
    <glyph glyph-name="g" unicode="g" horiz-adv-x="511" 
d="M247 -192q-208 0 -208 133q0 62 66 99q-40 26 -40 77q0 64 55 103q-62 42 -62 134q0 80 48.5 122.5t141.5 42.5q44 0 81 -13h150v-62l-58 -19q17 -36 17 -78q0 -158 -189 -158q-29 0 -59 5q-22 -26 -22 -49q0 -25 34 -25h92q83 0 130.5 -35.5t47.5 -108.5
q0 -168 -225 -168zM166 21q-22 -25 -22 -65q0 -36 21 -52t84 -16q109 0 109 76q0 33 -20.5 45t-66.5 12h-105zM248 267q42 0 60.5 19.5t18.5 63.5q0 46 -17.5 65.5t-61.5 19.5q-41 0 -59 -20t-18 -65q0 -43 18 -63t59 -20z" />
    <glyph glyph-name="h" unicode="h" horiz-adv-x="524" 
d="M74 0v728h114v-268q64 59 138 59q127 0 127 -132v-387h-114v358q0 38 -12.5 52t-41.5 14q-47 0 -97 -45v-379h-114z" />
    <glyph glyph-name="i" unicode="i" horiz-adv-x="293" 
d="M102 0v420l-66 12v74h179v-506h-113zM157 582q-30 0 -51 21t-21 52t21 52.5t52 21.5t52 -21.5t21 -52.5t-21.5 -52t-52.5 -21z" />
    <glyph glyph-name="j" unicode="j" horiz-adv-x="293" 
d="M70 -205l-39 79q44 25 57.5 51t13.5 88v407l-66 12v74h179v-489q0 -101 -31 -147.5t-114 -74.5zM157 582q-30 0 -51 21t-21 52t21 52.5t52 21.5t52 -21.5t21 -52.5t-21.5 -52t-52.5 -21z" />
    <glyph glyph-name="k" unicode="k" horiz-adv-x="494" 
d="M74 0v728h114v-728h-114zM357 0l-164 287l138 219h127l-146 -211l172 -295h-127z" />
    <glyph glyph-name="l" unicode="l" horiz-adv-x="282" 
d="M183 -11q-62 0 -85 32.5t-23 109.5v597h114v-611q0 -24 7.5 -31.5t28.5 -7.5l16 1l14 -77q-35 -13 -72 -13z" />
    <glyph glyph-name="m" unicode="m" horiz-adv-x="761" 
d="M74 0v506h91l12 -54q72 67 142 67q80 0 107 -65q73 65 144 65q120 0 120 -130v-389h-114v359q0 38 -10.5 51.5t-37.5 13.5q-40 0 -89 -42v-382h-114v359q0 38 -10.5 51.5t-37.5 13.5q-37 0 -89 -45v-379h-114z" />
    <glyph glyph-name="n" unicode="n" horiz-adv-x="524" 
d="M74 0v506h91l12 -55q70 68 149 68q127 0 127 -132v-387h-114v358q0 38 -12.5 52t-41.5 14q-47 0 -97 -45v-379h-114z" />
    <glyph glyph-name="o" unicode="o" horiz-adv-x="518" 
d="M259 -13q-213 0 -213 267q0 265 212 265q214 0 214 -266t-213 -266zM259 73q51 0 71 38t20 143q0 106 -20.5 142.5t-71.5 36.5t-71 -37t-20 -143q0 -105 20.5 -142.5t71.5 -37.5z" />
    <glyph glyph-name="p" unicode="p" horiz-adv-x="534" 
d="M74 -197v703h91l13 -53q61 66 135 66q83 0 127 -57.5t44 -201.5q0 -148 -41 -210.5t-130 -62.5q-70 0 -125 51v-235h-114zM276 81q50 0 68 33.5t18 139.5q0 105 -16.5 138.5t-62.5 33.5q-48 0 -95 -45v-262q40 -38 88 -38z" />
    <glyph glyph-name="q" unicode="q" horiz-adv-x="534" 
d="M346 -197v238q-49 -54 -122 -54q-83 0 -128.5 59t-45.5 203q0 147 40.5 208.5t127.5 61.5q82 0 138 -63l13 50h91v-703h-114zM250 81q53 0 96 41v262q-44 42 -89 42q-49 0 -67 -34t-18 -139t16 -138.5t62 -33.5z" />
    <glyph glyph-name="r" unicode="r" horiz-adv-x="361" 
d="M74 0v506h91l13 -64q56 73 132 73q16 0 30 -4l-18 -117q-17 9 -41 9q-50 0 -93 -37v-366h-114z" />
    <glyph glyph-name="s" unicode="s" horiz-adv-x="431" 
d="M205 -13q-104 0 -177 51l40 85q61 -42 127 -42q43 0 61 14.5t18 45.5q0 33 -19 46t-78 29q-60 17 -92 53t-32 104q0 67 42.5 106.5t122.5 39.5q84 0 148 -32l-32 -88q-53 27 -107 27q-65 0 -65 -51q0 -29 15.5 -41t65.5 -25q70 -19 107 -53t37 -110q0 -159 -182 -159z
" />
    <glyph glyph-name="t" unicode="t" horiz-adv-x="335" 
d="M31 418v88h55v127l113 22v-149h99v-88h-99v-293q0 -28 9.5 -39t29.5 -11q14 0 50 12l18 -79q-42 -21 -88 -21q-132 0 -132 117v314h-55z" />
    <glyph glyph-name="u" unicode="u" horiz-adv-x="526" 
d="M205 -13q-61 0 -98 35t-37 103v381h114v-354q0 -39 14 -54.5t43 -15.5q44 0 97 46v378h113v-506h-91l-12 56q-34 -34 -66.5 -51.5t-76.5 -17.5z" />
    <glyph glyph-name="v" unicode="v" horiz-adv-x="483" 
d="M190 0l-169 506h121l70 -238q4 -15 10 -39.5t13 -55t10 -44.5h1q13 79 31 144l68 233h117l-168 -506h-104z" />
    <glyph glyph-name="w" unicode="w" horiz-adv-x="700" 
d="M156 0l-132 506h117l50 -220q16 -77 23 -154h1q8 77 25 143l57 231h110l55 -232q19 -80 26 -141h1q7 73 24 152l49 221h115l-136 -506h-107l-59 241q-10 45 -26 141h-1q-16 -102 -26 -143l-59 -239h-107z" />
    <glyph glyph-name="x" unicode="x" horiz-adv-x="484" 
d="M19 0l158 275l-137 231h132l35 -69q15 -30 41 -92h2q17 53 35 92l32 69h128l-137 -229l156 -277h-132l-51 102q-10 20 -40 92h-2q-17 -47 -40 -92l-52 -102h-128z" />
    <glyph glyph-name="y" unicode="y" horiz-adv-x="484" 
d="M86 -206l-24 93q65 13 93 35t49 78h-28l-155 506h121l73 -278q18 -63 27 -128h1q16 88 27 129l75 277h118l-160 -517q-18 -56 -35.5 -90t-44 -55.5t-56.5 -31.5t-81 -18z" />
    <glyph glyph-name="z" unicode="z" horiz-adv-x="428" 
d="M42 0v88l216 328h-196v90h320v-90l-213 -325h218v-91h-345z" />
    <glyph glyph-name="braceleft" unicode="{" horiz-adv-x="366" 
d="M249 -155q-130 0 -130 138v191q0 42 -17 55t-64 13v97q47 0 64 13.5t17 53.5v189q0 138 130 138h74v-87h-48q-28 0 -37 -13t-9 -49v-196q0 -53 -17 -72.5t-54 -24.5v-2q37 -5 54 -24t17 -72v-200q0 -36 9 -49t37 -13h48v-86h-74z" />
    <glyph glyph-name="bar" unicode="|" horiz-adv-x="256" 
d="M91 -152v916h73v-916h-73z" />
    <glyph glyph-name="braceright" unicode="}" horiz-adv-x="366" 
d="M42 -155v86h48q28 0 37 13t9 49v200q0 52 17 71.5t54 24.5v2q-37 5 -54 25t-17 72v196q0 36 -9 49t-37 13h-48v87h75q129 0 129 -138v-189q0 -40 17 -53.5t64 -13.5v-97q-47 0 -64 -13t-17 -55v-191q0 -138 -129 -138h-75z" />
    <glyph glyph-name="asciitilde" unicode="~" horiz-adv-x="531" 
d="M134 242l-74 42q52 119 133 119q36 0 80.5 -21.5t63.5 -21.5q29 0 59 50l75 -42q-52 -119 -134 -119q-36 0 -80 22t-64 22q-12 0 -23 -8t-17.5 -16.5t-18.5 -26.5z" />
    <glyph glyph-name="nbspace" unicode="&#xa0;" horiz-adv-x="228" 
 />
    <glyph glyph-name="exclamdown" unicode="&#xa1;" horiz-adv-x="290" 
d="M76 -185l25 484h86l26 -484h-137zM142 365q-31 0 -53 22.5t-22 54.5t21.5 53.5t53.5 21.5t54 -22t22 -53q0 -32 -22 -54.5t-54 -22.5z" />
    <glyph glyph-name="cent" unicode="&#xa2;" horiz-adv-x="446" 
d="M210 -131v123q-164 29 -164 262q0 234 164 261v123h88v-122q64 -9 115 -55l-57 -74q-30 30 -63 38v-345q30 5 70 40l55 -73q-50 -50 -120 -58v-120h-88zM168 256q0 -76 11 -114.5t36 -52.5v330q-26 -12 -36.5 -49t-10.5 -114z" />
    <glyph glyph-name="sterling" unicode="&#xa3;" horiz-adv-x="523" 
d="M55 274v92h55q-18 54 -18 103q0 87 54 134.5t146 47.5q105 0 193 -60l-45 -83q-68 43 -134 43q-92 0 -92 -86q0 -40 18 -99h172v-92h-149q3 -21 3 -41q0 -89 -67 -135h289v-98h-423v105q89 42 89 125q0 21 -5 44h-86z" />
    <glyph glyph-name="currency" unicode="&#xa4;" horiz-adv-x="573" 
d="M103 52l-76 76l77 78q-22 47 -22 114q0 62 20 108l-77 78l76 75l68 -67q50 35 118 35q67 0 116 -35l67 67l76 -74l-74 -78q21 -48 21 -111q0 -60 -21 -112l76 -79l-76 -74l-69 68q-48 -33 -115 -33q-69 0 -116 34zM288 177q46 0 67 32.5t21 109.5t-21 108.5t-68 31.5
t-67.5 -31.5t-20.5 -109.5q0 -77 21 -109t68 -32z" />
    <glyph glyph-name="yen" unicode="&#xa5;" horiz-adv-x="597" 
d="M62 302v80h111l-127 256h131l85 -183q24 -54 40 -116q21 79 37 116l85 183h126l-128 -256h113v-80h-153l-24 -48v-26h177v-80h-177v-148h-120v148h-176v80h176v24l-25 50h-151z" />
    <glyph glyph-name="brokenbar" unicode="&#xa6;" horiz-adv-x="256" 
d="M91 -152v391h73v-391h-73zM91 376v388h73v-388h-73z" />
    <glyph glyph-name="section" unicode="&#xa7;" horiz-adv-x="544" 
d="M258 -171q-115 0 -182 54l43 84q32 -23 60 -34t70 -11q45 0 65.5 17t20.5 53q0 14 -6 25.5t-13.5 18.5t-27 15t-32 12t-43.5 13q-86 27 -124 63.5t-38 109.5q0 97 92 132q-44 41 -44 112q0 75 45.5 116.5t135.5 41.5q87 0 162 -39l-37 -86q-59 32 -117 32q-76 0 -76 -61
q0 -31 19.5 -43t81.5 -30q48 -14 74 -24.5t54 -30t40 -48t12 -70.5q0 -99 -91 -136q48 -42 48 -116q0 -83 -48 -126.5t-144 -43.5zM246 328l-18 6q-72 -13 -72 -74q0 -33 25.5 -48.5t103.5 -40.5q7 -3 31 -10q67 15 67 77q0 34 -21.5 48t-87.5 34q-18 5 -28 8z" />
    <glyph glyph-name="dieresis" unicode="&#xa8;" 
d="M368 566q-27 0 -47.5 20t-20.5 48t20 48t47 20t47.5 -20t20.5 -48t-20 -48t-47 -20zM165 566q-27 0 -47.5 20t-20.5 48t20 48t47 20t47.5 -20t20.5 -48t-20 -48t-47 -20z" />
    <glyph glyph-name="copyright" unicode="&#xa9;" horiz-adv-x="749" 
d="M374 -17q-148 0 -233.5 100.5t-85.5 271.5t85.5 271.5t233.5 100.5t233.5 -101t85.5 -271t-85.5 -271t-233.5 -101zM374 37q124 0 190 85.5t66 232.5q0 148 -66 232.5t-190 84.5t-189.5 -84.5t-65.5 -232.5q0 -147 66 -232.5t189 -85.5zM383 123q-89 0 -133 54.5
t-44 172.5q0 125 45.5 176.5t129.5 51.5q87 0 135 -65l-57 -61q-32 40 -75 40q-40 0 -55.5 -26.5t-15.5 -112.5q0 -89 16.5 -117t59.5 -28q39 0 71 41l60 -57q-55 -69 -137 -69z" />
    <glyph glyph-name="ordfeminine" unicode="&#xaa;" horiz-adv-x="462" 
d="M191 172q-68 0 -103 37t-35 107q0 79 49 115t156 36h32v24q0 39 -11.5 55.5t-46.5 16.5q-55 0 -126 -41l-38 77q81 52 175 52q77 0 114.5 -33.5t37.5 -109.5v-325h-83l-12 41q-46 -52 -109 -52zM214 248q39 0 76 37v113h-16q-69 0 -90.5 -18t-21.5 -63q0 -38 11.5 -53.5
t40.5 -15.5z" />
    <glyph glyph-name="guillemotleft" unicode="&#xab;" horiz-adv-x="537" 
d="M404 20l-147 230l147 232l81 -56l-110 -176l109 -175zM192 20l-147 230l147 232l81 -56l-110 -176l109 -175z" />
    <glyph glyph-name="logicalnot" unicode="&#xac;" horiz-adv-x="512" 
d="M324 136v140h-257v104h367v-244h-110z" />
    <glyph glyph-name="registered" unicode="&#xae;" horiz-adv-x="544" 
d="M272 192q-102 0 -164.5 71t-62.5 190t62.5 191t164.5 72t164.5 -72t62.5 -191t-62.5 -190t-164.5 -71zM272 241q81 0 125 55.5t44 156.5q0 102 -44 157.5t-125 55.5q-82 0 -125.5 -55.5t-43.5 -157.5q0 -101 43.5 -156.5t125.5 -55.5zM179 312v289h92q102 0 102 -83
q0 -62 -49 -75q26 -9 38 -52l21 -79h-71l-20 83q-5 19 -12.5 26t-22.5 7h-12v-116h-66zM245 478h28q31 0 31 35q0 32 -31 32h-28v-67z" />
    <glyph glyph-name="macron" unicode="&#xaf;" 
d="M133 608v91h266v-91h-266z" />
    <glyph glyph-name="degree" unicode="&#xb0;" horiz-adv-x="408" 
d="M203 355q-75 0 -117 46.5t-42 128.5q0 80 43.5 125.5t115.5 45.5q75 0 117.5 -45t42.5 -127q0 -80 -44 -127t-116 -47zM204 425q69 0 69 101q0 57 -17 81.5t-53 24.5q-70 0 -70 -100q0 -57 17 -82t54 -25z" />
    <glyph glyph-name="plusminus" unicode="&#xb1;" horiz-adv-x="566" 
d="M228 171v135h-161v103h161v142h110v-142h160v-103h-160v-135h-110zM67 20v102h431v-102h-431z" />
    <glyph glyph-name="twosuperior" unicode="&#xb2;" horiz-adv-x="385" 
d="M46 208v85q111 87 147 128.5t36 85.5q0 61 -62 61q-47 0 -96 -29l-31 74q66 39 142 39q71 0 111.5 -35.5t40.5 -101.5q0 -60 -39.5 -109t-138.5 -119h186v-79h-296z" />
    <glyph glyph-name="threesuperior" unicode="&#xb3;" horiz-adv-x="378" 
d="M166 163q-75 0 -135 23l17 75q53 -15 101 -15t67 17t19 56q0 37 -19.5 51t-65.5 14h-40v77h43q75 0 75 57q0 27 -16 40t-53 13q-42 0 -97 -22l-23 71q64 32 139 32q69 0 109.5 -32t40.5 -88q0 -82 -71 -108q41 -11 63 -41t22 -71q0 -70 -43 -109.5t-133 -39.5z" />
    <glyph glyph-name="acute" unicode="&#xb4;" 
d="M202 561l-38 65l192 138l57 -100z" />
    <glyph glyph-name="mu" unicode="&#xb5;" horiz-adv-x="526" 
d="M225 -11q-23 0 -41 9v-195h-114v703h114v-354q0 -39 14 -54.5t43 -15.5q44 0 97 46v378h113v-506h-91l-12 56q-63 -67 -123 -67z" />
    <glyph glyph-name="paragraph" unicode="&#xb6;" horiz-adv-x="583" 
d="M247 -87v432h-8q-92 0 -140.5 46t-48.5 128q0 85 52 129t144 44h258v-779h-89v701h-79v-701h-89z" />
    <glyph glyph-name="periodcentered" unicode="&#xb7;" horiz-adv-x="282" 
d="M140 248q-32 0 -55 23t-23 57q0 33 23 56t55 23q34 0 57 -23t23 -56q0 -34 -23 -57t-57 -23z" />
    <glyph glyph-name="cedilla" unicode="&#xb8;" 
d="M258 -218q-47 0 -81 22l22 53q30 -14 54 -14q38 0 38 31t-39 31q-16 0 -39 -5l30 100h67l-17 -48q72 -8 72 -82q0 -88 -107 -88z" />
    <glyph glyph-name="onesuperior" unicode="&#xb9;" horiz-adv-x="359" 
d="M59 208v75h85v235l-77 -33l-27 55l131 106h70v-363h78v-75h-260z" />
    <glyph glyph-name="ordmasculine" unicode="&#xba;" horiz-adv-x="497" 
d="M248 172q-92 0 -143 59t-51 182q0 238 193 238q92 0 143.5 -58.5t51.5 -181.5q0 -122 -51 -180.5t-143 -58.5zM248 253q44 0 62 33.5t18 125.5q0 94 -18 126t-63 32t-62.5 -32.5t-17.5 -126.5q0 -92 18.5 -125t62.5 -33z" />
    <glyph glyph-name="guillemotright" unicode="&#xbb;" horiz-adv-x="537" 
d="M132 20l-80 56l109 175l-109 176l80 55l147 -231zM344 20l-80 56l110 175l-109 176l79 55l147 -231z" />
    <glyph glyph-name="onequarter" unicode="&#xbc;" horiz-adv-x="1011" 
d="M594 60v85l125 289h99l-128 -295h125v159l96 16v-175h47v-79h-47v-98h-96v98h-221zM254 0l390 638h101l-391 -638h-100zM59 208v75h85v235l-77 -33l-27 55l131 106h70v-363h78v-75h-260z" />
    <glyph glyph-name="onehalf" unicode="&#xbd;" horiz-adv-x="1010" 
d="M661 0v85q111 87 147.5 128.5t36.5 85.5q0 61 -62 61q-46 0 -97 -29l-30 74q66 39 142 39q71 0 111.5 -35.5t40.5 -101.5q0 -60 -39.5 -109t-138.5 -119h186v-79h-297zM249 0l390 638h100l-390 -638h-100zM59 208v75h85v235l-77 -33l-27 55l131 106h70v-363h78v-75h-260z
" />
    <glyph glyph-name="threequarters" unicode="&#xbe;" horiz-adv-x="1024" 
d="M613 60v85l125 289h99l-128 -295h124v159l96 16v-175h48v-79h-48v-98h-96v98h-220zM166 163q-75 0 -135 23l17 75q53 -15 101 -15t67 17t19 56q0 37 -19.5 51t-65.5 14h-40v77h43q75 0 75 57q0 27 -16 40t-53 13q-42 0 -97 -22l-23 71q64 32 139 32q69 0 109.5 -32
t40.5 -88q0 -82 -71 -108q41 -11 63 -41t22 -71q0 -70 -43 -109.5t-133 -39.5zM270 0l391 638h100l-391 -638h-100z" />
    <glyph glyph-name="questiondown" unicode="&#xbf;" horiz-adv-x="445" 
d="M232 -197q-83 0 -131.5 39.5t-48.5 122.5q0 66 25.5 101t82.5 73q25 17 34 36.5t9 51.5v72h98v-87q0 -54 -16 -85.5t-53 -55.5q-36 -25 -49 -44t-13 -56q0 -36 17 -52t58 -16q56 0 112 40l47 -82q-79 -58 -172 -58zM250 365q-31 0 -53 22.5t-22 54.5t21.5 53.5t53.5 21.5
t54 -22t22 -53q0 -32 -22 -54.5t-54 -22.5z" />
    <glyph glyph-name="Agrave" unicode="&#xc0;" horiz-adv-x="576" 
d="M22 0l206 692h128l197 -692h-130l-44 171h-188l-46 -171h-123zM352 735l-211 103l56 100l193 -138zM249 384l-32 -118h138l-30 118q-22 87 -36 172h-2q-12 -79 -38 -172z" />
    <glyph glyph-name="Aacute" unicode="&#xc1;" horiz-adv-x="576" 
d="M22 0l206 692h128l197 -692h-130l-44 171h-188l-46 -171h-123zM223 735l-38 65l192 138l57 -100zM249 384l-32 -118h138l-30 118q-22 87 -36 172h-2q-12 -79 -38 -172z" />
    <glyph glyph-name="Acircumflex" unicode="&#xc2;" horiz-adv-x="576" 
d="M22 0l206 692h128l197 -692h-130l-44 171h-188l-46 -171h-123zM167 739l-38 53l124 129h69l123 -129l-38 -53l-121 78zM249 384l-32 -118h138l-30 118q-22 87 -36 172h-2q-12 -79 -38 -172z" />
    <glyph glyph-name="Atilde" unicode="&#xc3;" horiz-adv-x="576" 
d="M22 0l206 692h128l197 -692h-130l-44 171h-188l-46 -171h-123zM179 748l-59 41q42 97 110 97q31 0 66 -18.5t52 -18.5q15 0 25.5 9t24.5 30l59 -41q-42 -97 -110 -97q-31 0 -66 18.5t-52 18.5q-23 0 -50 -39zM249 384l-32 -118h138l-30 118q-22 87 -36 172h-2
q-12 -79 -38 -172z" />
    <glyph glyph-name="Adieresis" unicode="&#xc4;" horiz-adv-x="576" 
d="M22 0l206 692h128l197 -692h-130l-44 171h-188l-46 -171h-123zM249 384l-32 -118h138l-30 118q-22 87 -36 172h-2q-12 -79 -38 -172zM389 740q-27 0 -47.5 20t-20.5 48t20 48t47 20t47.5 -20t20.5 -48t-20 -48t-47 -20zM186 740q-27 0 -47.5 20t-20.5 48t20 48t47 20
t47.5 -20t20.5 -48t-20 -48t-47 -20z" />
    <glyph glyph-name="Aring" unicode="&#xc5;" horiz-adv-x="576" 
d="M22 0l206 692h128l197 -692h-130l-44 171h-188l-46 -171h-123zM288 729q-47 0 -76 31.5t-29 77.5q0 47 29 78.5t76 31.5q48 0 77 -31.5t29 -78.5q0 -46 -29 -77.5t-77 -31.5zM249 384l-32 -118h138l-30 118q-22 87 -36 172h-2q-12 -79 -38 -172zM288 783q40 0 40 55
t-40 55q-39 0 -39 -55t39 -55z" />
    <glyph glyph-name="AE" unicode="&#xc6;" horiz-adv-x="838" 
d="M16 0l350 692h410v-103h-241v-177h193v-101h-193v-207h256v-104h-377v156h-197l-76 -156h-125zM350 429l-86 -177h150v162q0 17 2 97.5t2 84.5h-2q-40 -113 -66 -167z" />
    <glyph glyph-name="Ccedilla" unicode="&#xc7;" horiz-adv-x="547" 
d="M272 -218q-47 0 -81 22l22 53q30 -14 54 -14q38 0 38 31t-39 31q-16 0 -39 -5l28 95q-102 21 -150.5 107t-48.5 242q0 184 67 272.5t205 88.5q110 0 172 -54l-52 -91q-53 43 -116 43q-84 0 -113.5 -54.5t-29.5 -197.5q0 -147 31 -204.5t114 -57.5q64 0 123 50l54 -88
q-78 -64 -181 -64h-11l-12 -35q72 -8 72 -82q0 -88 -107 -88z" />
    <glyph glyph-name="Egrave" unicode="&#xc8;" horiz-adv-x="509" 
d="M85 0v692h362v-103h-241v-177h193v-101h-193v-207h256v-104h-377zM342 735l-211 103l56 100l193 -138z" />
    <glyph glyph-name="Eacute" unicode="&#xc9;" horiz-adv-x="509" 
d="M85 0v692h362v-103h-241v-177h193v-101h-193v-207h256v-104h-377zM196 735l-38 65l192 138l57 -100z" />
    <glyph glyph-name="Ecircumflex" unicode="&#xca;" horiz-adv-x="509" 
d="M85 0v692h362v-103h-241v-177h193v-101h-193v-207h256v-104h-377zM145 739l-38 53l124 129h69l123 -129l-38 -53l-121 78z" />
    <glyph glyph-name="Edieresis" unicode="&#xcb;" horiz-adv-x="509" 
d="M85 0v692h362v-103h-241v-177h193v-101h-193v-207h256v-104h-377zM366 740q-27 0 -47.5 20t-20.5 48t20 48t47 20t47.5 -20t20.5 -48t-20 -48t-47 -20zM163 740q-27 0 -47.5 20t-20.5 48t20 48t47 20t47.5 -20t20.5 -48t-20 -48t-47 -20z" />
    <glyph glyph-name="Igrave" unicode="&#xcc;" horiz-adv-x="372" 
d="M56 0v67l69 11v536l-69 12v66h260v-66l-69 -12v-536l69 -11v-67h-260zM261 735l-211 103l56 100l193 -138z" />
    <glyph glyph-name="Iacute" unicode="&#xcd;" horiz-adv-x="372" 
d="M56 0v67l69 11v536l-69 12v66h260v-66l-69 -12v-536l69 -11v-67h-260zM114 735l-38 65l192 138l57 -100z" />
    <glyph glyph-name="Icircumflex" unicode="&#xce;" horiz-adv-x="372" 
d="M56 0v67l69 11v536l-69 12v66h260v-66l-69 -12v-536l69 -11v-67h-260zM66 739l-38 53l124 129h69l123 -129l-38 -53l-121 78z" />
    <glyph glyph-name="Idieresis" unicode="&#xcf;" horiz-adv-x="372" 
d="M56 0v67l69 11v536l-69 12v66h260v-66l-69 -12v-536l69 -11v-67h-260zM288 740q-27 0 -47.5 20t-20.5 48t20 48t47 20t47.5 -20t20.5 -48t-20 -48t-47 -20zM85 740q-27 0 -47.5 20t-20.5 48t20 48t47 20t47.5 -20t20.5 -48t-20 -48t-47 -20z" />
    <glyph glyph-name="Eth" unicode="&#xd0;" horiz-adv-x="608" 
d="M22 292v99h58v301h200q141 0 206.5 -78.5t65.5 -266.5q0 -185 -62 -266t-205 -81h-205v292h-58zM201 103h81q81 0 110 51t29 198q0 139 -29 188.5t-111 49.5h-80v-199h117v-99h-117v-189z" />
    <glyph glyph-name="Ntilde" unicode="&#xd1;" horiz-adv-x="617" 
d="M85 0v692h117l168 -350q36 -78 64 -165h1q-13 114 -13 190v325h111v-692h-123l-156 330q-37 77 -70 178h-2q13 -107 13 -204v-304h-110zM202 748l-59 41q42 97 110 97q31 0 66 -18.5t52 -18.5q15 0 25.5 9t24.5 30l59 -41q-42 -97 -110 -97q-31 0 -66 18.5t-52 18.5
q-23 0 -50 -39z" />
    <glyph glyph-name="Ograve" unicode="&#xd2;" horiz-adv-x="644" 
d="M325 -13q-134 0 -200.5 87t-66.5 270q0 361 266 361q265 0 265 -358q0 -184 -65.5 -272t-198.5 -88zM324 84q74 0 104 59.5t30 201.5t-30 202t-104 60t-104.5 -59.5t-30.5 -199.5q0 -142 30.5 -203t104.5 -61zM388 735l-211 103l56 100l193 -138z" />
    <glyph glyph-name="Oacute" unicode="&#xd3;" horiz-adv-x="644" 
d="M323 -13q-134 0 -200.5 87t-66.5 270q0 361 266 361q265 0 265 -358q0 -184 -65.5 -272t-198.5 -88zM322 84q74 0 104 59.5t30 201.5t-30 202t-104 60t-104.5 -59.5t-30.5 -199.5q0 -142 30.5 -203t104.5 -61zM257 735l-38 65l192 138l57 -100z" />
    <glyph glyph-name="Ocircumflex" unicode="&#xd4;" horiz-adv-x="644" 
d="M323 -13q-134 0 -200.5 87t-66.5 270q0 361 266 361q265 0 265 -358q0 -184 -65.5 -272t-198.5 -88zM322 84q74 0 104 59.5t30 201.5t-30 202t-104 60t-104.5 -59.5t-30.5 -199.5q0 -142 30.5 -203t104.5 -61zM201 739l-38 53l124 129h69l123 -129l-38 -53l-121 78z" />
    <glyph glyph-name="Otilde" unicode="&#xd5;" horiz-adv-x="644" 
d="M323 -13q-134 0 -200.5 87t-66.5 270q0 361 266 361q265 0 265 -358q0 -184 -65.5 -272t-198.5 -88zM322 84q74 0 104 59.5t30 201.5t-30 202t-104 60t-104.5 -59.5t-30.5 -199.5q0 -142 30.5 -203t104.5 -61zM213 748l-59 41q42 97 110 97q31 0 66 -18.5t52 -18.5
q15 0 25.5 9t24.5 30l59 -41q-42 -97 -110 -97q-31 0 -66 18.5t-52 18.5q-23 0 -50 -39z" />
    <glyph glyph-name="Odieresis" unicode="&#xd6;" horiz-adv-x="644" 
d="M323 -13q-134 0 -200.5 87t-66.5 270q0 361 266 361q265 0 265 -358q0 -184 -65.5 -272t-198.5 -88zM322 84q74 0 104 59.5t30 201.5t-30 202t-104 60t-104.5 -59.5t-30.5 -199.5q0 -142 30.5 -203t104.5 -61zM423 740q-27 0 -47.5 20t-20.5 48t20 48t47 20t47.5 -20
t20.5 -48t-20 -48t-47 -20zM220 740q-27 0 -47.5 20t-20.5 48t20 48t47 20t47.5 -20t20.5 -48t-20 -48t-47 -20z" />
    <glyph glyph-name="multiply" unicode="&#xd7;" horiz-adv-x="552" 
d="M144 87l-69 74l132 137l-134 140l70 73l134 -139l130 138l70 -73l-131 -138l132 -140l-69 -73l-134 140z" />
    <glyph glyph-name="Oslash" unicode="&#xd8;" horiz-adv-x="644" 
d="M128 -89l-73 42l68 120q-67 86 -67 271q0 361 266 361q84 0 141 -36l56 98l73 -42l-67 -117q62 -89 62 -261q0 -184 -65.5 -272t-198.5 -88q-79 0 -135 30zM185 348q0 -95 12 -147l212 372q-31 34 -87 34q-75 0 -106 -59.5t-31 -199.5zM322 83q74 0 105 60.5t31 201.5
q0 76 -9 130l-208 -365q31 -27 81 -27z" />
    <glyph glyph-name="Ugrave" unicode="&#xd9;" horiz-adv-x="622" 
d="M273 -13q-89 0 -141.5 54t-52.5 173v478h121v-479q0 -67 18.5 -94.5t73.5 -27.5q69 0 124 48v553h121v-692h-88l-18 56q-65 -69 -158 -69zM377 735l-211 103l56 100l193 -138z" />
    <glyph glyph-name="Uacute" unicode="&#xda;" horiz-adv-x="622" 
d="M273 -13q-89 0 -141.5 54t-52.5 173v478h121v-479q0 -67 18.5 -94.5t73.5 -27.5q69 0 124 48v553h121v-692h-88l-18 56q-65 -69 -158 -69zM251 735l-38 65l192 138l57 -100z" />
    <glyph glyph-name="Ucircumflex" unicode="&#xdb;" horiz-adv-x="622" 
d="M273 -13q-89 0 -141.5 54t-52.5 173v478h121v-479q0 -67 18.5 -94.5t73.5 -27.5q69 0 124 48v553h121v-692h-88l-18 56q-65 -69 -158 -69zM192 739l-38 53l124 129h69l123 -129l-38 -53l-121 78z" />
    <glyph glyph-name="Udieresis" unicode="&#xdc;" horiz-adv-x="622" 
d="M273 -13q-89 0 -141.5 54t-52.5 173v478h121v-479q0 -67 18.5 -94.5t73.5 -27.5q69 0 124 48v553h121v-692h-88l-18 56q-65 -69 -158 -69zM413 740q-27 0 -47.5 20t-20.5 48t20 48t47 20t47.5 -20t20.5 -48t-20 -48t-47 -20zM210 740q-27 0 -47.5 20t-20.5 48t20 48
t47 20t47.5 -20t20.5 -48t-20 -48t-47 -20z" />
    <glyph glyph-name="Yacute" unicode="&#xdd;" horiz-adv-x="545" 
d="M210 0v287l-189 405h136l79 -189q28 -70 39 -115q20 74 36 114l83 190h130l-193 -405v-287h-121zM231 735l-38 65l192 138l57 -100z" />
    <glyph glyph-name="Thorn" unicode="&#xde;" horiz-adv-x="562" 
d="M84 0v692h121v-110h82q116 0 173.5 -50.5t57.5 -159.5q0 -108 -50.5 -164t-169.5 -56h-93v-152h-121zM205 252h86q54 0 78 24.5t24 87.5q0 65 -23.5 90.5t-77.5 25.5h-87v-228z" />
    <glyph glyph-name="germandbls" unicode="&#xdf;" horiz-adv-x="553" 
d="M328 -10q-54 0 -95 16l16 84q31 -9 59 -9q84 0 84 87q0 10 -1 19.5t-4.5 18t-5.5 14.5t-8 14t-8.5 11.5t-11.5 11.5t-11 10t-12.5 10.5t-12.5 10.5q-23 19 -33.5 29.5t-20.5 31.5t-10 46q0 29 14 52t31 35.5t31 32.5t14 45q0 35 -18 50t-56 15q-44 0 -62.5 -28.5
t-18.5 -90.5v-506h-113v515q0 100 52 150.5t145 50.5q86 0 133.5 -39.5t47.5 -112.5q0 -36 -14.5 -64t-32.5 -41.5t-32.5 -27.5t-14.5 -25q0 -12 8.5 -21t36.5 -30q10 -8 16 -12q93 -70 93 -172q0 -90 -50 -135.5t-135 -45.5z" />
    <glyph glyph-name="agrave" unicode="&#xe0;" horiz-adv-x="490" 
d="M194 -13q-75 0 -113 41.5t-38 118.5q0 87 54 127t172 40h36v29q0 44 -12 63t-52 19q-59 0 -140 -46l-42 81q91 59 194 59q86 0 126 -37t40 -121v-361h-89l-14 44q-53 -57 -122 -57zM317 561l-211 103l56 100l193 -138zM219 70q44 0 86 42v128h-18q-78 0 -103 -20.5
t-25 -71.5q0 -43 13.5 -60.5t46.5 -17.5z" />
    <glyph glyph-name="aacute" unicode="&#xe1;" horiz-adv-x="490" 
d="M194 -13q-75 0 -113 41.5t-38 118.5q0 87 54 127t172 40h36v29q0 44 -12 63t-52 19q-59 0 -140 -46l-42 81q91 59 194 59q86 0 126 -37t40 -121v-361h-89l-14 44q-53 -57 -122 -57zM164 561l-38 65l192 138l57 -100zM219 70q44 0 86 42v128h-18q-78 0 -103 -20.5
t-25 -71.5q0 -43 13.5 -60.5t46.5 -17.5z" />
    <glyph glyph-name="acircumflex" unicode="&#xe2;" horiz-adv-x="490" 
d="M194 -13q-75 0 -113 41.5t-38 118.5q0 87 54 127t172 40h36v29q0 44 -12 63t-52 19q-59 0 -140 -46l-42 81q91 59 194 59q86 0 126 -37t40 -121v-361h-89l-14 44q-53 -57 -122 -57zM125 565l-38 53l124 129h69l123 -129l-38 -53l-121 78zM219 70q44 0 86 42v128h-18
q-78 0 -103 -20.5t-25 -71.5q0 -43 13.5 -60.5t46.5 -17.5z" />
    <glyph glyph-name="atilde" unicode="&#xe3;" horiz-adv-x="490" 
d="M194 -13q-75 0 -113 41.5t-38 118.5q0 87 54 127t172 40h36v29q0 44 -12 63t-52 19q-59 0 -140 -46l-42 81q91 59 194 59q86 0 126 -37t40 -121v-361h-89l-14 44q-53 -57 -122 -57zM131 574l-59 41q42 97 110 97q31 0 66 -18.5t52 -18.5q15 0 25.5 9t24.5 30l59 -41
q-42 -97 -110 -97q-31 0 -66 18.5t-52 18.5q-23 0 -50 -39zM219 70q44 0 86 42v128h-18q-78 0 -103 -20.5t-25 -71.5q0 -43 13.5 -60.5t46.5 -17.5z" />
    <glyph glyph-name="adieresis" unicode="&#xe4;" horiz-adv-x="490" 
d="M194 -13q-75 0 -113 41.5t-38 118.5q0 87 54 127t172 40h36v29q0 44 -12 63t-52 19q-59 0 -140 -46l-42 81q91 59 194 59q86 0 126 -37t40 -121v-361h-89l-14 44q-53 -57 -122 -57zM219 70q44 0 86 42v128h-18q-78 0 -103 -20.5t-25 -71.5q0 -43 13.5 -60.5t46.5 -17.5z
M348 566q-27 0 -47.5 20t-20.5 48t20 48t47 20t47.5 -20t20.5 -48t-20 -48t-47 -20zM145 566q-27 0 -47.5 20t-20.5 48t20 48t47 20t47.5 -20t20.5 -48t-20 -48t-47 -20z" />
    <glyph glyph-name="aring" unicode="&#xe5;" horiz-adv-x="490" 
d="M194 -13q-75 0 -113 41.5t-38 118.5q0 87 54 127t172 40h36v29q0 44 -12 63t-52 19q-59 0 -140 -46l-42 81q91 59 194 59q86 0 126 -37t40 -121v-361h-89l-14 44q-53 -57 -122 -57zM248 562q-47 0 -76 31.5t-29 77.5q0 47 29 78.5t76 31.5q48 0 77 -31.5t29 -78.5
q0 -46 -29 -77.5t-77 -31.5zM219 70q44 0 86 42v128h-18q-78 0 -103 -20.5t-25 -71.5q0 -43 13.5 -60.5t46.5 -17.5zM248 616q40 0 40 55t-40 55q-39 0 -39 -55t39 -55z" />
    <glyph glyph-name="ae" unicode="&#xe6;" horiz-adv-x="748" 
d="M196 -13q-76 0 -114.5 41t-38.5 117q0 85 54 124t172 39h36v35q0 44 -12 63t-52 19q-59 0 -140 -46l-42 81q91 59 194 59q88 0 121 -52q46 52 129 52q104 0 152.5 -62t48.5 -199v-30h-284q2 -89 25 -120t79 -31q61 0 117 44l52 -75q-69 -59 -168 -59q-121 0 -170 82
q-67 -82 -159 -82zM219 70q44 0 86 42v120h-18q-78 0 -103 -19t-25 -68q0 -42 13.5 -58.5t46.5 -16.5zM505 434q-40 0 -59.5 -27t-23.5 -99h165q-1 71 -18 98.5t-64 27.5z" />
    <glyph glyph-name="ccedilla" unicode="&#xe7;" horiz-adv-x="437" 
d="M211 -218q-47 0 -81 22l22 53q30 -14 54 -14q38 0 38 31t-39 31q-17 0 -39 -5l28 94q-148 33 -148 260q0 139 52 202t154 63q89 0 150 -58l-59 -76q-39 41 -86 41q-51 0 -70 -33t-19 -137t20.5 -140t73.5 -36q27 0 46 10t42 32l56 -75q-59 -59 -148 -60l-12 -35
q72 -8 72 -82q0 -88 -107 -88z" />
    <glyph glyph-name="egrave" unicode="&#xe8;" horiz-adv-x="497" 
d="M272 -13q-115 0 -170.5 63.5t-55.5 203.5q0 265 205 265q103 0 151.5 -62t48.5 -199v-37h-284q3 -84 25.5 -113t78.5 -29t116 45l54 -78q-70 -59 -169 -59zM333 561l-211 103l56 100l193 -138zM252 434q-40 0 -60 -28t-24 -104h166q-1 75 -18 103.5t-64 28.5z" />
    <glyph glyph-name="eacute" unicode="&#xe9;" horiz-adv-x="497" 
d="M272 -13q-115 0 -170.5 63.5t-55.5 203.5q0 265 205 265q103 0 151.5 -62t48.5 -199v-37h-284q3 -84 25.5 -113t78.5 -29t116 45l54 -78q-70 -59 -169 -59zM176 561l-38 65l192 138l57 -100zM252 434q-40 0 -60 -28t-24 -104h166q-1 75 -18 103.5t-64 28.5z" />
    <glyph glyph-name="ecircumflex" unicode="&#xea;" horiz-adv-x="497" 
d="M272 -13q-115 0 -170.5 63.5t-55.5 203.5q0 265 205 265q103 0 151.5 -62t48.5 -199v-37h-284q3 -84 25.5 -113t78.5 -29t116 45l54 -78q-70 -59 -169 -59zM131 565l-38 53l124 129h69l123 -129l-38 -53l-121 78zM252 434q-40 0 -60 -28t-24 -104h166q-1 75 -18 103.5
t-64 28.5z" />
    <glyph glyph-name="edieresis" unicode="&#xeb;" horiz-adv-x="497" 
d="M272 -13q-115 0 -170.5 63.5t-55.5 203.5q0 265 205 265q103 0 151.5 -62t48.5 -199v-37h-284q3 -84 25.5 -113t78.5 -29t116 45l54 -78q-70 -59 -169 -59zM252 434q-40 0 -60 -28t-24 -104h166q-1 75 -18 103.5t-64 28.5zM353 566q-27 0 -47.5 20t-20.5 48t20 48t47 20
t47.5 -20t20.5 -48t-20 -48t-47 -20zM150 566q-27 0 -47.5 20t-20.5 48t20 48t47 20t47.5 -20t20.5 -48t-20 -48t-47 -20z" />
    <glyph glyph-name="igrave" unicode="&#xec;" horiz-adv-x="293" 
d="M102 0v420l-66 12v74h179v-506h-113zM192 561l-211 103l56 100l193 -138z" />
    <glyph glyph-name="iacute" unicode="&#xed;" horiz-adv-x="293" 
d="M102 0v420l-66 12v74h179v-506h-113zM109 561l-38 65l192 138l57 -100z" />
    <glyph glyph-name="icircumflex" unicode="&#xee;" horiz-adv-x="293" 
d="M102 0v420l-66 12v74h179v-506h-113zM22 565l-38 53l124 129h69l123 -129l-38 -53l-121 78z" />
    <glyph glyph-name="idieresis" unicode="&#xef;" horiz-adv-x="293" 
d="M102 0v420l-66 12v74h179v-506h-113zM247 566q-27 0 -47.5 20t-20.5 48t20 48t47 20t47.5 -20t20.5 -48t-20 -48t-47 -20zM44 566q-27 0 -47.5 20t-20.5 48t20 48t47 20t47.5 -20t20.5 -48t-20 -48t-47 -20z" />
    <glyph glyph-name="eth" unicode="&#xf0;" horiz-adv-x="518" 
d="M156 524l-29 64l77 34q-30 22 -80 50l40 70q79 -36 136 -78l103 45l29 -63l-75 -33q116 -124 116 -336q0 -154 -55 -222t-159 -68q-102 0 -158 64t-56 197q0 128 52 188.5t137 60.5q60 0 95 -35q-23 62 -67 109zM259 73q50 0 71.5 39t21.5 136q0 91 -22 127t-72 36
q-52 0 -71.5 -34t-19.5 -131t21 -135t71 -38z" />
    <glyph glyph-name="ntilde" unicode="&#xf1;" horiz-adv-x="524" 
d="M74 0v506h91l12 -55q70 68 149 68q127 0 127 -132v-387h-114v358q0 38 -12.5 52t-41.5 14q-47 0 -97 -45v-379h-114zM152 574l-59 41q42 97 110 97q31 0 66 -18.5t52 -18.5q15 0 25.5 9t24.5 30l59 -41q-42 -97 -110 -97q-31 0 -66 18.5t-52 18.5q-23 0 -50 -39z" />
    <glyph glyph-name="ograve" unicode="&#xf2;" horiz-adv-x="518" 
d="M259 -13q-213 0 -213 267q0 265 212 265q214 0 214 -266t-213 -266zM259 73q51 0 71 38t20 143q0 106 -20.5 142.5t-71.5 36.5t-71 -37t-20 -143q0 -105 20.5 -142.5t71.5 -37.5zM323 561l-211 103l56 100l193 -138z" />
    <glyph glyph-name="oacute" unicode="&#xf3;" horiz-adv-x="518" 
d="M259 -13q-213 0 -213 267q0 265 212 265q214 0 214 -266t-213 -266zM259 73q51 0 71 38t20 143q0 106 -20.5 142.5t-71.5 36.5t-71 -37t-20 -143q0 -105 20.5 -142.5t71.5 -37.5zM194 561l-38 65l192 138l57 -100z" />
    <glyph glyph-name="ocircumflex" unicode="&#xf4;" horiz-adv-x="518" 
d="M259 -13q-213 0 -213 267q0 265 212 265q214 0 214 -266t-213 -266zM259 73q51 0 71 38t20 143q0 106 -20.5 142.5t-71.5 36.5t-71 -37t-20 -143q0 -105 20.5 -142.5t71.5 -37.5zM138 565l-38 53l124 129h69l123 -129l-38 -53l-121 78z" />
    <glyph glyph-name="otilde" unicode="&#xf5;" horiz-adv-x="518" 
d="M259 -13q-213 0 -213 267q0 265 212 265q214 0 214 -266t-213 -266zM259 73q51 0 71 38t20 143q0 106 -20.5 142.5t-71.5 36.5t-71 -37t-20 -143q0 -105 20.5 -142.5t71.5 -37.5zM150 574l-59 41q42 97 110 97q31 0 66 -18.5t52 -18.5q15 0 25.5 9t24.5 30l59 -41
q-42 -97 -110 -97q-31 0 -66 18.5t-52 18.5q-23 0 -50 -39z" />
    <glyph glyph-name="odieresis" unicode="&#xf6;" horiz-adv-x="518" 
d="M259 -13q-213 0 -213 267q0 265 212 265q214 0 214 -266t-213 -266zM259 73q51 0 71 38t20 143q0 106 -20.5 142.5t-71.5 36.5t-71 -37t-20 -143q0 -105 20.5 -142.5t71.5 -37.5zM360 566q-27 0 -47.5 20t-20.5 48t20 48t47 20t47.5 -20t20.5 -48t-20 -48t-47 -20z
M157 566q-27 0 -47.5 20t-20.5 48t20 48t47 20t47.5 -20t20.5 -48t-20 -48t-47 -20z" />
    <glyph glyph-name="divide" unicode="&#xf7;" horiz-adv-x="566" 
d="M67 247v104h431v-104h-431zM282 418q-32 0 -54.5 22.5t-22.5 55.5q0 32 22.5 54.5t54.5 22.5t55 -22.5t23 -54.5q0 -33 -23 -55.5t-55 -22.5zM282 25q-32 0 -54.5 23t-22.5 55t22.5 54.5t54.5 22.5t55 -22.5t23 -54.5t-23 -55t-55 -23z" />
    <glyph glyph-name="oslash" unicode="&#xf8;" horiz-adv-x="518" 
d="M115 -78l-68 40l52 92q-53 67 -53 200q0 265 212 265q54 0 96 -18l49 85l68 -40l-53 -94q54 -68 54 -199q0 -266 -213 -266q-55 0 -97 18zM259 73q51 0 71 38t20 143q0 44 -3 74l-139 -242q17 -13 51 -13zM167 253q0 -54 3 -75l138 242q-19 13 -50 13q-51 0 -71 -37
t-20 -143z" />
    <glyph glyph-name="ugrave" unicode="&#xf9;" horiz-adv-x="526" 
d="M205 -13q-61 0 -98 35t-37 103v381h114v-354q0 -39 14 -54.5t43 -15.5q44 0 97 46v378h113v-506h-91l-12 56q-34 -34 -66.5 -51.5t-76.5 -17.5zM324 561l-211 103l56 100l193 -138z" />
    <glyph glyph-name="uacute" unicode="&#xfa;" horiz-adv-x="526" 
d="M205 -13q-61 0 -98 35t-37 103v381h114v-354q0 -39 14 -54.5t43 -15.5q44 0 97 46v378h113v-506h-91l-12 56q-34 -34 -66.5 -51.5t-76.5 -17.5zM198 561l-38 65l192 138l57 -100z" />
    <glyph glyph-name="ucircumflex" unicode="&#xfb;" horiz-adv-x="526" 
d="M205 -13q-61 0 -98 35t-37 103v381h114v-354q0 -39 14 -54.5t43 -15.5q44 0 97 46v378h113v-506h-91l-12 56q-34 -34 -66.5 -51.5t-76.5 -17.5zM142 565l-38 53l124 129h69l123 -129l-38 -53l-121 78z" />
    <glyph glyph-name="udieresis" unicode="&#xfc;" horiz-adv-x="526" 
d="M205 -13q-61 0 -98 35t-37 103v381h114v-354q0 -39 14 -54.5t43 -15.5q44 0 97 46v378h113v-506h-91l-12 56q-34 -34 -66.5 -51.5t-76.5 -17.5zM363 566q-27 0 -47.5 20t-20.5 48t20 48t47 20t47.5 -20t20.5 -48t-20 -48t-47 -20zM160 566q-27 0 -47.5 20t-20.5 48t20 48
t47 20t47.5 -20t20.5 -48t-20 -48t-47 -20z" />
    <glyph glyph-name="yacute" unicode="&#xfd;" horiz-adv-x="484" 
d="M86 -206l-24 93q65 13 93 35t49 78h-28l-155 506h121l73 -278q18 -63 27 -128h1q16 88 27 129l75 277h118l-160 -517q-18 -56 -35.5 -90t-44 -55.5t-56.5 -31.5t-81 -18zM189 561l-38 65l192 138l57 -100z" />
    <glyph glyph-name="thorn" unicode="&#xfe;" horiz-adv-x="531" 
d="M74 -197v925h114v-266q53 57 125 57q83 0 127 -57.5t44 -201.5q0 -148 -41 -210.5t-130 -62.5q-70 0 -125 51v-235h-114zM276 81q50 0 68 33.5t18 139.5q0 105 -16.5 138.5t-62.5 33.5q-48 0 -95 -45v-262q40 -38 88 -38z" />
    <glyph glyph-name="ydieresis" unicode="&#xff;" horiz-adv-x="484" 
d="M86 -206l-24 93q65 13 93 35t49 78h-28l-155 506h121l73 -278q18 -63 27 -128h1q16 88 27 129l75 277h118l-160 -517q-18 -56 -35.5 -90t-44 -55.5t-56.5 -31.5t-81 -18zM346 566q-27 0 -47.5 20t-20.5 48t20 48t47 20t47.5 -20t20.5 -48t-20 -48t-47 -20zM143 566
q-27 0 -47.5 20t-20.5 48t20 48t47 20t47.5 -20t20.5 -48t-20 -48t-47 -20z" />
    <glyph glyph-name="dotlessi" unicode="&#x131;" horiz-adv-x="293" 
d="M102 0v420l-66 12v74h179v-506h-113z" />
    <glyph glyph-name="Lslash" unicode="&#x141;" horiz-adv-x="475" 
d="M23 232v100l65 24v336h120v-292l142 52v-101l-142 -52v-195h223v-104h-343v255z" />
    <glyph glyph-name="lslash" unicode="&#x142;" horiz-adv-x="290" 
d="M24 270v96l60 27v335h113v-285l72 33v-96l-72 -33v-230q0 -23 7.5 -31t29.5 -8l16 1l13 -77q-32 -13 -71 -13q-62 0 -85 32.5t-23 109.5v166z" />
    <glyph glyph-name="OE" unicode="&#x152;" horiz-adv-x="831" 
d="M329 0q-273 0 -273 344q0 181 68 264.5t199 83.5h447v-103h-242v-177h194v-101h-194v-207h256v-104h-455zM327 103h80v485h-81q-76 0 -107.5 -52t-31.5 -195q0 -136 32 -187t108 -51z" />
    <glyph glyph-name="oe" unicode="&#x153;" horiz-adv-x="799" 
d="M258 -13q-212 0 -212 267q0 265 211 265q107 0 153 -81q44 81 148 81q100 0 148 -62t48 -199v-37h-283q3 -85 25.5 -114.5t78.5 -29.5q59 0 117 44l52 -75q-69 -59 -169 -59q-120 0 -165 82q-47 -82 -152 -82zM259 73q51 0 71 38t20 143q0 106 -20.5 142.5t-71.5 36.5
t-71 -37t-20 -143q0 -105 20.5 -142.5t71.5 -37.5zM555 434q-40 0 -59.5 -28t-23.5 -104h165q-1 75 -18 103.5t-64 28.5z" />
    <glyph glyph-name="Scaron" unicode="&#x160;" horiz-adv-x="537" 
d="M254 -13q-130 0 -215 67l45 91q76 -55 160 -55q113 0 113 97q0 49 -25 71.5t-87 44.5q-94 33 -135.5 77.5t-41.5 133.5q0 94 55 142.5t151 48.5q103 0 177 -48l-45 -92q-58 38 -123 38q-94 0 -94 -82q0 -43 19.5 -63t75.5 -40q39 -13 63.5 -23.5t53 -28.5t44 -39.5
t26.5 -55t11 -75.5q0 -209 -228 -209zM226 743l-123 128l39 54l120 -79l119 79l38 -54l-124 -128h-69z" />
    <glyph glyph-name="scaron" unicode="&#x161;" horiz-adv-x="431" 
d="M205 -13q-104 0 -177 51l40 85q61 -42 127 -42q43 0 61 14.5t18 45.5q0 33 -19 46t-78 29q-60 17 -92 53t-32 104q0 67 42.5 106.5t122.5 39.5q84 0 148 -32l-32 -88q-53 27 -107 27q-65 0 -65 -51q0 -29 15.5 -41t65.5 -25q70 -19 107 -53t37 -110q0 -159 -182 -159z
M184 569l-123 128l39 54l120 -79l119 79l38 -54l-124 -128h-69z" />
    <glyph glyph-name="Ydieresis" unicode="&#x178;" horiz-adv-x="545" 
d="M210 0v287l-189 405h136l79 -189q28 -70 39 -115q20 74 36 114l83 190h130l-193 -405v-287h-121zM373 740q-27 0 -47.5 20t-20.5 48t20 48t47 20t47.5 -20t20.5 -48t-20 -48t-47 -20zM170 740q-27 0 -47.5 20t-20.5 48t20 48t47 20t47.5 -20t20.5 -48t-20 -48t-47 -20z
" />
    <glyph glyph-name="Zcaron" unicode="&#x17d;" horiz-adv-x="503" 
d="M41 0v88l274 500h-252v104h394v-91l-274 -497h273v-104h-415zM224 743l-123 128l39 54l120 -79l119 79l38 -54l-124 -128h-69z" />
    <glyph glyph-name="zcaron" unicode="&#x17e;" horiz-adv-x="428" 
d="M42 0v88l216 328h-196v90h320v-90l-213 -325h218v-91h-345zM187 569l-123 128l39 54l120 -79l119 79l38 -54l-124 -128h-69z" />
    <glyph glyph-name="florin" unicode="&#x192;" horiz-adv-x="417" 
d="M58 350v89h80l11 107q16 159 151 159q67 0 110 -27l-32 -84q-30 15 -57 15q-51 0 -56 -60l-12 -110h101v-89h-110l-56 -547h-116l56 547h-70z" />
    <glyph glyph-name="circumflex" unicode="&#x2c6;" 
d="M146 565l-38 53l124 129h69l123 -129l-38 -53l-121 78z" />
    <glyph glyph-name="caron" unicode="&#x2c7;" 
d="M232 569l-123 128l39 54l120 -79l119 79l38 -54l-124 -128h-69z" />
    <glyph glyph-name="breve" unicode="&#x2d8;" 
d="M268 576q-64 0 -104.5 42t-48.5 97l76 17q10 -31 27 -46t50 -15t50 15t27 46l76 -19q-8 -54 -48.5 -95.5t-104.5 -41.5z" />
    <glyph glyph-name="dotaccent" unicode="&#x2d9;" 
d="M266 566q-27 0 -47 20t-20 48t19.5 48t46.5 20q28 0 48 -20t20 -48t-20 -48t-47 -20z" />
    <glyph glyph-name="ring" unicode="&#x2da;" 
d="M266 562q-47 0 -76 31.5t-29 77.5q0 47 29 78.5t76 31.5q48 0 77 -31.5t29 -78.5q0 -46 -29 -77.5t-77 -31.5zM266 616q40 0 40 55t-40 55q-39 0 -39 -55t39 -55z" />
    <glyph glyph-name="ogonek" unicode="&#x2db;" 
d="M257 -218q-48 0 -73 24.5t-25 61.5q0 70 66 132h73q-62 -74 -62 -123q0 -30 30 -30q23 0 53 14l24 -54q-38 -25 -86 -25z" />
    <glyph glyph-name="tilde" unicode="&#x2dc;" 
d="M158 574l-59 41q42 97 110 97q31 0 66 -18.5t52 -18.5q15 0 25.5 9t24.5 30l59 -41q-42 -97 -110 -97q-31 0 -66 18.5t-52 18.5q-23 0 -50 -39z" />
    <glyph glyph-name="hungarumlaut" unicode="&#x2dd;" 
d="M188 542l-67 37l98 216l99 -58zM378 542l-66 37l98 216l99 -58z" />
    <glyph glyph-name="endash" unicode="&#x2013;" horiz-adv-x="558" 
d="M50 225v100h456v-100h-456z" />
    <glyph glyph-name="emdash" unicode="&#x2014;" horiz-adv-x="753" 
d="M50 225v100h652v-100h-652z" />
    <glyph glyph-name="quoteleft" unicode="&#x2018;" horiz-adv-x="266" 
d="M140 432q-37 0 -60.5 27.5t-23.5 72.5q0 140 135 176l19 -56q-62 -24 -65 -71q25 -4 45.5 -23t20.5 -53q0 -31 -21 -52t-50 -21z" />
    <glyph glyph-name="quoteright" unicode="&#x2019;" horiz-adv-x="266" 
d="M75 432l-19 56q63 24 64 71q-24 4 -44.5 23.5t-20.5 52.5q0 32 20.5 52.5t50.5 20.5q37 0 60.5 -27t23.5 -72q0 -141 -135 -177z" />
    <glyph glyph-name="quotesinglbase" unicode="&#x201a;" horiz-adv-x="266" 
d="M75 -131l-19 55q63 24 64 72q-25 4 -45 23t-20 53q0 31 20.5 52t50.5 21q37 0 60.5 -27.5t23.5 -72.5q0 -140 -135 -176z" />
    <glyph glyph-name="quotedblleft" unicode="&#x201c;" horiz-adv-x="479" 
d="M353 432q-37 0 -60.5 27.5t-23.5 72.5q0 140 135 176l19 -56q-62 -24 -65 -71q25 -4 45.5 -23t20.5 -53q0 -31 -20.5 -52t-50.5 -21zM140 432q-37 0 -60.5 27.5t-23.5 72.5q0 140 135 176l19 -56q-62 -24 -65 -71q25 -4 45.5 -23t20.5 -53q0 -31 -21 -52t-50 -21z" />
    <glyph glyph-name="quotedblright" unicode="&#x201d;" horiz-adv-x="479" 
d="M288 432l-19 56q63 24 64 71q-24 4 -44.5 23.5t-20.5 52.5q0 32 20.5 52.5t50.5 20.5q37 0 60.5 -27t23.5 -72q0 -141 -135 -177zM75 432l-19 56q63 24 64 71q-24 4 -44.5 23.5t-20.5 52.5q0 32 20.5 52.5t50.5 20.5q37 0 60.5 -27t23.5 -72q0 -141 -135 -177z" />
    <glyph glyph-name="quotedblbase" unicode="&#x201e;" horiz-adv-x="479" 
d="M288 -131l-19 55q63 24 64 72q-25 4 -45 23t-20 53q0 31 20.5 52t50.5 21q37 0 60.5 -27.5t23.5 -72.5q0 -140 -135 -176zM75 -131l-19 55q63 24 64 72q-25 4 -45 23t-20 53q0 31 20.5 52t50.5 21q37 0 60.5 -27.5t23.5 -72.5q0 -140 -135 -176z" />
    <glyph glyph-name="dagger" unicode="&#x2020;" horiz-adv-x="398" 
d="M149 189v284h-101v92h101v127h99v-127h101v-92h-101v-284h-99z" />
    <glyph glyph-name="daggerdbl" unicode="&#x2021;" horiz-adv-x="398" 
d="M149 189v123h-101v92h101v74h-101v92h101v122h99v-122h101v-92h-101v-74h101v-92h-101v-123h-99z" />
    <glyph glyph-name="bullet" unicode="&#x2022;" horiz-adv-x="385" 
d="M192 195q-57 0 -94.5 40.5t-37.5 99.5q0 58 37.5 98.5t94.5 40.5t95 -40.5t38 -98.5t-38 -99t-95 -41z" />
    <glyph glyph-name="ellipsis" unicode="&#x2026;" horiz-adv-x="745" 
d="M604 -10q-33 0 -56 23t-23 56t23 56.5t56 23.5t56 -23.5t23 -56.5t-23 -56t-56 -23zM140 -10q-32 0 -55 23t-23 56t23 56.5t55 23.5q34 0 57 -23.5t23 -56.5t-23 -56t-57 -23zM372 -10q-32 0 -55.5 23t-23.5 56t23.5 56.5t55.5 23.5q33 0 56 -23.5t23 -56.5t-23 -56
t-56 -23z" />
    <glyph glyph-name="perthousand" unicode="&#x2030;" horiz-adv-x="1222" 
d="M1011 -12q-73 0 -116 46.5t-43 127.5q0 80 43.5 126t116.5 46t116.5 -46.5t43.5 -127.5q0 -80 -44 -126t-117 -46zM645 -12q-73 0 -116.5 46.5t-43.5 127.5q0 80 43.5 126t116.5 46t116.5 -46.5t43.5 -127.5q0 -80 -44 -126t-116 -46zM209 304q-73 0 -116.5 46.5
t-43.5 126.5q0 81 44 127t116 46q73 0 116.5 -46.5t43.5 -127.5q0 -80 -44 -126t-116 -46zM182 0l390 638h100l-390 -638h-100zM645 61q31 0 45 23t14 74q0 59 -13.5 81.5t-45.5 22.5t-46 -22.5t-14 -74.5q0 -58 14 -81t46 -23zM1012 61q31 0 45 23t14 74q0 59 -13.5 81.5
t-46.5 22.5q-31 0 -45 -22.5t-14 -74.5q0 -58 14 -81t46 -23zM209 377q31 0 45 22.5t14 74.5q0 59 -13.5 81.5t-45.5 22.5t-45.5 -22.5t-13.5 -75.5q0 -58 13.5 -80.5t45.5 -22.5z" />
    <glyph glyph-name="guilsinglleft" unicode="&#x2039;" horiz-adv-x="325" 
d="M192 20l-147 230l147 232l81 -56l-110 -176l109 -175z" />
    <glyph glyph-name="guilsinglright" unicode="&#x203a;" horiz-adv-x="325" 
d="M132 20l-80 56l109 175l-109 176l80 55l147 -231z" />
    <glyph glyph-name="fraction" unicode="&#x2044;" horiz-adv-x="329" 
d="M-81 0l390 638h100l-390 -638h-100z" />
    <glyph glyph-name="Euro" unicode="&#x20ac;" horiz-adv-x="602" 
d="M43 358v74h99q40 219 249 219q107 0 167 -50l-48 -84q-48 39 -115 39q-61 0 -91.5 -29t-41.5 -95h184v-74h-191v-73h191v-74h-184q11 -70 42.5 -99t91.5 -29q67 0 121 45l52 -81q-74 -60 -178 -60q-216 0 -252 224h-96v74h89v30q0 29 1 43h-90z" />
    <glyph glyph-name="trademark" unicode="&#x2122;" horiz-adv-x="796" 
d="M375 299v393h116l44 -163q12 -43 16 -84h1q14 77 16 84l42 163h119v-393h-85v162q0 69 6 141h-2q-11 -68 -28 -129l-36 -120h-70l-35 118q-8 24 -14.5 53t-11 53t-4.5 25h-1q7 -84 7 -142v-161h-80zM137 299v316h-93v77h274v-77h-93v-316h-88z" />
    <glyph glyph-name="minus" unicode="&#x2212;" horiz-adv-x="565" 
d="M66 247v104h432v-104h-432z" />
    <glyph glyph-name="ff" unicode="&#xfb00;" horiz-adv-x="580" 
d="M28 418v88h53v60q0 159 135 159q63 0 99 -21l-30 -82q-20 10 -46 10q-44 0 -44 -59v-67h153v70q0 90 38 124.5t103 34.5q66 0 111 -25l-32 -81q-25 13 -56 13q-26 0 -38 -14t-12 -45v-77h90v-88h-90v-418h-114v418h-153v-418h-114v418h-53z" />
    <glyph glyph-name="fi" unicode="&#xfb01;" horiz-adv-x="534" 
d="M348 0v418h-153v-418h-114v418h-53v88h53v48q0 181 176 181q77 0 142 -33l-35 -87q-49 23 -90 23q-43 0 -61 -17t-18 -61v-54h267v-506h-114z" />
    <glyph glyph-name="fl" unicode="&#xfb02;" horiz-adv-x="553" 
d="M456 -11q-62 0 -85 32.5t-23 109.5v505q-32 7 -67 7q-86 0 -86 -73v-64h88v-88h-88v-418h-114v418h-53v88h53v58q0 91 50 131t132 40q47 0 91 -7h108v-611q0 -24 7.5 -31.5t29.5 -7.5l16 1l13 -77q-35 -13 -72 -13z" />
    <glyph glyph-name="ffi" unicode="&#xfb03;" horiz-adv-x="801" 
d="M348 0v418h-153v-418h-114v418h-53v88h53v60q0 159 137 159q62 0 100 -21l-31 -82q-20 10 -46 10q-46 0 -46 -59v-67h153v48q0 181 176 181q78 0 142 -33l-35 -87q-49 23 -90 23q-43 0 -61 -17t-18 -61v-54h267v-506h-114v418h-153v-418h-114z" />
    <glyph glyph-name="ffl" unicode="&#xfb04;" horiz-adv-x="820" 
d="M348 0v418h-153v-418h-114v418h-53v88h53v60q0 159 135 159q63 0 99 -21l-30 -82q-20 10 -46 10q-44 0 -44 -59v-67h153v58q0 91 50 131t132 40q47 0 91 -7h108v-611q0 -24 7.5 -31.5t29.5 -7.5l16 1l13 -77q-35 -13 -72 -13q-62 0 -85 32.5t-23 109.5v505q-31 7 -68 7
q-85 0 -85 -73v-64h88v-88h-88v-418h-114z" />
    <glyph glyph-name="fj" horiz-adv-x="534" 
d="M321 -205l-39 79q41 25 53.5 51t12.5 85v408h-153v-418h-114v418h-53v88h53v48q0 181 176 181q77 0 142 -33l-35 -87q-49 23 -90 23q-43 0 -61 -17t-18 -61v-54h267v-493q0 -98 -31 -144t-110 -74z" />
    </font>
</defs>
</svg>
