<?xml version="1.0" standalone="no"?>
<!DOCTYPE svg PUBLIC "-//W3C//DTD SVG 1.1//EN" "http://www.w3.org/Graphics/SVG/1.1/DTD/svg11.dtd" >
<svg>
<metadata>
Created by FontForge 20110222 at Mon Jan 20 07:52:42 2014
 By Orthosie Webhosting
2004 Erik Spiekermann, Christian Schwartz; published by FontShop International for the FontFont library.
</metadata>
<defs>
<font id="UnitLightItalicRegular" horiz-adv-x="486" >
  <font-face 
    font-family="UnitLightItalicRegular"
    font-weight="300"
    font-style="italic"
    font-stretch="normal"
    units-per-em="1000"
    panose-1="2 0 4 6 4 0 0 2 0 4"
    ascent="714"
    descent="-286"
    x-height="478"
    cap-height="687"
    bbox="-120 -217 1062 918"
    underline-thickness="20"
    underline-position="-122"
    unicode-range="U+0020-FB04"
  />
<missing-glyph horiz-adv-x="489" 
d="M31 689h427v-689h-427v689zM406 52v585h-323v-585h323z" />
    <glyph glyph-name=".notdef" horiz-adv-x="489" 
d="M31 689h427v-689h-427v689zM406 52v585h-323v-585h323z" />
    <glyph glyph-name=".null" horiz-adv-x="0" 
 />
    <glyph glyph-name="nonmarkingreturn" horiz-adv-x="196" 
 />
    <glyph glyph-name="space" unicode=" " horiz-adv-x="196" 
 />
    <glyph glyph-name="exclam" unicode="!" horiz-adv-x="244" 
d="M178 687h69l-122 -501h-46zM76 -6q-20 0 -34.5 14t-14.5 36t14.5 36t34.5 14q22 0 36 -14t14 -36t-14 -36t-36 -14z" />
    <glyph glyph-name="quotedbl" unicode="&#x22;" horiz-adv-x="361" 
d="M320 708h54l-51 -240h-55zM178 708h54l-51 -240h-55z" />
    <glyph glyph-name="numbersign" unicode="#" horiz-adv-x="530" 
d="M103 460h96l47 175h49l-47 -175h133l47 175h49l-47 -175h95l-11 -51h-97l-46 -173h95l-10 -51h-98l-49 -185h-50l49 185h-132l-49 -185h-49l49 185h-95l11 51h97l46 173h-94zM189 236h132l46 173h-132z" />
    <glyph glyph-name="dollar" unicode="$" horiz-adv-x="464" 
d="M152 -6q-47 7 -85 28.5t-64 47.5l27 46q28 -27 59.5 -47t74.5 -26l57 271q-52 31 -84 68t-32 94q0 42 13.5 74t38.5 54t58.5 32t74.5 9h1l24 116h46l-27 -122q35 -8 62 -23.5t47 -32.5l-25 -45q-19 17 -42.5 31t-51.5 21l-51 -239q27 -17 49.5 -34t38.5 -37t24.5 -45
t8.5 -56q0 -39 -12 -73t-36 -59.5t-61.5 -40.5t-88.5 -15l-22 -106h-45zM333 179q0 38 -18.5 63t-54.5 48l-53 -249q66 4 96 40.5t30 97.5zM164 482q0 -35 17.5 -59.5t52.5 -47.5l47 221q-55 0 -86 -29t-31 -85z" />
    <glyph glyph-name="percent" unicode="%" horiz-adv-x="787" 
d="M220 300q-62 0 -95 38.5t-33 101.5q0 54 22.5 103.5t59.5 75.5q35 25 85 25q58 0 91.5 -36.5t33.5 -98.5q0 -50 -18.5 -98.5t-50.5 -76.5q-40 -34 -95 -34zM557 -9q-62 0 -95 38t-33 101q0 27 6 53.5t16.5 50.5t25.5 43.5t34 32.5q35 25 85 25q57 0 91 -36.5t34 -98.5
q0 -50 -18.5 -98.5t-51.5 -76.5q-39 -34 -94 -34zM559 36q41 0 64 29q10 11 18.5 28t13.5 36t8 39t3 38q0 85 -74 85q-33 0 -55 -19q-12 -11 -22 -28t-17 -38t-10.5 -43t-3.5 -41q0 -86 75 -86zM222 345q41 0 65 29q10 12 18 28.5t13 36t8 39t3 37.5q0 85 -73 85
q-34 0 -56 -19q-12 -11 -21.5 -28t-16.5 -37.5t-10.5 -42.5t-3.5 -42q0 -86 74 -86zM622 635h57l-488 -635h-57z" />
    <glyph glyph-name="ampersand" unicode="&#x26;" horiz-adv-x="606" 
d="M226 -11q-48 0 -84 14t-59 38t-34.5 55.5t-11.5 66.5q0 47 14 83.5t39.5 64t61 48.5t78.5 38q-23 35 -35.5 72.5t-12.5 70.5t11.5 61.5t32.5 49.5t50.5 33t64.5 12q60 0 99 -34.5t39 -94.5q0 -70 -44.5 -112t-127.5 -74l121 -204q22 38 40 83t34 96l55 -7
q-20 -67 -45 -122.5t-55 -99.5l77 -127h-67l-48 80q-41 -45 -88.5 -68t-104.5 -23zM232 39q47 0 86.5 22t72.5 64l-70 116q-31 51 -70 117q-71 -31 -110 -76t-39 -119q0 -26 7 -48.5t22.5 -39t40.5 -26.5t60 -10zM284 418q71 32 102 64t31 85q0 38 -20 59t-56 21
q-48 0 -73.5 -30.5t-25.5 -78.5q0 -51 32 -104z" />
    <glyph glyph-name="quotesingle" unicode="'" horiz-adv-x="219" 
d="M177 708h55l-51 -240h-55z" />
    <glyph glyph-name="parenleft" unicode="(" horiz-adv-x="319" 
d="M173 -154q-58 48 -88.5 118t-30.5 173q0 91 27 211q22 96 49 166.5t62.5 120.5t79 82t98.5 53l14 -39q-46 -23 -81.5 -53t-64 -75.5t-51.5 -110t-44 -156.5q-14 -62 -20.5 -112t-6.5 -95q0 -87 21.5 -146t65.5 -102z" />
    <glyph glyph-name="parenright" unicode=")" horiz-adv-x="319" 
d="M-45 -115q46 23 81.5 53t64 75.5t51.5 110t44 156.5q14 63 21 112.5t7 94.5q0 87 -22 146t-65 102l29 35q58 -48 88.5 -118t30.5 -173q0 -46 -6 -98.5t-20 -112.5q-22 -96 -49.5 -166.5t-62.5 -120.5t-78.5 -82t-98.5 -53z" />
    <glyph glyph-name="asterisk" unicode="*" horiz-adv-x="434" 
d="M124 380l106 119l-116 47l21 42l117 -47l31 146h48l-32 -147l133 48l12 -44l-142 -48l62 -120l-39 -25l-61 120l-105 -119z" />
    <glyph glyph-name="plus" unicode="+" horiz-adv-x="511" 
d="M228 263h-156l11 50h156l38 178h57l-38 -178h155l-11 -50h-155l-38 -178h-56z" />
    <glyph glyph-name="comma" unicode="," horiz-adv-x="236" 
d="M-8 -78q29 12 47 31t23 42q-14 3 -27 16t-13 34q0 22 14.5 36.5t35.5 14.5t36 -15.5t15 -44.5q0 -21 -7.5 -44t-23 -43.5t-40.5 -36t-60 -22.5v32z" />
    <glyph glyph-name="hyphen" unicode="-" horiz-adv-x="284" 
d="M62 298h175l-12 -59h-175z" />
    <glyph glyph-name="period" unicode="." horiz-adv-x="235" 
d="M72 -5q-21 0 -35.5 14t-14.5 36t14.5 36.5t35.5 14.5t35.5 -14.5t14.5 -36.5t-14.5 -36t-35.5 -14z" />
    <glyph glyph-name="slash" unicode="/" horiz-adv-x="330" 
d="M352 759h59l-413 -905h-59z" />
    <glyph glyph-name="zero" unicode="0" horiz-adv-x="583" 
d="M261 -9q-99 0 -149.5 58t-50.5 167q0 34 5 70.5t14 73t21.5 71t27.5 63.5q39 78 94 114.5t127 36.5q94 0 144.5 -59.5t50.5 -168.5q0 -37 -5 -76.5t-15 -78t-23.5 -74.5t-29.5 -66q-37 -67 -89 -99t-122 -32zM262 40q54 0 92 27.5t66 85.5q14 29 25.5 64t19.5 71.5
t12.5 72t4.5 65.5q0 81 -32.5 125t-101.5 44q-55 0 -94 -28.5t-68 -90.5q-14 -28 -25.5 -62.5t-20 -70.5t-13 -71.5t-4.5 -65.5q1 -79 33 -122.5t106 -43.5z" />
    <glyph glyph-name="one" unicode="1" horiz-adv-x="425" 
d="M25 50h128l108 509l-140 -63l-16 33l186 112h48l-126 -591h120l-11 -50h-307z" />
    <glyph glyph-name="two" unicode="2" horiz-adv-x="466" 
d="M3 56q83 60 143 108t101.5 88t67 72.5t39.5 60.5t18.5 53t4.5 50q0 51 -28 78.5t-79 27.5q-41 0 -73.5 -11.5t-67.5 -30.5l-22 41q37 24 80 38t89 14q34 0 64 -10.5t52 -30t34.5 -48.5t12.5 -66q0 -46 -15 -91t-55.5 -96t-112.5 -112t-185 -139h296l-11 -52h-364z" />
    <glyph glyph-name="three" unicode="3" horiz-adv-x="485" 
d="M167 -66q-61 0 -107.5 16t-77.5 35l14 47q32 -18 73.5 -32t95.5 -14q85 0 129 51q24 26 34.5 63t9.5 75q0 58 -34.5 86.5t-91.5 28.5h-52l10 50h49q87 0 123 43q17 20 26 48.5t9 60.5q0 48 -29 75t-83 27q-38 0 -71 -10.5t-68 -27.5l-20 43q38 20 78 33t90 13
q77 0 120.5 -42t43.5 -110q0 -71 -33 -118.5t-96 -62.5q43 -16 68.5 -53.5t25.5 -91.5q0 -49 -16 -93t-46 -75q-62 -65 -174 -65z" />
    <glyph glyph-name="four" unicode="4" horiz-adv-x="532" 
d="M25 162l308 473h65l-314 -479h246l61 286l63 13l-63 -299h76l-12 -51h-75l-34 -161h-61l34 161h-306z" />
    <glyph glyph-name="five" unicode="5" horiz-adv-x="482" 
d="M161 -65q-54 0 -96 13.5t-74 32.5l13 48q31 -17 70 -30.5t85 -12.5q42 0 75.5 14.5t56.5 40.5q13 15 23 34t17 40.5t10.5 43.5t3.5 42q0 62 -33 96.5t-103 34.5q-32 0 -62 -5.5t-56 -13.5l93 322h301l-11 -52h-252l-61 -211q12 4 29.5 6.5t35.5 2.5q46 0 80 -13.5
t57 -37.5t34.5 -57.5t11.5 -73.5q0 -54 -20 -110t-60 -92q-32 -30 -74.5 -46t-93.5 -16z" />
    <glyph glyph-name="six" unicode="6" horiz-adv-x="543" 
d="M255 -9q-42 0 -77.5 15.5t-61 44.5t-40 70.5t-14.5 94.5q0 57 14.5 115t40 110t60 95t74.5 71q52 37 115 58.5t139 29.5v-49q-71 -10 -125.5 -29.5t-98.5 -52.5q-42 -32 -75 -84.5t-53 -110.5q29 22 67.5 40t84.5 18q37 0 69 -12.5t55 -36.5t36.5 -59t13.5 -80
q0 -56 -17 -101.5t-47 -78t-71 -50.5t-89 -18zM289 378q-43 0 -81 -18t-70 -41q-8 -28 -11 -54.5t-3 -50.5q0 -89 35 -131.5t98 -42.5q37 0 66.5 15.5t50 42.5t31 63.5t10.5 78.5q0 67 -33 102.5t-93 35.5z" />
    <glyph glyph-name="seven" unicode="7" horiz-adv-x="473" 
d="M78 -55q34 115 74.5 211t86 174.5t94.5 141t100 111.5h-322l11 52h380l-12 -56q-115 -110 -204 -269.5t-146 -371.5z" />
    <glyph glyph-name="eight" unicode="8" horiz-adv-x="534" 
d="M244 -9q-47 0 -85 13t-64.5 36t-40.5 54.5t-14 68.5q0 45 14 78.5t39 57.5t58 40.5t71 28.5q-46 32 -65 70t-19 78t14.5 73t41 57t62.5 37t79 13q41 0 73 -12.5t54 -34t33.5 -50t11.5 -59.5q0 -62 -38 -107t-123 -76q64 -34 90.5 -77t26.5 -91q0 -43 -15.5 -79.5
t-44 -62.5t-69 -41t-90.5 -15zM260 343q-74 -26 -116.5 -66.5t-42.5 -111.5q0 -60 40 -93t107 -33q73 0 112.5 42t39.5 106q0 38 -19 69t-64 56zM199 516q0 -34 17.5 -63.5t62.5 -55.5l26 -15q41 15 68 33t43 38t22.5 43t6.5 47q0 45 -29.5 75t-83.5 30q-62 0 -97.5 -37
t-35.5 -95z" />
    <glyph glyph-name="nine" unicode="9" horiz-adv-x="543" 
d="M59 -10q61 10 112.5 26.5t93.5 42.5t74.5 64.5t57.5 92.5q5 11 9.5 22t9.5 23q-29 -21 -67 -37t-84 -16q-38 0 -69.5 13t-55 37.5t-36.5 60t-13 80.5q0 52 17 97.5t47.5 79t72 52.5t90.5 19q42 0 77 -14t60.5 -41t40 -67.5t14.5 -93.5q0 -59 -15 -121t-40 -114
q-29 -62 -68 -106t-88 -74t-109 -47.5t-131 -26.5v48zM279 256q43 0 81.5 16.5t70.5 39.5q17 62 17 121q0 85 -34.5 124.5t-98.5 39.5q-39 0 -69.5 -17.5t-50.5 -46t-30.5 -65t-10.5 -74.5q0 -69 33.5 -103.5t91.5 -34.5z" />
    <glyph glyph-name="colon" unicode=":" horiz-adv-x="249" 
d="M79 -5q-20 0 -35 14t-15 36t15 36.5t35 14.5q22 0 36.5 -14.5t14.5 -36.5t-14.5 -36t-36.5 -14zM140 281q-21 0 -35.5 14.5t-14.5 36.5t14.5 36t35.5 14t35.5 -14t14.5 -36t-14.5 -36.5t-35.5 -14.5z" />
    <glyph glyph-name="semicolon" unicode=";" horiz-adv-x="250" 
d="M-3 -79q29 13 48.5 32t23.5 42q-14 3 -27 16t-13 34q0 22 15 36.5t35 14.5q22 0 36.5 -15.5t14.5 -44.5q0 -21 -7 -43.5t-22 -42t-39 -35.5t-58 -24zM140 281q-21 0 -35.5 14.5t-14.5 36.5t14.5 36t35.5 14t35.5 -14t14.5 -36t-14.5 -36.5t-35.5 -14.5z" />
    <glyph glyph-name="less" unicode="&#x3c;" horiz-adv-x="334" 
d="M57 288l6 24l241 185l27 -41l-212 -165l139 -180l-40 -31z" />
    <glyph glyph-name="equal" unicode="=" horiz-adv-x="520" 
d="M102 400h375l-11 -50h-375zM66 227h375l-11 -50h-375z" />
    <glyph glyph-name="greater" unicode="&#x3e;" horiz-adv-x="334" 
d="M19 121l211 165l-138 179l40 32l161 -208l-6 -25l-241 -184z" />
    <glyph glyph-name="question" unicode="?" horiz-adv-x="414" 
d="M154 283q7 31 17 52t23.5 36.5t29 26.5t33.5 22q20 12 38.5 24t32 27.5t21.5 37t8 53.5q0 38 -22 60.5t-70 22.5q-32 0 -66 -10t-57 -21l-12 45q27 16 64 26.5t75 10.5q67 0 107.5 -34.5t40.5 -99.5q0 -43 -11.5 -71.5t-30.5 -48.5t-43 -34.5t-48 -29.5q-18 -11 -31 -21
t-22 -22t-15.5 -27t-10.5 -36l-18 -86h-53zM135 -6q-21 0 -35.5 14t-14.5 36t14.5 36t35.5 14t35 -14t14 -36t-14 -36t-35 -14z" />
    <glyph glyph-name="at" unicode="@" horiz-adv-x="791" 
d="M340 -151q-75 0 -129.5 22t-90.5 62.5t-53 98.5t-17 131q0 90 24 172.5t72 145.5t119 100t166 37q81 0 138 -24t93 -65t52.5 -96.5t16.5 -118.5q0 -75 -10 -135t-31 -101.5t-54 -63.5t-79 -22q-53 0 -78 25.5t-26 72.5q-13 -16 -29 -31t-34.5 -27t-39 -19.5t-42.5 -7.5
q-39 0 -67 30.5t-28 104.5q0 48 13 110q25 111 68 160t111 49q36 0 62.5 -17t41.5 -33l8 38h58l-62 -293q-13 -59 -3.5 -87.5t46.5 -28.5q62 0 91 74.5t28 205.5q0 54 -12.5 100.5t-41.5 80t-76.5 53t-117.5 19.5q-86 0 -146.5 -35.5t-99 -93.5t-56.5 -132t-18 -151
q0 -63 12.5 -112t40.5 -82.5t73 -51t110 -17.5q44 0 80 6t65 15l5 -45q-34 -11 -70 -17t-83 -6zM320 54q35 0 68 23.5t62 54.5l51 237q-18 17 -40 30.5t-51 13.5q-23 0 -41.5 -8.5t-33.5 -28t-27 -52.5t-22 -81q-15 -74 -15 -114q0 -44 13 -59.5t36 -15.5z" />
    <glyph glyph-name="A" unicode="A" horiz-adv-x="540" 
d="M330 687h67l59 -687h-63l-18 222h-223l-113 -222h-65zM178 273h193l-15 195q-4 54 -4.5 95.5t0.5 70.5h-1q-10 -29 -25.5 -65t-43.5 -92z" />
    <glyph glyph-name="B" unicode="B" horiz-adv-x="538" 
d="M182 687h150q44 0 76.5 -12t54 -32t32 -47.5t10.5 -58.5t-6.5 -59.5t-20.5 -52t-36 -41.5t-54 -27q38 -14 63 -47t25 -89q0 -51 -16 -95t-46 -72q-33 -30 -79 -42t-100 -12h-199zM235 51q51 0 84.5 12.5t54.5 38.5q20 24 29.5 57t9.5 68q0 49 -29 77.5t-94 28.5h-122
l-59 -282h126zM296 384q74 0 108 37q17 19 27 51t10 64q0 45 -27.5 72t-86.5 27h-96l-53 -251h118z" />
    <glyph glyph-name="C" unicode="C" horiz-adv-x="523" 
d="M273 -10q-107 0 -157.5 60.5t-50.5 165.5q0 40 6 84t17 88t26 85.5t33 74.5q39 72 94.5 110t133.5 38q57 0 97 -18t69 -46l-35 -42q-24 22 -56 38.5t-77 16.5q-60 0 -100.5 -30.5t-69.5 -89.5q-15 -30 -28.5 -69.5t-23.5 -81.5t-16 -84t-6 -78q0 -85 34.5 -127.5
t113.5 -42.5q46 0 84.5 16.5t66.5 34.5l17 -50q-32 -21 -76 -37t-96 -16z" />
    <glyph glyph-name="D" unicode="D" horiz-adv-x="576" 
d="M186 687h136q112 0 168 -53t56 -165q0 -44 -7.5 -95t-21 -100.5t-32.5 -93t-43 -71.5q-42 -63 -98.5 -86t-135.5 -23h-168zM214 52q66 0 107.5 19.5t70.5 67.5q20 27 36.5 67.5t28.5 86.5t18.5 92.5t6.5 85.5q1 82 -36.5 123.5t-124.5 41.5h-84l-124 -584h101z" />
    <glyph glyph-name="E" unicode="E" 
d="M186 687h327l-11 -52h-265l-53 -248h217l-11 -51h-216l-61 -284h281l-11 -52h-343z" />
    <glyph glyph-name="F" unicode="F" horiz-adv-x="469" 
d="M187 687h320l-11 -52h-259l-53 -247h219l-11 -52h-218l-72 -336h-61z" />
    <glyph glyph-name="G" unicode="G" horiz-adv-x="574" 
d="M401 0v48q-29 -25 -66 -41t-79 -16q-96 0 -143 59t-48 164q0 38 5.5 80t15.5 84.5t24 83t32 74.5q39 78 96 119t138 41q58 0 96.5 -18t67.5 -45l-33 -45q-26 24 -57 40.5t-78 16.5q-62 0 -103 -33t-70 -97q-15 -31 -27.5 -70t-22 -80.5t-14.5 -82t-5 -75.5
q0 -80 32 -122.5t102 -42.5q42 0 75.5 15t62.5 40l44 207h-145l12 53h205l-76 -357h-41z" />
    <glyph glyph-name="H" unicode="H" horiz-adv-x="593" 
d="M186 687h62l-63 -294h279l63 294h62l-146 -687h-62l73 341h-280l-72 -341h-62z" />
    <glyph glyph-name="I" unicode="I" horiz-adv-x="310" 
d="M7 33l69 7l129 606l-66 8l6 33h201l-7 -33l-72 -8l-129 -607l69 -6l-7 -33h-201z" />
    <glyph glyph-name="J" unicode="J" horiz-adv-x="256" 
d="M-70 -92q27 12 46.5 23t34.5 26.5t25 39t18 59.5l135 631h62l-136 -637q-9 -44 -21.5 -73t-32.5 -49t-49 -34.5t-71 -27.5z" />
    <glyph glyph-name="K" unicode="K" horiz-adv-x="517" 
d="M200 367l294 320h72l-301 -327l160 -360h-64zM187 687h61l-146 -687h-61z" />
    <glyph glyph-name="L" unicode="L" horiz-adv-x="448" 
d="M187 687h61l-134 -634h248l-11 -53h-310z" />
    <glyph glyph-name="M" unicode="M" horiz-adv-x="693" 
d="M187 687h89l46 -377q5 -38 6 -73.5t-1 -57.5h1q8 21 20.5 52.5t35.5 73.5l208 382h96l-146 -687h-61l98 461q15 71 25 113t16 66h-1q-11 -23 -30 -64t-52 -101l-190 -342h-59l-44 340q-4 30 -6 53t-3 42t-1.5 36t-1.5 36h-2q-7 -38 -14 -79.5t-19 -96.5l-98 -464h-58z
" />
    <glyph glyph-name="N" unicode="N" horiz-adv-x="591" 
d="M187 687h68l121 -469q11 -45 17.5 -80t10.5 -68h1q5 35 11.5 75.5t17.5 93.5l95 448h57l-146 -687h-67l-117 450q-14 56 -21.5 95.5t-11.5 71.5h-1q-7 -67 -33 -188l-91 -429h-57z" />
    <glyph glyph-name="O" unicode="O" horiz-adv-x="603" 
d="M270 -10q-100 0 -152.5 59.5t-52.5 171.5q0 42 7 89t20 93.5t30 89.5t38 76q78 127 212 127q101 0 151 -62t50 -173q0 -44 -7 -92t-20 -95t-30 -89.5t-38 -75.5q-38 -60 -88.5 -89.5t-119.5 -29.5zM270 40q56 0 95 27.5t69 87.5q16 31 30 71t24 82.5t16 85t6 78.5
q-1 85 -34.5 130t-104.5 45q-56 0 -95 -29t-71 -90q-17 -32 -31 -73t-24 -83.5t-16 -84.5t-6 -76q0 -85 34 -128t108 -43z" />
    <glyph glyph-name="P" unicode="P" horiz-adv-x="515" 
d="M187 687h151q91 0 134.5 -43t43.5 -115q0 -55 -18.5 -106.5t-48.5 -81.5q-29 -30 -71 -43.5t-95 -13.5h-121l-60 -284h-61zM286 336q38 0 68 10t50 34q11 12 19.5 29t14.5 37t9 41.5t3 41.5q0 53 -28 79t-91 26h-94l-63 -298h112z" />
    <glyph glyph-name="Q" unicode="Q" horiz-adv-x="603" 
d="M478 108q-31 -48 -69 -73.5t-86 -33.5l181 -56l-24 -59l-284 113q-66 26 -98.5 78.5t-32.5 143.5q0 42 7 89t20 93.5t30 89.5t38 76q78 127 212 127q101 0 151 -62t50 -173q0 -44 -7 -92t-20 -95t-30 -90t-38 -76zM270 40q56 0 95 27.5t69 87.5q16 31 30 71t24 82.5
t16 85t6 78.5q-1 85 -34.5 130t-104.5 45q-56 0 -95 -29t-71 -90q-17 -32 -31 -73t-24 -83.5t-16 -84.5t-6 -76q0 -85 34 -128t108 -43z" />
    <glyph glyph-name="R" unicode="R" horiz-adv-x="539" 
d="M187 687h146q87 0 132.5 -42.5t45.5 -114.5q0 -91 -43.5 -146.5t-121.5 -66.5q22 -10 37.5 -32.5t26.5 -72.5l41 -212h-62l-39 203q-6 30 -15 50t-21.5 31t-29 15.5t-38.5 4.5h-79l-65 -304h-61zM285 356q42 0 70 9t46 28q21 22 33.5 60.5t12.5 75.5q0 48 -28 76t-92 28
h-90l-59 -277h107z" />
    <glyph glyph-name="S" unicode="S" horiz-adv-x="479" 
d="M204 -10q-66 0 -120.5 26t-86.5 60l28 47q37 -35 79 -57.5t98 -22.5q37 0 64.5 11t45.5 30.5t26.5 46t8.5 57.5q0 26 -6.5 46t-20 37.5t-34.5 34t-49 34.5q-29 18 -51.5 37t-37.5 40t-22.5 45.5t-7.5 55.5q0 43 13.5 76t38.5 55.5t59 34.5t76 12q57 0 101 -18t70 -41
l-25 -47q-27 23 -66.5 39t-81.5 16q-57 0 -91 -31t-34 -93q0 -22 5.5 -39t16.5 -32.5t29 -30t44 -30.5q31 -20 56.5 -40.5t43.5 -44t27.5 -51.5t9.5 -63q0 -38 -11 -74t-35.5 -64t-63.5 -45t-96 -17z" />
    <glyph glyph-name="T" unicode="T" horiz-adv-x="483" 
d="M291 634h-165l11 53h390l-11 -53h-163l-135 -634h-62z" />
    <glyph glyph-name="U" unicode="U" horiz-adv-x="593" 
d="M220 -10q-30 0 -57 8t-47 26t-31.5 46t-11.5 67q0 15 1.5 32t5.5 36l103 482h61l-103 -482q-4 -20 -6 -36.5t-2 -30.5q0 -51 24 -72.5t72 -21.5q28 0 54.5 7.5t49 19t41 25t32.5 25.5l121 566h61l-146 -687h-41v71q-35 -32 -81 -56.5t-100 -24.5z" />
    <glyph glyph-name="V" unicode="V" horiz-adv-x="530" 
d="M122 687h63l35 -467q3 -42 4 -79.5t0 -66.5h1q11 26 25.5 60t37.5 81l237 472h65l-350 -687h-63z" />
    <glyph glyph-name="W" unicode="W" horiz-adv-x="774" 
d="M126 687h62l-3 -447q-1 -54 -3 -100t-5 -81h2q12 35 28.5 79t38.5 95l199 454h71l3 -455q1 -47 -2 -92t-6 -81h1q12 36 30 82.5t39 99.5l186 446h63l-291 -687h-79l-2 445q0 22 0.5 45.5t1.5 45.5t2 41t3 33h-2q-4 -12 -10.5 -31t-14.5 -41t-17.5 -45.5t-18.5 -45.5
l-198 -447h-79z" />
    <glyph glyph-name="X" unicode="X" horiz-adv-x="520" 
d="M249 377l-98 310h65l77 -262l189 262h69l-230 -315l118 -372h-64l-97 326l-238 -326h-70z" />
    <glyph glyph-name="Y" unicode="Y" horiz-adv-x="523" 
d="M232 271l-106 416h66l63 -268q7 -30 11 -51.5t6 -43.5q11 22 23 43.5t32 51.5l177 268h69l-280 -419l-57 -268h-62z" />
    <glyph glyph-name="Z" unicode="Z" horiz-adv-x="467" 
d="M-1 48l429 586h-289l11 53h362l-11 -50l-428 -584h303l-12 -53h-376z" />
    <glyph glyph-name="bracketleft" unicode="[" horiz-adv-x="297" 
d="M190 734h162l-10 -48h-103l-168 -793h103l-11 -47h-162z" />
    <glyph glyph-name="backslash" unicode="\" horiz-adv-x="347" 
d="M92 759h55l146 -905h-55z" />
    <glyph glyph-name="bracketright" unicode="]" horiz-adv-x="298" 
d="M-31 -107h102l169 793h-103l10 48h162l-189 -888h-162z" />
    <glyph glyph-name="asciicircum" unicode="^" horiz-adv-x="454" 
d="M296 708h52l86 -258h-56l-65 199l-149 -199h-61z" />
    <glyph glyph-name="underscore" unicode="_" horiz-adv-x="295" 
d="M-68 -75h289l-11 -52h-289z" />
    <glyph glyph-name="grave" unicode="`" horiz-adv-x="482" 
d="M200 640l39 50l146 -115l-25 -34z" />
    <glyph glyph-name="a" unicode="a" 
d="M156 -10q-51 0 -85 36t-34 118q0 29 4 61.5t12.5 65.5t20 64t26.5 56q57 97 154 97q45 0 74.5 -19t50.5 -44l27 53h39l-78 -366q-12 -53 -13 -112h-49v67q-31 -29 -68 -53t-81 -24zM165 39q22 0 41.5 6.5t37.5 16.5t34 23t30 25l58 273q-19 22 -43 38.5t-65 16.5
q-34 0 -60 -16t-47 -52q-13 -22 -23 -51.5t-17.5 -61t-11.5 -62t-4 -54.5q0 -52 18.5 -77t51.5 -25z" />
    <glyph glyph-name="b" unicode="b" horiz-adv-x="489" 
d="M228 -10q-45 0 -78 20.5t-53 45.5l-27 -56h-39l152 715h58l-64 -298q29 26 68.5 48.5t83.5 22.5q52 0 84 -35.5t32 -115.5q0 -30 -4.5 -64t-12.5 -68t-20 -66t-28 -58q-29 -49 -67.5 -70t-84.5 -21zM220 38q35 0 62 15t48 50q13 22 23.5 53t18 63t11.5 63.5t4 55.5
q0 51 -18.5 75t-52.5 24q-21 0 -41.5 -6.5t-40 -16.5t-36.5 -22.5t-31 -24.5l-59 -274q18 -21 46 -38t66 -17z" />
    <glyph glyph-name="c" unicode="c" horiz-adv-x="416" 
d="M194 -9q-34 0 -62.5 10t-49.5 31.5t-33 54t-12 77.5q0 55 16 113t40 100q34 61 79 86t99 25q42 0 72.5 -14t53.5 -36l-29 -42q-21 18 -45.5 31t-56.5 13q-42 0 -72.5 -21.5t-54.5 -73.5q-9 -19 -16.5 -42.5t-13 -48.5t-9 -49.5t-3.5 -46.5q0 -67 26.5 -93.5t76.5 -26.5
q35 0 64.5 15.5t56.5 36.5l22 -40q-28 -25 -66 -42t-83 -17z" />
    <glyph glyph-name="d" unicode="d" horiz-adv-x="489" 
d="M156 -10q-54 0 -87 35.5t-33 116.5q0 29 4.5 62t12.5 66t20 64t27 57q58 97 155 97q45 0 76.5 -19t49.5 -40l61 286h58l-128 -603q-12 -53 -13 -112h-48v67q-32 -30 -71.5 -53.5t-83.5 -23.5zM165 39q44 0 82 23t67 48l58 273q-19 22 -45.5 38.5t-68.5 16.5
q-33 0 -59 -15.5t-47 -52.5q-13 -23 -24 -52.5t-18.5 -61t-11.5 -62t-4 -54.5q0 -52 18.5 -76.5t52.5 -24.5z" />
    <glyph glyph-name="e" unicode="e" horiz-adv-x="429" 
d="M187 -10q-69 0 -109 42.5t-40 127.5q0 57 16.5 117t42.5 103q30 51 75 79.5t100 28.5q34 0 58.5 -9.5t40.5 -25t23.5 -36.5t7.5 -44q0 -51 -27.5 -82.5t-71 -49.5t-97 -25t-104.5 -7q-2 -15 -3 -29t-1 -28q0 -60 23 -87.5t73 -27.5q35 0 69 14.5t64 37.5l15 -43
q-35 -29 -75.5 -42.5t-79.5 -13.5zM143 351q-11 -20 -19 -45t-14 -51q53 0 96 6t73.5 19.5t47 35t16.5 53.5q0 35 -17 54t-57 19q-43 0 -73.5 -24.5t-52.5 -66.5z" />
    <glyph glyph-name="f" unicode="f" horiz-adv-x="284" 
d="M82 478h58l23 122q14 69 50.5 95.5t80.5 26.5q29 0 46.5 -5.5t31.5 -16.5l-16 -43q-14 8 -28.5 13t-34.5 5q-27 0 -46 -18t-27 -62l-23 -117h93l-10 -46h-92l-70 -364q-7 -37 -15.5 -66.5t-22 -53t-33.5 -43t-50 -36.5l-28 40q16 10 29.5 23t25.5 32.5t22 48t18 70.5
l67 349h-60z" />
    <glyph glyph-name="g" unicode="g" horiz-adv-x="489" 
d="M168 -211q-55 0 -97.5 16t-74.5 36l16 43q33 -19 70 -33.5t86 -14.5t73.5 24.5t34.5 69.5l28 130q-29 -26 -67 -48t-81 -22q-54 0 -87 35.5t-33 116.5q0 29 4.5 62t12.5 66t20 64t27 57q58 97 155 97q45 0 77 -19t53 -44l27 53h38l-117 -552q-17 -78 -59 -107.5
t-106 -29.5zM165 39q44 0 82 23t67 48l58 273q-19 22 -45.5 38.5t-68.5 16.5q-33 0 -59 -15.5t-47 -52.5q-13 -23 -24 -52.5t-18.5 -61t-11.5 -62t-4 -54.5q0 -52 18.5 -76.5t52.5 -24.5z" />
    <glyph glyph-name="h" unicode="h" horiz-adv-x="489" 
d="M183 715h58l-65 -305q36 31 76.5 54.5t84.5 23.5t69 -25.5t25 -72.5q0 -10 -1.5 -20.5t-3.5 -22.5l-73 -347h-58l73 343q4 19 4 38q0 55 -52 55q-38 0 -75.5 -20.5t-77.5 -49.5l-78 -366h-58z" />
    <glyph glyph-name="i" unicode="i" horiz-adv-x="259" 
d="M147 431l-62 9l7 38h123l-102 -478h-57zM213 590q-19 0 -31 12t-12 32q0 19 12 31.5t31 12.5t31.5 -12t12.5 -32t-12 -32t-32 -12z" />
    <glyph glyph-name="j" unicode="j" horiz-adv-x="259" 
d="M-53 -168q22 12 38 24t28 27t21 36t15 51l98 461l-62 9l7 38h123l-109 -511q-9 -42 -21.5 -70t-30 -47t-40 -32t-50.5 -26zM213 590q-19 0 -31 12t-12 32q0 19 12 31.5t31 12.5t31.5 -12t12.5 -32t-12 -32t-32 -12z" />
    <glyph glyph-name="k" unicode="k" horiz-adv-x="440" 
d="M183 715h58l-152 -715h-58zM167 271l209 207h68l-214 -213l135 -265h-60z" />
    <glyph glyph-name="l" unicode="l" horiz-adv-x="250" 
d="M185 715h58l-136 -639q-1 -5 -1.5 -8.5t-0.5 -7.5q0 -23 26 -23q8 0 18 2q4 1 9 2v-41q-8 -3 -19 -5.5t-24 -2.5q-31 0 -49 15.5t-18 49.5q0 14 4 33z" />
    <glyph glyph-name="m" unicode="m" horiz-adv-x="724" 
d="M112 379q5 24 7 48t3 51h47v-68q38 32 77.5 55t83.5 23q38 0 59 -21.5t26 -56.5q41 34 81 56t83 22q42 0 64.5 -24t22.5 -69q0 -11 -1 -22.5t-4 -25.5l-74 -347h-57l72 343q6 25 6 44q0 49 -46 49q-36 0 -69.5 -17.5t-75.5 -47.5l-79 -371h-58l73 343q6 27 6 45
q0 48 -46 48q-38 0 -71.5 -18t-73.5 -47l-79 -371h-58z" />
    <glyph glyph-name="n" unicode="n" horiz-adv-x="489" 
d="M353 0h-58l73 343q5 23 5 38q0 55 -53 55q-38 0 -75.5 -20.5t-77.5 -49.5l-78 -366h-58l81 379q5 24 7 48t3 51h47v-72q41 35 83 58.5t85 23.5q44 0 69 -25.5t25 -72.5q0 -10 -1.5 -20.5t-3.5 -22.5z" />
    <glyph glyph-name="o" unicode="o" horiz-adv-x="473" 
d="M201 -9q-74 0 -118.5 44t-44.5 133q0 27 4 56.5t11 57.5t17.5 54t22.5 47q32 57 76.5 80.5t96.5 23.5q73 0 116.5 -43.5t43.5 -130.5q0 -57 -15 -115t-38 -100q-32 -59 -76 -83t-96 -24zM203 37q39 0 70 20.5t54 71.5q9 19 16.5 42.5t12.5 48.5t8 50t3 48q0 65 -27.5 94
t-77.5 29q-40 0 -69.5 -19t-54.5 -70q-9 -19 -16.5 -42.5t-13 -48.5t-8.5 -50.5t-3 -47.5q0 -66 28 -96t78 -30z" />
    <glyph glyph-name="p" unicode="p" horiz-adv-x="489" 
d="M112 381q5 24 7 48t3 51h48v-68q15 14 33.5 27.5t39 24.5t42 17.5t44.5 6.5q52 0 84 -35.5t32 -115.5q0 -30 -4.5 -64t-12.5 -68t-20 -66t-28 -58q-29 -49 -67.5 -70t-84.5 -21q-45 0 -77.5 20t-50.5 42l-55 -255h-57zM220 38q35 0 62 15t48 50q13 22 23.5 53t18 63
t11.5 63.5t4 55.5q0 51 -18.5 75t-52.5 24q-21 0 -41.5 -6.5t-40 -16.5t-36.5 -22.5t-31 -24.5l-59 -274q18 -21 46 -38t66 -17z" />
    <glyph glyph-name="q" unicode="q" horiz-adv-x="489" 
d="M304 60q-29 -26 -67 -48t-81 -22q-54 0 -87 35.5t-33 116.5q0 29 4.5 62t12.5 66t20 64t27 57q58 97 155 97q45 0 77 -19t53 -44l27 53h38l-145 -682h-58zM165 39q44 0 82 23t67 48l58 273q-19 22 -45.5 38.5t-68.5 16.5q-33 0 -59 -15.5t-47 -52.5q-13 -23 -24 -52.5
t-18.5 -61t-11.5 -62t-4 -54.5q0 -52 18.5 -76.5t52.5 -24.5z" />
    <glyph glyph-name="r" unicode="r" horiz-adv-x="330" 
d="M112 379q5 24 7 48t3 51h48v-80q34 37 73.5 62.5t85.5 24.5v-63q-39 1 -79 -14t-86 -56l-75 -352h-58z" />
    <glyph glyph-name="s" unicode="s" horiz-adv-x="391" 
d="M157 -10q-49 0 -88.5 16.5t-62.5 36.5l21 42q25 -19 57.5 -33.5t73.5 -14.5q45 0 72.5 22t27.5 66q0 19 -5 33t-15.5 25t-26 22t-37.5 24q-18 11 -34.5 22.5t-29.5 26t-21 34.5t-8 47q0 32 12 56.5t31.5 40.5t45 24t52.5 8q36 0 67 -10.5t57 -30.5l-19 -43
q-24 17 -49.5 27t-55.5 10q-41 0 -63.5 -19.5t-22.5 -60.5q0 -16 4 -27.5t13 -21.5t23 -19.5t34 -21.5q24 -14 43 -27.5t33 -29t21.5 -36.5t7.5 -50q0 -34 -12 -59.5t-33 -43t-50 -26.5t-63 -9z" />
    <glyph glyph-name="t" unicode="t" horiz-adv-x="293" 
d="M84 478h57l27 128l60 12l-30 -140h97l-10 -46h-97l-73 -344q-2 -7 -2 -12.5v-8.5q0 -17 7.5 -23.5t23.5 -6.5q18 0 33.5 5.5t26.5 10.5v-44q-14 -7 -31.5 -13t-36.5 -6q-38 0 -59 19.5t-21 54.5q0 8 0.5 14t2.5 14l72 340h-57z" />
    <glyph glyph-name="u" unicode="u" horiz-adv-x="490" 
d="M143 -10q-44 0 -69.5 25.5t-25.5 73.5q0 17 5 42l74 347h58l-74 -343q-4 -19 -4 -37q0 -56 53 -56q38 0 75.5 20t77.5 49l78 367h58l-78 -366q-12 -53 -13 -112h-49v71q-38 -32 -80.5 -56.5t-85.5 -24.5z" />
    <glyph glyph-name="v" unicode="v" horiz-adv-x="436" 
d="M82 478h58l27 -291q4 -42 5.5 -78t1.5 -62h1q11 28 24.5 62t32.5 70l154 299h61l-254 -478h-59z" />
    <glyph glyph-name="w" unicode="w" horiz-adv-x="653" 
d="M84 478h58l9 -294v-36v-35.5t-0.5 -29.5t-0.5 -17h2q2 4 6.5 16t10.5 27.5t13 33t15 32.5l145 303h63l14 -295q1 -17 1 -36v-35.5t-0.5 -29t-0.5 -16.5h2q2 4 6.5 16.5t11 28.5t13.5 33.5t14 32.5l137 301h61l-226 -478h-61l-15 311q-2 29 -2 59t1 48h-1
q-6 -17 -17.5 -45.5t-23.5 -54.5l-154 -318h-60z" />
    <glyph glyph-name="x" unicode="x" horiz-adv-x="428" 
d="M183 260l-82 218h62l34 -99q9 -26 14 -43t10 -39h2q14 23 25.5 39.5t29.5 41.5l74 100h68l-175 -224l95 -254h-61l-44 123q-11 31 -17 49t-11 38h-1q-6 -10 -12.5 -19t-13.5 -18.5t-16 -21.5t-21 -27l-98 -124h-68z" />
    <glyph glyph-name="y" unicode="y" horiz-adv-x="443" 
d="M-29 -163q34 10 60 23.5t46.5 32.5t37.5 45t34 62h-18l-47 478h58l27 -306q4 -40 6 -71.5t1 -57.5h1q10 26 25.5 58t36.5 74l152 303h62l-263 -510q-23 -44 -44 -73.5t-44.5 -49.5t-52.5 -32t-67 -21z" />
    <glyph glyph-name="z" unicode="z" horiz-adv-x="411" 
d="M9 54l321 376h-226l10 48h290l-11 -54l-321 -376h249l-10 -48h-314z" />
    <glyph glyph-name="braceleft" unicode="{" horiz-adv-x="360" 
d="M168 -154q-44 0 -71.5 22t-27.5 67q0 15 4 34l45 207q4 16 4 31q1 31 -17.5 44.5t-59.5 13.5l11 53q24 0 42.5 3.5t31 12.5t21 24.5t13.5 38.5l48 226q13 61 45 86t80 25h77l-10 -48h-67q-32 0 -46 -16.5t-22 -55.5l-49 -226q-6 -27 -14.5 -44.5t-19.5 -28.5t-24.5 -16.5
t-28.5 -9.5v-2q20 -8 33.5 -24.5t13.5 -48.5q0 -9 -1.5 -19t-3.5 -22l-43 -206q-2 -9 -3 -17t-1 -13q0 -44 49 -44h58l-10 -47h-57z" />
    <glyph glyph-name="bar" unicode="|" horiz-adv-x="237" 
d="M104 759h49v-905h-49v905z" />
    <glyph glyph-name="braceright" unicode="}" horiz-adv-x="360" 
d="M-31 -107h66q32 0 46.5 16.5t22.5 55.5l49 229q6 27 14.5 44.5t19.5 28t25 16.5t29 10v2q-21 8 -34.5 24t-13.5 48q0 9 1.5 19t3.5 22l43 204q2 6 3 14.5t1 16.5q0 43 -49 43h-59l10 48h57q44 0 71.5 -22t27.5 -67q0 -16 -4 -35l-43 -204q-4 -17 -4 -34q0 -30 18 -43
t58 -13l-11 -53q-49 0 -73.5 -16t-34.5 -62l-48 -229q-13 -61 -45 -85.5t-81 -24.5h-77z" />
    <glyph glyph-name="asciitilde" unicode="~" horiz-adv-x="475" 
d="M78 293q24 44 51.5 66t60.5 22q21 0 38.5 -8t32.5 -17.5t29.5 -17.5t30.5 -8q21 0 37 16t33 40l35 -22q-26 -45 -53 -66.5t-60 -21.5q-21 0 -38.5 8t-32.5 17t-29.5 17t-30.5 8q-22 0 -37 -15.5t-32 -40.5z" />
    <glyph glyph-name="Zcaron" horiz-adv-x="467" 
d="M-1 48l429 586h-289l11 53h362l-11 -50l-428 -584h303l-12 -53h-376zM229 858l29 25l84 -85l120 85l23 -27l-131 -119h-36z" />
    <glyph glyph-name="Zcaron" unicode="&#x17d;" horiz-adv-x="467" 
d="M-1 48l429 586h-289l11 53h362l-11 -50l-428 -584h303l-12 -53h-376zM229 858l29 25l84 -85l120 85l23 -27l-131 -119h-36z" />
    <glyph glyph-name="zcaron" horiz-adv-x="411" 
d="M9 54l321 376h-226l10 48h290l-11 -54l-321 -376h249l-10 -48h-314zM165 669l29 25l84 -85l120 85l23 -27l-131 -119h-36z" />
    <glyph glyph-name="zcaron" unicode="&#x17e;" horiz-adv-x="411" 
d="M9 54l321 376h-226l10 48h290l-11 -54l-321 -376h249l-10 -48h-314zM165 669l29 25l84 -85l120 85l23 -27l-131 -119h-36z" />
    <glyph glyph-name="uni00A0" unicode="&#xa0;" horiz-adv-x="196" 
 />
    <glyph glyph-name="exclamdown" unicode="&#xa1;" horiz-adv-x="244" 
d="M111 293h46l-98 -501h-70zM160 385q-22 0 -36 14t-14 36q0 21 14 35.5t36 14.5q20 0 34.5 -14.5t14.5 -35.5q0 -22 -14.5 -36t-34.5 -14z" />
    <glyph glyph-name="cent" unicode="&#xa2;" horiz-adv-x="424" 
d="M159 -5q-52 11 -84 52t-32 117q0 37 7.5 75t19.5 72.5t28.5 63.5t34.5 49q28 32 60.5 47t70.5 17l24 112h45l-25 -115q30 -5 53 -18.5t43 -32.5l-26 -42q-18 18 -37.5 29.5t-43.5 16.5l-84 -400q32 2 60.5 17.5t54.5 35.5l17 -43q-28 -25 -63.5 -40.5t-78.5 -16.5
l-22 -106h-45zM103 158q0 -54 17.5 -81.5t49.5 -35.5l84 398q-25 -2 -45 -15t-37 -40q-14 -18 -26.5 -44.5t-22 -57.5t-15 -63t-5.5 -61z" />
    <glyph glyph-name="sterling" unicode="&#xa3;" horiz-adv-x="495" 
d="M73 344h71q-3 22 -5.5 45t-2.5 48q0 57 17.5 96.5t45.5 64t64 36t74 11.5q54 0 91.5 -18t68.5 -44l-25 -45q-29 23 -60.5 39.5t-77.5 16.5q-29 0 -54 -9t-43.5 -28t-29 -48.5t-10.5 -69.5q0 -24 2.5 -48t5.5 -47h186l-11 -51h-169q2 -14 3 -27t1 -26q0 -66 -27 -112
t-81 -77h293l-11 -51h-371l11 55q69 31 98.5 74t29.5 108q0 14 -1.5 28t-3.5 28h-90z" />
    <glyph glyph-name="currency" unicode="&#xa4;" horiz-adv-x="505" 
d="M7 97l92 88q-14 34 -14 79q0 13 1.5 26.5t3.5 28.5q13 75 48 120q-6 7 -16 21l-20 28q-11 17 -23 35l42 33l53 -77q28 22 59.5 31.5t64.5 7.5q30 -2 56 -12.5t46 -31.5q7 6 21.5 19.5t28.5 27.5q17 16 35 35l33 -37q-20 -19 -38 -37q-15 -15 -30 -29.5t-23 -21.5
q15 -32 15 -78q0 -13 -1.5 -26.5t-3.5 -28.5q-13 -74 -49 -121l59 -84l-43 -32l-53 76q-28 -20 -59.5 -29.5t-63.5 -7.5q-30 2 -55.5 12.5t-45.5 30.5q-8 -7 -22.5 -20.5t-28.5 -27.5l-35 -35zM235 147q55 -2 90 33.5t50 121.5q6 34 6 61q0 55 -22.5 80.5t-67.5 27.5
q-55 2 -89.5 -33.5t-50.5 -122.5q-6 -35 -6 -61q0 -54 22.5 -79.5t67.5 -27.5z" />
    <glyph glyph-name="yen" unicode="&#xa5;" horiz-adv-x="558" 
d="M57 213h182l8 38l-18 63h-151l10 47l129 -1l-75 275h65l62 -244q7 -29 10.5 -52t5.5 -45q12 22 24.5 45t32.5 52l166 244h68l-191 -275l129 1l-10 -47h-151l-44 -63l-8 -38h181l-10 -46h-181l-36 -167h-62l36 167h-183z" />
    <glyph glyph-name="brokenbar" unicode="&#xa6;" horiz-adv-x="232" 
d="M198 759h48l-85 -398h-48zM90 250h48l-85 -396h-48z" />
    <glyph glyph-name="section" unicode="&#xa7;" horiz-adv-x="531" 
d="M200 -158q-30 0 -56.5 6t-48 15.5t-38.5 20.5t-28 22l25 44q25 -21 60 -40t88 -19q51 0 77 27t26 72q0 38 -30.5 64.5t-84.5 52.5q-27 13 -51 28t-41.5 33.5t-27.5 42t-10 53.5q0 57 35 96t110 50q-18 18 -28 40t-10 52q0 62 40 102.5t119 40.5q52 0 89 -16t63 -38
l-28 -45q-26 21 -56.5 35.5t-68.5 14.5q-56 0 -78 -26.5t-22 -64.5q0 -35 25.5 -57t77.5 -46q28 -13 53.5 -27.5t44.5 -33t30 -41.5t11 -54q0 -71 -39 -106.5t-110 -45.5q23 -20 35.5 -44t12.5 -56q0 -70 -45 -111t-121 -41zM308 348q-16 8 -30 14.5t-27 14.5
q-67 -4 -100 -34t-33 -75q0 -40 26 -64.5t78 -49.5q27 -14 51 -27q134 9 134 116q0 38 -26.5 61t-72.5 44z" />
    <glyph glyph-name="dieresis" unicode="&#xa8;" horiz-adv-x="529" 
d="M255 554q-17 0 -30 12t-13 31q0 20 12.5 32t30.5 12q17 0 30 -12t13 -32q0 -19 -12.5 -31t-30.5 -12zM419 554q-18 0 -31 12t-13 31q0 20 13 32t30 12q18 0 30.5 -12t12.5 -32q0 -19 -12.5 -31t-29.5 -12z" />
    <glyph glyph-name="copyright" unicode="&#xa9;" horiz-adv-x="705" 
d="M330 -12q-62 0 -110 20t-82 56.5t-51.5 88.5t-17.5 117q0 41 7.5 84.5t21.5 85.5t33.5 79.5t43.5 67.5q47 59 107.5 90t134.5 31q60 0 107.5 -20t80.5 -57t50.5 -89t17.5 -115q0 -44 -8 -89t-22 -87.5t-34 -80.5t-45 -68q-45 -57 -105 -85.5t-129 -28.5zM333 25
q61 0 112 26.5t89 76.5q22 27 39.5 63.5t29.5 76.5t18.5 81t6.5 78q0 113 -55 178.5t-159 65.5q-65 0 -117.5 -28t-91.5 -81q-20 -27 -37 -62.5t-29 -74t-18.5 -78.5t-6.5 -77q0 -56 14 -101t42 -77t68.5 -49.5t94.5 -17.5zM342 124q-63 0 -97 39.5t-34 114.5q0 28 5 59
t14 61.5t21 57.5t27 47q48 66 127 66q38 0 64 -12t46 -32l-30 -37q-16 16 -34.5 25.5t-46.5 9.5t-48 -12t-37 -39q-10 -17 -19.5 -42t-16.5 -52.5t-11 -55t-4 -49.5q0 -54 18.5 -78.5t59.5 -24.5q29 0 53 11t41 24l21 -39q-20 -17 -50.5 -29.5t-68.5 -12.5z" />
    <glyph glyph-name="ordfeminine" unicode="&#xaa;" horiz-adv-x="444" 
d="M180 190q-47 0 -78 33t-31 107q0 27 4 57t11.5 60t18 58t24.5 51q52 88 141 88q42 0 67.5 -17t45.5 -40l24 48h38l-71 -334q-5 -26 -8 -50.5t-4 -52.5h-46v63q-29 -28 -63 -49.5t-73 -21.5zM190 235q39 0 70.5 21t57.5 43l53 250q-17 20 -38.5 34.5t-58.5 14.5
q-31 0 -54.5 -14t-41.5 -47q-12 -20 -21 -47t-16 -55.5t-10.5 -56.5t-3.5 -50q0 -48 16 -70.5t47 -22.5z" />
    <glyph glyph-name="guillemotleft" unicode="&#xab;" horiz-adv-x="457" 
d="M219 253l173 199l38 -30l-148 -178l75 -182l-48 -21zM54 253l172 199l39 -30l-149 -178l75 -182l-48 -21z" />
    <glyph glyph-name="logicalnot" unicode="&#xac;" horiz-adv-x="449" 
d="M323 298h-242l11 51h297l-41 -192h-55z" />
    <glyph glyph-name="uni00AD" unicode="&#xad;" horiz-adv-x="284" 
d="M62 298h175l-12 -59h-175z" />
    <glyph glyph-name="registered" unicode="&#xae;" horiz-adv-x="528" 
d="M280 211q-85 0 -135 50.5t-50 145.5q0 39 7.5 75.5t22 69.5t34 60t43.5 47q57 48 134 48q82 0 132 -51.5t50 -144.5q0 -61 -19.5 -120t-54.5 -101q-32 -38 -74 -58.5t-90 -20.5zM280 248q86 0 137 68q14 18 25 42t18.5 50t11.5 53t4 52q0 75 -37 115.5t-103 40.5
q-35 0 -63.5 -9.5t-52.5 -31.5q-20 -17 -35.5 -42.5t-26 -55t-16.5 -62.5t-6 -65q0 -76 37.5 -115.5t106.5 -39.5zM257 603h73q38 0 57 -20.5t19 -51.5q0 -38 -17.5 -57t-48.5 -25q11 -5 16 -15.5t8 -33.5l12 -79h-43l-11 81q-3 24 -10.5 31t-21.5 7h-24l-25 -119h-43z
M310 475q29 0 40.5 14t11.5 40q0 36 -37 36h-32l-19 -90h36z" />
    <glyph glyph-name="macron" unicode="&#xaf;" horiz-adv-x="530" 
d="M234 641h224l-11 -50h-224z" />
    <glyph glyph-name="degree" unicode="&#xb0;" horiz-adv-x="365" 
d="M222 373q-56 0 -91 34t-35 97q0 33 11.5 68t29.5 59q23 31 54.5 46t67.5 15q59 0 92.5 -35.5t33.5 -95.5q0 -29 -9.5 -63t-25.5 -57q-23 -34 -55.5 -51t-72.5 -17zM224 413q56 0 83 51q11 20 18 50t7 53q1 45 -20.5 64.5t-54.5 19.5q-25 0 -44.5 -9.5t-33.5 -31.5
q-14 -20 -22.5 -51t-8.5 -59q-1 -45 21 -66t55 -21z" />
    <glyph glyph-name="plusminus" unicode="&#xb1;" horiz-adv-x="511" 
d="M233 282h-156l10 50h156l35 159h56l-34 -159h155l-10 -50h-156l-30 -144h-57zM34 81h368l-11 -51h-368z" />
    <glyph glyph-name="twosuperior" unicode="&#xb2;" horiz-adv-x="360" 
d="M50 262q79 50 128 89.5t76 71.5t36 58.5t9 51.5q0 29 -16.5 47.5t-48.5 18.5q-29 0 -49.5 -6.5t-43.5 -18.5l-20 36q26 17 54.5 26.5t64.5 9.5q54 0 85.5 -31.5t31.5 -80.5q0 -32 -12.5 -63.5t-41 -65t-75 -69.5t-115.5 -77h194l-10 -45h-257z" />
    <glyph glyph-name="threesuperior" unicode="&#xb3;" horiz-adv-x="368" 
d="M172 170q-42 0 -74 10t-57 24l13 42q23 -11 55 -20.5t64 -9.5q54 0 78.5 30.5t24.5 81.5q0 74 -85 74h-34l9 44h33q57 0 79.5 22.5t22.5 65.5q0 29 -20 47t-58 18q-26 0 -47 -6t-44 -15l-14 40q26 12 53 20t59 8q57 0 92 -29.5t35 -78.5q0 -47 -23 -76t-66 -40
q31 -11 49 -36t18 -61q0 -69 -41.5 -112t-121.5 -43z" />
    <glyph glyph-name="acute" unicode="&#xb4;" horiz-adv-x="480" 
d="M223 576l172 116l29 -56l-183 -95z" />
    <glyph glyph-name="mu" unicode="&#xb5;" horiz-adv-x="497" 
d="M152 -10q-45 0 -61 27l-47 -221h-58l145 682h58l-73 -342q-11 -50 1.5 -72t46.5 -22q38 0 76 20t78 49l77 367h58l-78 -366q-12 -53 -13 -112h-48v71q-39 -33 -81.5 -57t-80.5 -24z" />
    <glyph glyph-name="paragraph" unicode="&#xb6;" horiz-adv-x="508" 
d="M250 367h-6q-62 0 -97 38t-35 98q0 43 14 77t39.5 58t61 36.5t79.5 12.5h202l-164 -774h-56l154 724h-80l-153 -724h-56z" />
    <glyph glyph-name="periodcentered" unicode="&#xb7;" horiz-adv-x="235" 
d="M135 288q-21 0 -36 14.5t-15 35.5q0 22 15 36.5t36 14.5t35.5 -14.5t14.5 -36.5q0 -21 -14.5 -35.5t-35.5 -14.5z" />
    <glyph glyph-name="cedilla" unicode="&#xb8;" horiz-adv-x="529" 
d="M186 -204q-23 0 -40.5 7t-30.5 18l19 33q12 -8 24 -13t29 -5q22 0 32 11t10 31q0 16 -9.5 25.5t-28.5 9.5q-20 0 -35 -4l52 91h43l-33 -53q57 -9 57 -70q0 -35 -20.5 -58t-68.5 -23z" />
    <glyph glyph-name="onesuperior" unicode="&#xb9;" horiz-adv-x="330" 
d="M64 259h85l66 311l-91 -38l-12 30l133 82h42l-82 -385h81l-9 -44h-222z" />
    <glyph glyph-name="ordmasculine" unicode="&#xba;" horiz-adv-x="438" 
d="M225 189q-66 0 -107.5 41t-41.5 122q0 25 3.5 52t10 52.5t15.5 49.5t20 43q30 51 71 73t89 22q66 0 106.5 -40t40.5 -119q0 -52 -13.5 -105t-34.5 -91q-30 -54 -71 -77t-88 -23zM227 234q35 0 62.5 18.5t49.5 64.5q8 18 15 39.5t11.5 44t7 45.5t2.5 44q0 59 -24.5 84
t-70.5 25q-35 0 -61.5 -16.5t-48.5 -61.5q-9 -18 -16 -39.5t-12 -44.5t-7.5 -46t-2.5 -43q0 -61 25 -87.5t70 -26.5z" />
    <glyph glyph-name="guillemotright" unicode="&#xbb;" horiz-adv-x="458" 
d="M188 71l148 179l-75 182l49 20l89 -212l-172 -199zM22 71l148 179l-75 182l49 20l89 -212l-172 -199z" />
    <glyph glyph-name="onequarter" unicode="&#xbc;" horiz-adv-x="919" 
d="M514 119l203 306h60l-208 -310h160l39 181l59 11l-42 -192h51l-11 -47h-50l-22 -105h-56l22 105h-216zM64 259h85l66 311l-91 -38l-12 30l133 82h42l-82 -385h81l-9 -44h-222zM684 635h56l-487 -635h-57z" />
    <glyph glyph-name="onehalf" unicode="&#xbd;" horiz-adv-x="925" 
d="M564 49q79 50 128 89t76 71t36 58.5t9 51.5q0 29 -16.5 47.5t-48.5 18.5q-29 0 -50 -6.5t-44 -18.5l-20 36q26 17 55 27t65 10q53 0 85 -32t32 -81q0 -32 -12.5 -63.5t-41 -65t-75.5 -69.5t-116 -77h195l-10 -45h-257zM64 259h85l66 311l-91 -38l-12 30l133 82h42
l-82 -385h81l-9 -44h-222zM684 635h56l-487 -635h-57z" />
    <glyph glyph-name="threequarters" unicode="&#xbe;" horiz-adv-x="944" 
d="M540 119l204 306h59l-208 -310h161l39 181l58 11l-42 -192h51l-10 -47h-51l-22 -105h-55l22 105h-217zM172 170q-42 0 -74 10t-57 24l13 42q23 -11 55 -20.5t64 -9.5q54 0 78.5 30.5t24.5 81.5q0 74 -85 74h-34l9 44h33q57 0 79.5 22.5t22.5 65.5q0 29 -20 47t-58 18
q-26 0 -47 -5.5t-44 -15.5l-14 40q25 12 52.5 20t59.5 8q57 0 92 -29.5t35 -78.5q0 -47 -23 -76t-66 -40q31 -11 49 -36t18 -61q0 -69 -41.5 -112t-121.5 -43zM715 635h57l-488 -635h-57z" />
    <glyph glyph-name="questiondown" unicode="&#xbf;" horiz-adv-x="414" 
d="M137 -217q-67 0 -108 34.5t-41 99.5q0 43 12 71.5t31 48.5t43 34.5t48 29.5q18 11 30.5 21t21.5 22t15 27t11 36l19 86h53l-21 -97q-7 -31 -17 -52.5t-23.5 -37t-29 -27t-33.5 -21.5q-20 -12 -38 -23.5t-31.5 -27t-21.5 -37t-8 -53.5q0 -38 21.5 -60.5t69.5 -22.5
q32 0 66 10t57 21l13 -45q-28 -16 -64.5 -26.5t-74.5 -10.5zM271 385q-22 0 -36 14t-14 36q0 21 14 35.5t36 14.5q20 0 34.5 -14.5t14.5 -35.5q0 -22 -14.5 -36t-34.5 -14z" />
    <glyph glyph-name="Agrave" unicode="&#xc0;" horiz-adv-x="540" 
d="M330 687h67l59 -687h-63l-18 222h-223l-113 -222h-65zM178 273h193l-15 195q-4 54 -4.5 95.5t0.5 70.5h-1q-10 -29 -25.5 -65t-43.5 -92zM258 829l39 50l146 -115l-25 -34z" />
    <glyph glyph-name="Aacute" unicode="&#xc1;" horiz-adv-x="540" 
d="M330 687h67l59 -687h-63l-18 222h-223l-113 -222h-65zM178 273h193l-15 195q-4 54 -4.5 95.5t0.5 70.5h-1q-10 -29 -25.5 -65t-43.5 -92zM288 765l172 116l29 -56l-183 -95z" />
    <glyph glyph-name="Acircumflex" unicode="&#xc2;" horiz-adv-x="540" 
d="M330 687h67l59 -687h-63l-18 222h-223l-113 -222h-65zM178 273h193l-15 195q-4 54 -4.5 95.5t0.5 70.5h-1q-10 -29 -25.5 -65t-43.5 -92zM242 763l131 118h37l89 -121l-30 -25l-84 85l-120 -85z" />
    <glyph glyph-name="Atilde" unicode="&#xc3;" horiz-adv-x="540" 
d="M330 687h67l59 -687h-63l-18 222h-223l-113 -222h-65zM178 273h193l-15 195q-4 54 -4.5 95.5t0.5 70.5h-1q-10 -29 -25.5 -65t-43.5 -92zM234 769q19 35 40.5 52.5t48.5 17.5q16 0 30 -6t26.5 -12.5t24.5 -12.5t25 -6q17 0 28.5 11.5t24.5 28.5l31 -22q-19 -35 -41 -53
t-49 -18q-17 0 -30.5 6t-26 12.5t-24.5 12.5t-25 6q-18 0 -29 -11.5t-24 -27.5z" />
    <glyph glyph-name="Adieresis" unicode="&#xc4;" horiz-adv-x="540" 
d="M330 687h67l59 -687h-63l-18 222h-223l-113 -222h-65zM178 273h193l-15 195q-4 54 -4.5 95.5t0.5 70.5h-1q-10 -29 -25.5 -65t-43.5 -92zM288 743q-17 0 -30 12t-13 31q0 20 12.5 32t30.5 12q17 0 30 -12t13 -32q0 -19 -12.5 -31t-30.5 -12zM452 743q-18 0 -31 12t-13 31
q0 20 13 32t30 12q18 0 30.5 -12t12.5 -32q0 -19 -12.5 -31t-29.5 -12z" />
    <glyph glyph-name="Aring" unicode="&#xc5;" horiz-adv-x="540" 
d="M330 687h67l59 -687h-63l-18 222h-223l-113 -222h-65zM178 273h193l-15 195q-4 54 -4.5 95.5t0.5 70.5h-1q-10 -29 -25.5 -65t-43.5 -92zM375 732q-39 0 -59.5 24t-20.5 58q0 5 0.5 10.5t1.5 10.5q6 34 30 58.5t62 24.5q40 0 60 -25t20 -59q0 -3 -0.5 -8.5t-1.5 -10.5
q-6 -35 -30.5 -59t-61.5 -24zM374 767q40 0 51 53q1 4 1.5 8t0.5 12q0 43 -38 43q-41 0 -51 -54q-1 -5 -1.5 -9t-0.5 -10q0 -43 38 -43z" />
    <glyph glyph-name="AE" unicode="&#xc6;" horiz-adv-x="834" 
d="M487 687h356l-11 -52h-265l-53 -248h217l-10 -51h-217l-61 -284h281l-11 -52h-343l45 214h-216l-159 -214h-67zM237 266h189l46 214q4 17 10 44.5t12 53.5q7 30 15 63h-2q-11 -18 -35 -56t-66 -93z" />
    <glyph glyph-name="Ccedilla" unicode="&#xc7;" horiz-adv-x="523" 
d="M183 -204q-23 0 -40.5 7t-30.5 18l19 33q12 -8 24 -13t29 -5q22 0 32 11t10 31q0 16 -9.5 25.5t-28.5 9.5q-20 0 -35 -4l51 89q-72 18 -105.5 74.5t-33.5 143.5q0 40 6 84t17 88t26 85.5t33 74.5q39 72 94.5 110t133.5 38q57 0 97 -18t69 -46l-35 -42q-24 22 -56 38.5
t-77 16.5q-60 0 -100.5 -30.5t-69.5 -89.5q-15 -30 -28.5 -69.5t-23.5 -81.5t-16 -84t-6 -78q0 -85 34.5 -127.5t113.5 -42.5q46 0 84.5 16.5t66.5 34.5l17 -50q-32 -21 -76 -37t-96 -16q-8 0 -15.5 0.5t-15.5 1.5l-27 -45q57 -9 57 -70q0 -35 -20.5 -58t-68.5 -23z" />
    <glyph glyph-name="Egrave" unicode="&#xc8;" 
d="M186 687h327l-11 -52h-265l-53 -248h217l-11 -51h-216l-61 -284h281l-11 -52h-343zM250 829l39 50l146 -115l-25 -34z" />
    <glyph glyph-name="Eacute" unicode="&#xc9;" 
d="M186 687h327l-11 -52h-265l-53 -248h217l-11 -51h-216l-61 -284h281l-11 -52h-343zM276 765l172 116l29 -56l-183 -95z" />
    <glyph glyph-name="Ecircumflex" unicode="&#xca;" 
d="M185 687h327l-11 -52h-265l-53 -248h217l-11 -51h-216l-61 -284h281l-11 -52h-343zM227 763l131 118h37l89 -121l-30 -25l-84 85l-120 -85z" />
    <glyph glyph-name="Edieresis" unicode="&#xcb;" 
d="M183 687h327l-11 -52h-265l-53 -248h217l-11 -51h-216l-61 -284h281l-11 -52h-343zM277 743q-17 0 -30 12t-13 31q0 20 12.5 32t30.5 12q17 0 30 -12t13 -32q0 -19 -12.5 -31t-30.5 -12zM441 743q-18 0 -31 12t-13 31q0 20 13 32t30 12q18 0 30.5 -12t12.5 -32
q0 -19 -12.5 -31t-29.5 -12z" />
    <glyph glyph-name="Igrave" unicode="&#xcc;" horiz-adv-x="310" 
d="M3 33l69 7l129 606l-66 8l6 33h201l-7 -33l-72 -8l-129 -607l69 -6l-7 -33h-201zM154 829l39 50l146 -115l-25 -34z" />
    <glyph glyph-name="Iacute" unicode="&#xcd;" horiz-adv-x="310" 
d="M7 33l69 7l129 606l-66 8l6 33h201l-7 -33l-72 -8l-129 -607l69 -6l-7 -33h-201zM171 765l172 116l29 -56l-183 -95z" />
    <glyph glyph-name="Icircumflex" unicode="&#xce;" horiz-adv-x="310" 
d="M7 33l69 7l129 606l-66 8l6 33h201l-7 -33l-72 -8l-129 -607l69 -6l-7 -33h-201zM128 763l131 118h37l89 -121l-30 -25l-84 85l-120 -85z" />
    <glyph glyph-name="Idieresis" unicode="&#xcf;" horiz-adv-x="310" 
d="M5 33l69 7l129 606l-66 8l6 33h201l-7 -33l-72 -8l-129 -607l69 -6l-7 -33h-201zM181 743q-17 0 -30 12t-13 31q0 20 12.5 32t30.5 12q17 0 30 -12t13 -32q0 -19 -12.5 -31t-30.5 -12zM345 743q-18 0 -31 12t-13 31q0 20 13 32t30 12q18 0 30.5 -12t12.5 -32
q0 -19 -12.5 -31t-29.5 -12z" />
    <glyph glyph-name="Eth" unicode="&#xd0;" horiz-adv-x="574" 
d="M46 367h70l68 320h136q112 0 168 -53t56 -165q0 -44 -7.5 -95t-21 -100.5t-32.5 -93t-43 -71.5q-42 -63 -98.5 -86t-135.5 -23h-168l67 315h-70zM212 52q66 0 107.5 19.5t70.5 67.5q20 27 36.5 67.5t28.5 86.5t18.5 92.5t6.5 85.5q1 82 -36.5 123.5t-124.5 41.5h-84
l-57 -269h146l-12 -52h-145l-56 -263h101z" />
    <glyph glyph-name="Ntilde" unicode="&#xd1;" horiz-adv-x="591" 
d="M187 687h68l121 -469q11 -45 17.5 -80t10.5 -68h1q5 35 11.5 75.5t17.5 93.5l95 448h57l-146 -687h-67l-117 450q-14 56 -21.5 95.5t-11.5 71.5h-1q-7 -67 -33 -188l-91 -429h-57zM263 769q19 35 40.5 52.5t48.5 17.5q16 0 30 -6t26.5 -12.5t24.5 -12.5t25 -6
q17 0 28.5 11.5t24.5 28.5l31 -22q-19 -35 -41 -53t-49 -18q-17 0 -30.5 6t-26 12.5t-24.5 12.5t-25 6q-18 0 -29 -11.5t-24 -27.5z" />
    <glyph glyph-name="Ograve" unicode="&#xd2;" horiz-adv-x="603" 
d="M270 -10q-100 0 -152.5 59.5t-52.5 171.5q0 42 7 89t20 93.5t30 89.5t38 76q78 127 212 127q101 0 151 -62t50 -173q0 -44 -7 -92t-20 -95t-30 -89.5t-38 -75.5q-38 -60 -88.5 -89.5t-119.5 -29.5zM270 40q56 0 95 27.5t69 87.5q16 31 30 71t24 82.5t16 85t6 78.5
q-1 85 -34.5 130t-104.5 45q-56 0 -95 -29t-71 -90q-17 -32 -31 -73t-24 -83.5t-16 -84.5t-6 -76q0 -85 34 -128t108 -43zM305 829l39 50l146 -115l-25 -34z" />
    <glyph glyph-name="Oacute" unicode="&#xd3;" horiz-adv-x="603" 
d="M270 -10q-100 0 -152.5 59.5t-52.5 171.5q0 42 7 89t20 93.5t30 89.5t38 76q78 127 212 127q101 0 151 -62t50 -173q0 -44 -7 -92t-20 -95t-30 -89.5t-38 -75.5q-38 -60 -88.5 -89.5t-119.5 -29.5zM270 40q56 0 95 27.5t69 87.5q16 31 30 71t24 82.5t16 85t6 78.5
q-1 85 -34.5 130t-104.5 45q-56 0 -95 -29t-71 -90q-17 -32 -31 -73t-24 -83.5t-16 -84.5t-6 -76q0 -85 34 -128t108 -43zM329 765l172 116l29 -56l-183 -95z" />
    <glyph glyph-name="Ocircumflex" unicode="&#xd4;" horiz-adv-x="603" 
d="M270 -10q-100 0 -152.5 59.5t-52.5 171.5q0 42 7 89t20 93.5t30 89.5t38 76q78 127 212 127q101 0 151 -62t50 -173q0 -44 -7 -92t-20 -95t-30 -89.5t-38 -75.5q-38 -60 -88.5 -89.5t-119.5 -29.5zM270 40q56 0 95 27.5t69 87.5q16 31 30 71t24 82.5t16 85t6 78.5
q-1 85 -34.5 130t-104.5 45q-56 0 -95 -29t-71 -90q-17 -32 -31 -73t-24 -83.5t-16 -84.5t-6 -76q0 -85 34 -128t108 -43zM269 763l131 118h37l89 -121l-30 -25l-84 85l-120 -85z" />
    <glyph glyph-name="Otilde" unicode="&#xd5;" horiz-adv-x="603" 
d="M270 -10q-100 0 -152.5 59.5t-52.5 171.5q0 42 7 89t20 93.5t30 89.5t38 76q78 127 212 127q101 0 151 -62t50 -173q0 -44 -7 -92t-20 -95t-30 -89.5t-38 -75.5q-38 -60 -88.5 -89.5t-119.5 -29.5zM270 40q56 0 95 27.5t69 87.5q16 31 30 71t24 82.5t16 85t6 78.5
q-1 85 -34.5 130t-104.5 45q-56 0 -95 -29t-71 -90q-17 -32 -31 -73t-24 -83.5t-16 -84.5t-6 -76q0 -85 34 -128t108 -43zM266 769q19 35 40.5 52.5t48.5 17.5q16 0 30 -6t26.5 -12.5t24.5 -12.5t25 -6q17 0 28.5 11.5t24.5 28.5l31 -22q-19 -35 -41 -53t-49 -18
q-17 0 -30.5 6t-26 12.5t-24.5 12.5t-25 6q-18 0 -29 -11.5t-24 -27.5z" />
    <glyph glyph-name="Odieresis" unicode="&#xd6;" horiz-adv-x="603" 
d="M270 -10q-100 0 -152.5 59.5t-52.5 171.5q0 42 7 89t20 93.5t30 89.5t38 76q78 127 212 127q101 0 151 -62t50 -173q0 -44 -7 -92t-20 -95t-30 -89.5t-38 -75.5q-38 -60 -88.5 -89.5t-119.5 -29.5zM270 40q56 0 95 27.5t69 87.5q16 31 30 71t24 82.5t16 85t6 78.5
q-1 85 -34.5 130t-104.5 45q-56 0 -95 -29t-71 -90q-17 -32 -31 -73t-24 -83.5t-16 -84.5t-6 -76q0 -85 34 -128t108 -43zM319 743q-17 0 -30 12t-13 31q0 20 12.5 32t30.5 12q17 0 30 -12t13 -32q0 -19 -12.5 -31t-30.5 -12zM483 743q-18 0 -31 12t-13 31q0 20 13 32t30 12
q18 0 30.5 -12t12.5 -32q0 -19 -12.5 -31t-29.5 -12z" />
    <glyph glyph-name="multiply" unicode="&#xd7;" horiz-adv-x="476" 
d="M62 147l148 139l-96 139l42 33l93 -136l144 136l32 -37l-148 -139l96 -139l-42 -33l-93 135l-144 -135z" />
    <glyph glyph-name="Oslash" unicode="&#xd8;" horiz-adv-x="603" 
d="M3 -36l92 119q-30 54 -30 138q0 42 7 89t20 93.5t30 89.5t38 76q78 127 212 127q50 0 86.5 -16t62.5 -45l79 103l37 -30l-89 -115q25 -53 25 -132q0 -44 -7 -92t-20 -95t-30 -89.5t-38 -75.5q-38 -60 -88.5 -89.5t-119.5 -29.5q-95 0 -146 53l-84 -108zM127 211
q0 -44 9 -75l349 453q-35 58 -114 58q-56 0 -95 -29t-71 -90q-17 -32 -31 -73t-24.5 -83.5t-16.5 -84.5t-6 -76zM270 40q56 0 95 27.5t69 87.5q16 31 30 71t24.5 82.5t16.5 85t6 78.5q0 35 -6 64l-347 -448q36 -48 112 -48z" />
    <glyph glyph-name="Ugrave" unicode="&#xd9;" horiz-adv-x="593" 
d="M274 829l39 50l146 -115l-25 -34zM220 -10q-30 0 -57 8t-47 26t-31.5 46t-11.5 67q0 15 1.5 32t5.5 36l103 482h61l-103 -482q-4 -20 -6 -36.5t-2 -30.5q0 -51 24 -72.5t72 -21.5q28 0 54.5 7.5t49 19t41 25t32.5 25.5l121 566h61l-146 -687h-41v71q-35 -32 -81 -56.5
t-100 -24.5z" />
    <glyph glyph-name="Uacute" unicode="&#xda;" horiz-adv-x="593" 
d="M328 765l172 116l29 -56l-183 -95zM220 -10q-30 0 -57 8t-47 26t-31.5 46t-11.5 67q0 15 1.5 32t5.5 36l103 482h61l-103 -482q-4 -20 -6 -36.5t-2 -30.5q0 -51 24 -72.5t72 -21.5q28 0 54.5 7.5t49 19t41 25t32.5 25.5l121 566h61l-146 -687h-41v71q-35 -32 -81 -56.5
t-100 -24.5z" />
    <glyph glyph-name="Ucircumflex" unicode="&#xdb;" horiz-adv-x="593" 
d="M267 763l131 118h37l89 -121l-30 -25l-84 85l-120 -85zM220 -10q-30 0 -57 8t-47 26t-31.5 46t-11.5 67q0 15 1.5 32t5.5 36l103 482h61l-103 -482q-4 -20 -6 -36.5t-2 -30.5q0 -51 24 -72.5t72 -21.5q28 0 54.5 7.5t49 19t41 25t32.5 25.5l121 566h61l-146 -687h-41v71
q-35 -32 -81 -56.5t-100 -24.5z" />
    <glyph glyph-name="Udieresis" unicode="&#xdc;" horiz-adv-x="593" 
d="M315 743q-17 0 -30 12t-13 31q0 20 12.5 32t30.5 12q17 0 30 -12t13 -32q0 -19 -12.5 -31t-30.5 -12zM479 743q-18 0 -31 12t-13 31q0 20 13 32t30 12q18 0 30.5 -12t12.5 -32q0 -19 -12.5 -31t-29.5 -12zM220 -10q-30 0 -57 8t-47 26t-31.5 46t-11.5 67q0 15 1.5 32
t5.5 36l103 482h61l-103 -482q-4 -20 -6 -36.5t-2 -30.5q0 -51 24 -72.5t72 -21.5q28 0 54.5 7.5t49 19t41 25t32.5 25.5l121 566h61l-146 -687h-41v71q-35 -32 -81 -56.5t-100 -24.5z" />
    <glyph glyph-name="Yacute" unicode="&#xdd;" horiz-adv-x="523" 
d="M232 271l-106 416h66l63 -268q7 -30 11 -51.5t6 -43.5q11 22 23 43.5t32 51.5l177 268h69l-280 -419l-57 -268h-62zM288 765l172 116l29 -56l-183 -95z" />
    <glyph glyph-name="Thorn" unicode="&#xde;" horiz-adv-x="515" 
d="M187 687h61l-24 -114h90q91 0 134.5 -42.5t43.5 -115.5q0 -54 -18.5 -105.5t-48.5 -81.5q-29 -30 -71 -44t-95 -14h-121l-36 -170h-61zM262 223q38 0 68 10t50 34q11 12 19.5 29t14.5 37t9 41.5t3 41.5q0 52 -28 78.5t-91 26.5h-95l-63 -298h113z" />
    <glyph glyph-name="germandbls" unicode="&#xdf;" horiz-adv-x="510" 
d="M-45 -91q16 10 29.5 23t25 32.5t21 48t18.5 70.5l98 455q19 90 64 132.5t114 42.5q66 0 100 -35t34 -89q0 -33 -10 -56.5t-24.5 -40t-32 -27.5t-32 -21.5t-24.5 -21t-10 -24.5t9.5 -28.5t23.5 -31.5q13 -17 28 -36t27.5 -41t20.5 -47.5t8 -54.5q0 -42 -13.5 -73.5
t-36.5 -52.5t-53 -31t-64 -10q-41 0 -68 10t-41 19l15 44q15 -9 37 -17t55 -8q48 0 78.5 29.5t30.5 90.5q0 22 -6.5 42.5t-17 38.5t-23 34.5t-25.5 31.5q-17 21 -29.5 42t-12.5 45t10 39.5t24.5 28t32 23.5t32 24.5t24.5 33t10 48.5q0 35 -20 55t-61 20q-51 0 -77.5 -33.5
t-41.5 -103.5l-98 -461q-8 -37 -17 -66t-22.5 -53t-33 -43.5t-49.5 -36.5z" />
    <glyph glyph-name="agrave" unicode="&#xe0;" 
d="M156 -10q-51 0 -85 36t-34 118q0 29 4 61.5t12.5 65.5t20 64t26.5 56q57 97 154 97q45 0 74.5 -19t50.5 -44l27 53h39l-78 -366q-12 -53 -13 -112h-49v67q-31 -29 -68 -53t-81 -24zM165 39q22 0 41.5 6.5t37.5 16.5t34 23t30 25l58 273q-19 22 -43 38.5t-65 16.5
q-34 0 -60 -16t-47 -52q-13 -22 -23 -51.5t-17.5 -61t-11.5 -62t-4 -54.5q0 -52 18.5 -77t51.5 -25zM208 640l39 50l146 -115l-25 -34z" />
    <glyph glyph-name="aacute" unicode="&#xe1;" 
d="M156 -10q-51 0 -85 36t-34 118q0 29 4 61.5t12.5 65.5t20 64t26.5 56q57 97 154 97q45 0 74.5 -19t50.5 -44l27 53h39l-78 -366q-12 -53 -13 -112h-49v67q-31 -29 -68 -53t-81 -24zM165 39q22 0 41.5 6.5t37.5 16.5t34 23t30 25l58 273q-19 22 -43 38.5t-65 16.5
q-34 0 -60 -16t-47 -52q-13 -22 -23 -51.5t-17.5 -61t-11.5 -62t-4 -54.5q0 -52 18.5 -77t51.5 -25zM222 576l172 116l29 -56l-183 -95z" />
    <glyph glyph-name="acircumflex" unicode="&#xe2;" 
d="M156 -10q-51 0 -85 36t-34 118q0 29 4 61.5t12.5 65.5t20 64t26.5 56q57 97 154 97q45 0 74.5 -19t50.5 -44l27 53h39l-78 -366q-12 -53 -13 -112h-49v67q-31 -29 -68 -53t-81 -24zM165 39q22 0 41.5 6.5t37.5 16.5t34 23t30 25l58 273q-19 22 -43 38.5t-65 16.5
q-34 0 -60 -16t-47 -52q-13 -22 -23 -51.5t-17.5 -61t-11.5 -62t-4 -54.5q0 -52 18.5 -77t51.5 -25zM173 574l131 118h37l89 -121l-30 -25l-84 85l-120 -85z" />
    <glyph glyph-name="atilde" unicode="&#xe3;" 
d="M156 -10q-51 0 -85 36t-34 118q0 29 4 61.5t12.5 65.5t20 64t26.5 56q57 97 154 97q45 0 74.5 -19t50.5 -44l27 53h39l-78 -366q-12 -53 -13 -112h-49v67q-31 -29 -68 -53t-81 -24zM165 39q22 0 41.5 6.5t37.5 16.5t34 23t30 25l58 273q-19 22 -43 38.5t-65 16.5
q-34 0 -60 -16t-47 -52q-13 -22 -23 -51.5t-17.5 -61t-11.5 -62t-4 -54.5q0 -52 18.5 -77t51.5 -25zM169 580q19 35 40.5 52.5t48.5 17.5q16 0 30 -6t26.5 -12.5t24.5 -12.5t25 -6q17 0 28.5 11.5t24.5 28.5l31 -22q-19 -35 -41 -53t-49 -18q-17 0 -30.5 6t-26 12.5
t-24.5 12.5t-25 6q-18 0 -29 -11.5t-24 -27.5z" />
    <glyph glyph-name="adieresis" unicode="&#xe4;" 
d="M156 -10q-51 0 -85 36t-34 118q0 29 4 61.5t12.5 65.5t20 64t26.5 56q57 97 154 97q45 0 74.5 -19t50.5 -44l27 53h39l-78 -366q-12 -53 -13 -112h-49v67q-31 -29 -68 -53t-81 -24zM165 39q22 0 41.5 6.5t37.5 16.5t34 23t30 25l58 273q-19 22 -43 38.5t-65 16.5
q-34 0 -60 -16t-47 -52q-13 -22 -23 -51.5t-17.5 -61t-11.5 -62t-4 -54.5q0 -52 18.5 -77t51.5 -25zM224 554q-17 0 -30 12t-13 31q0 20 12.5 32t30.5 12q17 0 30 -12t13 -32q0 -19 -12.5 -31t-30.5 -12zM388 554q-18 0 -31 12t-13 31q0 20 13 32t30 12q18 0 30.5 -12
t12.5 -32q0 -19 -12.5 -31t-29.5 -12z" />
    <glyph glyph-name="aring" unicode="&#xe5;" 
d="M156 -10q-51 0 -85 36t-34 118q0 29 4 61.5t12.5 65.5t20 64t26.5 56q57 97 154 97q45 0 74.5 -19t50.5 -44l27 53h39l-78 -366q-12 -53 -13 -112h-49v67q-31 -29 -68 -53t-81 -24zM165 39q22 0 41.5 6.5t37.5 16.5t34 23t30 25l58 273q-19 22 -43 38.5t-65 16.5
q-34 0 -60 -16t-47 -52q-13 -22 -23 -51.5t-17.5 -61t-11.5 -62t-4 -54.5q0 -52 18.5 -77t51.5 -25zM299 543q-39 0 -59.5 24t-20.5 58q0 5 0.5 10.5t1.5 10.5q6 34 30 58.5t62 24.5q40 0 60 -25t20 -59q0 -3 -0.5 -8.5t-1.5 -10.5q-6 -35 -30.5 -59t-61.5 -24zM298 578
q40 0 51 53q1 4 1.5 8t0.5 12q0 43 -38 43q-41 0 -51 -54q-1 -5 -1.5 -9t-0.5 -10q0 -43 38 -43z" />
    <glyph glyph-name="ae" unicode="&#xe6;" horiz-adv-x="683" 
d="M140 -10q-55 0 -89.5 33.5t-34.5 88.5q0 87 60.5 123.5t171.5 36.5h62l14 66q10 45 -5 71.5t-64 26.5q-35 0 -68.5 -12.5t-68.5 -32.5l-22 42q38 23 78 39t90 16q44 0 72.5 -20.5t37.5 -56.5q29 35 67 56t85 21q33 0 57.5 -9.5t40.5 -25t24 -36t8 -41.5q0 -52 -27.5 -82
t-70.5 -45.5t-96 -19.5t-104 -4q-6 -38 -6 -73q0 -60 23 -87.5t72 -27.5q36 0 69.5 14.5t64.5 37.5l15 -43q-36 -29 -76 -42.5t-80 -13.5q-51 0 -85.5 23.5t-49.5 69.5q-32 -39 -73 -66t-92 -27zM291 122q1 22 3.5 50t6.5 54h-56q-93 0 -131.5 -25t-38.5 -88q0 -36 20.5 -55
t55.5 -19q42 0 77 25.5t63 57.5zM397 351q-18 -34 -30 -80q52 0 94.5 3.5t72.5 14.5t46.5 31t16.5 52q0 31 -17 50.5t-57 19.5q-43 0 -74 -24.5t-52 -66.5z" />
    <glyph glyph-name="ccedilla" unicode="&#xe7;" horiz-adv-x="416" 
d="M126 -204q-23 0 -40.5 7t-30.5 18l19 33q12 -8 24 -13t29 -5q22 0 32 11t10 31q0 16 -9.5 25.5t-28.5 9.5q-20 0 -35 -4l50 88q-49 12 -79 52.5t-30 114.5q0 55 16 113t40 100q34 61 79 86t99 25q42 0 72.5 -14t53.5 -36l-29 -42q-21 18 -45.5 31t-56.5 13
q-42 0 -72.5 -21.5t-54.5 -73.5q-9 -19 -16.5 -42.5t-13 -48.5t-9 -49.5t-3.5 -46.5q0 -67 26.5 -93.5t76.5 -26.5q35 0 64.5 15.5t56.5 36.5l22 -40q-28 -25 -66 -42t-83 -17h-9l-27 -44q57 -9 57 -70q0 -35 -20.5 -58t-68.5 -23z" />
    <glyph glyph-name="egrave" unicode="&#xe8;" horiz-adv-x="429" 
d="M187 -10q-69 0 -109 42.5t-40 127.5q0 57 16.5 117t42.5 103q30 51 75 79.5t100 28.5q34 0 58.5 -9.5t40.5 -25t23.5 -36.5t7.5 -44q0 -51 -27.5 -82.5t-71 -49.5t-97 -25t-104.5 -7q-2 -15 -3 -29t-1 -28q0 -60 23 -87.5t73 -27.5q35 0 69 14.5t64 37.5l15 -43
q-35 -29 -75.5 -42.5t-79.5 -13.5zM143 351q-11 -20 -19 -45t-14 -51q53 0 96 6t73.5 19.5t47 35t16.5 53.5q0 35 -17 54t-57 19q-43 0 -73.5 -24.5t-52.5 -66.5zM189 640l39 50l146 -115l-25 -34z" />
    <glyph glyph-name="eacute" unicode="&#xe9;" horiz-adv-x="429" 
d="M187 -10q-69 0 -109 42.5t-40 127.5q0 57 16.5 117t42.5 103q30 51 75 79.5t100 28.5q34 0 58.5 -9.5t40.5 -25t23.5 -36.5t7.5 -44q0 -51 -27.5 -82.5t-71 -49.5t-97 -25t-104.5 -7q-2 -15 -3 -29t-1 -28q0 -60 23 -87.5t73 -27.5q35 0 69 14.5t64 37.5l15 -43
q-35 -29 -75.5 -42.5t-79.5 -13.5zM143 351q-11 -20 -19 -45t-14 -51q53 0 96 6t73.5 19.5t47 35t16.5 53.5q0 35 -17 54t-57 19q-43 0 -73.5 -24.5t-52.5 -66.5zM203 576l172 116l29 -56l-183 -95z" />
    <glyph glyph-name="ecircumflex" unicode="&#xea;" horiz-adv-x="429" 
d="M187 -10q-69 0 -109 42.5t-40 127.5q0 57 16.5 117t42.5 103q30 51 75 79.5t100 28.5q34 0 58.5 -9.5t40.5 -25t23.5 -36.5t7.5 -44q0 -51 -27.5 -82.5t-71 -49.5t-97 -25t-104.5 -7q-2 -15 -3 -29t-1 -28q0 -60 23 -87.5t73 -27.5q35 0 69 14.5t64 37.5l15 -43
q-35 -29 -75.5 -42.5t-79.5 -13.5zM143 351q-11 -20 -19 -45t-14 -51q53 0 96 6t73.5 19.5t47 35t16.5 53.5q0 35 -17 54t-57 19q-43 0 -73.5 -24.5t-52.5 -66.5zM154 574l131 118h37l89 -121l-30 -25l-84 85l-120 -85z" />
    <glyph glyph-name="edieresis" unicode="&#xeb;" horiz-adv-x="429" 
d="M187 -10q-69 0 -109 42.5t-40 127.5q0 57 16.5 117t42.5 103q30 51 75 79.5t100 28.5q34 0 58.5 -9.5t40.5 -25t23.5 -36.5t7.5 -44q0 -51 -27.5 -82.5t-71 -49.5t-97 -25t-104.5 -7q-2 -15 -3 -29t-1 -28q0 -60 23 -87.5t73 -27.5q35 0 69 14.5t64 37.5l15 -43
q-35 -29 -75.5 -42.5t-79.5 -13.5zM143 351q-11 -20 -19 -45t-14 -51q53 0 96 6t73.5 19.5t47 35t16.5 53.5q0 35 -17 54t-57 19q-43 0 -73.5 -24.5t-52.5 -66.5zM205 554q-17 0 -30 12t-13 31q0 20 12.5 32t30.5 12q17 0 30 -12t13 -32q0 -19 -12.5 -31t-30.5 -12zM369 554
q-18 0 -31 12t-13 31q0 20 13 32t30 12q18 0 30.5 -12t12.5 -32q0 -19 -12.5 -31t-29.5 -12z" />
    <glyph glyph-name="igrave" unicode="&#xec;" horiz-adv-x="259" 
d="M147 431l-62 9l7 38h123l-102 -478h-57zM75 640l39 50l146 -115l-25 -34z" />
    <glyph glyph-name="iacute" unicode="&#xed;" horiz-adv-x="259" 
d="M147 431l-62 9l7 38h123l-102 -478h-57zM109 576l172 116l29 -56l-183 -95z" />
    <glyph glyph-name="icircumflex" unicode="&#xee;" horiz-adv-x="259" 
d="M147 431l-62 9l7 38h123l-102 -478h-57zM63 574l131 118h37l89 -121l-30 -25l-84 85l-120 -85z" />
    <glyph glyph-name="idieresis" unicode="&#xef;" horiz-adv-x="259" 
d="M147 431l-62 9l7 38h123l-102 -478h-57zM116 554q-17 0 -30 12t-13 31q0 20 12.5 32t30.5 12q17 0 30 -12t13 -32q0 -19 -12.5 -31t-30.5 -12zM280 554q-18 0 -31 12t-13 31q0 20 13 32t30 12q18 0 30.5 -12t12.5 -32q0 -19 -12.5 -31t-29.5 -12z" />
    <glyph glyph-name="eth" unicode="&#xf0;" horiz-adv-x="475" 
d="M180 570l105 52q-36 35 -84 64l22 41q32 -17 60 -36.5t52 -43.5l111 54l15 -35l-99 -50q33 -42 52 -98.5t19 -134.5q0 -86 -15.5 -160t-44.5 -125q-32 -59 -76 -83t-95 -24q-74 0 -118 44t-44 133q0 55 14.5 111.5t39.5 98.5q32 57 76 81t96 24q70 0 106 -52
q-9 95 -60 160l-116 -57zM204 37q39 0 69.5 20.5t53.5 71.5q18 38 29 89t11 96q0 64 -27 93t-78 29q-39 0 -69 -19t-54 -69q-18 -38 -29 -89.5t-11 -95.5q0 -66 27.5 -96t77.5 -30z" />
    <glyph glyph-name="ntilde" unicode="&#xf1;" horiz-adv-x="489" 
d="M166 580q19 35 40.5 52.5t48.5 17.5q16 0 30 -6t26.5 -12.5t24.5 -12.5t25 -6q17 0 28.5 11.5t24.5 28.5l31 -22q-19 -35 -41 -53t-49 -18q-17 0 -30.5 6t-26 12.5t-24.5 12.5t-25 6q-18 0 -29 -11.5t-24 -27.5zM353 0h-58l73 343q5 23 5 38q0 55 -53 55
q-38 0 -75.5 -20.5t-77.5 -49.5l-78 -366h-58l81 379q5 24 7 48t3 51h47v-72q41 35 83 58.5t85 23.5q44 0 69 -25.5t25 -72.5q0 -10 -1.5 -20.5t-3.5 -22.5z" />
    <glyph glyph-name="ograve" unicode="&#xf2;" horiz-adv-x="473" 
d="M201 -9q-74 0 -118.5 44t-44.5 133q0 27 4 56.5t11 57.5t17.5 54t22.5 47q32 57 76.5 80.5t96.5 23.5q73 0 116.5 -43.5t43.5 -130.5q0 -57 -15 -115t-38 -100q-32 -59 -76 -83t-96 -24zM203 37q39 0 70 20.5t54 71.5q9 19 16.5 42.5t12.5 48.5t8 50t3 48q0 65 -27.5 94
t-77.5 29q-40 0 -69.5 -19t-54.5 -70q-9 -19 -16.5 -42.5t-13 -48.5t-8.5 -50.5t-3 -47.5q0 -66 28 -96t78 -30zM202 640l39 50l146 -115l-25 -34z" />
    <glyph glyph-name="oacute" unicode="&#xf3;" horiz-adv-x="473" 
d="M201 -9q-74 0 -118.5 44t-44.5 133q0 27 4 56.5t11 57.5t17.5 54t22.5 47q32 57 76.5 80.5t96.5 23.5q73 0 116.5 -43.5t43.5 -130.5q0 -57 -15 -115t-38 -100q-32 -59 -76 -83t-96 -24zM203 37q39 0 70 20.5t54 71.5q9 19 16.5 42.5t12.5 48.5t8 50t3 48q0 65 -27.5 94
t-77.5 29q-40 0 -69.5 -19t-54.5 -70q-9 -19 -16.5 -42.5t-13 -48.5t-8.5 -50.5t-3 -47.5q0 -66 28 -96t78 -30zM215 576l172 116l29 -56l-183 -95z" />
    <glyph glyph-name="ocircumflex" unicode="&#xf4;" horiz-adv-x="473" 
d="M201 -9q-74 0 -118.5 44t-44.5 133q0 27 4 56.5t11 57.5t17.5 54t22.5 47q32 57 76.5 80.5t96.5 23.5q73 0 116.5 -43.5t43.5 -130.5q0 -57 -15 -115t-38 -100q-32 -59 -76 -83t-96 -24zM203 37q39 0 70 20.5t54 71.5q9 19 16.5 42.5t12.5 48.5t8 50t3 48q0 65 -27.5 94
t-77.5 29q-40 0 -69.5 -19t-54.5 -70q-9 -19 -16.5 -42.5t-13 -48.5t-8.5 -50.5t-3 -47.5q0 -66 28 -96t78 -30zM162 574l131 118h37l89 -121l-30 -25l-84 85l-120 -85z" />
    <glyph glyph-name="otilde" unicode="&#xf5;" horiz-adv-x="473" 
d="M201 -9q-74 0 -118.5 44t-44.5 133q0 27 4 56.5t11 57.5t17.5 54t22.5 47q32 57 76.5 80.5t96.5 23.5q73 0 116.5 -43.5t43.5 -130.5q0 -57 -15 -115t-38 -100q-32 -59 -76 -83t-96 -24zM203 37q39 0 70 20.5t54 71.5q9 19 16.5 42.5t12.5 48.5t8 50t3 48q0 65 -27.5 94
t-77.5 29q-40 0 -69.5 -19t-54.5 -70q-9 -19 -16.5 -42.5t-13 -48.5t-8.5 -50.5t-3 -47.5q0 -66 28 -96t78 -30zM155 580q19 35 40.5 52.5t48.5 17.5q16 0 30 -6t26.5 -12.5t24.5 -12.5t25 -6q17 0 28.5 11.5t24.5 28.5l31 -22q-19 -35 -41 -53t-49 -18q-17 0 -30.5 6
t-26 12.5t-24.5 12.5t-25 6q-18 0 -29 -11.5t-24 -27.5z" />
    <glyph glyph-name="odieresis" unicode="&#xf6;" horiz-adv-x="473" 
d="M201 -9q-74 0 -118.5 44t-44.5 133q0 27 4 56.5t11 57.5t17.5 54t22.5 47q32 57 76.5 80.5t96.5 23.5q73 0 116.5 -43.5t43.5 -130.5q0 -57 -15 -115t-38 -100q-32 -59 -76 -83t-96 -24zM203 37q39 0 70 20.5t54 71.5q9 19 16.5 42.5t12.5 48.5t8 50t3 48q0 65 -27.5 94
t-77.5 29q-40 0 -69.5 -19t-54.5 -70q-9 -19 -16.5 -42.5t-13 -48.5t-8.5 -50.5t-3 -47.5q0 -66 28 -96t78 -30zM214 554q-17 0 -30 12t-13 31q0 20 12.5 32t30.5 12q17 0 30 -12t13 -32q0 -19 -12.5 -31t-30.5 -12zM378 554q-18 0 -31 12t-13 31q0 20 13 32t30 12
q18 0 30.5 -12t12.5 -32q0 -19 -12.5 -31t-29.5 -12z" />
    <glyph glyph-name="divide" unicode="&#xf7;" horiz-adv-x="512" 
d="M84 313h368l-11 -50h-368zM227 75q-20 0 -34.5 14.5t-14.5 35.5t14.5 35.5t34.5 14.5q21 0 35.5 -14.5t14.5 -35.5t-14.5 -35.5t-35.5 -14.5zM297 401q-20 0 -34.5 14t-14.5 36q0 21 14.5 35t34.5 14q21 0 35 -14t14 -35q0 -22 -14 -36t-35 -14z" />
    <glyph glyph-name="oslash" unicode="&#xf8;" horiz-adv-x="473" 
d="M-10 -35l74 93q-26 43 -26 110q0 27 4 56.5t11 57.5t17.5 54t22.5 47q32 57 76.5 80.5t96.5 23.5q70 0 111 -39l68 84l30 -24l-73 -91q11 -20 17.5 -46t6.5 -58q0 -57 -15 -115t-38 -100q-32 -59 -76 -83t-96 -24q-70 0 -111 37l-70 -87zM96 163q0 -35 7 -57l241 300
q-26 35 -82 35q-40 0 -69.5 -19t-54.5 -70q-9 -19 -16.5 -42.5t-13.5 -48.5t-9 -50.5t-3 -47.5zM203 37q39 0 70 20.5t54 71.5q9 19 16.5 42.5t13 48.5t8.5 50t3 48q0 28 -6 49l-240 -298q28 -32 81 -32z" />
    <glyph glyph-name="ugrave" unicode="&#xf9;" horiz-adv-x="490" 
d="M200 640l39 50l146 -115l-25 -34zM143 -10q-44 0 -69.5 25.5t-25.5 73.5q0 17 5 42l74 347h58l-74 -343q-4 -19 -4 -37q0 -56 53 -56q38 0 75.5 20t77.5 49l78 367h58l-78 -366q-12 -53 -13 -112h-49v71q-38 -32 -80.5 -56.5t-85.5 -24.5z" />
    <glyph glyph-name="uacute" unicode="&#xfa;" horiz-adv-x="490" 
d="M238 576l172 116l29 -56l-183 -95zM143 -10q-44 0 -69.5 25.5t-25.5 73.5q0 17 5 42l74 347h58l-74 -343q-4 -19 -4 -37q0 -56 53 -56q38 0 75.5 20t77.5 49l78 367h58l-78 -366q-12 -53 -13 -112h-49v71q-38 -32 -80.5 -56.5t-85.5 -24.5z" />
    <glyph glyph-name="ucircumflex" unicode="&#xfb;" horiz-adv-x="490" 
d="M175 574l131 118h37l89 -121l-30 -25l-84 85l-120 -85zM143 -10q-44 0 -69.5 25.5t-25.5 73.5q0 17 5 42l74 347h58l-74 -343q-4 -19 -4 -37q0 -56 53 -56q38 0 75.5 20t77.5 49l78 367h58l-78 -366q-12 -53 -13 -112h-49v71q-38 -32 -80.5 -56.5t-85.5 -24.5z" />
    <glyph glyph-name="udieresis" unicode="&#xfc;" horiz-adv-x="490" 
d="M221 554q-17 0 -30 12t-13 31q0 20 12.5 32t30.5 12q17 0 30 -12t13 -32q0 -19 -12.5 -31t-30.5 -12zM385 554q-18 0 -31 12t-13 31q0 20 13 32t30 12q18 0 30.5 -12t12.5 -32q0 -19 -12.5 -31t-29.5 -12zM143 -10q-44 0 -69.5 25.5t-25.5 73.5q0 17 5 42l74 347h58
l-74 -343q-4 -19 -4 -37q0 -56 53 -56q38 0 75.5 20t77.5 49l78 367h58l-78 -366q-12 -53 -13 -112h-49v71q-38 -32 -80.5 -56.5t-85.5 -24.5z" />
    <glyph glyph-name="yacute" unicode="&#xfd;" horiz-adv-x="443" 
d="M-29 -163q34 10 60 23.5t46.5 32.5t37.5 45t34 62h-18l-47 478h58l27 -306q4 -40 6 -71.5t1 -57.5h1q10 26 25.5 58t36.5 74l152 303h62l-263 -510q-23 -44 -44 -73.5t-44.5 -49.5t-52.5 -32t-67 -21zM221 576l172 116l29 -56l-183 -95z" />
    <glyph glyph-name="thorn" unicode="&#xfe;" horiz-adv-x="489" 
d="M183 715h58l-64 -298q29 26 68.5 48.5t83.5 22.5q52 0 84 -35.5t32 -115.5q0 -33 -5.5 -71t-15.5 -75.5t-25 -71t-34 -57.5q-27 -38 -61.5 -55t-75.5 -17q-45 0 -77.5 20t-50.5 42l-55 -255h-57zM220 38q31 0 55 11t44 40q15 21 27.5 52.5t21.5 66.5t14 69t5 61
q0 51 -18.5 75t-52.5 24q-21 0 -41.5 -6.5t-40 -16.5t-36.5 -22.5t-31 -24.5l-59 -274q18 -21 46 -38t66 -17z" />
    <glyph glyph-name="ydieresis" unicode="&#xff;" horiz-adv-x="443" 
d="M-29 -163q34 10 60 23.5t46.5 32.5t37.5 45t34 62h-18l-47 478h58l27 -306q4 -40 6 -71.5t1 -57.5h1q10 26 25.5 58t36.5 74l152 303h62l-263 -510q-23 -44 -44 -73.5t-44.5 -49.5t-52.5 -32t-67 -21zM203 554q-17 0 -30 12t-13 31q0 20 12.5 32t30.5 12q17 0 30 -12
t13 -32q0 -19 -12.5 -31t-30.5 -12zM367 554q-18 0 -31 12t-13 31q0 20 13 32t30 12q18 0 30.5 -12t12.5 -32q0 -19 -12.5 -31t-29.5 -12z" />
    <glyph glyph-name="dotlessi" unicode="&#x131;" horiz-adv-x="259" 
d="M147 431l-62 9l7 38h123l-102 -478h-57z" />
    <glyph glyph-name="Lslash" unicode="&#x141;" horiz-adv-x="448" 
d="M33 306l78 26l76 355h61l-70 -332l163 55l-11 -53l-163 -55l-53 -249h248l-11 -53h-310l59 280l-78 -26z" />
    <glyph glyph-name="lslash" unicode="&#x142;" horiz-adv-x="251" 
d="M38 339l77 36l73 340h58l-66 -309l93 44l-12 -53l-92 -44l-59 -277q-1 -5 -1.5 -8.5t-0.5 -7.5q0 -23 26 -23q8 0 18 2q4 1 9 2v-41q-8 -3 -19 -5.5t-24 -2.5q-31 0 -49 15.5t-18 49.5q0 14 4 33l49 233l-77 -37z" />
    <glyph glyph-name="OE" unicode="&#x152;" horiz-adv-x="810" 
d="M290 0q-112 0 -168 53t-56 165q0 44 7 95t20.5 100.5t33 92.5t43.5 72q42 63 99 86t135 23h433l-11 -52h-265l-53 -248h217l-10 -51h-217l-61 -284h281l-11 -52h-417zM375 51l124 584h-101q-66 0 -107.5 -19.5t-70.5 -68.5q-20 -26 -36.5 -66.5t-28.5 -86.5t-18.5 -92.5
t-6.5 -85.5q-1 -83 36.5 -124t124.5 -41h84z" />
    <glyph glyph-name="oe" unicode="&#x153;" horiz-adv-x="743" 
d="M201 -9q-74 0 -118.5 44t-44.5 133q0 27 4 56.5t11 57.5t17.5 54t22.5 47q32 57 76.5 80.5t96.5 23.5q57 0 94.5 -26t51.5 -80q2 2 2.5 3.5t2.5 3.5q29 44 72 72t97 28q34 0 58.5 -9.5t40.5 -25t23.5 -36.5t7.5 -44q0 -51 -27.5 -82.5t-71 -49.5t-97 -25t-104.5 -7
q-2 -15 -3 -29t-1 -28q0 -60 23 -87.5t73 -27.5q35 0 69 14.5t64 37.5l15 -43q-35 -29 -75.5 -42.5t-79.5 -13.5q-54 0 -88 24.5t-47 74.5q-32 -53 -74 -75.5t-91 -22.5zM203 37q39 0 70 20.5t54 71.5q9 19 16.5 42.5t12.5 48.5t8 50t3 48q0 65 -27.5 94t-77.5 29
q-40 0 -69.5 -19t-54.5 -70q-9 -19 -16.5 -42.5t-13 -48.5t-8.5 -50.5t-3 -47.5q0 -66 28 -96t78 -30zM457 351q-10 -20 -18.5 -45t-14.5 -51q53 0 96 6t73.5 19.5t47 35t16.5 53.5q0 35 -17 54t-57 19q-43 0 -73.5 -24.5t-52.5 -66.5z" />
    <glyph glyph-name="Scaron" unicode="&#x160;" horiz-adv-x="479" 
d="M204 -10q-66 0 -120.5 26t-86.5 60l28 47q37 -35 79 -57.5t98 -22.5q37 0 64.5 11t45.5 30.5t26.5 46t8.5 57.5q0 26 -6.5 46t-20 37.5t-34.5 34t-49 34.5q-29 18 -51.5 37t-37.5 40t-22.5 45.5t-7.5 55.5q0 43 13.5 76t38.5 55.5t59 34.5t76 12q57 0 101 -18t70 -41
l-25 -47q-27 23 -66.5 39t-81.5 16q-57 0 -91 -31t-34 -93q0 -22 5.5 -39t16.5 -32.5t29 -30t44 -30.5q31 -20 56.5 -40.5t43.5 -44t27.5 -51.5t9.5 -63q0 -38 -11 -74t-35.5 -64t-63.5 -45t-96 -17zM210 858l29 25l84 -85l120 85l23 -27l-131 -119h-36z" />
    <glyph glyph-name="scaron" unicode="&#x161;" horiz-adv-x="391" 
d="M165 -10q-49 0 -88.5 16.5t-62.5 36.5l21 42q25 -19 57.5 -33.5t73.5 -14.5q45 0 72.5 22t27.5 66q0 19 -5 33t-15.5 25t-26 22t-37.5 24q-18 11 -34.5 22.5t-29.5 26t-21 34.5t-8 47q0 32 12 56.5t31.5 40.5t45 24t52.5 8q36 0 67 -10.5t57 -30.5l-19 -43
q-24 17 -49.5 27t-55.5 10q-41 0 -63.5 -19.5t-22.5 -60.5q0 -16 4 -27.5t13 -21.5t23 -19.5t34 -21.5q24 -14 43 -27.5t33 -29t21.5 -36.5t7.5 -50q0 -34 -12 -59.5t-33 -43t-50 -26.5t-63 -9zM141 669l29 25l84 -85l120 85l23 -27l-131 -119h-36z" />
    <glyph glyph-name="Ydieresis" unicode="&#x178;" horiz-adv-x="523" 
d="M232 271l-106 416h66l63 -268q7 -30 11 -51.5t6 -43.5q11 22 23 43.5t32 51.5l177 268h69l-280 -419l-57 -268h-62zM277 743q-17 0 -30 12t-13 31q0 20 12.5 32t30.5 12q17 0 30 -12t13 -32q0 -19 -12.5 -31t-30.5 -12zM441 743q-18 0 -31 12t-13 31q0 20 13 32t30 12
q18 0 30.5 -12t12.5 -32q0 -19 -12.5 -31t-29.5 -12z" />
    <glyph glyph-name="florin" unicode="&#x192;" horiz-adv-x="357" 
d="M79 433h84l29 134q16 72 53.5 100.5t87.5 28.5q26 0 46 -6.5t37 -17.5l-22 -46q-14 9 -28.5 14t-34.5 5q-30 0 -50.5 -19t-29.5 -63l-28 -130h108l-10 -48h-108l-125 -589h-60l125 589h-84z" />
    <glyph glyph-name="circumflex" unicode="&#x2c6;" horiz-adv-x="530" 
d="M204 574l131 118h37l89 -121l-30 -25l-84 85l-120 -85z" />
    <glyph glyph-name="caron" unicode="&#x2c7;" horiz-adv-x="529" 
d="M224 669l29 25l84 -85l120 85l23 -27l-131 -119h-36z" />
    <glyph glyph-name="breve" unicode="&#x2d8;" horiz-adv-x="529" 
d="M339 559q-24 0 -43.5 9t-33 24t-21.5 33.5t-10 38.5l42 12q5 -28 19 -46t49 -18t53 17.5t32 46.5l40 -12q-6 -21 -17.5 -40t-28 -33.5t-37 -23t-44.5 -8.5z" />
    <glyph glyph-name="dotaccent" unicode="&#x2d9;" horiz-adv-x="530" 
d="M339 566q-17 0 -30 12.5t-13 31.5t12.5 31.5t30.5 12.5q17 0 30 -12.5t13 -31.5t-12.5 -31.5t-30.5 -12.5z" />
    <glyph glyph-name="ring" unicode="&#x2da;" horiz-adv-x="528" 
d="M337 543q-39 0 -59.5 24t-20.5 58q0 5 0.5 10.5t1.5 10.5q6 34 30 58.5t62 24.5q40 0 60 -25t20 -59q0 -3 -0.5 -8.5t-1.5 -10.5q-6 -35 -30.5 -59t-61.5 -24zM336 578q40 0 51 53q1 4 1.5 8t0.5 12q0 43 -38 43q-41 0 -51 -54q-1 -5 -1.5 -9t-0.5 -10q0 -43 38 -43z" />
    <glyph glyph-name="ogonek" unicode="&#x2db;" horiz-adv-x="530" 
d="M187 -205q-34 0 -55.5 19t-21.5 50q0 21 8.5 39.5t22 36t30.5 32.5t34 28h48q-39 -36 -67.5 -69t-28.5 -64q0 -32 35 -32q17 0 29.5 5t26.5 13l8 -35q-14 -8 -30 -15.5t-39 -7.5z" />
    <glyph glyph-name="tilde" unicode="&#x2dc;" horiz-adv-x="529" 
d="M199 580q19 35 40.5 52.5t48.5 17.5q16 0 30 -6t26.5 -12.5t24.5 -12.5t25 -6q17 0 28.5 11.5t24.5 28.5l31 -22q-19 -35 -41 -53t-49 -18q-17 0 -30.5 6t-26 12.5t-24.5 12.5t-25 6q-18 0 -29 -11.5t-24 -27.5z" />
    <glyph glyph-name="hungarumlaut" unicode="&#x2dd;" horiz-adv-x="481" 
d="M195 550l127 174l49 -36l-143 -160zM344 550l127 174l48 -36l-143 -160z" />
    <glyph glyph-name="endash" unicode="&#x2013;" horiz-adv-x="492" 
d="M64 305h382l-11 -51h-382z" />
    <glyph glyph-name="emdash" unicode="&#x2014;" horiz-adv-x="687" 
d="M64 305h577l-11 -51h-577z" />
    <glyph glyph-name="quoteleft" unicode="&#x2018;" horiz-adv-x="215" 
d="M170 491q-22 0 -36.5 14.5t-14.5 43.5q0 21 7.5 44t22.5 43t39 35t57 22v-31q-27 -11 -45 -30.5t-23 -42.5q15 -3 27.5 -15.5t12.5 -33.5t-13.5 -35t-33.5 -14z" />
    <glyph glyph-name="quoteright" unicode="&#x2019;" horiz-adv-x="214" 
d="M111 520q26 11 44 31t23 43q-15 2 -27.5 15t-12.5 33q0 22 14 35.5t34 13.5q21 0 35.5 -14.5t14.5 -43.5q0 -21 -7.5 -43.5t-22.5 -42.5t-38.5 -35.5t-56.5 -22.5v31z" />
    <glyph glyph-name="quotesinglbase" unicode="&#x201a;" horiz-adv-x="215" 
d="M-14 -74q26 11 44 31t23 43q-15 2 -27.5 15t-12.5 34t14 35t34 14q21 0 35.5 -15t14.5 -44q0 -21 -7.5 -43.5t-22.5 -42.5t-38.5 -35.5t-56.5 -22.5v31z" />
    <glyph glyph-name="quotedblleft" unicode="&#x201c;" horiz-adv-x="377" 
d="M170 491q-22 0 -36.5 15t-14.5 44q0 21 7.5 43.5t23 42.5t39 35.5t56.5 22.5v-31q-26 -11 -44.5 -31t-22.5 -43q14 -2 27 -15t13 -34t-14 -35t-34 -14zM332 491q-22 0 -36.5 15t-14.5 44q0 21 7.5 43.5t22.5 42.5t39 35.5t57 22.5v-31q-27 -11 -45 -31t-23 -43
q15 -2 27.5 -15t12.5 -34t-13.5 -35t-33.5 -14z" />
    <glyph glyph-name="quotedblright" unicode="&#x201d;" horiz-adv-x="376" 
d="M272 520q26 11 44.5 31t22.5 43q-14 2 -27 15t-13 33q0 22 14 35.5t34 13.5q22 0 36.5 -14.5t14.5 -43.5q0 -21 -7.5 -43.5t-23 -42.5t-39 -35.5t-56.5 -22.5v31zM111 520q26 11 44 31t23 43q-15 2 -27.5 15t-12.5 33q0 22 14 35.5t34 13.5q21 0 35.5 -14.5t14.5 -43.5
q0 -21 -7.5 -43.5t-22.5 -42.5t-38.5 -35.5t-56.5 -22.5v31z" />
    <glyph glyph-name="quotedblbase" unicode="&#x201e;" horiz-adv-x="377" 
d="M150 -74q26 11 44.5 31t22.5 43q-14 2 -26.5 15t-12.5 34t13.5 35t33.5 14q22 0 36.5 -15t14.5 -44q0 -21 -7.5 -43.5t-23 -42.5t-39 -35.5t-56.5 -22.5v31zM-11 -74q26 11 44.5 31t22.5 43q-15 2 -27.5 15t-12.5 34t14 35t34 14q21 0 35.5 -15t14.5 -44
q0 -21 -7.5 -43.5t-22.5 -42.5t-38.5 -35.5t-56.5 -22.5v31z" />
    <glyph glyph-name="dagger" unicode="&#x2020;" horiz-adv-x="349" 
d="M199 508h-97l10 50h97l28 129h55l-27 -129h97l-11 -50h-97l-59 -277h-55z" />
    <glyph glyph-name="daggerdbl" unicode="&#x2021;" horiz-adv-x="350" 
d="M168 361h-97l11 50h97l21 96h-97l10 50h97l28 130h55l-27 -130h97l-11 -50h-97l-21 -96h97l-10 -50h-97l-28 -130h-55z" />
    <glyph glyph-name="bullet" unicode="&#x2022;" horiz-adv-x="287" 
d="M151 235q-38 0 -58.5 24t-20.5 59q0 21 7.5 39.5t20 32.5t30 22t38.5 8q36 0 56 -23.5t20 -58.5q0 -20 -7 -39t-19.5 -33t-29.5 -22.5t-37 -8.5z" />
    <glyph glyph-name="ellipsis" unicode="&#x2026;" horiz-adv-x="629" 
d="M466 -5q-21 0 -35.5 14t-14.5 36t14.5 36.5t35.5 14.5t35.5 -14.5t14.5 -36.5t-14.5 -36t-35.5 -14zM72 -5q-21 0 -35.5 14t-14.5 36t14.5 36.5t35.5 14.5t35.5 -14.5t14.5 -36.5t-14.5 -36t-35.5 -14zM269 -5q-21 0 -35.5 14t-14.5 36t14.5 36.5t35.5 14.5t35.5 -14.5
t14.5 -36.5t-14.5 -36t-35.5 -14z" />
    <glyph glyph-name="perthousand" unicode="&#x2030;" horiz-adv-x="1128" 
d="M898 -9q-62 0 -95 38t-33 101q0 27 6 53.5t16.5 50.5t25.5 43.5t34 32.5q35 25 85 25q57 0 91 -36.5t34 -98.5q0 -50 -18.5 -98.5t-50.5 -76.5q-40 -34 -95 -34zM220 300q-62 0 -95 38.5t-33 101.5q0 54 22.5 103.5t59.5 75.5q35 25 85 25q58 0 91.5 -36.5t33.5 -98.5
q0 -50 -18.5 -98.5t-50.5 -76.5q-40 -34 -95 -34zM557 -9q-62 0 -95 38t-33 101q0 27 6 53.5t16.5 50.5t25.5 43.5t34 32.5q35 25 85 25q57 0 91 -36.5t34 -98.5q0 -50 -18.5 -98.5t-51.5 -76.5q-39 -34 -94 -34zM559 36q41 0 64 29q10 11 18.5 28t13.5 36t8 39t3 38
q0 85 -74 85q-33 0 -55 -19q-12 -11 -22 -28t-17 -38t-10.5 -43t-3.5 -41q0 -86 75 -86zM900 36q41 0 65 29q10 11 18 28t13 36t8 39t3 38q0 85 -73 85q-34 0 -56 -19q-12 -11 -21.5 -28t-16.5 -38t-10.5 -43t-3.5 -41q0 -86 74 -86zM222 345q41 0 65 29q10 12 18 28.5
t13 36t8 39t3 37.5q0 85 -73 85q-34 0 -56 -19q-12 -11 -21.5 -28t-16.5 -37.5t-10.5 -42.5t-3.5 -42q0 -86 74 -86zM622 635h57l-488 -635h-57z" />
    <glyph glyph-name="guilsinglleft" unicode="&#x2039;" horiz-adv-x="292" 
d="M54 253l172 199l39 -30l-149 -178l75 -182l-48 -21z" />
    <glyph glyph-name="guilsinglright" unicode="&#x203a;" horiz-adv-x="292" 
d="M22 71l148 179l-75 182l49 20l89 -212l-172 -199z" />
    <glyph glyph-name="fraction" unicode="&#x2044;" horiz-adv-x="280" 
d="M368 635h57l-488 -635h-57z" />
    <glyph glyph-name="Euro" unicode="&#x20ac;" horiz-adv-x="556" 
d="M68 414h87q20 63 49 112q73 119 204 119q54 0 90.5 -15.5t61.5 -38.5l-28 -44q-23 20 -54 34t-73 14q-51 0 -88 -23t-63 -71q-11 -18 -19.5 -40t-16.5 -47h221l-9 -47h-225q-13 -49 -17 -93h222l-10 -47h-216v-20q0 -82 34 -124t112 -42q41 0 74.5 13t58.5 30l16 -46
q-26 -18 -65.5 -32.5t-87.5 -14.5q-103 0 -153 58t-50 161v17h-94l10 47h87q3 23 7 46.5t9 46.5h-83z" />
    <glyph glyph-name="trademark" unicode="&#x2122;" horiz-adv-x="716" 
d="M442 687h71l18 -177q2 -28 1.5 -51t-0.5 -29h1q2 6 9.5 27t22.5 51l95 179h76l-78 -368h-50l44 209q9 45 18 77.5t11 39.5h-1q-1 -3 -5 -13.5t-11 -25.5t-16 -33.5t-19 -37.5l-83 -151h-46l-18 149q-4 38 -3.5 70.5t-0.5 41.5h-1q-2 -9 -7 -43t-14 -74l-44 -209h-48z
M225 642h-91l9 45h234l-10 -45h-92l-68 -323h-50z" />
    <glyph glyph-name="minus" unicode="&#x2212;" horiz-adv-x="511" 
d="M83 313h368l-11 -50h-368z" />
    <glyph glyph-name="uni2219" unicode="&#x2219;" horiz-adv-x="235" 
d="M135 288q-21 0 -36 14.5t-15 35.5q0 22 15 36.5t36 14.5t35.5 -14.5t14.5 -36.5q0 -21 -14.5 -35.5t-35.5 -14.5z" />
    <glyph glyph-name="uni2224" unicode="&#x2224;" horiz-adv-x="235" 
d="M135 288q-21 0 -36 14.5t-15 35.5q0 22 15 36.5t36 14.5t35.5 -14.5t14.5 -36.5q0 -21 -14.5 -35.5t-35.5 -14.5z" />
    <glyph glyph-name="uni2227" unicode="&#x2227;" horiz-adv-x="235" 
d="M135 288q-21 0 -36 14.5t-15 35.5q0 22 15 36.5t36 14.5t35.5 -14.5t14.5 -36.5q0 -21 -14.5 -35.5t-35.5 -14.5z" />
    <glyph glyph-name="uni22C5" unicode="&#x22c5;" horiz-adv-x="235" 
d="M135 288q-21 0 -36 14.5t-15 35.5q0 22 15 36.5t36 14.5t35.5 -14.5t14.5 -36.5q0 -21 -14.5 -35.5t-35.5 -14.5z" />
    <glyph glyph-name="ff" unicode="&#xfb00;" horiz-adv-x="526" 
d="M83 478h57l22 112q7 34 19.5 57.5t29.5 37.5t37.5 20.5t41.5 6.5q26 0 42.5 -5t30.5 -15l-16 -43q-14 8 -26 12t-31 4q-26 0 -44.5 -17.5t-26.5 -62.5l-21 -107h184l24 122q13 68 50 95t83 27q27 0 45 -6t32 -15l-16 -43q-14 8 -27.5 12.5t-33.5 4.5q-29 0 -48.5 -19
t-27.5 -61l-23 -117h93l-10 -46h-92l-67 -351q-7 -37 -15.5 -66.5t-22 -53.5t-34 -43.5t-50.5 -36.5l-27 40q16 10 29.5 23t25.5 32.5t21.5 48t17.5 70.5l64 337h-184l-70 -364q-7 -37 -15.5 -66.5t-22 -53t-33.5 -43t-50 -36.5l-28 40q16 10 29.5 23t25.5 32.5t22 48
t18 70.5l67 349h-59z" />
    <glyph glyph-name="fi" unicode="&#xfb01;" horiz-adv-x="484" 
d="M372 432h-185l-70 -364q-7 -37 -16 -66.5t-22.5 -53t-33 -43t-49.5 -36.5l-28 40q16 10 29.5 23t25.5 32.5t22 48t18 70.5l67 349h-57l10 46h56l19 100q14 74 56.5 109t101.5 35q39 0 65.5 -11t42.5 -23l-19 -46q-14 10 -36 19t-52 9q-41 0 -66.5 -22t-35.5 -76l-19 -94
h244l-102 -478h-58z" />
    <glyph glyph-name="fl" unicode="&#xfb02;" horiz-adv-x="492" 
d="M354 76q-1 -5 -1.5 -8.5t-0.5 -7.5q0 -23 26 -23q8 0 18 2q4 1 9 2v-41q-8 -3 -19 -5.5t-24 -2.5q-31 0 -49 15.5t-18 49.5q0 14 4 33l122 574q-12 5 -31 8t-48 3q-60 0 -89 -28.5t-41 -91.5l-15 -77h94l-10 -46h-93l-69 -364q-7 -37 -16 -66.5t-22.5 -53t-33.5 -43
t-50 -36.5l-27 40q16 10 29.5 23t25.5 32.5t21.5 48t17.5 70.5l66 349h-57l10 46h56l17 87q17 86 66 122.5t122 36.5q26 0 45.5 -2.5t34.5 -6.5h66z" />
    <glyph glyph-name="ffi" unicode="&#xfb03;" horiz-adv-x="724" 
d="M613 432h-182l-67 -351q-7 -37 -15.5 -66.5t-22 -53.5t-34 -43.5t-50.5 -36.5l-27 40q16 10 29.5 23t25.5 32.5t21.5 48t17.5 70.5l64 337h-184l-70 -364q-7 -37 -15.5 -66.5t-22 -53t-33.5 -43t-50 -36.5l-28 40q16 10 29.5 23t25.5 32.5t22 48t18 70.5l67 349h-59
l10 46h57l22 112q7 34 19.5 57.5t29.5 37.5t37.5 20.5t41.5 6.5q26 0 42.5 -5t30.5 -15l-16 -43q-14 8 -26 12t-31 4q-26 0 -44.5 -17.5t-26.5 -62.5l-21 -107h184l19 100q14 73 56.5 108.5t101.5 35.5q39 0 65.5 -11t42.5 -23l-19 -46q-14 10 -36 19t-52 9q-41 0 -66.5 -22
t-35.5 -76l-18 -94h240l-101 -478h-58z" />
    <glyph glyph-name="ffl" unicode="&#xfb04;" horiz-adv-x="733" 
d="M595 76q-1 -5 -1.5 -8.5t-0.5 -7.5q0 -23 26 -23q8 0 18 2q4 1 9 2v-41q-8 -3 -19 -5.5t-24 -2.5q-31 0 -49 15.5t-18 49.5q0 14 4 33l122 574q-11 5 -29.5 8t-47.5 3q-60 0 -90 -29t-41 -91l-15 -77h94l-10 -46h-92l-67 -351q-7 -37 -15.5 -66.5t-22 -53.5t-34 -43.5
t-50.5 -36.5l-27 40q16 10 29.5 23t25.5 32.5t21.5 48t17.5 70.5l64 337h-184l-70 -364q-7 -37 -15.5 -66.5t-22 -53t-33.5 -43t-50 -36.5l-28 40q16 10 29.5 23t25.5 32.5t22 48t18 70.5l67 349h-59l10 46h57l22 112q13 67 49 94.5t79 27.5q26 0 42.5 -5t30.5 -15l-16 -43
q-14 8 -26 12t-31 4q-26 0 -44.5 -17.5t-26.5 -62.5l-21 -107h183l17 87q17 86 66 122.5t122 36.5q26 0 45 -2.5t34 -6.5h66z" />
    <glyph glyph-name="f_j" horiz-adv-x="482" 
d="M170 -168q22 12 38 24t28 27t21 36t15 51l98 462h-184l-70 -364q-7 -37 -16 -66.5t-22.5 -53t-33 -43t-49.5 -36.5l-28 40q16 10 29.5 23t25.5 32.5t22 48t18 70.5l67 349h-56l10 46h55l19 100q14 74 56 109t102 35q39 0 65.5 -11t42.5 -23l-19 -46q-14 10 -36 19t-52 9
q-41 0 -66.5 -22t-36.5 -76l-18 -94h243l-109 -511q-9 -42 -21.5 -70t-30 -47t-40 -32t-50.5 -26z" />
    </font>
</defs>
</svg>
