<?xml version="1.0" standalone="no"?>
<!DOCTYPE svg PUBLIC "-//W3C//DTD SVG 1.1//EN" "http://www.w3.org/Graphics/SVG/1.1/DTD/svg11.dtd" >
<svg>
<metadata>
Created by FontForge 20110222 at Mon Jan 20 07:53:38 2014
 By Orthosie Webhosting
2004 Erik Spiekermann, Christian Schwartz; published by FontShop International for the FontFont library.
</metadata>
<defs>
<font id="UnitThinItalicRegular" horiz-adv-x="530" >
  <font-face 
    font-family="UnitThinItalicRegular"
    font-weight="100"
    font-style="italic"
    font-stretch="normal"
    units-per-em="1000"
    panose-1="2 0 2 6 4 0 0 2 0 4"
    ascent="714"
    descent="-286"
    x-height="459"
    cap-height="685"
    bbox="-112 -232 1039 904"
    underline-thickness="20"
    underline-position="-122"
    unicode-range="U+0020-FB04"
  />
<missing-glyph horiz-adv-x="475" 
d="M33 689h409v-689h-409v689zM410 32v625h-345v-625h345z" />
    <glyph glyph-name=".notdef" horiz-adv-x="475" 
d="M33 689h409v-689h-409v689zM410 32v625h-345v-625h345z" />
    <glyph glyph-name=".null" horiz-adv-x="0" 
 />
    <glyph glyph-name="nonmarkingreturn" horiz-adv-x="176" 
 />
    <glyph glyph-name="space" unicode=" " horiz-adv-x="176" 
 />
    <glyph glyph-name="exclam" unicode="!" horiz-adv-x="222" 
d="M182 685h41l-120 -518h-31zM63 -5q-16 0 -27 10.5t-11 27.5t11 27.5t27 10.5t27 -10.5t11 -27.5t-11 -27.5t-27 -10.5z" />
    <glyph glyph-name="quotedbl" unicode="&#x22;" horiz-adv-x="326" 
d="M302 708h36l-48 -227h-36zM178 708h36l-48 -227h-36z" />
    <glyph glyph-name="numbersign" unicode="#" horiz-adv-x="522" 
d="M99 451h100l50 184h35l-49 -184h148l50 184h35l-49 -184h99l-7 -32h-101l-52 -195h101l-7 -32h-103l-51 -192h-35l51 192h-149l-51 -192h-35l51 192h-99l7 32h101l52 195h-99zM174 224h149l52 195h-149z" />
    <glyph glyph-name="dollar" unicode="$" horiz-adv-x="440" 
d="M145 -5q-49 7 -87.5 30t-63.5 50l20 29q26 -28 59.5 -49.5t78.5 -27.5l64 298q-23 15 -42.5 31.5t-34 36t-22.5 42t-8 50.5q0 37 12.5 66t35 49.5t53 31t67.5 10.5h6l22 101h34l-22 -105q35 -7 62.5 -23t45.5 -33l-19 -28q-20 18 -44 32t-52 20l-56 -264q26 -18 47 -36
t35.5 -37.5t22 -43t7.5 -52.5q0 -36 -11 -68.5t-34 -57.5t-58.5 -39.5t-83.5 -14.5l-20 -95h-34zM327 172q0 45 -20.5 74t-60.5 58l-59 -278q36 1 62.5 12.5t43.5 31t25.5 45.5t8.5 57zM148 486q0 -39 19 -67.5t57 -56.5l53 248h-1q-58 0 -93 -30.5t-35 -93.5z" />
    <glyph glyph-name="percent" unicode="%" horiz-adv-x="769" 
d="M218 299q-61 0 -92.5 36.5t-31.5 96.5q0 28 6 56t17.5 52.5t27 45t33.5 32.5q34 24 81 24q55 0 88 -34t33 -95q0 -51 -19.5 -102t-53.5 -80q-18 -16 -39.5 -24t-49.5 -8zM539 -7q-61 0 -92.5 36.5t-31.5 96.5q0 28 6 56t17.5 52.5t27 45t33.5 32.5q34 24 81 24
q55 0 88 -34t33 -95q0 -51 -19.5 -102t-53.5 -80q-18 -16 -39.5 -24t-49.5 -8zM218 330q43 0 71 28q13 11 23 29t17 39.5t10.5 44.5t3.5 44q0 45 -20.5 70.5t-64.5 25.5q-38 0 -65 -21q-14 -11 -25.5 -29t-19.5 -40t-12.5 -45.5t-4.5 -45.5q0 -48 21 -74t66 -26zM539 24
q43 0 71 28q13 11 23 29t17 39.5t10.5 44.5t3.5 44q0 45 -20.5 70.5t-64.5 25.5q-38 0 -65 -21q-14 -11 -25.5 -29t-19.5 -40t-12.5 -45.5t-4.5 -45.5q0 -48 21 -74t66 -26zM629 635h42l-504 -635h-42z" />
    <glyph glyph-name="ampersand" unicode="&#x26;" horiz-adv-x="607" 
d="M225 -9q-48 0 -82.5 14t-57 37.5t-33 54t-10.5 63.5q0 46 14 82t40 64t62.5 50t81.5 41l-7 11q-46 74 -46 136q0 30 10.5 57t30 47.5t47 32t61.5 11.5q54 0 90 -33t36 -90q0 -34 -10.5 -60t-32.5 -48t-54.5 -40t-75.5 -36q37 -63 67 -113l68 -114q24 41 45 90.5t40 107.5
l35 -5q-22 -69 -46.5 -125.5t-53.5 -100.5l75 -125h-42l-56 93q-82 -102 -196 -102zM227 23q53 0 96 26.5t79 75.5l-147 245q-41 -18 -73 -38.5t-54.5 -45t-34 -55.5t-11.5 -70q0 -28 8 -53t25.5 -44t45 -30t66.5 -11zM273 412q39 16 67 32t46.5 34t27 40.5t8.5 52.5
q0 39 -21.5 63.5t-63.5 24.5q-54 0 -82 -34.5t-28 -85.5q0 -27 9 -53.5t26 -55.5z" />
    <glyph glyph-name="quotesingle" unicode="'" horiz-adv-x="202" 
d="M178 708h36l-48 -227h-36z" />
    <glyph glyph-name="parenleft" unicode="(" horiz-adv-x="300" 
d="M162 -149q-51 47 -78 112t-28 164q0 48 6 102t20 117q21 95 47 164.5t59 119t74.5 82t92.5 55.5l12 -28q-47 -25 -83.5 -57t-65.5 -78.5t-52 -110.5t-42 -153q-14 -64 -20.5 -116t-6.5 -99q0 -89 21.5 -147.5t63.5 -102.5z" />
    <glyph glyph-name="parenright" unicode=")" horiz-adv-x="300" 
d="M-46 -121q47 25 83.5 57t65.5 78.5t51.5 110.5t42.5 153q14 64 20.5 116t6.5 99q0 89 -21.5 147.5t-63.5 102.5l20 24q51 -47 78 -112t28 -164q0 -48 -6 -102t-20 -117q-21 -95 -47 -164.5t-59 -119t-74.5 -82.5t-92.5 -55z" />
    <glyph glyph-name="asterisk" unicode="*" horiz-adv-x="406" 
d="M126 400l104 113l-111 46l13 28l114 -45l31 143h34l-31 -143l133 47l8 -30l-138 -48l57 -114l-28 -18l-58 117l-105 -115z" />
    <glyph glyph-name="plus" unicode="+" horiz-adv-x="494" 
d="M230 268h-156l7 32h156l38 178h38l-38 -178h156l-7 -32h-156l-38 -178h-38z" />
    <glyph glyph-name="comma" unicode="," horiz-adv-x="208" 
d="M-8 -66q52 20 60 61q-14 2 -24 12t-10 26q0 17 11 27.5t26 10.5q17 0 28 -11.5t11 -34.5q0 -16 -5.5 -33.5t-17.5 -33.5t-31.5 -28t-47.5 -18v22z" />
    <glyph glyph-name="hyphen" unicode="-" horiz-adv-x="278" 
d="M62 284h164l-7 -34h-164z" />
    <glyph glyph-name="period" unicode="." horiz-adv-x="208" 
d="M56 -5q-16 0 -27 10.5t-11 27.5t11 27.5t27 10.5t27 -10.5t11 -27.5t-11 -27.5t-27 -10.5z" />
    <glyph glyph-name="slash" unicode="/" horiz-adv-x="298" 
d="M345 757h40l-411 -901h-40z" />
    <glyph glyph-name="zero" unicode="0" horiz-adv-x="567" 
d="M251 -7q-97 0 -143 55.5t-46 155.5q0 37 6 78t16.5 81.5t26 78.5t33.5 71q38 67 87.5 98t112.5 31q91 0 137.5 -57.5t46.5 -160.5q0 -39 -5.5 -80t-15.5 -81.5t-24.5 -78.5t-32.5 -69q-35 -62 -84 -92t-115 -30zM250 25q56 0 96.5 26t69.5 80q17 31 30.5 68t23 76.5
t14.5 78.5t5 74q0 85 -35 133.5t-109 48.5q-55 0 -95.5 -27t-72.5 -84q-18 -31 -32 -68.5t-23.5 -77t-15 -79t-5.5 -73.5q0 -40 8.5 -72.5t26 -55.5t45.5 -35.5t69 -12.5z" />
    <glyph glyph-name="one" unicode="1" horiz-adv-x="411" 
d="M18 32h133l118 555l-140 -71l-11 22l169 101h32l-129 -607h126l-7 -32h-298z" />
    <glyph glyph-name="two" unicode="2" horiz-adv-x="450" 
d="M-1 34q92 68 156 121.5t106 97t66 77.5t36 62t14.5 52t2.5 47q0 59 -30.5 88.5t-87.5 29.5q-38 0 -69 -9t-68 -27l-13 28q34 19 72.5 30t78.5 11q34 0 63 -10t50 -29t32.5 -47t11.5 -64q0 -44 -13.5 -88.5t-54 -98.5t-114.5 -120t-196 -153h305l-7 -32h-348z" />
    <glyph glyph-name="three" unicode="3" horiz-adv-x="472" 
d="M163 -66q-64 0 -112.5 18t-80.5 40l15 28q31 -20 74.5 -36.5t103.5 -16.5q80 0 127 46q30 29 43 68t13 85q0 33 -10.5 58t-28.5 41.5t-42.5 24.5t-52.5 8h-55l7 33h51q85 0 127 43q20 23 31.5 55.5t11.5 67.5q0 55 -32.5 84.5t-90.5 29.5q-39 0 -73.5 -11.5t-66.5 -27.5
l-13 27q31 17 70 30t85 13q78 0 118.5 -41.5t40.5 -105.5q0 -75 -38 -123t-100 -60q43 -14 72.5 -51t29.5 -98q0 -53 -17 -98t-53 -77q-60 -54 -154 -54z" />
    <glyph glyph-name="four" unicode="4" horiz-adv-x="514" 
d="M19 144l323 491h40l-326 -495h275l64 302l41 9l-66 -311h79l-7 -32h-79l-35 -166h-39l35 166h-313z" />
    <glyph glyph-name="five" unicode="5" horiz-adv-x="468" 
d="M153 -65q-59 0 -101 16t-71 38l13 29q29 -19 67 -35.5t92 -15.5q37 0 70 12.5t58 35.5q17 16 30 37.5t21.5 46t13 49.5t4.5 48q0 69 -35 109t-110 40q-30 0 -60.5 -5t-55.5 -13l89 308h294l-7 -32h-262l-69 -237q13 4 34 7t43 3q48 0 82 -14.5t55.5 -39t32 -57
t10.5 -69.5q0 -28 -5.5 -57.5t-16.5 -57.5t-28 -53t-40 -43q-31 -25 -69 -37.5t-79 -12.5z" />
    <glyph glyph-name="six" unicode="6" horiz-adv-x="531" 
d="M250 -7q-41 0 -75 14.5t-59 42.5t-39 68.5t-14 92.5q0 55 15.5 114t42.5 112.5t62.5 98t76.5 72.5q101 69 238 81v-33q-67 -7 -121.5 -25.5t-99.5 -51.5q-24 -18 -46.5 -43t-42 -55t-35.5 -63.5t-28 -69.5q13 11 31 23t39.5 21.5t46 16t50.5 6.5q35 0 66 -12t54 -35
t36.5 -58.5t13.5 -81.5q0 -53 -15.5 -96.5t-43.5 -74.5t-67 -47.5t-86 -16.5zM287 383q-48 0 -93 -22.5t-79 -47.5q-6 -26 -9.5 -52t-3.5 -51q0 -91 40 -138t110 -47q40 0 71.5 16t53.5 43.5t34 64.5t12 80q0 77 -36.5 115.5t-99.5 38.5z" />
    <glyph glyph-name="seven" unicode="7" horiz-adv-x="459" 
d="M78 -57q34 116 75 213t87.5 178t99 147.5t108.5 121.5h-334l7 32h372l-8 -36q-63 -61 -116.5 -130t-99 -149.5t-83 -174.5t-68.5 -205z" />
    <glyph glyph-name="eight" unicode="8" horiz-adv-x="520" 
d="M239 -7q-45 0 -82 12t-63.5 33.5t-40.5 52t-14 68.5q0 45 14.5 78.5t40 58.5t61.5 43t78 30q-50 33 -72.5 71t-22.5 81q0 36 13.5 67t38 54.5t59.5 36.5t77 13q40 0 71 -12t52 -32.5t31.5 -47.5t10.5 -56q0 -60 -40 -109t-129 -77q71 -38 100 -82.5t29 -90.5
q0 -41 -15 -76.5t-42.5 -61t-67 -40t-87.5 -14.5zM264 350q-93 -28 -139.5 -72.5t-46.5 -119.5q0 -62 45 -97t118 -35q39 0 70.5 12t53.5 33t33.5 50t11.5 64q0 41 -21.5 74.5t-73.5 62.5zM177 522q0 -38 19 -70.5t67 -60.5l26 -16q46 14 77.5 32.5t50.5 40.5t27 46.5
t8 50.5q0 50 -33.5 82.5t-94.5 32.5q-33 0 -60.5 -10.5t-46.5 -29t-29.5 -43.5t-10.5 -55z" />
    <glyph glyph-name="nine" unicode="9" horiz-adv-x="531" 
d="M58 -18q63 9 116.5 27t98 47t79.5 72.5t62 103.5q5 11 9.5 22t8.5 22q-14 -10 -31.5 -20.5t-38.5 -19t-45 -14t-49 -5.5q-35 0 -66.5 12t-54.5 36t-36.5 59t-13.5 82q0 51 16 94.5t44.5 76t68 50.5t86.5 18q40 0 74 -14t58.5 -41.5t38.5 -68.5t14 -94q0 -54 -12 -105.5
t-33 -99.5q-31 -69 -70.5 -117t-88.5 -79.5t-107.5 -49t-127.5 -27.5v33zM273 249q47 0 91 19.5t78 43.5q8 29 12 58t4 58q0 91 -39.5 138t-108.5 47q-41 0 -73.5 -17.5t-55 -46t-34 -66.5t-11.5 -78q0 -77 37 -116.5t100 -39.5z" />
    <glyph glyph-name="colon" unicode=":" horiz-adv-x="218" 
d="M118 265q-16 0 -27 10.5t-11 27.5t11 27.5t27 10.5t27 -10.5t11 -27.5t-11 -27.5t-27 -10.5zM61 -5q-16 0 -27 10.5t-11 27.5t11 27.5t27 10.5t27 -10.5t11 -27.5t-11 -27.5t-27 -10.5z" />
    <glyph glyph-name="semicolon" unicode=";" horiz-adv-x="218" 
d="M-3 -66q52 20 60 61q-14 2 -24 12t-10 26q0 17 11 27.5t26 10.5q17 0 28 -11.5t11 -34.5q0 -16 -5.5 -33.5t-17.5 -33.5t-31.5 -28t-47.5 -18v22zM118 265q-16 0 -27 10.5t-11 27.5t11 27.5t27 10.5t27 -10.5t11 -27.5t-11 -27.5t-27 -10.5z" />
    <glyph glyph-name="less" unicode="&#x3c;" horiz-adv-x="304" 
d="M55 289l2 9l227 186l20 -26l-207 -170l130 -181l-28 -20z" />
    <glyph glyph-name="equal" unicode="=" horiz-adv-x="509" 
d="M98 377h362l-7 -32h-362zM66 226h362l-7 -32h-362z" />
    <glyph glyph-name="greater" unicode="&#x3e;" horiz-adv-x="304" 
d="M18 113l207 170l-130 181l28 20l144 -202l-2 -9l-227 -186z" />
    <glyph glyph-name="question" unicode="?" horiz-adv-x="403" 
d="M157 267q7 33 18 54.5t24.5 37t28.5 26t32 21.5q18 11 36.5 23t33.5 29t24.5 42t9.5 63q0 46 -26 71t-76 25q-31 0 -65.5 -9.5t-59.5 -21.5l-9 28q26 15 62 25.5t71 10.5q61 0 101.5 -32.5t40.5 -96.5q0 -44 -12 -73t-30 -49t-39 -34t-40 -26q-22 -14 -36.5 -25t-24 -24
t-16 -29t-12.5 -41l-21 -95h-37zM128 -5q-16 0 -27 10.5t-11 27.5t11 27.5t27 10.5t27 -10.5t11 -27.5t-11 -27.5t-27 -10.5z" />
    <glyph glyph-name="at" unicode="@" horiz-adv-x="769" 
d="M329 -143q-74 0 -126.5 21.5t-86.5 61t-49.5 95.5t-15.5 125q0 86 22 167t67.5 143.5t114 100.5t161.5 38q83 0 138.5 -25.5t89 -67t47.5 -95.5t14 -111q0 -150 -39.5 -233.5t-127.5 -83.5q-94 0 -90 94q-26 -30 -63 -56t-81 -26q-20 0 -37.5 6t-31 21t-21.5 39.5
t-8 60.5q0 28 3.5 55t11.5 62q25 114 68.5 162t109.5 48q38 0 64.5 -17t44.5 -36l9 41h39l-64 -299q-7 -31 -9 -54t3 -38.5t17.5 -23.5t35.5 -8q67 0 97.5 76.5t30.5 209.5q0 52 -11.5 100.5t-40.5 85.5t-77.5 59.5t-123.5 22.5q-85 0 -146.5 -36t-101 -94.5t-58.5 -134
t-19 -153.5q0 -62 12 -112t40 -85.5t74 -55t115 -19.5q45 0 81 6t65 14l4 -29q-32 -10 -68 -16t-83 -6zM307 37q38 0 73 25t67 60l54 254q-20 20 -44 35.5t-57 15.5q-25 0 -45.5 -9t-37.5 -30.5t-31 -57t-25 -87.5q-8 -38 -12 -69.5t-4 -48.5q0 -27 5 -44t13 -27t19.5 -13.5
t24.5 -3.5z" />
    <glyph glyph-name="A" unicode="A" horiz-adv-x="525" 
d="M335 685h41l62 -685h-38l-21 238h-238l-123 -238h-42zM158 271h218l-22 256q-3 38 -4 72.5t0 53.5h-1q-6 -19 -20.5 -50.5t-34.5 -69.5z" />
    <glyph glyph-name="B" unicode="B" horiz-adv-x="523" 
d="M187 685h136q42 0 72.5 -11.5t50.5 -31t30 -45.5t10 -55q0 -31 -6 -60.5t-20 -54t-37 -43t-57 -27.5q41 -14 66.5 -47t25.5 -91q0 -51 -14.5 -93.5t-46.5 -71.5t-77.5 -41.5t-99.5 -12.5h-179zM220 32q54 0 91 13t61 38q25 26 36 61.5t11 76.5q0 56 -32.5 89t-103.5 33
h-130l-66 -311h133zM283 375q85 0 122 40q20 20 31 55t11 70q0 50 -30.5 81.5t-95.5 31.5h-103l-59 -278h124z" />
    <glyph glyph-name="C" unicode="C" horiz-adv-x="514" 
d="M264 -7q-104 0 -151.5 57.5t-47.5 156.5q0 42 6 87.5t17.5 91t28 88t36.5 78.5q39 69 90.5 104.5t122.5 35.5q57 0 94.5 -19.5t65.5 -46.5l-25 -25q-24 23 -56 41t-81 18q-61 0 -103.5 -32.5t-74.5 -91.5q-19 -35 -34 -76.5t-25.5 -85t-16 -87t-5.5 -81.5
q0 -88 37.5 -134.5t122.5 -46.5q48 0 86 16t65 34l12 -32q-28 -19 -69.5 -34.5t-94.5 -15.5z" />
    <glyph glyph-name="D" unicode="D" horiz-adv-x="564" 
d="M187 685h120q117 0 170.5 -55t53.5 -163q0 -51 -9.5 -110.5t-27 -116.5t-43 -105t-58.5 -75q-38 -32 -88 -46t-116 -14h-148zM190 32q61 0 105 13.5t76 43.5q28 25 50 70t38 98.5t24.5 108.5t8.5 102q1 91 -42.5 138t-146.5 47h-84l-132 -621h103z" />
    <glyph glyph-name="E" unicode="E" horiz-adv-x="479" 
d="M187 685h314l-7 -32h-275l-59 -275h232l-6 -32h-232l-67 -314h294l-7 -32h-333z" />
    <glyph glyph-name="F" unicode="F" horiz-adv-x="460" 
d="M187 685h310l-7 -32h-271l-59 -275h235l-6 -32h-235l-74 -346h-39z" />
    <glyph glyph-name="G" unicode="G" horiz-adv-x="556" 
d="M403 47q-32 -23 -70 -38.5t-79 -15.5q-96 0 -142.5 57.5t-46.5 156.5q0 39 5 81.5t15.5 85t25.5 83t33 75.5q40 77 94 118.5t130 41.5q57 0 93 -18t64 -45l-24 -26q-24 23 -55 40t-80 17q-65 0 -110 -37.5t-78 -103.5q-17 -34 -30.5 -73.5t-23 -81t-14.5 -82t-5 -76.5
q0 -88 36 -134.5t114 -46.5q42 0 80 14.5t69 38.5l51 239h-159l7 32h198l-74 -349h-23z" />
    <glyph glyph-name="H" unicode="H" horiz-adv-x="581" 
d="M187 685h39l-65 -302h311l65 302h39l-146 -685h-39l75 351h-311l-75 -351h-39z" />
    <glyph glyph-name="I" unicode="I" horiz-adv-x="296" 
d="M8 23l71 5l133 629l-68 5l5 23h180l-5 -23l-72 -5l-133 -630l69 -4l-5 -23h-180z" />
    <glyph glyph-name="J" unicode="J" horiz-adv-x="231" 
d="M-74 -98q31 14 51.5 26t35 28.5t23.5 40t17 61.5l134 627h39l-134 -628q-9 -44 -20 -73t-28.5 -48.5t-44 -33t-66.5 -27.5z" />
    <glyph glyph-name="K" unicode="K" horiz-adv-x="502" 
d="M188 370l310 315h46l-315 -321l173 -364h-40zM187 685h39l-146 -685h-39z" />
    <glyph glyph-name="L" unicode="L" horiz-adv-x="439" 
d="M187 685h39l-139 -653h266l-7 -32h-305z" />
    <glyph glyph-name="M" unicode="M" horiz-adv-x="657" 
d="M187 685h59l54 -406q5 -30 7.5 -60.5t1.5 -47.5h1q7 17 19 42t32 61l230 411h61l-146 -685h-38l109 511q6 30 11 51.5t8.5 38t7 30t6.5 27.5h-1q-6 -14 -12 -26l-14 -27q-7 -15 -17.5 -34.5t-27.5 -49.5l-215 -384h-40l-52 384q-5 30 -7 44.5t-3 26t-1.5 25.5t-2.5 41h-1
q-5 -27 -9 -46.5t-7 -35.5t-5.5 -31.5t-6.5 -33.5l-109 -511h-38z" />
    <glyph glyph-name="N" unicode="N" horiz-adv-x="579" 
d="M187 685h50l138 -522q11 -43 17 -71t10 -59h1q2 17 4.5 32.5t5.5 32t7 36t9 43.5l108 508h37l-146 -685h-46l-138 513q-12 45 -19 83.5t-11 64.5h-1q-4 -33 -11 -72.5t-20 -99.5l-104 -489h-37z" />
    <glyph glyph-name="O" unicode="O" horiz-adv-x="591" 
d="M263 -7q-100 0 -149 55.5t-49 160.5q0 42 6.5 88.5t19 93.5t30 91t39.5 80q40 66 89.5 98t118.5 32q98 0 144.5 -59.5t46.5 -165.5q0 -43 -6.5 -89.5t-18.5 -93t-29.5 -89.5t-39.5 -79q-38 -62 -86.5 -92.5t-115.5 -30.5zM261 25q57 0 98.5 27t75.5 85q19 33 34.5 74.5
t26.5 85.5t17 88.5t7 82.5q0 94 -36.5 143t-115.5 49q-57 0 -99.5 -29t-77.5 -90q-20 -35 -36 -77.5t-27.5 -86.5t-17.5 -88t-6 -81q0 -88 36.5 -135.5t120.5 -47.5z" />
    <glyph glyph-name="P" unicode="P" horiz-adv-x="493" 
d="M187 685h136q84 0 125 -38.5t41 -108.5q0 -30 -6 -60t-16.5 -56.5t-25 -48.5t-31.5 -36q-29 -23 -66 -33t-80 -10h-122l-62 -294h-39zM264 327q39 0 69.5 9t53.5 29q14 13 25.5 33t19.5 43.5t12 48.5t4 49q0 56 -30.5 84.5t-99.5 28.5h-99l-69 -325h114z" />
    <glyph glyph-name="Q" unicode="Q" horiz-adv-x="591" 
d="M465 116q-35 -57 -77.5 -85.5t-101.5 -33.5l190 -66l-13 -38l-273 107q-63 25 -94 73.5t-31 135.5q0 42 6.5 88.5t19 93.5t30 91t39.5 80q40 66 89.5 98t118.5 32q98 0 144.5 -59.5t46.5 -165.5q0 -43 -6.5 -89.5t-18.5 -93t-29.5 -89.5t-39.5 -79zM261 25q57 0 98.5 27
t75.5 85q19 33 34.5 74.5t26.5 85.5t17 88.5t7 82.5q0 94 -36.5 143t-115.5 49q-57 0 -99.5 -29t-77.5 -90q-20 -35 -36 -77.5t-27.5 -86.5t-17.5 -88t-6 -81q0 -88 36.5 -135.5t120.5 -47.5z" />
    <glyph glyph-name="R" unicode="R" horiz-adv-x="528" 
d="M187 685h135q81 0 124 -40.5t43 -109.5q0 -42 -10 -78.5t-30.5 -65t-50.5 -47t-70 -23.5q22 -9 40 -30t27 -68l41 -223h-38l-39 210q-11 59 -37 80t-76 21h-100l-66 -311h-39zM268 344q48 0 78.5 10.5t50.5 31.5q23 24 37.5 65t14.5 83q0 54 -30.5 86t-99.5 32h-100
l-66 -308h115z" />
    <glyph glyph-name="S" unicode="S" horiz-adv-x="462" 
d="M188 -7q-32 0 -61 7.5t-54 20.5t-46 29t-36 34l21 29q31 -35 74 -61t103 -26q42 0 72 12.5t49.5 34.5t28.5 51.5t9 63.5q0 54 -28.5 89.5t-83.5 72.5q-26 17 -47.5 35t-37 39t-24.5 45t-9 54q0 39 13 70.5t36.5 53.5t56.5 33.5t73 11.5q53 0 94.5 -19t64.5 -42l-20 -28
q-26 25 -62.5 41t-78.5 16q-62 0 -100 -33.5t-38 -102.5q0 -46 25.5 -78.5t74.5 -65.5q31 -21 55.5 -41.5t41 -43t25.5 -48.5t9 -58q0 -38 -11 -73.5t-35 -62.5t-62 -43.5t-92 -16.5z" />
    <glyph glyph-name="T" unicode="T" horiz-adv-x="483" 
d="M305 653h-169l7 32h378l-7 -32h-169l-139 -653h-40z" />
    <glyph glyph-name="U" unicode="U" horiz-adv-x="575" 
d="M214 -7q-64 0 -103 34.5t-39 106.5q0 11 2 29.5t6 36.5l103 485h39l-104 -488q-4 -20 -6 -36.5t-2 -30.5q0 -57 29 -80t80 -23q32 0 60 8t51.5 20t43 26t33.5 27l124 577h39l-146 -685h-23v71q-35 -29 -82 -53.5t-105 -24.5z" />
    <glyph glyph-name="V" unicode="V" horiz-adv-x="515" 
d="M122 685h39l42 -520q3 -35 4 -70.5t0 -57.5h1q7 19 21.5 52t34.5 72l270 524h41l-354 -685h-42z" />
    <glyph glyph-name="W" unicode="W" horiz-adv-x="767" 
d="M127 685h39l-1 -528q0 -33 -0.5 -63t-2.5 -63h1q12 35 24 62t27 61l242 531h46l9 -531q1 -31 0 -63t-3 -60h1q8 28 22 60.5t27 62.5l226 531h39l-292 -685h-55l-7 530q-1 30 -1 60t2 54h-1q-8 -24 -20 -54t-26 -60l-240 -530h-55z" />
    <glyph glyph-name="X" unicode="X" horiz-adv-x="510" 
d="M258 380l-103 305h39l92 -278l209 278h42l-233 -310l125 -375h-39l-113 349l-264 -349h-43z" />
    <glyph glyph-name="Y" unicode="Y" horiz-adv-x="527" 
d="M241 265l-107 420h39l76 -304q8 -30 11.5 -47.5t5.5 -36.5q10 19 21 36.5t31 48.5l204 303h42l-284 -421l-56 -264h-39z" />
    <glyph glyph-name="Z" unicode="Z" horiz-adv-x="457" 
d="M-3 31l453 622h-306l7 32h350l-7 -33l-452 -620h318l-7 -32h-363z" />
    <glyph glyph-name="bracketleft" unicode="[" horiz-adv-x="288" 
d="M194 734h149l-7 -32h-110l-175 -824h110l-7 -32h-149z" />
    <glyph glyph-name="backslash" unicode="\" horiz-adv-x="328" 
d="M85 757h36l151 -901h-36z" />
    <glyph glyph-name="bracketright" unicode="]" horiz-adv-x="288" 
d="M-35 -122h110l175 824h-110l7 32h149l-189 -888h-149z" />
    <glyph glyph-name="asciicircum" unicode="^" horiz-adv-x="430" 
d="M296 708h30l88 -249h-37l-72 211l-160 -211h-40z" />
    <glyph glyph-name="underscore" unicode="_" horiz-adv-x="266" 
d="M-75 -88h268l-7 -32h-268z" />
    <glyph glyph-name="grave" unicode="`" horiz-adv-x="441" 
d="M196 617l27 31l127 -106l-15 -20z" />
    <glyph glyph-name="a" unicode="a" horiz-adv-x="464" 
d="M147 -7q-47 0 -80.5 35.5t-33.5 108.5q0 31 4.5 64t13.5 64.5t21 61t27 53.5q27 45 64 65.5t79 20.5q48 0 77.5 -21t47.5 -42l26 56h23l-77 -360q-5 -24 -8 -46.5t-5 -52.5h-27v71q-15 -14 -32 -28t-36 -25t-40 -18t-44 -7zM152 26q24 0 45.5 7.5t40.5 18.5t35 24.5
t29 24.5l58 272q-22 26 -48 43t-68 17q-73 0 -115 -71q-14 -23 -24.5 -51.5t-18.5 -59t-12 -60t-4 -54.5q0 -55 22.5 -83t59.5 -28z" />
    <glyph glyph-name="b" unicode="b" horiz-adv-x="466" 
d="M216 -7q-24 0 -44.5 6.5t-37.5 16.5t-30 21.5t-22 22.5l-27 -60h-22l150 708h37l-67 -317q31 29 72.5 52t84.5 23q53 0 82.5 -34.5t29.5 -106.5q0 -65 -18 -134t-50 -120q-28 -45 -62 -61.5t-76 -16.5zM214 26q72 0 111 64q14 23 25.5 53t19 62t11.5 63t4 57
q0 108 -80 108q-23 0 -46 -7.5t-43.5 -19t-38.5 -24.5t-31 -24l-57 -268q22 -26 52.5 -45t72.5 -19z" />
    <glyph glyph-name="c" unicode="c" horiz-adv-x="404" 
d="M185 -7q-29 0 -55.5 8.5t-47 27.5t-33 50.5t-12.5 76.5q0 49 11.5 96t31.5 86q35 70 81 99t99 29q43 0 71.5 -14.5t50.5 -36.5l-20 -27q-20 20 -45.5 33.5t-60.5 13.5q-44 0 -79.5 -26.5t-62.5 -83.5q-17 -38 -28 -83t-11 -89q0 -71 30 -100t83 -29q35 0 65 14.5t58 37.5
l16 -26q-27 -23 -62.5 -40t-79.5 -17z" />
    <glyph glyph-name="d" unicode="d" horiz-adv-x="466" 
d="M147 -7q-52 0 -83.5 34.5t-31.5 106.5q0 31 5 64.5t14 65.5t21.5 61.5t27.5 54.5q28 45 64.5 65.5t78.5 20.5q48 0 79.5 -20.5t49.5 -41.5l64 304h37l-129 -609q-5 -24 -8 -46.5t-5 -52.5h-27v70q-30 -29 -70.5 -53t-86.5 -24zM152 26q24 0 46.5 7.5t42.5 18.5t37 24.5
t30 24.5l58 272q-22 26 -50.5 43t-70.5 17q-72 0 -115 -71q-14 -24 -25.5 -53t-19.5 -59.5t-12 -60.5t-4 -55q0 -54 22.5 -81t60.5 -27z" />
    <glyph glyph-name="e" unicode="e" horiz-adv-x="405" 
d="M174 -7q-61 0 -98.5 38.5t-37.5 117.5q0 51 12.5 103.5t34.5 95.5q26 51 70.5 84.5t103.5 33.5q31 0 53 -9t36 -24t21 -34.5t7 -39.5q0 -44 -24.5 -73.5t-65.5 -47t-94.5 -24.5t-110.5 -7q-2 -15 -3 -30.5t-1 -30.5q0 -65 24.5 -93.5t75.5 -28.5q34 0 69 13t64 36l12 -27
q-33 -29 -73 -41t-75 -12zM119 338q-11 -22 -20 -47t-14 -53q69 0 117 8t78 24t44 38t14 51q0 36 -19 56t-61 20q-26 0 -47 -8t-38.5 -21.5t-30.5 -31t-23 -36.5z" />
    <glyph glyph-name="f" unicode="f" horiz-adv-x="278" 
d="M82 459h60l29 152q11 57 43.5 81t71.5 24q25 0 41 -5.5t30 -14.5l-11 -27q-13 8 -26.5 12t-33.5 4q-29 0 -49.5 -16.5t-29.5 -62.5l-28 -147h95l-7 -30h-94l-68 -354q-8 -41 -17 -72t-22 -54.5t-31.5 -41.5t-45.5 -33l-17 27q18 12 32.5 25.5t26 34t21 50.5t18.5 75
l66 343h-61z" />
    <glyph glyph-name="g" unicode="g" horiz-adv-x="466" 
d="M149 -211q-51 0 -92 17.5t-68 35.5l12 29q29 -18 65.5 -34.5t86.5 -16.5q53 0 79.5 27t37.5 75l31 145q-30 -28 -69.5 -51t-84.5 -23q-52 0 -83.5 34.5t-31.5 106.5q0 31 5 64.5t14 65.5t21.5 61.5t27.5 54.5q28 45 64.5 65.5t78.5 20.5q47 0 79.5 -21t50.5 -42l26 56h23
l-115 -540q-8 -38 -22.5 -63t-35 -40t-45.5 -21t-55 -6zM152 26q24 0 46.5 7.5t42.5 18.5t37 24.5t30 24.5l58 272q-22 26 -50.5 43t-70.5 17q-72 0 -115 -71q-14 -24 -25.5 -53t-19.5 -60t-12 -60.5t-4 -54.5q0 -54 22.5 -81t60.5 -27z" />
    <glyph glyph-name="h" unicode="h" horiz-adv-x="475" 
d="M183 708h37l-69 -327q40 35 84.5 60t86.5 25q43 0 67 -24t24 -68q0 -16 -5 -41l-71 -333h-37l70 331q5 25 5 38q0 33 -15.5 48t-44.5 15q-42 0 -84 -23.5t-86 -56.5l-75 -352h-37z" />
    <glyph glyph-name="i" unicode="i" horiz-adv-x="248" 
d="M154 428l-60 8l5 23h99l-98 -459h-37zM203 583q-14 0 -23.5 9t-9.5 24t9 24t23 9t23.5 -9t9.5 -24t-9 -24t-23 -9z" />
    <glyph glyph-name="j" unicode="j" horiz-adv-x="248" 
d="M-54 -185q21 10 37 20t29 23.5t22 32t15 45.5l105 492l-60 8l5 23h99l-113 -528q-7 -34 -19 -56.5t-28 -38t-36.5 -26t-44.5 -19.5zM203 583q-14 0 -23.5 9t-9.5 24t9 24t23 9t23.5 -9t9.5 -24t-9 -24t-23 -9z" />
    <glyph glyph-name="k" unicode="k" horiz-adv-x="418" 
d="M183 708h37l-150 -708h-37zM151 260l216 199h46l-219 -203l142 -256h-40z" />
    <glyph glyph-name="l" unicode="l" horiz-adv-x="228" 
d="M84 67q-2 -10 -2 -18q0 -25 25 -25q7 0 17 2q4 1 9 2v-29q-6 -2 -15 -4t-17 -2q-23 0 -39.5 13t-16.5 41q0 11 2 21l136 640h37z" />
    <glyph glyph-name="m" unicode="m" horiz-adv-x="710" 
d="M110 360q5 24 8 46.5t5 52.5h27v-74q40 35 81 58t84 23q40 0 60 -22t22 -60q42 35 83.5 58.5t85.5 23.5q41 0 61.5 -22.5t20.5 -64.5q0 -15 -1.5 -25t-3.5 -21l-71 -333h-37l70 331q3 14 4.5 26.5t1.5 19.5q0 55 -52 55q-40 0 -78.5 -21t-83.5 -54l-76 -357h-37l70 331
q3 14 4.5 26t1.5 20q0 55 -52 55q-41 0 -80 -22t-82 -54l-76 -356h-37z" />
    <glyph glyph-name="n" unicode="n" horiz-adv-x="475" 
d="M322 466q43 0 67 -24t24 -68q0 -16 -5 -41l-71 -333h-37l70 331q5 25 5 38q0 33 -15.5 48t-44.5 15q-42 0 -84 -23.5t-86 -56.5l-75 -352h-37l77 360q5 24 8 46.5t5 52.5h27v-78q41 35 85.5 60t86.5 25z" />
    <glyph glyph-name="o" unicode="o" horiz-adv-x="454" 
d="M192 -7q-33 0 -61 10t-48.5 31t-32.5 52.5t-12 74.5q0 50 11.5 100.5t33.5 92.5q31 60 74.5 86t96.5 26q32 0 59.5 -10t47.5 -30.5t31.5 -51t11.5 -71.5q0 -52 -11 -101.5t-31 -90.5q-30 -63 -74 -90.5t-96 -27.5zM194 24q42 0 76.5 24.5t58.5 77.5q18 39 27.5 86t9.5 92
q0 69 -31.5 100t-85.5 31q-43 0 -75.5 -22.5t-58.5 -73.5q-20 -39 -29.5 -86.5t-9.5 -91.5q0 -72 32 -104.5t86 -32.5z" />
    <glyph glyph-name="p" unicode="p" horiz-adv-x="466" 
d="M110 363q5 24 8 46.5t5 52.5h27v-73q15 14 34 28t39.5 25t42.5 17.5t44 6.5q53 0 82.5 -34.5t29.5 -106.5q0 -66 -18 -134.5t-50 -119.5q-28 -45 -62 -61.5t-76 -16.5q-24 0 -44.5 6.5t-37.5 16.5t-30 21.5t-22 22.5l-56 -264h-37zM214 26q72 0 111 64q14 23 25.5 53
t19 62t11.5 63t4 57q0 108 -80 108q-23 0 -46 -7.5t-43.5 -19t-38.5 -24.5t-31 -24l-57 -268q22 -26 52.5 -45t72.5 -19z" />
    <glyph glyph-name="q" unicode="q" horiz-adv-x="466" 
d="M301 67q-30 -28 -69.5 -51t-84.5 -23q-52 0 -83.5 34.5t-31.5 106.5q0 31 5 64.5t14 65.5t21.5 61.5t27.5 54.5q28 45 64.5 65.5t78.5 20.5q47 0 79.5 -21t50.5 -42l26 56h23l-142 -666h-37zM152 26q24 0 46.5 7.5t42.5 18.5t37 24.5t30 24.5l58 272q-22 26 -50.5 43
t-70.5 17q-72 0 -115 -71q-14 -24 -25.5 -53t-19.5 -59.5t-12 -60.5t-4 -55q0 -54 22.5 -81t60.5 -27z" />
    <glyph glyph-name="r" unicode="r" horiz-adv-x="312" 
d="M110 360q5 24 8 46.5t5 52.5h27v-82q35 36 74.5 62.5t90.5 25.5v-40q-45 1 -84.5 -18t-87.5 -65l-73 -342h-37z" />
    <glyph glyph-name="s" unicode="s" horiz-adv-x="362" 
d="M144 -7q-49 0 -84 15.5t-59 35.5l15 28q24 -19 54 -33.5t72 -14.5q47 0 76 24t29 69q0 21 -5 35.5t-15 27t-26 24t-38 25.5q-17 11 -33 22t-28.5 25t-20 32t-7.5 43q0 28 11 49.5t29 36t41 22t48 7.5q30 0 60 -10t53 -29l-16 -28q-23 17 -46 26.5t-52 9.5
q-42 0 -67 -20.5t-25 -63.5q0 -17 4 -29.5t13 -22.5t22.5 -20t33.5 -22q24 -15 42.5 -28.5t31.5 -29t20 -35t7 -46.5q0 -30 -11.5 -53.5t-30.5 -39t-44.5 -24t-53.5 -8.5z" />
    <glyph glyph-name="t" unicode="t" horiz-adv-x="282" 
d="M85 459h58l26 124l38 10l-29 -134h96l-7 -30h-95l-75 -356q-1 -4 -1.5 -8.5t-0.5 -10.5q0 -29 31 -29q19 0 35 5.5t25 9.5v-31q-12 -5 -27 -10.5t-35 -5.5q-29 0 -47 16t-18 45v9.5t2 11.5l75 354h-58z" />
    <glyph glyph-name="u" unicode="u" horiz-adv-x="475" 
d="M138 -7q-43 0 -67 23.5t-24 67.5q0 17 5 42l71 333h37l-71 -331q-5 -25 -5 -38q0 -34 16 -48.5t45 -14.5q42 0 84 23.5t86 56.5l75 352h37l-77 -360q-5 -24 -8 -46.5t-5 -52.5h-27v78q-41 -35 -85.5 -60t-86.5 -25z" />
    <glyph glyph-name="v" unicode="v" horiz-adv-x="422" 
d="M84 459h36l33 -310q5 -41 6.5 -72t1.5 -53h1q8 22 22.5 53t34.5 68l166 314h39l-247 -459h-42z" />
    <glyph glyph-name="w" unicode="w" horiz-adv-x="644" 
d="M89 459h37l12 -326q1 -29 1 -56t-1 -44h1q8 17 17.5 41t23.5 52l164 333h44l20 -327q2 -26 2.5 -54.5t-0.5 -44.5h1q7 16 16.5 41.5t21.5 51.5l154 333h40l-218 -459h-44l-20 350q-2 23 -1.5 44.5t1.5 35.5h-1q-5 -14 -12.5 -34t-18.5 -41l-176 -355h-42z" />
    <glyph glyph-name="x" unicode="x" horiz-adv-x="412" 
d="M184 249l-79 210h38l42 -113q8 -22 12.5 -35.5t10.5 -35.5h1q16 23 26 36.5t27 34.5l90 113h42l-171 -212l94 -247h-38l-51 138q-12 31 -18 48t-10 37h-1q-6 -10 -12.5 -19t-14 -18.5t-16 -21t-20.5 -26.5l-110 -138h-42z" />
    <glyph glyph-name="y" unicode="y" horiz-adv-x="422" 
d="M-39 -182q38 12 65 27t48 36t38.5 50t37.5 69h-20l-46 459h36l31 -314q5 -45 7 -73.5t2 -51.5h1q10 24 26 53t38 72l160 314h39l-251 -484q-22 -43 -41.5 -72.5t-42 -50.5t-51 -35t-68.5 -26z" />
    <glyph glyph-name="z" unicode="z" horiz-adv-x="404" 
d="M9 35l334 394h-232l7 30h273l-8 -35l-334 -394h258l-6 -30h-300z" />
    <glyph glyph-name="braceleft" unicode="{" horiz-adv-x="357" 
d="M166 -154q-43 0 -68 22.5t-25 63.5q0 14 3 29l46 217q4 20 4 34q0 32 -18.5 47.5t-61.5 15.5l7 33q51 0 77.5 19t37.5 68l50 236q11 54 41.5 78.5t79.5 24.5h73l-7 -33h-69q-35 0 -53.5 -16.5t-26.5 -57.5l-50 -235q-6 -29 -15 -47t-20 -29t-24 -16.5t-27 -9.5v-2
q20 -9 32 -25.5t12 -46.5q0 -23 -5 -45l-45 -213q-3 -15 -3 -27q0 -52 59 -52h60l-7 -33h-57z" />
    <glyph glyph-name="bar" unicode="|" horiz-adv-x="215" 
d="M99 757h37v-901h-37v901z" />
    <glyph glyph-name="braceright" unicode="}" horiz-adv-x="357" 
d="M-35 -121h69q35 0 53.5 16.5t26.5 57.5l50 235q6 29 15 47t20 29t24 16.5t27 9.5v2q-20 9 -32 26t-12 46q0 10 1 21t4 24l45 213q3 15 3 27q0 52 -59 52h-60l7 33h57q44 0 68.5 -22.5t24.5 -64.5q0 -13 -3 -28l-46 -217q-2 -8 -3 -16.5t-1 -17.5q0 -32 18.5 -47.5
t61.5 -15.5l-7 -33q-51 0 -77.5 -19t-37.5 -68l-50 -236q-11 -54 -41.5 -78.5t-79.5 -24.5h-73z" />
    <glyph glyph-name="asciitilde" unicode="~" horiz-adv-x="451" 
d="M79 297q39 77 96 77q20 0 37.5 -9t33 -19.5t30.5 -19.5t30 -9q23 0 39.5 15t33.5 43l23 -13q-22 -39 -45 -58.5t-52 -19.5q-20 0 -37.5 9t-33.5 19.5t-30.5 19.5t-29.5 9q-23 0 -39 -15t-33 -43z" />
    <glyph glyph-name="Zcaron" horiz-adv-x="457" 
d="M-3 31l453 622h-306l7 32h350l-7 -33l-452 -620h318l-7 -32h-363zM238 852l18 17l79 -86l112 86l15 -18l-120 -110h-21z" />
    <glyph glyph-name="Zcaron" unicode="&#x17d;" horiz-adv-x="457" 
d="M-3 31l453 622h-306l7 32h350l-7 -33l-452 -620h318l-7 -32h-363zM238 852l18 17l79 -86l112 86l15 -18l-120 -110h-21z" />
    <glyph glyph-name="zcaron" horiz-adv-x="404" 
d="M9 35l334 394h-232l7 30h273l-8 -35l-334 -394h258l-6 -30h-300zM174 641l18 17l79 -86l112 86l15 -18l-120 -110h-21z" />
    <glyph glyph-name="zcaron" unicode="&#x17e;" horiz-adv-x="404" 
d="M9 35l334 394h-232l7 30h273l-8 -35l-334 -394h258l-6 -30h-300zM174 641l18 17l79 -86l112 86l15 -18l-120 -110h-21z" />
    <glyph glyph-name="uni00A0" unicode="&#xa0;" horiz-adv-x="176" 
 />
    <glyph glyph-name="exclamdown" unicode="&#xa1;" horiz-adv-x="222" 
d="M107 293h31l-110 -518h-41zM147 389q-16 0 -27 10.5t-11 27.5t11 27.5t27 10.5t27 -10.5t11 -27.5t-11 -27.5t-27 -10.5z" />
    <glyph glyph-name="cent" unicode="&#xa2;" horiz-adv-x="411" 
d="M155 -3q-23 4 -43.5 15t-35.5 30.5t-24 47.5t-9 66q0 42 8.5 82t23.5 75t34.5 64t40.5 47q50 39 106 42l22 105h33l-22 -107q33 -4 56.5 -17t42.5 -32l-20 -27q-17 17 -37.5 29t-48.5 16l-87 -409q35 0 64.5 14.5t57.5 37.5l16 -26q-27 -23 -62.5 -40t-79.5 -17h-3
l-20 -95h-33zM81 153q0 -60 21.5 -89t59.5 -37l87 407q-23 -2 -42 -11t-38 -27q-18 -17 -34 -44t-28 -59.5t-19 -69t-7 -70.5z" />
    <glyph glyph-name="sterling" unicode="&#xa3;" horiz-adv-x="487" 
d="M65 332h81q-4 25 -6.5 50.5t-2.5 53.5q0 58 18.5 97.5t47.5 63.5t64 34.5t69 10.5q52 0 87.5 -18.5t61.5 -43.5l-18 -26q-28 24 -58.5 40t-75.5 16q-29 0 -57 -9.5t-50 -30t-36 -53.5t-14 -80q0 -28 2.5 -53.5t6.5 -51.5h185l-7 -32h-174q2 -18 3.5 -35.5t1.5 -35.5
q0 -72 -30 -120t-81 -77h302l-7 -32h-352l7 34q31 16 54 34.5t38.5 42t23 52t7.5 65.5q0 18 -2 36l-4 36h-92z" />
    <glyph glyph-name="currency" unicode="&#xa4;" horiz-adv-x="476" 
d="M3 77q26 27 47 48q9 9 17.5 17t15.5 15l15 15q-8 17 -12 36t-4 46q0 7 1 24t4 32q7 40 20.5 71.5t32.5 54.5l-56 88l28 20l52 -83q49 40 117 37q61 -3 96 -44l90 90l23 -23l-95 -96q8 -17 12.5 -36.5t4.5 -45.5q0 -20 -1.5 -30.5t-3.5 -25.5q-13 -78 -54 -125l56 -88
l-28 -20l-52 83q-50 -39 -117 -36q-61 3 -96 43l-90 -90zM217 132q60 -3 98.5 35t53.5 123q6 33 6 60q0 54 -25 84.5t-73 32.5q-60 3 -98.5 -36t-53.5 -124q-6 -33 -6 -60q0 -110 98 -115z" />
    <glyph glyph-name="yen" unicode="&#xa5;" horiz-adv-x="535" 
d="M48 204h188l11 49l-18 64h-157l7 32h142l-78 286h40l71 -275q8 -30 11 -48t5 -37q10 19 20.5 36.5t31.5 48.5l186 275h43l-198 -286h141l-7 -32h-156l-45 -65l-10 -48h187l-7 -32h-187l-37 -172h-39l36 172h-188z" />
    <glyph glyph-name="brokenbar" unicode="&#xa6;" horiz-adv-x="215" 
d="M194 757h38l-87 -409h-38zM89 263h38l-87 -407h-38z" />
    <glyph glyph-name="section" unicode="&#xa7;" horiz-adv-x="527" 
d="M196 -150q-30 0 -55 6.5t-45.5 17t-36 22t-25.5 22.5l22 27q12 -11 25 -22t30 -20t38 -14.5t48 -5.5q57 0 85 31t28 79q0 35 -25 64t-85 58q-61 29 -96.5 65t-35.5 93q0 27 9 51.5t27 44t46 32.5t66 18q-19 19 -27 39.5t-8 46.5q0 59 38.5 98t110.5 39q48 0 83 -17.5
t60 -40.5l-20 -29q-22 21 -52.5 38t-71.5 17q-30 0 -51 -8.5t-34 -23t-18.5 -33.5t-5.5 -40q0 -36 22.5 -60.5t80.5 -51.5q60 -28 96.5 -62t36.5 -89q0 -72 -41 -108.5t-113 -43.5q48 -44 48 -98q0 -63 -42 -102.5t-112 -39.5zM309 361q-34 16 -61 33q-68 -2 -105 -37
t-37 -85q0 -42 27 -70.5t81 -54.5q31 -15 58 -33q145 8 145 131q0 41 -28 66t-80 50z" />
    <glyph glyph-name="dieresis" unicode="&#xa8;" 
d="M403 541q-14 0 -23 8.5t-9 23.5t8.5 23.5t22.5 8.5t23 -8.5t9 -23.5t-8.5 -23.5t-22.5 -8.5zM262 541q-14 0 -23 8.5t-9 23.5t8.5 23.5t22.5 8.5t23 -8.5t9 -23.5t-8.5 -23.5t-22.5 -8.5z" />
    <glyph glyph-name="copyright" unicode="&#xa9;" horiz-adv-x="675" 
d="M313 -7q-58 0 -103.5 18.5t-77 52.5t-48 83t-16.5 110q0 37 7 79t19.5 83.5t30.5 79t40 67.5q45 61 104 93.5t132 32.5q58 0 103 -19t76 -53.5t47 -84t16 -109.5q0 -38 -6.5 -80t-19 -83t-30 -78.5t-38.5 -67.5q-44 -62 -105 -93t-131 -31zM316 23q64 0 116 28.5t90 83.5
q20 27 35.5 64t26.5 77t17 79.5t6 72.5q0 110 -53 172.5t-156 62.5q-65 0 -116 -28.5t-90 -82.5q-20 -28 -36 -64t-27.5 -75.5t-18 -80t-6.5 -76.5q0 -108 52.5 -170.5t159.5 -62.5zM324 124q-61 0 -91 37.5t-30 104.5q0 26 5 57t13.5 61.5t20.5 59.5t27 50q23 33 52.5 51
t70.5 18q34 0 57.5 -11.5t43.5 -31.5l-22 -23q-16 16 -34.5 25.5t-47.5 9.5q-32 0 -53 -14.5t-38 -42.5q-11 -20 -21.5 -46.5t-18.5 -55t-12.5 -57t-4.5 -51.5q0 -54 19.5 -81.5t64.5 -27.5q33 0 57 11t38 20l14 -27q-15 -11 -42.5 -23.5t-67.5 -12.5z" />
    <glyph glyph-name="ordfeminine" unicode="&#xaa;" horiz-adv-x="429" 
d="M176 203q-44 0 -74.5 32.5t-30.5 100.5q0 58 16.5 119t44.5 106q25 41 59 60t73 19q22 0 39.5 -5.5t31 -14t24 -18.5t18.5 -20l25 52h23l-71 -333q-5 -23 -8 -43.5t-4 -48.5h-27v66q-14 -13 -29.5 -26t-33 -23t-36.5 -16.5t-40 -6.5zM181 234q22 0 41.5 7t36.5 17.5
t31.5 22.5t26.5 22l54 251q-20 23 -43.5 39t-61.5 16q-67 0 -105 -65q-12 -21 -22 -48t-17 -54.5t-11 -55t-4 -50.5q0 -51 19.5 -76.5t54.5 -25.5z" />
    <glyph glyph-name="guillemotleft" unicode="&#xab;" horiz-adv-x="416" 
d="M201 250l164 188l25 -19l-150 -175l74 -178l-31 -14zM54 250l164 188l25 -19l-150 -175l74 -178l-31 -14z" />
    <glyph glyph-name="logicalnot" unicode="&#xac;" horiz-adv-x="429" 
d="M323 305h-240l7 33h277l-37 -173h-37z" />
    <glyph glyph-name="uni00AD" unicode="&#xad;" horiz-adv-x="278" 
d="M62 284h164l-7 -34h-164z" />
    <glyph glyph-name="registered" unicode="&#xae;" horiz-adv-x="524" 
d="M277 224q-38 0 -70 11.5t-55 34t-36 57t-13 80.5q0 72 25 135t67 103q29 28 65 41t76 13q76 0 123.5 -46.5t47.5 -137.5q0 -63 -21.5 -126.5t-63.5 -105.5q-29 -29 -66 -44t-79 -15zM278 254q79 0 126 53q17 19 30 44t22 53.5t13.5 57.5t4.5 56q0 74 -37 112.5t-101 38.5
q-38 0 -67.5 -10t-55.5 -36q-18 -18 -32.5 -43t-24.5 -54t-15.5 -60t-5.5 -61q0 -78 38.5 -114.5t104.5 -36.5zM261 603h70q32 0 50.5 -19t18.5 -51q0 -38 -18 -56t-48 -24q10 -4 14.5 -14t8.5 -31l14 -81h-33l-13 79q-5 26 -13 33t-23 7h-28l-25 -119h-33zM307 474
q35 0 47 16.5t12 42.5q0 23 -9.5 32t-31.5 9h-37l-21 -100h40z" />
    <glyph glyph-name="macron" unicode="&#xaf;" 
d="M237 602h203l-7 -31h-203z" />
    <glyph glyph-name="degree" unicode="&#xb0;" horiz-adv-x="344" 
d="M210 384q-49 0 -81.5 32t-32.5 90q0 28 9.5 61t24.5 56q23 35 55 51.5t68 16.5q51 0 82.5 -33t31.5 -91q0 -28 -10 -61t-25 -56q-23 -34 -54.5 -50t-67.5 -16zM212 413q58 0 89 53q13 20 20.5 51.5t7.5 55.5q1 46 -22.5 67t-56.5 21q-58 0 -90 -53q-12 -20 -20 -48
t-8 -54q-1 -48 23.5 -70.5t56.5 -22.5z" />
    <glyph glyph-name="plusminus" unicode="&#xb1;" horiz-adv-x="494" 
d="M232 278h-156l7 32h156l36 168h38l-36 -168h156l-7 -32h-156l-31 -148h-38zM30 62h350l-7 -32h-350z" />
    <glyph glyph-name="twosuperior" unicode="&#xb2;" horiz-adv-x="342" 
d="M45 252q82 51 132 92.5t77 76t35.5 63t8.5 53.5q0 32 -18 52.5t-54 20.5q-27 0 -48 -5t-44 -16l-12 25q23 13 48.5 20.5t58.5 7.5q50 0 79 -29.5t29 -74.5q0 -32 -12 -64.5t-40.5 -67.5t-76.5 -74t-120 -83h197l-7 -31h-240z" />
    <glyph glyph-name="threesuperior" unicode="&#xb3;" horiz-adv-x="365" 
d="M172 175q-45 0 -76 11t-55 26l13 26q20 -12 51.5 -22.5t65.5 -10.5q57 0 85.5 34t28.5 87q0 44 -24 64t-63 20h-36l7 31h33q61 0 85 27t24 72q0 31 -20.5 51t-58.5 20q-26 0 -48 -6t-45 -17l-11 26q26 13 51 20.5t55 7.5q54 0 84.5 -27.5t30.5 -73.5q0 -51 -26 -80
t-67 -37q29 -10 49 -34.5t20 -63.5q0 -68 -40.5 -109.5t-112.5 -41.5z" />
    <glyph glyph-name="acute" unicode="&#xb4;" horiz-adv-x="441" 
d="M208 543l152 105l21 -36l-163 -90z" />
    <glyph glyph-name="mu" unicode="&#xb5;" horiz-adv-x="483" 
d="M146 -7q-51 0 -70 35l-50 -235h-37l142 666h37l-70 -329q-12 -57 3.5 -80t51.5 -23q42 0 84 23.5t86 56.5l75 352h37l-77 -360q-5 -24 -8 -46.5t-5 -52.5h-27v78q-41 -35 -85.5 -60t-86.5 -25z" />
    <glyph glyph-name="paragraph" unicode="&#xb6;" horiz-adv-x="469" 
d="M245 384h-7q-57 0 -89 35.5t-32 92.5q0 38 12.5 70t35.5 55t55.5 35.5t73.5 12.5h170l-164 -772h-39l157 740h-77l-157 -740h-39z" />
    <glyph glyph-name="periodcentered" unicode="&#xb7;" horiz-adv-x="208" 
d="M122 304q-16 0 -27 10.5t-11 27.5t11 27.5t27 10.5t27 -10.5t11 -27.5t-11 -27.5t-27 -10.5z" />
    <glyph glyph-name="cedilla" unicode="&#xb8;" 
d="M189 -197q-20 0 -36 7t-28 18l16 25q11 -9 22.5 -14.5t28.5 -5.5q45 0 45 46q0 39 -40 39q-10 0 -17 -1t-17 -4l53 87h34l-36 -54q26 -3 41 -20t15 -46q0 -38 -21.5 -57.5t-59.5 -19.5z" />
    <glyph glyph-name="onesuperior" unicode="&#xb9;" horiz-adv-x="315" 
d="M62 252h86l72 342l-91 -42l-11 19l122 73h30l-83 -392h81l-7 -31h-206z" />
    <glyph glyph-name="ordmasculine" unicode="&#xba;" horiz-adv-x="420" 
d="M218 202q-30 0 -56 9.5t-45 28.5t-30 48.5t-11 69.5q0 46 10.5 93t30.5 85q29 55 69.5 79.5t89.5 24.5q29 0 54.5 -9.5t44 -28t29 -47t10.5 -66.5q0 -48 -10.5 -93.5t-28.5 -83.5q-28 -59 -68.5 -84.5t-88.5 -25.5zM220 231q79 0 123 94q17 37 25.5 80t8.5 85
q0 63 -28 91.5t-78 28.5q-40 0 -69.5 -20t-52.5 -67q-19 -37 -27.5 -80.5t-8.5 -84.5q0 -66 28.5 -96.5t78.5 -30.5z" />
    <glyph glyph-name="guillemotright" unicode="&#xbb;" horiz-adv-x="416" 
d="M167 71l150 175l-74 178l31 14l82 -198l-164 -188zM20 71l150 175l-74 178l31 14l82 -198l-164 -188z" />
    <glyph glyph-name="onequarter" unicode="&#xbc;" horiz-adv-x="903" 
d="M510 105l206 313h42l-209 -316h177l41 189l42 8l-43 -197h52l-7 -33h-52l-22 -106h-40l22 106h-216zM689 635h42l-504 -635h-42zM62 252h86l72 342l-91 -42l-11 19l122 73h30l-83 -392h81l-7 -31h-206z" />
    <glyph glyph-name="onehalf" unicode="&#xbd;" horiz-adv-x="906" 
d="M552 34q82 51 132 92.5t77 76t35.5 63t8.5 53.5q0 32 -18 52.5t-54 20.5q-27 0 -48 -5t-44 -16l-12 25q23 13 48.5 20.5t58.5 7.5q50 0 79 -29.5t29 -74.5q0 -32 -12 -64.5t-40.5 -67.5t-76.5 -74t-120 -83h197l-7 -31h-240zM689 635h42l-504 -635h-42zM62 252h86l72 342
l-91 -42l-11 19l122 73h30l-83 -392h81l-7 -31h-206z" />
    <glyph glyph-name="threequarters" unicode="&#xbe;" horiz-adv-x="934" 
d="M542 105l206 313h42l-209 -316h177l41 189l42 8l-43 -197h52l-7 -33h-52l-22 -106h-40l22 106h-216zM172 175q-45 0 -76 11t-55 26l13 26q20 -12 51.5 -22.5t65.5 -10.5q57 0 85.5 34t28.5 87q0 44 -24 64t-63 20h-36l7 31h33q61 0 85 27t24 72q0 31 -20.5 51t-58.5 20
q-26 0 -48 -6t-45 -17l-11 26q26 13 51 20.5t55 7.5q54 0 84.5 -27.5t30.5 -73.5q0 -51 -26 -80t-67 -37q29 -10 49 -34.5t20 -63.5q0 -68 -40.5 -109.5t-112.5 -41.5zM731 635h42l-504 -635h-42z" />
    <glyph glyph-name="questiondown" unicode="&#xbf;" horiz-adv-x="404" 
d="M130 -232q-61 0 -101.5 32.5t-40.5 96.5q0 43 12 72.5t30 49.5t39 34t40 26q22 14 36.5 25t24 24t16 29t12.5 41l21 95h37l-22 -100q-7 -33 -18 -54.5t-24.5 -37t-29 -26.5t-31.5 -21q-18 -11 -36.5 -23t-33.5 -29t-24.5 -42t-9.5 -63q0 -46 26 -71t76 -25q31 0 65.5 9.5
t59.5 21.5l9 -28q-26 -15 -62 -25.5t-71 -10.5zM263 389q-16 0 -27 10.5t-11 27.5t11 27.5t27 10.5t27 -10.5t11 -27.5t-11 -27.5t-27 -10.5z" />
    <glyph glyph-name="Agrave" unicode="&#xc0;" horiz-adv-x="525" 
d="M335 685h41l62 -685h-38l-21 238h-238l-123 -238h-42zM158 271h218l-22 256q-3 38 -4 72.5t0 53.5h-1q-6 -19 -20.5 -50.5t-34.5 -69.5zM266 828l27 31l127 -106l-15 -20z" />
    <glyph glyph-name="Aacute" unicode="&#xc1;" horiz-adv-x="525" 
d="M335 685h41l62 -685h-38l-21 238h-238l-123 -238h-42zM158 271h218l-22 256q-3 38 -4 72.5t0 53.5h-1q-6 -19 -20.5 -50.5t-34.5 -69.5zM288 754l152 105l21 -36l-163 -90z" />
    <glyph glyph-name="Acircumflex" unicode="&#xc2;" horiz-adv-x="525" 
d="M335 685h41l62 -685h-38l-21 238h-238l-123 -238h-42zM158 271h218l-22 256q-3 38 -4 72.5t0 53.5h-1q-6 -19 -20.5 -50.5t-34.5 -69.5zM249 753l120 110h21l83 -111l-18 -17l-79 86l-112 -86z" />
    <glyph glyph-name="Atilde" unicode="&#xc3;" horiz-adv-x="525" 
d="M335 685h41l62 -685h-38l-21 238h-238l-123 -238h-42zM158 271h218l-22 256q-3 38 -4 72.5t0 53.5h-1q-6 -19 -20.5 -50.5t-34.5 -69.5zM238 768q30 55 75 55q14 0 27 -6t25.5 -12.5t24 -12.5t23.5 -6q18 0 28.5 11t21.5 28l23 -14q-31 -58 -75 -58q-15 0 -28 6
t-25.5 12.5t-24 12.5t-22.5 6q-19 0 -29.5 -11.5t-21.5 -27.5z" />
    <glyph glyph-name="Adieresis" unicode="&#xc4;" horiz-adv-x="525" 
d="M335 685h41l62 -685h-38l-21 238h-238l-123 -238h-42zM158 271h218l-22 256q-3 38 -4 72.5t0 53.5h-1q-6 -19 -20.5 -50.5t-34.5 -69.5zM428 752q-14 0 -23 8.5t-9 23.5t8.5 23.5t22.5 8.5t23 -8.5t9 -23.5t-8.5 -23.5t-22.5 -8.5zM287 752q-14 0 -23 8.5t-9 23.5
t8.5 23.5t22.5 8.5t23 -8.5t9 -23.5t-8.5 -23.5t-22.5 -8.5z" />
    <glyph glyph-name="Aring" unicode="&#xc5;" horiz-adv-x="525" 
d="M335 685h41l62 -685h-38l-21 238h-238l-123 -238h-42zM158 271h218l-22 256q-3 38 -4 72.5t0 53.5h-1q-6 -19 -20.5 -50.5t-34.5 -69.5zM367 738q-35 0 -52.5 20t-17.5 50q0 8 0.5 12.5t1.5 9.5q6 29 27.5 51.5t56.5 22.5q34 0 51.5 -21t17.5 -51q0 -8 -0.5 -13t-1.5 -9
q-6 -30 -27.5 -51t-55.5 -21zM366 764q18 0 33 12.5t20 38.5q1 4 1.5 8.5t0.5 11.5q0 20 -11 31.5t-28 11.5q-18 0 -32.5 -13t-20.5 -40q-1 -2 -1.5 -7.5t-0.5 -10.5q0 -22 11 -32.5t28 -10.5z" />
    <glyph glyph-name="AE" unicode="&#xc6;" horiz-adv-x="840" 
d="M505 685h334l-7 -32h-275l-59 -275h232l-6 -32h-232l-67 -314h294l-7 -32h-333l50 238h-224l-183 -238h-44zM230 271h206l50 233q7 32 13 60t11 49q5 25 11 46h-1q-12 -20 -28 -43q-14 -20 -33 -46t-42 -56z" />
    <glyph glyph-name="Ccedilla" unicode="&#xc7;" horiz-adv-x="514" 
d="M181 -197q-20 0 -36 7t-28 18l16 25q11 -9 22.5 -14.5t28.5 -5.5q45 0 45 46q0 39 -40 39q-10 0 -17 -1t-17 -4l52 86q-74 15 -108 69t-34 139q0 42 6 87.5t17.5 91t28 88t36.5 78.5q39 69 90.5 104.5t122.5 35.5q57 0 94.5 -19.5t65.5 -46.5l-25 -25q-24 23 -56 41
t-81 18q-61 0 -103.5 -32.5t-74.5 -91.5q-19 -35 -34 -76.5t-25.5 -85t-16 -87t-5.5 -81.5q0 -88 37.5 -134.5t122.5 -46.5q48 0 86 16t65 34l12 -32q-28 -19 -69.5 -34.5t-94.5 -15.5q-7 0 -13.5 0.5t-12.5 0.5l-32 -48q26 -3 41 -20t15 -46q0 -38 -21.5 -57.5t-59.5 -19.5
z" />
    <glyph glyph-name="Egrave" unicode="&#xc8;" horiz-adv-x="479" 
d="M187 685h314l-7 -32h-275l-59 -275h232l-6 -32h-232l-67 -314h294l-7 -32h-333zM263 828l27 31l127 -106l-15 -20z" />
    <glyph glyph-name="Eacute" unicode="&#xc9;" horiz-adv-x="479" 
d="M187 685h314l-7 -32h-275l-59 -275h232l-6 -32h-232l-67 -314h294l-7 -32h-333zM279 754l152 105l21 -36l-163 -90z" />
    <glyph glyph-name="Ecircumflex" unicode="&#xca;" horiz-adv-x="479" 
d="M187 685h314l-7 -32h-275l-59 -275h232l-6 -32h-232l-67 -314h294l-7 -32h-333zM238 753l120 110h21l83 -111l-18 -17l-79 86l-112 -86z" />
    <glyph glyph-name="Edieresis" unicode="&#xcb;" horiz-adv-x="479" 
d="M187 685h314l-7 -32h-275l-59 -275h232l-6 -32h-232l-67 -314h294l-7 -32h-333zM287 752q-14 0 -23 8.5t-9 23.5t8.5 23.5t22.5 8.5t23 -8.5t9 -23.5t-8.5 -23.5t-22.5 -8.5zM428 752q-14 0 -23 8.5t-9 23.5t8.5 23.5t22.5 8.5t23 -8.5t9 -23.5t-8.5 -23.5t-22.5 -8.5z
" />
    <glyph glyph-name="Igrave" unicode="&#xcc;" horiz-adv-x="296" 
d="M8 23l71 5l133 629l-68 5l5 23h180l-5 -23l-72 -5l-133 -630l69 -4l-5 -23h-180zM172 828l27 31l127 -106l-15 -20z" />
    <glyph glyph-name="Iacute" unicode="&#xcd;" horiz-adv-x="296" 
d="M8 23l71 5l133 629l-68 5l5 23h180l-5 -23l-72 -5l-133 -630l69 -4l-5 -23h-180zM174 754l152 105l21 -36l-163 -90z" />
    <glyph glyph-name="Icircumflex" unicode="&#xce;" horiz-adv-x="296" 
d="M8 23l71 5l133 629l-68 5l5 23h180l-5 -23l-72 -5l-133 -630l69 -4l-5 -23h-180zM136 753l120 110h21l83 -111l-18 -17l-79 86l-112 -86z" />
    <glyph glyph-name="Idieresis" unicode="&#xcf;" horiz-adv-x="296" 
d="M8 23l71 5l133 629l-68 5l5 23h180l-5 -23l-72 -5l-133 -630l69 -4l-5 -23h-180zM187 752q-14 0 -23 8.5t-9 23.5t8.5 23.5t22.5 8.5t23 -8.5t9 -23.5t-8.5 -23.5t-22.5 -8.5zM328 752q-14 0 -23 8.5t-9 23.5t8.5 23.5t22.5 8.5t23 -8.5t9 -23.5t-8.5 -23.5t-22.5 -8.5z
" />
    <glyph glyph-name="Eth" unicode="&#xd0;" horiz-adv-x="564" 
d="M39 358h78l70 327h120q117 0 170.5 -55t53.5 -163q0 -51 -9.5 -110.5t-27 -116.5t-43 -105t-58.5 -75q-38 -32 -88 -46t-116 -14h-148l69 326h-78zM190 32q61 0 105 13.5t76 43.5q28 25 50 70t38 98.5t24.5 108.5t8.5 102q1 91 -42.5 138t-146.5 47h-84l-63 -295h156
l-7 -32h-156l-62 -294h103z" />
    <glyph glyph-name="Ntilde" unicode="&#xd1;" horiz-adv-x="579" 
d="M187 685h50l138 -522q11 -43 17 -71t10 -59h1q2 17 4.5 32.5t5.5 32t7 36t9 43.5l108 508h37l-146 -685h-46l-138 513q-12 45 -19 83.5t-11 64.5h-1q-4 -33 -11 -72.5t-20 -99.5l-104 -489h-37zM271 768q30 55 75 55q14 0 27 -6t25.5 -12.5t24 -12.5t23.5 -6
q18 0 28.5 11t21.5 28l23 -14q-31 -58 -75 -58q-15 0 -28 6t-25.5 12.5t-24 12.5t-22.5 6q-19 0 -29.5 -11.5t-21.5 -27.5z" />
    <glyph glyph-name="Ograve" unicode="&#xd2;" horiz-adv-x="591" 
d="M263 -7q-100 0 -149 55.5t-49 160.5q0 42 6.5 88.5t19 93.5t30 91t39.5 80q40 66 89.5 98t118.5 32q98 0 144.5 -59.5t46.5 -165.5q0 -43 -6.5 -89.5t-18.5 -93t-29.5 -89.5t-39.5 -79q-38 -62 -86.5 -92.5t-115.5 -30.5zM261 25q57 0 98.5 27t75.5 85q19 33 34.5 74.5
t26.5 85.5t17 88.5t7 82.5q0 94 -36.5 143t-115.5 49q-57 0 -99.5 -29t-77.5 -90q-20 -35 -36 -77.5t-27.5 -86.5t-17.5 -88t-6 -81q0 -88 36.5 -135.5t120.5 -47.5zM319 828l27 31l127 -106l-15 -20z" />
    <glyph glyph-name="Oacute" unicode="&#xd3;" horiz-adv-x="591" 
d="M263 -7q-100 0 -149 55.5t-49 160.5q0 42 6.5 88.5t19 93.5t30 91t39.5 80q40 66 89.5 98t118.5 32q98 0 144.5 -59.5t46.5 -165.5q0 -43 -6.5 -89.5t-18.5 -93t-29.5 -89.5t-39.5 -79q-38 -62 -86.5 -92.5t-115.5 -30.5zM261 25q57 0 98.5 27t75.5 85q19 33 34.5 74.5
t26.5 85.5t17 88.5t7 82.5q0 94 -36.5 143t-115.5 49q-57 0 -99.5 -29t-77.5 -90q-20 -35 -36 -77.5t-27.5 -86.5t-17.5 -88t-6 -81q0 -88 36.5 -135.5t120.5 -47.5zM341 754l152 105l21 -36l-163 -90z" />
    <glyph glyph-name="Ocircumflex" unicode="&#xd4;" horiz-adv-x="591" 
d="M263 -7q-100 0 -149 55.5t-49 160.5q0 42 6.5 88.5t19 93.5t30 91t39.5 80q40 66 89.5 98t118.5 32q98 0 144.5 -59.5t46.5 -165.5q0 -43 -6.5 -89.5t-18.5 -93t-29.5 -89.5t-39.5 -79q-38 -62 -86.5 -92.5t-115.5 -30.5zM261 25q57 0 98.5 27t75.5 85q19 33 34.5 74.5
t26.5 85.5t17 88.5t7 82.5q0 94 -36.5 143t-115.5 49q-57 0 -99.5 -29t-77.5 -90q-20 -35 -36 -77.5t-27.5 -86.5t-17.5 -88t-6 -81q0 -88 36.5 -135.5t120.5 -47.5zM283 753l120 110h21l83 -111l-18 -17l-79 86l-112 -86z" />
    <glyph glyph-name="Otilde" unicode="&#xd5;" horiz-adv-x="591" 
d="M263 -7q-100 0 -149 55.5t-49 160.5q0 42 6.5 88.5t19 93.5t30 91t39.5 80q40 66 89.5 98t118.5 32q98 0 144.5 -59.5t46.5 -165.5q0 -43 -6.5 -89.5t-18.5 -93t-29.5 -89.5t-39.5 -79q-38 -62 -86.5 -92.5t-115.5 -30.5zM261 25q57 0 98.5 27t75.5 85q19 33 34.5 74.5
t26.5 85.5t17 88.5t7 82.5q0 94 -36.5 143t-115.5 49q-57 0 -99.5 -29t-77.5 -90q-20 -35 -36 -77.5t-27.5 -86.5t-17.5 -88t-6 -81q0 -88 36.5 -135.5t120.5 -47.5zM277 768q30 55 75 55q14 0 27 -6t25.5 -12.5t24 -12.5t23.5 -6q18 0 28.5 11t21.5 28l23 -14
q-31 -58 -75 -58q-15 0 -28 6t-25.5 12.5t-24 12.5t-22.5 6q-19 0 -29.5 -11.5t-21.5 -27.5z" />
    <glyph glyph-name="Odieresis" unicode="&#xd6;" horiz-adv-x="591" 
d="M263 -7q-100 0 -149 55.5t-49 160.5q0 42 6.5 88.5t19 93.5t30 91t39.5 80q40 66 89.5 98t118.5 32q98 0 144.5 -59.5t46.5 -165.5q0 -43 -6.5 -89.5t-18.5 -93t-29.5 -89.5t-39.5 -79q-38 -62 -86.5 -92.5t-115.5 -30.5zM261 25q57 0 98.5 27t75.5 85q19 33 34.5 74.5
t26.5 85.5t17 88.5t7 82.5q0 94 -36.5 143t-115.5 49q-57 0 -99.5 -29t-77.5 -90q-20 -35 -36 -77.5t-27.5 -86.5t-17.5 -88t-6 -81q0 -88 36.5 -135.5t120.5 -47.5zM472 752q-14 0 -23 8.5t-9 23.5t8.5 23.5t22.5 8.5t23 -8.5t9 -23.5t-8.5 -23.5t-22.5 -8.5zM331 752
q-14 0 -23 8.5t-9 23.5t8.5 23.5t22.5 8.5t23 -8.5t9 -23.5t-8.5 -23.5t-22.5 -8.5z" />
    <glyph glyph-name="multiply" unicode="&#xd7;" horiz-adv-x="439" 
d="M54 141l148 139l-90 138l29 21l87 -134l144 135l22 -23l-148 -139l90 -138l-29 -21l-88 134l-143 -135z" />
    <glyph glyph-name="Oslash" unicode="&#xd8;" horiz-adv-x="591" 
d="M-2 -27l91 112q-24 49 -24 124q0 42 6.5 88.5t19 93.5t30 91t39.5 80q40 66 89.5 98t118.5 32q54 0 92.5 -19t61.5 -54l79 97l24 -21l-87 -107q21 -50 21 -121q0 -43 -6.5 -89.5t-18.5 -93t-29.5 -89.5t-39.5 -79q-38 -62 -86.5 -92.5t-115.5 -30.5q-106 0 -156 64
l-85 -105zM104 208q0 -26 2.5 -48.5t9.5 -41.5l381 470q-37 72 -129 72q-57 0 -99.5 -29t-77.5 -90q-20 -35 -36 -77.5t-27.5 -86.5t-17.5 -88t-6 -81zM261 25q57 0 98.5 27t75.5 85q19 33 34.5 74.5t26.5 85.5t17 88.5t7 82.5q0 24 -2.5 45.5t-7.5 39.5l-379 -467
q18 -30 50 -45.5t80 -15.5z" />
    <glyph glyph-name="Ugrave" unicode="&#xd9;" horiz-adv-x="575" 
d="M281 828l27 31l127 -106l-15 -20zM214 -7q-64 0 -103 34.5t-39 106.5q0 11 2 29.5t6 36.5l103 485h39l-104 -488q-4 -20 -6 -36.5t-2 -30.5q0 -57 29 -80t80 -23q32 0 60 8t51.5 20t43 26t33.5 27l124 577h39l-146 -685h-23v71q-35 -29 -82 -53.5t-105 -24.5z" />
    <glyph glyph-name="Uacute" unicode="&#xda;" horiz-adv-x="575" 
d="M333 754l152 105l21 -36l-163 -90zM214 -7q-64 0 -103 34.5t-39 106.5q0 11 2 29.5t6 36.5l103 485h39l-104 -488q-4 -20 -6 -36.5t-2 -30.5q0 -57 29 -80t80 -23q32 0 60 8t51.5 20t43 26t33.5 27l124 577h39l-146 -685h-23v71q-35 -29 -82 -53.5t-105 -24.5z" />
    <glyph glyph-name="Ucircumflex" unicode="&#xdb;" horiz-adv-x="575" 
d="M271 753l120 110h21l83 -111l-18 -17l-79 86l-112 -86zM214 -7q-64 0 -103 34.5t-39 106.5q0 11 2 29.5t6 36.5l103 485h39l-104 -488q-4 -20 -6 -36.5t-2 -30.5q0 -57 29 -80t80 -23q32 0 60 8t51.5 20t43 26t33.5 27l124 577h39l-146 -685h-23v71q-35 -29 -82 -53.5
t-105 -24.5z" />
    <glyph glyph-name="Udieresis" unicode="&#xdc;" horiz-adv-x="575" 
d="M318 752q-14 0 -23 8.5t-9 23.5t8.5 23.5t22.5 8.5t23 -8.5t9 -23.5t-8.5 -23.5t-22.5 -8.5zM459 752q-14 0 -23 8.5t-9 23.5t8.5 23.5t22.5 8.5t23 -8.5t9 -23.5t-8.5 -23.5t-22.5 -8.5zM214 -7q-64 0 -103 34.5t-39 106.5q0 11 2 29.5t6 36.5l103 485h39l-104 -488
q-4 -20 -6 -36.5t-2 -30.5q0 -57 29 -80t80 -23q32 0 60 8t51.5 20t43 26t33.5 27l124 577h39l-146 -685h-23v71q-35 -29 -82 -53.5t-105 -24.5z" />
    <glyph glyph-name="Yacute" unicode="&#xdd;" horiz-adv-x="527" 
d="M241 265l-107 420h39l76 -304q8 -30 11.5 -47.5t5.5 -36.5q10 19 21 36.5t31 48.5l204 303h42l-284 -421l-56 -264h-39zM299 754l152 105l21 -36l-163 -90z" />
    <glyph glyph-name="Thorn" unicode="&#xde;" horiz-adv-x="493" 
d="M187 685h39l-25 -116h98q84 0 125 -38.5t41 -108.5q0 -30 -6 -60t-16.5 -56.5t-25 -48.5t-31.5 -36q-29 -23 -66 -33t-80 -10h-122l-38 -178h-39zM240 211q39 0 69.5 9t53.5 29q14 13 25.5 33t19.5 43.5t12 48.5t4 49q0 56 -30.5 84.5t-99.5 28.5h-100l-69 -325h115z" />
    <glyph glyph-name="germandbls" unicode="&#xdf;" horiz-adv-x="492" 
d="M-47 -99q18 12 32.5 25.5t25.5 34t21 50.5t19 75l96 452q19 90 62 132.5t109 42.5q60 0 89.5 -33.5t29.5 -83.5q0 -31 -10 -53t-25 -38.5t-33 -29t-33 -24.5t-25 -24.5t-10 -28.5q0 -18 9.5 -35.5t23.5 -36.5q13 -19 28.5 -40t28.5 -44.5t21.5 -49t8.5 -53.5
q0 -36 -12.5 -63.5t-33.5 -46t-48.5 -27.5t-57.5 -9q-42 0 -70 11.5t-41 21.5l11 28q15 -11 39.5 -21t62.5 -10q47 0 79.5 28.5t32.5 87.5q0 24 -7.5 46.5t-18.5 43.5t-25 40t-27 37q-16 23 -28 44.5t-12 45.5q0 22 10 37.5t25 28.5t32 25t32 27.5t25 35t10 47.5
q0 39 -20.5 62t-62.5 23q-56 0 -86.5 -37.5t-46.5 -112.5l-97 -457q-9 -41 -18 -72t-21.5 -54.5t-31 -41.5t-45.5 -33z" />
    <glyph glyph-name="agrave" unicode="&#xe0;" horiz-adv-x="464" 
d="M147 -7q-47 0 -80.5 35.5t-33.5 108.5q0 31 4.5 64t13.5 64.5t21 61t27 53.5q27 45 64 65.5t79 20.5q48 0 77.5 -21t47.5 -42l26 56h23l-77 -360q-5 -24 -8 -46.5t-5 -52.5h-27v71q-15 -14 -32 -28t-36 -25t-40 -18t-44 -7zM152 26q24 0 45.5 7.5t40.5 18.5t35 24.5
t29 24.5l58 272q-22 26 -48 43t-68 17q-73 0 -115 -71q-14 -23 -24.5 -51.5t-18.5 -59t-12 -60t-4 -54.5q0 -55 22.5 -83t59.5 -28zM208 617l27 31l127 -106l-15 -20z" />
    <glyph glyph-name="aacute" unicode="&#xe1;" horiz-adv-x="464" 
d="M147 -7q-47 0 -80.5 35.5t-33.5 108.5q0 31 4.5 64t13.5 64.5t21 61t27 53.5q27 45 64 65.5t79 20.5q48 0 77.5 -21t47.5 -42l26 56h23l-77 -360q-5 -24 -8 -46.5t-5 -52.5h-27v71q-15 -14 -32 -28t-36 -25t-40 -18t-44 -7zM152 26q24 0 45.5 7.5t40.5 18.5t35 24.5
t29 24.5l58 272q-22 26 -48 43t-68 17q-73 0 -115 -71q-14 -23 -24.5 -51.5t-18.5 -59t-12 -60t-4 -54.5q0 -55 22.5 -83t59.5 -28zM220 543l152 105l21 -36l-163 -90z" />
    <glyph glyph-name="acircumflex" unicode="&#xe2;" horiz-adv-x="464" 
d="M147 -7q-47 0 -80.5 35.5t-33.5 108.5q0 31 4.5 64t13.5 64.5t21 61t27 53.5q27 45 64 65.5t79 20.5q48 0 77.5 -21t47.5 -42l26 56h23l-77 -360q-5 -24 -8 -46.5t-5 -52.5h-27v71q-15 -14 -32 -28t-36 -25t-40 -18t-44 -7zM152 26q24 0 45.5 7.5t40.5 18.5t35 24.5
t29 24.5l58 272q-22 26 -48 43t-68 17q-73 0 -115 -71q-14 -23 -24.5 -51.5t-18.5 -59t-12 -60t-4 -54.5q0 -55 22.5 -83t59.5 -28zM172 542l120 110h21l83 -111l-18 -17l-79 86l-112 -86z" />
    <glyph glyph-name="atilde" unicode="&#xe3;" horiz-adv-x="464" 
d="M147 -7q-47 0 -80.5 35.5t-33.5 108.5q0 31 4.5 64t13.5 64.5t21 61t27 53.5q27 45 64 65.5t79 20.5q48 0 77.5 -21t47.5 -42l26 56h23l-77 -360q-5 -24 -8 -46.5t-5 -52.5h-27v71q-15 -14 -32 -28t-36 -25t-40 -18t-44 -7zM152 26q24 0 45.5 7.5t40.5 18.5t35 24.5
t29 24.5l58 272q-22 26 -48 43t-68 17q-73 0 -115 -71q-14 -23 -24.5 -51.5t-18.5 -59t-12 -60t-4 -54.5q0 -55 22.5 -83t59.5 -28zM166 557q30 55 75 55q14 0 27 -6t25.5 -12.5t24 -12.5t23.5 -6q18 0 28.5 11t21.5 28l23 -14q-31 -58 -75 -58q-15 0 -28 6t-25.5 12.5
t-24 12.5t-22.5 6q-19 0 -29.5 -11.5t-21.5 -27.5z" />
    <glyph glyph-name="adieresis" unicode="&#xe4;" horiz-adv-x="464" 
d="M147 -7q-47 0 -80.5 35.5t-33.5 108.5q0 31 4.5 64t13.5 64.5t21 61t27 53.5q27 45 64 65.5t79 20.5q48 0 77.5 -21t47.5 -42l26 56h23l-77 -360q-5 -24 -8 -46.5t-5 -52.5h-27v71q-15 -14 -32 -28t-36 -25t-40 -18t-44 -7zM152 26q24 0 45.5 7.5t40.5 18.5t35 24.5
t29 24.5l58 272q-22 26 -48 43t-68 17q-73 0 -115 -71q-14 -23 -24.5 -51.5t-18.5 -59t-12 -60t-4 -54.5q0 -55 22.5 -83t59.5 -28zM360 541q-14 0 -23 8.5t-9 23.5t8.5 23.5t22.5 8.5t23 -8.5t9 -23.5t-8.5 -23.5t-22.5 -8.5zM219 541q-14 0 -23 8.5t-9 23.5t8.5 23.5
t22.5 8.5t23 -8.5t9 -23.5t-8.5 -23.5t-22.5 -8.5z" />
    <glyph glyph-name="aring" unicode="&#xe5;" horiz-adv-x="464" 
d="M147 -7q-47 0 -80.5 35.5t-33.5 108.5q0 31 4.5 64t13.5 64.5t21 61t27 53.5q27 45 64 65.5t79 20.5q48 0 77.5 -21t47.5 -42l26 56h23l-77 -360q-5 -24 -8 -46.5t-5 -52.5h-27v71q-15 -14 -32 -28t-36 -25t-40 -18t-44 -7zM152 26q24 0 45.5 7.5t40.5 18.5t35 24.5
t29 24.5l58 272q-22 26 -48 43t-68 17q-73 0 -115 -71q-14 -23 -24.5 -51.5t-18.5 -59t-12 -60t-4 -54.5q0 -55 22.5 -83t59.5 -28zM285 527q-35 0 -52.5 20t-17.5 50q0 8 0.5 12.5t1.5 9.5q6 29 27.5 51.5t56.5 22.5q34 0 51.5 -21t17.5 -51q0 -8 -0.5 -13t-1.5 -9
q-6 -30 -27.5 -51t-55.5 -21zM284 553q18 0 33 12.5t20 38.5q1 4 1.5 8.5t0.5 11.5q0 20 -11 31.5t-28 11.5q-18 0 -32.5 -13t-20.5 -40q-1 -2 -1.5 -7.5t-0.5 -10.5q0 -22 11 -32.5t28 -10.5z" />
    <glyph glyph-name="ae" unicode="&#xe6;" horiz-adv-x="664" 
d="M137 -7q-52 0 -87 29.5t-35 82.5q0 78 54 113.5t150 35.5h90l17 79q10 47 -8 74t-67 27q-33 0 -66.5 -11.5t-69.5 -34.5l-14 26q36 23 73.5 37.5t80.5 14.5q48 0 75.5 -24t31.5 -65q26 38 65 63.5t92 25.5q30 0 52 -9t36.5 -24t21 -34.5t6.5 -39.5q0 -44 -24.5 -71.5
t-65 -42.5t-94 -20t-110.5 -5q-2 -18 -3.5 -36.5t-1.5 -37.5q0 -65 24.5 -93.5t75.5 -28.5q34 0 69 13t64 36l12 -27q-33 -29 -73 -41t-75 -12q-48 0 -81.5 23.5t-47.5 71.5q-14 -18 -31.5 -35t-38.5 -30.5t-45 -21.5t-52 -8zM296 121q0 28 1.5 52t5.5 50h-88
q-85 0 -123.5 -26t-38.5 -90q0 -39 25 -60t63 -21q24 0 46 8t42 21t36.5 30.5t30.5 35.5zM378 338q-10 -19 -18 -41t-13 -46q68 0 115.5 6.5t77.5 19.5t43.5 33.5t13.5 48.5q0 36 -19 56t-61 20q-26 0 -47 -8t-38.5 -21.5t-30.5 -31t-23 -36.5z" />
    <glyph glyph-name="ccedilla" unicode="&#xe7;" horiz-adv-x="404" 
d="M123 -197q-20 0 -36 7t-28 18l16 25q11 -9 22.5 -14.5t28.5 -5.5q45 0 45 46q0 39 -40 39q-10 0 -17 -1t-17 -4l51 84q-23 4 -43 15.5t-35 30.5t-24 47t-9 66q0 49 11.5 96t31.5 86q35 70 81 99t99 29q43 0 71.5 -14.5t50.5 -36.5l-20 -27q-20 20 -45.5 33.5t-60.5 13.5
q-44 0 -79.5 -26.5t-62.5 -83.5q-17 -38 -28 -83t-11 -89q0 -71 30 -100t83 -29q35 0 65 14.5t58 37.5l16 -26q-27 -23 -62.5 -40t-79.5 -17h-6l-31 -47q26 -3 41 -20t15 -46q0 -38 -21.5 -57.5t-59.5 -19.5z" />
    <glyph glyph-name="egrave" unicode="&#xe8;" horiz-adv-x="405" 
d="M174 -7q-61 0 -98.5 38.5t-37.5 117.5q0 51 12.5 103.5t34.5 95.5q26 51 70.5 84.5t103.5 33.5q31 0 53 -9t36 -24t21 -34.5t7 -39.5q0 -44 -24.5 -73.5t-65.5 -47t-94.5 -24.5t-110.5 -7q-2 -15 -3 -30.5t-1 -30.5q0 -65 24.5 -93.5t75.5 -28.5q34 0 69 13t64 36l12 -27
q-33 -29 -73 -41t-75 -12zM119 338q-11 -22 -20 -47t-14 -53q69 0 117 8t78 24t44 38t14 51q0 36 -19 56t-61 20q-26 0 -47 -8t-38.5 -21.5t-30.5 -31t-23 -36.5zM188 617l27 31l127 -106l-15 -20z" />
    <glyph glyph-name="eacute" unicode="&#xe9;" horiz-adv-x="405" 
d="M174 -7q-61 0 -98.5 38.5t-37.5 117.5q0 51 12.5 103.5t34.5 95.5q26 51 70.5 84.5t103.5 33.5q31 0 53 -9t36 -24t21 -34.5t7 -39.5q0 -44 -24.5 -73.5t-65.5 -47t-94.5 -24.5t-110.5 -7q-2 -15 -3 -30.5t-1 -30.5q0 -65 24.5 -93.5t75.5 -28.5q34 0 69 13t64 36l12 -27
q-33 -29 -73 -41t-75 -12zM119 338q-11 -22 -20 -47t-14 -53q69 0 117 8t78 24t44 38t14 51q0 36 -19 56t-61 20q-26 0 -47 -8t-38.5 -21.5t-30.5 -31t-23 -36.5zM200 543l152 105l21 -36l-163 -90z" />
    <glyph glyph-name="ecircumflex" unicode="&#xea;" horiz-adv-x="405" 
d="M174 -7q-61 0 -98.5 38.5t-37.5 117.5q0 51 12.5 103.5t34.5 95.5q26 51 70.5 84.5t103.5 33.5q31 0 53 -9t36 -24t21 -34.5t7 -39.5q0 -44 -24.5 -73.5t-65.5 -47t-94.5 -24.5t-110.5 -7q-2 -15 -3 -30.5t-1 -30.5q0 -65 24.5 -93.5t75.5 -28.5q34 0 69 13t64 36l12 -27
q-33 -29 -73 -41t-75 -12zM119 338q-11 -22 -20 -47t-14 -53q69 0 117 8t78 24t44 38t14 51q0 36 -19 56t-61 20q-26 0 -47 -8t-38.5 -21.5t-30.5 -31t-23 -36.5zM152 542l120 110h21l83 -111l-18 -17l-79 86l-112 -86z" />
    <glyph glyph-name="edieresis" unicode="&#xeb;" horiz-adv-x="405" 
d="M174 -7q-61 0 -98.5 38.5t-37.5 117.5q0 51 12.5 103.5t34.5 95.5q26 51 70.5 84.5t103.5 33.5q31 0 53 -9t36 -24t21 -34.5t7 -39.5q0 -44 -24.5 -73.5t-65.5 -47t-94.5 -24.5t-110.5 -7q-2 -15 -3 -30.5t-1 -30.5q0 -65 24.5 -93.5t75.5 -28.5q34 0 69 13t64 36l12 -27
q-33 -29 -73 -41t-75 -12zM119 338q-11 -22 -20 -47t-14 -53q69 0 117 8t78 24t44 38t14 51q0 36 -19 56t-61 20q-26 0 -47 -8t-38.5 -21.5t-30.5 -31t-23 -36.5zM340 541q-14 0 -23 8.5t-9 23.5t8.5 23.5t22.5 8.5t23 -8.5t9 -23.5t-8.5 -23.5t-22.5 -8.5zM199 541
q-14 0 -23 8.5t-9 23.5t8.5 23.5t22.5 8.5t23 -8.5t9 -23.5t-8.5 -23.5t-22.5 -8.5z" />
    <glyph glyph-name="igrave" unicode="&#xec;" horiz-adv-x="248" 
d="M154 428l-60 8l5 23h99l-98 -459h-37zM80 617l27 31l127 -106l-15 -20z" />
    <glyph glyph-name="iacute" unicode="&#xed;" horiz-adv-x="248" 
d="M154 428l-60 8l5 23h99l-98 -459h-37zM112 543l152 105l21 -36l-163 -90z" />
    <glyph glyph-name="icircumflex" unicode="&#xee;" horiz-adv-x="248" 
d="M154 428l-60 8l5 23h99l-98 -459h-37zM70 542l120 110h21l83 -111l-18 -17l-79 86l-112 -86z" />
    <glyph glyph-name="idieresis" unicode="&#xef;" horiz-adv-x="248" 
d="M154 428l-60 8l5 23h99l-98 -459h-37zM121 541q-14 0 -23 8.5t-9 23.5t8.5 23.5t22.5 8.5t23 -8.5t9 -23.5t-8.5 -23.5t-22.5 -8.5zM262 541q-14 0 -23 8.5t-9 23.5t8.5 23.5t22.5 8.5t23 -8.5t9 -23.5t-8.5 -23.5t-22.5 -8.5z" />
    <glyph glyph-name="eth" unicode="&#xf0;" horiz-adv-x="452" 
d="M177 557l112 62q-20 23 -42 41.5t-47 34.5l16 26q27 -17 53.5 -38t49.5 -47l113 63l11 -24l-107 -60q32 -44 52 -102.5t20 -139.5t-13 -151t-33 -111q-30 -63 -74 -90.5t-96 -27.5q-33 0 -61 10t-48.5 31t-32.5 52.5t-12 74.5q0 50 11.5 100.5t33.5 92.5q31 60 74.5 86
t96.5 26q38 0 68 -15.5t50 -50.5q-3 60 -20 109.5t-46 88.5l-117 -65zM194 24q42 0 76.5 24.5t58.5 77.5q18 39 27.5 86t9.5 92q0 69 -31.5 100t-85.5 31q-43 0 -75.5 -22.5t-58.5 -73.5q-20 -39 -29.5 -86.5t-9.5 -91.5q0 -72 32 -104.5t86 -32.5z" />
    <glyph glyph-name="ntilde" unicode="&#xf1;" horiz-adv-x="475" 
d="M170 557q30 55 75 55q14 0 27 -6t25.5 -12.5t24 -12.5t23.5 -6q18 0 28.5 11t21.5 28l23 -14q-31 -58 -75 -58q-15 0 -28 6t-25.5 12.5t-24 12.5t-22.5 6q-19 0 -29.5 -11.5t-21.5 -27.5zM322 466q43 0 67 -24t24 -68q0 -16 -5 -41l-71 -333h-37l70 331q5 25 5 38
q0 33 -15.5 48t-44.5 15q-42 0 -84 -23.5t-86 -56.5l-75 -352h-37l77 360q5 24 8 46.5t5 52.5h27v-78q41 35 85.5 60t86.5 25z" />
    <glyph glyph-name="ograve" unicode="&#xf2;" horiz-adv-x="454" 
d="M192 -7q-33 0 -61 10t-48.5 31t-32.5 52.5t-12 74.5q0 50 11.5 100.5t33.5 92.5q31 60 74.5 86t96.5 26q32 0 59.5 -10t47.5 -30.5t31.5 -51t11.5 -71.5q0 -52 -11 -101.5t-31 -90.5q-30 -63 -74 -90.5t-96 -27.5zM194 24q42 0 76.5 24.5t58.5 77.5q18 39 27.5 86t9.5 92
q0 69 -31.5 100t-85.5 31q-43 0 -75.5 -22.5t-58.5 -73.5q-20 -39 -29.5 -86.5t-9.5 -91.5q0 -72 32 -104.5t86 -32.5zM203 617l27 31l127 -106l-15 -20z" />
    <glyph glyph-name="oacute" unicode="&#xf3;" horiz-adv-x="454" 
d="M192 -7q-33 0 -61 10t-48.5 31t-32.5 52.5t-12 74.5q0 50 11.5 100.5t33.5 92.5q31 60 74.5 86t96.5 26q32 0 59.5 -10t47.5 -30.5t31.5 -51t11.5 -71.5q0 -52 -11 -101.5t-31 -90.5q-30 -63 -74 -90.5t-96 -27.5zM194 24q42 0 76.5 24.5t58.5 77.5q18 39 27.5 86t9.5 92
q0 69 -31.5 100t-85.5 31q-43 0 -75.5 -22.5t-58.5 -73.5q-20 -39 -29.5 -86.5t-9.5 -91.5q0 -72 32 -104.5t86 -32.5zM205 543l152 105l21 -36l-163 -90z" />
    <glyph glyph-name="ocircumflex" unicode="&#xf4;" horiz-adv-x="454" 
d="M192 -7q-33 0 -61 10t-48.5 31t-32.5 52.5t-12 74.5q0 50 11.5 100.5t33.5 92.5q31 60 74.5 86t96.5 26q32 0 59.5 -10t47.5 -30.5t31.5 -51t11.5 -71.5q0 -52 -11 -101.5t-31 -90.5q-30 -63 -74 -90.5t-96 -27.5zM194 24q42 0 76.5 24.5t58.5 77.5q18 39 27.5 86t9.5 92
q0 69 -31.5 100t-85.5 31q-43 0 -75.5 -22.5t-58.5 -73.5q-20 -39 -29.5 -86.5t-9.5 -91.5q0 -72 32 -104.5t86 -32.5zM162 542l120 110h21l83 -111l-18 -17l-79 86l-112 -86z" />
    <glyph glyph-name="otilde" unicode="&#xf5;" horiz-adv-x="454" 
d="M192 -7q-33 0 -61 10t-48.5 31t-32.5 52.5t-12 74.5q0 50 11.5 100.5t33.5 92.5q31 60 74.5 86t96.5 26q32 0 59.5 -10t47.5 -30.5t31.5 -51t11.5 -71.5q0 -52 -11 -101.5t-31 -90.5q-30 -63 -74 -90.5t-96 -27.5zM194 24q42 0 76.5 24.5t58.5 77.5q18 39 27.5 86t9.5 92
q0 69 -31.5 100t-85.5 31q-43 0 -75.5 -22.5t-58.5 -73.5q-20 -39 -29.5 -86.5t-9.5 -91.5q0 -72 32 -104.5t86 -32.5zM157 557q30 55 75 55q14 0 27 -6t25.5 -12.5t24 -12.5t23.5 -6q18 0 28.5 11t21.5 28l23 -14q-31 -58 -75 -58q-15 0 -28 6t-25.5 12.5t-24 12.5t-22.5 6
q-19 0 -29.5 -11.5t-21.5 -27.5z" />
    <glyph glyph-name="odieresis" unicode="&#xf6;" horiz-adv-x="454" 
d="M192 -7q-33 0 -61 10t-48.5 31t-32.5 52.5t-12 74.5q0 50 11.5 100.5t33.5 92.5q31 60 74.5 86t96.5 26q32 0 59.5 -10t47.5 -30.5t31.5 -51t11.5 -71.5q0 -52 -11 -101.5t-31 -90.5q-30 -63 -74 -90.5t-96 -27.5zM194 24q42 0 76.5 24.5t58.5 77.5q18 39 27.5 86t9.5 92
q0 69 -31.5 100t-85.5 31q-43 0 -75.5 -22.5t-58.5 -73.5q-20 -39 -29.5 -86.5t-9.5 -91.5q0 -72 32 -104.5t86 -32.5zM357 541q-14 0 -23 8.5t-9 23.5t8.5 23.5t22.5 8.5t23 -8.5t9 -23.5t-8.5 -23.5t-22.5 -8.5zM216 541q-14 0 -23 8.5t-9 23.5t8.5 23.5t22.5 8.5t23 -8.5
t9 -23.5t-8.5 -23.5t-22.5 -8.5z" />
    <glyph glyph-name="divide" unicode="&#xf7;" horiz-adv-x="494" 
d="M81 300h350l-7 -32h-350zM221 99q-16 0 -27 10.5t-11 27.5t11 27.5t27 10.5t27 -10.5t11 -27.5t-11 -27.5t-27 -10.5zM284 393q-16 0 -27 10.5t-11 27.5t11 27.5t27 10.5t27 -10.5t11 -27.5t-11 -27.5t-27 -10.5z" />
    <glyph glyph-name="oslash" unicode="&#xf8;" horiz-adv-x="454" 
d="M-14 -28l75 89q-23 38 -23 100q0 50 11.5 100.5t33.5 92.5q31 60 74.5 86t96.5 26q34 0 63 -11.5t49 -34.5l65 76l21 -20l-69 -81q10 -19 15.5 -41.5t5.5 -50.5q0 -52 -11 -101.5t-31 -90.5q-30 -63 -74 -90.5t-96 -27.5q-34 0 -63 10.5t-50 33.5l-72 -85zM76 161
q0 -40 11 -70l256 301q-31 43 -94 43q-43 0 -75.5 -22.5t-58.5 -73.5q-20 -39 -29.5 -86.5t-9.5 -91.5zM194 24q42 0 76.5 24.5t58.5 77.5q18 39 27.5 86t9.5 92q0 17 -2.5 32t-6.5 28l-255 -300q31 -40 92 -40z" />
    <glyph glyph-name="ugrave" unicode="&#xf9;" horiz-adv-x="475" 
d="M213 617l27 31l127 -106l-15 -20zM138 -7q-43 0 -67 23.5t-24 67.5q0 17 5 42l71 333h37l-71 -331q-5 -25 -5 -38q0 -34 16 -48.5t45 -14.5q42 0 84 23.5t86 56.5l75 352h37l-77 -360q-5 -24 -8 -46.5t-5 -52.5h-27v78q-41 -35 -85.5 -60t-86.5 -25z" />
    <glyph glyph-name="uacute" unicode="&#xfa;" horiz-adv-x="475" 
d="M235 543l152 105l21 -36l-163 -90zM138 -7q-43 0 -67 23.5t-24 67.5q0 17 5 42l71 333h37l-71 -331q-5 -25 -5 -38q0 -34 16 -48.5t45 -14.5q42 0 84 23.5t86 56.5l75 352h37l-77 -360q-5 -24 -8 -46.5t-5 -52.5h-27v78q-41 -35 -85.5 -60t-86.5 -25z" />
    <glyph glyph-name="ucircumflex" unicode="&#xfb;" horiz-adv-x="475" 
d="M177 542l120 110h21l83 -111l-18 -17l-79 86l-112 -86zM138 -7q-43 0 -67 23.5t-24 67.5q0 17 5 42l71 333h37l-71 -331q-5 -25 -5 -38q0 -34 16 -48.5t45 -14.5q42 0 84 23.5t86 56.5l75 352h37l-77 -360q-5 -24 -8 -46.5t-5 -52.5h-27v78q-41 -35 -85.5 -60t-86.5 -25z
" />
    <glyph glyph-name="udieresis" unicode="&#xfc;" horiz-adv-x="475" 
d="M219 541q-14 0 -23 8.5t-9 23.5t8.5 23.5t22.5 8.5t23 -8.5t9 -23.5t-8.5 -23.5t-22.5 -8.5zM360 541q-14 0 -23 8.5t-9 23.5t8.5 23.5t22.5 8.5t23 -8.5t9 -23.5t-8.5 -23.5t-22.5 -8.5zM138 -7q-43 0 -67 23.5t-24 67.5q0 17 5 42l71 333h37l-71 -331q-5 -25 -5 -38
q0 -34 16 -48.5t45 -14.5q42 0 84 23.5t86 56.5l75 352h37l-77 -360q-5 -24 -8 -46.5t-5 -52.5h-27v78q-41 -35 -85.5 -60t-86.5 -25z" />
    <glyph glyph-name="yacute" unicode="&#xfd;" horiz-adv-x="422" 
d="M-39 -182q38 12 65 27t48 36t38.5 50t37.5 69h-20l-46 459h36l31 -314q5 -45 7 -73.5t2 -51.5h1q10 24 26 53t38 72l160 314h39l-251 -484q-22 -43 -41.5 -72.5t-42 -50.5t-51 -35t-68.5 -26zM219 543l152 105l21 -36l-163 -90z" />
    <glyph glyph-name="thorn" unicode="&#xfe;" horiz-adv-x="466" 
d="M183 708h37l-67 -317q31 29 72 52t85 23q53 0 82.5 -34.5t29.5 -106.5q0 -39 -6.5 -81t-19 -81t-30 -72t-39.5 -55q-24 -24 -51.5 -33.5t-59.5 -9.5q-24 0 -44.5 6.5t-37.5 16.5t-30 21.5t-22 22.5l-56 -264h-37zM214 26q54 0 91 38q19 20 34 52t25 68.5t15.5 73.5
t5.5 67q0 108 -80 108q-23 0 -46 -7.5t-43.5 -19t-38.5 -24.5t-31 -24l-57 -268q22 -26 52.5 -45t72.5 -19z" />
    <glyph glyph-name="ydieresis" unicode="&#xff;" horiz-adv-x="422" 
d="M-39 -182q38 12 65 27t48 36t38.5 50t37.5 69h-20l-46 459h36l31 -314q5 -45 7 -73.5t2 -51.5h1q10 24 26 53t38 72l160 314h39l-251 -484q-22 -43 -41.5 -72.5t-42 -50.5t-51 -35t-68.5 -26zM201 541q-14 0 -23 8.5t-9 23.5t8.5 23.5t22.5 8.5t23 -8.5t9 -23.5
t-8.5 -23.5t-22.5 -8.5zM342 541q-14 0 -23 8.5t-9 23.5t8.5 23.5t22.5 8.5t23 -8.5t9 -23.5t-8.5 -23.5t-22.5 -8.5z" />
    <glyph glyph-name="dotlessi" unicode="&#x131;" horiz-adv-x="248" 
d="M154 428l-60 8l5 23h99l-98 -459h-37z" />
    <glyph glyph-name="Lslash" unicode="&#x141;" horiz-adv-x="439" 
d="M29 293l80 28l78 364h39l-75 -350l173 60l-7 -33l-173 -60l-57 -270h266l-7 -32h-305l61 288l-80 -28z" />
    <glyph glyph-name="lslash" unicode="&#x142;" horiz-adv-x="238" 
d="M32 319l82 41l74 348h37l-70 -327l103 52l-7 -32l-103 -52l-59 -282q-2 -10 -2 -18q0 -25 25 -25q7 0 17 2q4 1 9 2v-29q-6 -2 -15 -4t-17 -2q-23 0 -39.5 13t-16.5 41v10t2 11l55 260l-82 -41z" />
    <glyph glyph-name="OE" unicode="&#x152;" horiz-adv-x="811" 
d="M292 0q-117 0 -170.5 55t-53.5 163q0 51 9.5 110.5t27 116.5t43 105t58.5 75q38 32 88 46t116 14h423l-7 -32h-275l-59 -275h232l-6 -32h-232l-67 -314h294l-7 -32h-414zM380 32l132 621h-103q-61 0 -105 -13.5t-76 -43.5q-28 -26 -50.5 -70.5t-38 -98t-24 -109
t-8.5 -101.5q0 -45 10 -80t32.5 -58t58.5 -35t88 -12h84z" />
    <glyph glyph-name="oe" unicode="&#x153;" horiz-adv-x="720" 
d="M192 -7q-33 0 -61 10t-48.5 31t-32.5 52.5t-12 74.5q0 50 11.5 100.5t33.5 92.5q31 60 74.5 86t96.5 26q57 0 96 -30t47 -95q5 11 13 23q12 20 28.5 38.5t37 32.5t45.5 22.5t54 8.5q30 0 52 -9t36.5 -24t21 -34.5t6.5 -39.5q0 -44 -24.5 -73.5t-65.5 -47t-94.5 -24.5
t-110.5 -7q-2 -15 -3 -30.5t-1 -30.5q0 -65 24.5 -93.5t75.5 -28.5q34 0 69 13t64 36l12 -27q-33 -29 -73 -41t-75 -12q-54 0 -88 27t-42 86q-30 -60 -73 -86.5t-94 -26.5zM194 24q42 0 76.5 24.5t58.5 77.5q18 39 27.5 86t9.5 92q0 69 -31.5 100t-85.5 31
q-43 0 -75.5 -22.5t-58.5 -73.5q-20 -39 -29.5 -86.5t-9.5 -91.5q0 -72 32 -104.5t86 -32.5zM434 338q-22 -43 -33 -100q68 0 116 8.5t78 24t44 37.5t14 51q0 36 -19 56t-61 20q-26 0 -47 -8t-38.5 -21.5t-30.5 -31t-23 -36.5z" />
    <glyph glyph-name="Scaron" unicode="&#x160;" horiz-adv-x="462" 
d="M188 -7q-32 0 -61 7.5t-54 20.5t-46 29t-36 34l21 29q31 -35 74 -61t103 -26q42 0 72 12.5t49.5 34.5t28.5 51.5t9 63.5q0 54 -28.5 89.5t-83.5 72.5q-26 17 -47.5 35t-37 39t-24.5 45t-9 54q0 39 13 70.5t36.5 53.5t56.5 33.5t73 11.5q53 0 94.5 -19t64.5 -42l-20 -28
q-26 25 -62.5 41t-78.5 16q-62 0 -100 -33.5t-38 -102.5q0 -46 25.5 -78.5t74.5 -65.5q31 -21 55.5 -41.5t41 -43t25.5 -48.5t9 -58q0 -38 -11 -73.5t-35 -62.5t-62 -43.5t-92 -16.5zM216 852l18 17l79 -86l112 86l15 -18l-120 -110h-21z" />
    <glyph glyph-name="scaron" unicode="&#x161;" horiz-adv-x="362" 
d="M144 -7q-49 0 -84 15.5t-59 35.5l15 28q24 -19 54 -33.5t72 -14.5q47 0 76 24t29 69q0 21 -5 35.5t-15 27t-26 24t-38 25.5q-17 11 -33 22t-28.5 25t-20 32t-7.5 43q0 28 11 49.5t29 36t41 22t48 7.5q30 0 60 -10t53 -29l-16 -28q-23 17 -46 26.5t-52 9.5
q-42 0 -67 -20.5t-25 -63.5q0 -17 4 -29.5t13 -22.5t22.5 -20t33.5 -22q24 -15 42.5 -28.5t31.5 -29t20 -35t7 -46.5q0 -30 -11.5 -53.5t-30.5 -39t-44.5 -24t-53.5 -8.5zM130 641l18 17l79 -86l112 86l15 -18l-120 -110h-21z" />
    <glyph glyph-name="Ydieresis" unicode="&#x178;" horiz-adv-x="527" 
d="M241 265l-107 420h39l76 -304q8 -30 11.5 -47.5t5.5 -36.5q10 19 21 36.5t31 48.5l204 303h42l-284 -421l-56 -264h-39zM289 752q-14 0 -23 8.5t-9 23.5t8.5 23.5t22.5 8.5t23 -8.5t9 -23.5t-8.5 -23.5t-22.5 -8.5zM430 752q-14 0 -23 8.5t-9 23.5t8.5 23.5t22.5 8.5
t23 -8.5t9 -23.5t-8.5 -23.5t-22.5 -8.5z" />
    <glyph glyph-name="florin" unicode="&#x192;" horiz-adv-x="350" 
d="M83 429h86l30 142q14 67 46.5 94t79.5 27q25 0 43 -7t32 -18l-14 -29q-14 9 -27.5 15t-36.5 6q-32 0 -53 -19t-32 -70l-30 -141h108l-7 -32h-108l-128 -604h-38l128 604h-86z" />
    <glyph glyph-name="circumflex" unicode="&#x2c6;" 
d="M215 542l120 110h21l83 -111l-18 -17l-79 86l-112 -86z" />
    <glyph glyph-name="caron" unicode="&#x2c7;" 
d="M234 641l18 17l79 -86l112 86l15 -18l-120 -110h-21z" />
    <glyph glyph-name="breve" unicode="&#x2d8;" 
d="M333 543q-40 0 -63 25.5t-27 61.5l28 9q3 -26 16.5 -44t45.5 -18t50 17t32 45l27 -9q-14 -37 -42 -62t-67 -25z" />
    <glyph glyph-name="dotaccent" unicode="&#x2d9;" 
d="M337 564q-14 0 -23 8.5t-9 23.5t8.5 23.5t22.5 8.5t23 -8.5t9 -23.5t-8.5 -23.5t-22.5 -8.5z" />
    <glyph glyph-name="ring" unicode="&#x2da;" 
d="M332 527q-35 0 -52.5 20t-17.5 50q0 8 0.5 12.5t1.5 9.5q6 29 27.5 51.5t56.5 22.5q34 0 51.5 -21t17.5 -51q0 -8 -0.5 -13t-1.5 -9q-6 -30 -27.5 -51t-55.5 -21zM331 553q18 0 33 12.5t20 38.5q1 4 1.5 8.5t0.5 11.5q0 20 -11 31.5t-28 11.5q-18 0 -32.5 -13t-20.5 -40
q-1 -2 -1.5 -7.5t-0.5 -10.5q0 -22 11 -32.5t28 -10.5z" />
    <glyph glyph-name="ogonek" unicode="&#x2db;" 
d="M196 -197q-27 0 -49.5 16t-22.5 49q0 20 9 38.5t23 35.5t32 31.5t35 26.5h35q-40 -34 -70 -66.5t-30 -64.5q0 -17 11 -26.5t30 -9.5t29.5 4.5t24.5 12.5l8 -25q-12 -8 -27 -15t-38 -7z" />
    <glyph glyph-name="tilde" unicode="&#x2dc;" 
d="M209 557q30 55 75 55q14 0 27 -6t25.5 -12.5t24 -12.5t23.5 -6q18 0 28.5 11t21.5 28l23 -14q-31 -58 -75 -58q-15 0 -28 6t-25.5 12.5t-24 12.5t-22.5 6q-19 0 -29.5 -11.5t-21.5 -27.5z" />
    <glyph glyph-name="hungarumlaut" unicode="&#x2dd;" horiz-adv-x="441" 
d="M203 536l126 152l27 -22l-133 -143zM323 536l126 152l27 -22l-134 -143z" />
    <glyph glyph-name="endash" unicode="&#x2013;" horiz-adv-x="446" 
d="M65 297h332l-7 -32h-332z" />
    <glyph glyph-name="emdash" unicode="&#x2014;" horiz-adv-x="632" 
d="M65 297h518l-7 -32h-518z" />
    <glyph glyph-name="quoteleft" unicode="&#x2018;" horiz-adv-x="191" 
d="M161 529q-17 0 -28 11t-11 34q0 16 6 34.5t18 35t31 29t46 17.5v-21q-24 -9 -40.5 -27t-19.5 -39q14 -2 23.5 -11.5t9.5 -25.5q0 -17 -10 -27t-25 -10z" />
    <glyph glyph-name="quoteright" unicode="&#x2019;" horiz-adv-x="191" 
d="M116 546q24 9 40.5 27t19.5 39q-14 2 -23.5 11.5t-9.5 25.5q0 17 10 27t25 10q17 0 28 -11t11 -34q0 -17 -6 -35t-18 -34.5t-31 -29t-46 -17.5v21z" />
    <glyph glyph-name="quotesinglbase" unicode="&#x201a;" horiz-adv-x="191" 
d="M-14 -67q24 9 40.5 27t19.5 39q-14 2 -23.5 11.5t-9.5 25.5q0 17 10 27t25 10q17 0 28 -11t11 -34q0 -17 -6 -35t-18 -34.5t-31 -29t-46 -17.5v21z" />
    <glyph glyph-name="quotedblleft" unicode="&#x201c;" horiz-adv-x="326" 
d="M296 529q-17 0 -28 11t-11 34q0 16 6 34.5t18 35t31 29t46 17.5v-21q-24 -9 -40.5 -27t-19.5 -39q14 -2 23.5 -11.5t9.5 -25.5q0 -17 -10 -27t-25 -10zM161 529q-17 0 -28 11t-11 34q0 16 6 34.5t18 35t31 29t46 17.5v-21q-24 -9 -40.5 -27t-19.5 -39q14 -2 23.5 -11.5
t9.5 -25.5q0 -17 -10 -27t-25 -10z" />
    <glyph glyph-name="quotedblright" unicode="&#x201d;" horiz-adv-x="326" 
d="M251 546q24 9 40.5 27t19.5 39q-14 2 -23.5 11.5t-9.5 25.5q0 17 10 27t25 10q17 0 28 -11t11 -34q0 -17 -6 -35t-18 -34.5t-31 -29t-46 -17.5v21zM116 546q24 9 40.5 27t19.5 39q-14 2 -23.5 11.5t-9.5 25.5q0 17 10 27t25 10q17 0 28 -11t11 -34q0 -17 -6 -35
t-18 -34.5t-31 -29t-46 -17.5v21z" />
    <glyph glyph-name="quotedblbase" unicode="&#x201e;" horiz-adv-x="326" 
d="M121 -67q24 9 40.5 27t19.5 39q-14 2 -23.5 11.5t-9.5 25.5q0 17 10 27t25 10q17 0 28 -11t11 -34q0 -17 -6 -35t-18 -34.5t-31 -29t-46 -17.5v21zM-14 -67q24 9 40.5 27t19.5 39q-14 2 -23.5 11.5t-9.5 25.5q0 17 10 27t25 10q17 0 28 -11t11 -34q0 -17 -6 -35
t-18 -34.5t-31 -29t-46 -17.5v21z" />
    <glyph glyph-name="dagger" unicode="&#x2020;" horiz-adv-x="331" 
d="M204 526h-97l7 32h97l27 127h37l-27 -127h97l-7 -32h-97l-56 -264h-37z" />
    <glyph glyph-name="daggerdbl" unicode="&#x2021;" horiz-adv-x="331" 
d="M175 390h-97l7 32h97l22 103h-97l7 32h97l27 128h37l-27 -128h97l-7 -32h-97l-22 -103h97l-7 -32h-97l-27 -128h-37z" />
    <glyph glyph-name="bullet" unicode="&#x2022;" horiz-adv-x="237" 
d="M124 250q-29 0 -44.5 17.5t-15.5 43.5q0 16 6 30.5t16 26t24 18.5t30 7q27 0 43 -17.5t16 -43.5q0 -33 -21.5 -57.5t-53.5 -24.5z" />
    <glyph glyph-name="ellipsis" unicode="&#x2026;" horiz-adv-x="564" 
d="M412 -5q-16 0 -27 10.5t-11 27.5t11 27.5t27 10.5t27 -10.5t11 -27.5t-11 -27.5t-27 -10.5zM56 -5q-16 0 -27 10.5t-11 27.5t11 27.5t27 10.5t27 -10.5t11 -27.5t-11 -27.5t-27 -10.5zM234 -5q-16 0 -27 10.5t-11 27.5t11 27.5t27 10.5t27 -10.5t11 -27.5t-11 -27.5
t-27 -10.5z" />
    <glyph glyph-name="perthousand" unicode="&#x2030;" horiz-adv-x="1107" 
d="M218 299q-61 0 -92.5 36.5t-31.5 96.5q0 28 6 56t17.5 52.5t27 45t33.5 32.5q34 24 81 24q55 0 88 -34t33 -95q0 -51 -19.5 -102t-53.5 -80q-18 -16 -39.5 -24t-49.5 -8zM539 -7q-61 0 -92.5 36.5t-31.5 96.5q0 28 6 56t17.5 52.5t27 45t33.5 32.5q34 24 81 24
q55 0 88 -34t33 -95q0 -51 -19.5 -102t-53.5 -80q-18 -16 -39.5 -24t-49.5 -8zM877 -7q-61 0 -92.5 36.5t-31.5 96.5q0 28 6 56t17.5 52.5t27 45t33.5 32.5q34 24 81 24q55 0 88 -34t33 -95q0 -51 -19.5 -102t-53.5 -80q-18 -16 -39.5 -24t-49.5 -8zM218 330q43 0 71 28
q13 11 23 29t17 39.5t10.5 44.5t3.5 44q0 45 -20.5 70.5t-64.5 25.5q-38 0 -65 -21q-14 -11 -25.5 -29t-19.5 -40t-12.5 -45.5t-4.5 -45.5q0 -48 21 -74t66 -26zM539 24q43 0 71 28q13 11 23 29t17 39.5t10.5 44.5t3.5 44q0 45 -20.5 70.5t-64.5 25.5q-38 0 -65 -21
q-14 -11 -25.5 -29t-19.5 -40t-12.5 -45.5t-4.5 -45.5q0 -48 21 -74t66 -26zM877 24q43 0 71 28q13 11 23 29t17 39.5t10.5 44.5t3.5 44q0 45 -20.5 70.5t-64.5 25.5q-38 0 -65 -21q-14 -11 -25.5 -29t-19.5 -40t-12.5 -45.5t-4.5 -45.5q0 -48 21 -74t66 -26zM629 635h42
l-504 -635h-42z" />
    <glyph glyph-name="guilsinglleft" unicode="&#x2039;" horiz-adv-x="269" 
d="M54 250l164 188l25 -19l-150 -175l74 -178l-31 -14z" />
    <glyph glyph-name="guilsinglright" unicode="&#x203a;" horiz-adv-x="269" 
d="M20 71l150 175l-74 178l31 14l82 -198l-164 -188z" />
    <glyph glyph-name="fraction" unicode="&#x2044;" horiz-adv-x="297" 
d="M392 635h42l-504 -635h-42z" />
    <glyph glyph-name="Euro" unicode="&#x20ac;" horiz-adv-x="528" 
d="M55 402h86q10 30 22 58t26 53q37 64 86 96.5t115 32.5q53 0 89 -16.5t62 -42.5l-23 -26q-22 22 -53.5 37t-76.5 15q-57 0 -97.5 -27.5t-70.5 -84.5q-11 -22 -21.5 -45.5t-18.5 -49.5h231l-6 -32h-234q-15 -51 -21 -100h233l-6 -32h-231q-2 -12 -2 -23.5v-22.5
q0 -81 36.5 -123.5t115.5 -42.5q45 0 81 14t61 31l12 -31q-26 -17 -66 -32t-89 -15q-96 0 -142.5 54t-46.5 146q0 11 0.5 22t1.5 23h-87l6 32h84q6 48 20 100h-82z" />
    <glyph glyph-name="trademark" unicode="&#x2122;" horiz-adv-x="680" 
d="M430 685h52l23 -194q2 -20 2.5 -38.5t-0.5 -30.5h1q4 12 10 28t20 41l107 194h57l-76 -357h-37l49 233q8 40 14 62.5t9 34.5q-5 -11 -16.5 -36t-28.5 -55l-97 -170h-33l-24 167q-5 32 -5 54.5t-1 39.5h-1q-3 -17 -7 -41t-11 -56l-49 -233h-34zM227 655h-88l7 30h213
l-7 -30h-89l-69 -327h-36z" />
    <glyph glyph-name="minus" unicode="&#x2212;" horiz-adv-x="494" 
d="M81 300h350l-7 -32h-350z" />
    <glyph glyph-name="uni2219" unicode="&#x2219;" horiz-adv-x="208" 
d="M122 304q-16 0 -27 10.5t-11 27.5t11 27.5t27 10.5t27 -10.5t11 -27.5t-11 -27.5t-27 -10.5z" />
    <glyph glyph-name="uni2224" unicode="&#x2224;" horiz-adv-x="208" 
d="M122 304q-16 0 -27 10.5t-11 27.5t11 27.5t27 10.5t27 -10.5t11 -27.5t-11 -27.5t-27 -10.5z" />
    <glyph glyph-name="uni2227" unicode="&#x2227;" horiz-adv-x="208" 
d="M122 304q-16 0 -27 10.5t-11 27.5t11 27.5t27 10.5t27 -10.5t11 -27.5t-11 -27.5t-27 -10.5z" />
    <glyph glyph-name="uni22C5" unicode="&#x22c5;" horiz-adv-x="208" 
d="M122 304q-16 0 -27 10.5t-11 27.5t11 27.5t27 10.5t27 -10.5t11 -27.5t-11 -27.5t-27 -10.5z" />
    <glyph glyph-name="ff" unicode="&#xfb00;" horiz-adv-x="507" 
d="M83 459h60l27 142q11 57 41 81t68 24q23 0 38 -5.5t29 -14.5l-11 -27q-13 8 -25.5 12t-30.5 4q-27 0 -45.5 -16.5t-27.5 -62.5l-27 -137h195l29 152q11 57 43.5 81t71.5 24q25 0 41 -5.5t30 -14.5l-11 -27q-13 8 -26.5 12t-33.5 4q-29 0 -50 -17t-29 -62l-28 -147h95
l-7 -30h-94l-65 -341q-8 -41 -17 -72t-22 -55t-31.5 -42t-45.5 -33l-17 27q18 12 32.5 25.5t26 34t21 50.5t18.5 75l63 331h-194l-68 -354q-8 -41 -17 -72t-22 -54.5t-31.5 -41.5t-45.5 -33l-17 27q18 12 32.5 25.5t26 34t21 50.5t18.5 75l66 343h-61z" />
    <glyph glyph-name="fi" unicode="&#xfb01;" horiz-adv-x="461" 
d="M367 429h-195l-68 -354q-8 -41 -17 -72t-22 -54.5t-31.5 -41.5t-45.5 -33l-17 27q18 12 32.5 25.5t26 34t21 50.5t18.5 75l67 343h-60l7 30h59l24 125q13 67 50.5 99.5t88.5 32.5q38 0 60 -11t34 -20l-15 -27q-12 9 -30 18t-49 9q-37 0 -64.5 -23t-38.5 -83l-24 -120h233
l-98 -459h-37z" />
    <glyph glyph-name="fl" unicode="&#xfb02;" horiz-adv-x="471" 
d="M327 67q-2 -10 -2 -18q0 -25 25 -25q7 0 17 2q4 1 9 2v-29q-6 -2 -15 -4t-17 -2q-23 0 -39.5 13t-16.5 41q0 8 0.5 12t1.5 9l128 603q-16 6 -34 9.5t-46 3.5q-62 0 -94 -28t-45 -93l-20 -104h96l-7 -30h-95l-68 -354q-8 -41 -17 -72t-22 -54.5t-31.5 -41.5t-45.5 -33
l-17 27q18 12 32.5 25.5t26 34t21 50.5t18.5 75l66 343h-60l7 30h58l21 106q16 83 62.5 117t113.5 34q26 0 45.5 -2t35.5 -6h44z" />
    <glyph glyph-name="ffi" unicode="&#xfb03;" horiz-adv-x="689" 
d="M595 429h-190l-65 -341q-8 -41 -17 -72t-22 -55t-31.5 -42t-45.5 -33l-17 27q18 12 32.5 25.5t26.5 34t21.5 50.5t17.5 75l62 331h-193l-68 -354q-8 -41 -17 -72t-22 -54.5t-31.5 -41.5t-45.5 -33l-17 27q18 12 32.5 25.5t26 34t21 50.5t18.5 75l66 343h-61l7 30h60
l27 142q11 57 41 81t68 24q23 0 38 -5.5t29 -14.5l-11 -27q-13 8 -25.5 12t-30.5 4q-27 0 -45.5 -16.5t-27.5 -62.5l-27 -137h194l24 125q13 66 50.5 99t88.5 33q38 0 60 -11t34 -20l-15 -27q-12 9 -30 18t-49 9q-37 0 -64.5 -23.5t-38.5 -82.5l-23 -120h229l-98 -459h-37z
" />
    <glyph glyph-name="ffl" unicode="&#xfb04;" horiz-adv-x="699" 
d="M646 671q-16 6 -32.5 9.5t-44.5 3.5q-62 0 -94.5 -28t-44.5 -93l-20 -104h96l-7 -30h-94l-65 -341q-8 -41 -17 -72t-22 -55t-31.5 -42t-45.5 -33l-17 27q18 12 32.5 25.5t26.5 34t21.5 50.5t17.5 75l62 331h-193l-68 -354q-8 -41 -17 -72t-22 -54.5t-31.5 -41.5
t-45.5 -33l-17 27q18 12 32.5 25.5t26 34t21 50.5t18.5 75l66 343h-61l7 30h60l27 142q11 57 41 81t68 24q23 0 38 -5.5t29 -14.5l-11 -27q-13 8 -25.5 12t-30.5 4q-27 0 -46 -17t-27 -62l-27 -137h194l20 106q16 83 62.5 117t113.5 34q26 0 45 -2t34 -6h43l-136 -641
q-2 -10 -2 -18q0 -25 25 -25q7 0 17 2q4 1 9 2v-29q-6 -2 -15 -4t-17 -2q-23 0 -39.5 13t-16.5 41q0 11 2 21z" />
    <glyph glyph-name="fj" horiz-adv-x="458" 
d="M156 -185q21 10 37 20t29 23.5t22 32t15 45.5l105 493h-194l-68 -354q-8 -41 -17 -72t-22 -54.5t-31.5 -41.5t-45.5 -33l-17 27q18 12 32.5 25.5t26 34t21 50.5t18.5 75l67 343h-58l7 30h57l24 125q13 67 50.5 99.5t88.5 32.5q38 0 60 -11t34 -20l-15 -27q-12 9 -30 18
t-49 9q-37 0 -64.5 -23t-38.5 -83l-24 -120h232l-113 -528q-7 -34 -19 -56.5t-28 -38t-36.5 -26t-44.5 -19.5z" />
    </font>
</defs>
</svg>
