<?xml version="1.0" standalone="no"?>
<!DOCTYPE svg PUBLIC "-//W3C//DTD SVG 1.1//EN" "http://www.w3.org/Graphics/SVG/1.1/DTD/svg11.dtd" >
<svg>
<metadata>
Created by FontForge 20110222 at Mon Jan 20 07:53:28 2014
 By Orthosie Webhosting
2003 Erik Spiekermann, Christian Schwartz; published by FontShop International for the FontFont library.
</metadata>
<defs>
<font id="UnitThinRegular" horiz-adv-x="453" >
  <font-face 
    font-family="UnitThinRegular"
    font-weight="500"
    font-stretch="normal"
    units-per-em="1000"
    panose-1="0 0 0 0 0 0 0 0 0 0"
    ascent="800"
    descent="-200"
    x-height="459"
    cap-height="685"
    bbox="-79 -213 1087 904"
    underline-thickness="20"
    underline-position="-132"
    unicode-range="U+0020-FB04"
  />
<missing-glyph horiz-adv-x="230" 
 />
    <glyph glyph-name=".notdef" horiz-adv-x="230" 
 />
    <glyph glyph-name=".null" horiz-adv-x="0" 
 />
    <glyph glyph-name="nonmarkingreturn" horiz-adv-x="333" 
 />
    <glyph glyph-name="space" unicode=" " horiz-adv-x="230" 
 />
    <glyph glyph-name="exclam" unicode="!" horiz-adv-x="228" 
d="M98 167l-5 518h42l-5 -518h-32zM114 -6q-16 0 -27.5 11.5t-11.5 27.5t11.5 28t27.5 12t27.5 -12t11.5 -28t-11.5 -27.5t-27.5 -11.5z" />
    <glyph glyph-name="quotedbl" unicode="&#x22;" horiz-adv-x="333" 
d="M211 481v229h37v-229h-37zM85 481v229h37v-229h-37z" />
    <glyph glyph-name="numbersign" unicode="#" horiz-adv-x="533" 
d="M170 418h-103v33h108l28 184h36l-28 -184h152l28 184h36l-28 -184h97v-33h-102l-30 -193h102v-33h-107l-29 -192h-36l29 192h-152l-29 -192h-36l29 192h-98v33h103zM358 418h-152l-30 -193h152z" />
    <glyph glyph-name="dollar" unicode="$" horiz-adv-x="487" 
d="M236 642v101h34v-102q72 -5 135 -47l-19 -29q-53 38 -116 43v-263q82 -33 123 -73t41 -112q0 -68 -40 -114t-124 -52v-96h-34v95q-121 4 -191 83l27 25q62 -72 164 -75v295q-70 28 -111 66.5t-41 106.5q0 65 42.5 105t109.5 43zM270 27q124 12 124 132q0 56 -30.5 89
t-93.5 59v-280zM236 609q-52 -3 -82.5 -32t-30.5 -82t28 -82.5t85 -54.5v251z" />
    <glyph glyph-name="percent" unicode="%" horiz-adv-x="787" 
d="M198 299q-67 0 -106.5 46t-39.5 126q0 78 38.5 124.5t103.5 46.5q66 0 106 -46t40 -128q0 -77 -38 -123t-104 -46zM593 -7q-67 0 -106.5 46t-39.5 126q0 78 38.5 124.5t103.5 46.5q66 0 106 -46t40 -128q0 -77 -38 -123t-104 -46zM591 25q105 0 105 134q0 145 -106 145
q-104 0 -104 -136q0 -143 105 -143zM196 331q105 0 105 134q0 145 -106 145q-104 0 -104 -136q0 -143 105 -143zM184 0l378 635h41l-378 -635h-41z" />
    <glyph glyph-name="ampersand" unicode="&#x26;" horiz-adv-x="619" 
d="M452 171q34 77 51 194l36 -2q-18 -133 -62 -221l122 -142h-47l-93 109q-78 -122 -204 -122q-103 0 -148 54.5t-45 133.5q0 75 39.5 126t114.5 90l-9 11q-41 48 -60.5 84.5t-19.5 76.5q0 56 39 92.5t104 36.5q59 0 97 -35t38 -99q0 -103 -137 -173zM236 368
q-67 -38 -100 -83t-33 -112q0 -66 35 -109.5t117 -43.5q115 0 180 116zM248 408q62 33 89.5 67.5t27.5 80.5q0 103 -95 103q-47 0 -75 -27t-28 -68q0 -37 15.5 -68t49.5 -69z" />
    <glyph glyph-name="quotesingle" unicode="'" horiz-adv-x="207" 
d="M85 481v229h37v-229h-37z" />
    <glyph glyph-name="parenleft" unicode="(" horiz-adv-x="306" 
d="M252 -149q-186 110 -186 461q0 186 47 293.5t139 162.5l16 -26q-85 -55 -122 -154.5t-37 -277.5q0 -177 37.5 -277.5t121.5 -155.5z" />
    <glyph glyph-name="parenright" unicode=")" horiz-adv-x="306" 
d="M54 -149l-16 26q85 55 122 154.5t37 277.5q0 177 -37.5 277.5t-121.5 155.5l16 26q186 -110 186 -461q0 -186 -47 -293.5t-139 -162.5z" />
    <glyph glyph-name="asterisk" unicode="*" horiz-adv-x="414" 
d="M123 381l-25 18l82 113l-127 47l11 29l126 -46v143h34v-143l126 46l11 -29l-127 -47l82 -113l-25 -18l-84 115z" />
    <glyph glyph-name="plus" unicode="+" horiz-adv-x="504" 
d="M233 90v177h-160v33h160v178h38v-178h160v-33h-160v-177h-38z" />
    <glyph glyph-name="comma" unicode="," horiz-adv-x="212" 
d="M74 -88l-10 22q43 20 45 60q-19 0 -30.5 11t-11.5 28q0 16 11.5 27.5t27.5 11.5q17 0 29 -14t12 -40q0 -85 -73 -106z" />
    <glyph glyph-name="hyphen" unicode="-" horiz-adv-x="284" 
d="M58 249v35h168v-35h-168z" />
    <glyph glyph-name="period" unicode="." horiz-adv-x="212" 
d="M106 -6q-16 0 -27.5 11.5t-11.5 27.5t11.5 27.5t27.5 11.5t27.5 -11.5t11.5 -27.5t-11.5 -27.5t-27.5 -11.5z" />
    <glyph glyph-name="slash" unicode="/" horiz-adv-x="335" 
d="M20 -144l257 901h38l-257 -901h-38z" />
    <glyph glyph-name="zero" unicode="0" horiz-adv-x="580" 
d="M292 -7q-226 0 -226 321q0 155 57.5 241.5t166.5 86.5q110 0 167 -85.5t57 -239.5q0 -160 -53 -242t-169 -82zM291 26q96 0 139 73t43 213q0 297 -183 297t-183 -293q0 -290 184 -290z" />
    <glyph glyph-name="one" unicode="1" horiz-adv-x="419" 
d="M67 0v33h136v554l-128 -72l-13 23l148 101h33v-606h128v-33h-304z" />
    <glyph glyph-name="two" unicode="2" horiz-adv-x="459" 
d="M48 0v35q97 85 158.5 149.5t92 114.5t40.5 85t10 77q0 148 -134 148q-42 0 -72.5 -9.5t-71.5 -33.5l-16 28q79 48 159 48q78 0 127 -46t49 -136t-63 -184.5t-235 -242.5h311v-33h-355z" />
    <glyph glyph-name="three" unicode="3" horiz-adv-x="482" 
d="M205 -65q-101 0 -180 43l14 27q76 -37 165 -37q83 0 127 41.5t44 121.5q0 167 -166 167h-57v33h48q71 0 109 38t38 104q0 64 -34.5 100t-99.5 36q-74 0 -152 -46l-16 27q45 27 81.5 39.5t87.5 12.5q82 0 127.5 -47.5t45.5 -117.5q0 -121 -108 -158q137 -32 137 -187
q0 -91 -57.5 -144t-153.5 -53z" />
    <glyph glyph-name="four" unicode="4" horiz-adv-x="525" 
d="M363 108h-319v37l223 490h40l-225 -494h281v301l40 9v-310h81v-33h-81v-166h-40v166z" />
    <glyph glyph-name="five" unicode="5" horiz-adv-x="482" 
d="M207 -65q-92 0 -169 40l15 30q72 -37 153 -37q89 0 132 51t43 142t-48.5 137.5t-130.5 46.5q-62 0 -122 -20l31 310h300v-33h-267l-24 -234q33 10 82 10q102 0 161 -58t59 -158q0 -102 -56.5 -164.5t-158.5 -62.5z" />
    <glyph glyph-name="six" unicode="6" horiz-adv-x="542" 
d="M112 343q79 72 172 72q80 0 137 -54t57 -152q0 -105 -52.5 -160.5t-141.5 -55.5q-95 0 -155.5 72t-60.5 208q0 193 83.5 289t245.5 127l8 -33q-136 -27 -207.5 -98t-85.5 -215zM110 309q-1 -12 -1 -37q0 -123 47 -184.5t128 -61.5q75 0 114 47t39 134q0 85 -43 130
t-115 45q-84 0 -169 -73z" />
    <glyph glyph-name="seven" unicode="7" horiz-adv-x="468" 
d="M177 -60l-42 3q35 405 248 659h-341v33h379v-37q-214 -256 -244 -658z" />
    <glyph glyph-name="eight" unicode="8" horiz-adv-x="531" 
d="M219 362q-132 58 -132 173q0 70 47 113.5t129 43.5q81 0 129.5 -44t48.5 -112q0 -111 -135 -176l6 -2q89 -39 124.5 -81t35.5 -105q0 -83 -57 -131t-147 -48q-92 0 -150.5 47t-58.5 132q0 72 41.5 115.5t118.5 74.5zM254 347q-80 -33 -117.5 -73t-37.5 -102
q0 -72 45.5 -109t123.5 -37q74 0 119 37.5t45 102.5q0 56 -28 91.5t-98 66.5zM272 376q72 33 100.5 71t28.5 87q0 58 -37 91.5t-101 33.5q-62 0 -99 -32.5t-37 -88.5q0 -51 25 -85.5t88 -62.5z" />
    <glyph glyph-name="nine" unicode="9" horiz-adv-x="542" 
d="M429 287q-72 -70 -163 -70q-82 0 -142 55.5t-60 155.5q0 102 55.5 159.5t141.5 57.5q96 0 154.5 -71.5t58.5 -212.5q0 -98 -24.5 -171t-72 -121t-107.5 -76.5t-139 -43.5l-8 33q142 31 216.5 100t89.5 205zM432 321q1 13 1 41q0 125 -45.5 187.5t-126.5 62.5
q-73 0 -114.5 -48t-41.5 -134q0 -88 46.5 -134t120.5 -46q82 0 160 71z" />
    <glyph glyph-name="colon" unicode=":" horiz-adv-x="224" 
d="M112 264q-16 0 -27.5 11.5t-11.5 27.5t11.5 27.5t27.5 11.5t27.5 -11.5t11.5 -27.5t-11.5 -27.5t-27.5 -11.5zM112 -6q-16 0 -27.5 11.5t-11.5 27.5t11.5 27.5t27.5 11.5t27.5 -11.5t11.5 -27.5t-11.5 -27.5t-27.5 -11.5z" />
    <glyph glyph-name="semicolon" unicode=";" horiz-adv-x="224" 
d="M80 -88l-10 22q43 20 45 60q-19 0 -30.5 11t-11.5 28q0 16 11.5 27.5t27.5 11.5q17 0 29 -14t12 -40q0 -85 -73 -106zM112 264q-16 0 -27.5 11.5t-11.5 27.5t11.5 27.5t27.5 11.5t27.5 -11.5t11.5 -27.5t-11.5 -27.5t-27.5 -11.5z" />
    <glyph glyph-name="less" unicode="&#x3c;" horiz-adv-x="310" 
d="M241 87l-190 194v9l190 194l23 -24l-170 -175l170 -174z" />
    <glyph glyph-name="equal" unicode="=" horiz-adv-x="519" 
d="M74 344v33h370v-33h-370zM74 194v33h370v-33h-370z" />
    <glyph glyph-name="greater" unicode="&#x3e;" horiz-adv-x="310" 
d="M69 87l-23 24l170 175l-170 174l23 24l190 -194v-9z" />
    <glyph glyph-name="question" unicode="?" horiz-adv-x="411" 
d="M158 167v92q0 14 1.5 26t2.5 21.5t5.5 19t6 15.5t8 14.5t8 11t10.5 11t10 9t12 9.5l11 9q22 18 34 31t24.5 41.5t12.5 64.5q0 63 -25.5 90t-82.5 27q-70 0 -133 -41l-15 27q65 47 147 47q149 0 149 -148q0 -43 -14.5 -77t-29 -49t-39.5 -35q-41 -33 -53 -54.5t-12 -71.5
v-90h-38zM178 -6q-16 0 -27.5 11.5t-11.5 27.5t11.5 28t27.5 12t27.5 -12t11.5 -28t-11.5 -27.5t-27.5 -11.5z" />
    <glyph glyph-name="at" unicode="@" horiz-adv-x="772" 
d="M347 -143q-154 0 -219.5 90.5t-65.5 263.5q0 109 35 197t113 144.5t189 56.5q86 0 148.5 -28.5t97 -79t50 -110.5t15.5 -133q0 -265 -154 -265q-46 0 -73 25t-30 69q-70 -82 -144 -82q-28 0 -48.5 11.5t-35 39t-14 74.5t14.5 119q25 112 68 161t110 49q58 0 109 -53l9 41
h39l-64 -299q-27 -124 61 -124q61 0 87.5 57.5t26.5 176.5q0 320 -272 320q-76 0 -135 -30.5t-94 -82.5t-53 -116.5t-18 -137.5q0 -160 53.5 -241.5t192.5 -81.5q74 0 139 20l9 -28q-76 -23 -147 -23zM312 37q62 0 140 85l55 254q-51 51 -102 51q-52 0 -84.5 -41.5
t-54.5 -142.5q-13 -63 -15.5 -105t6.5 -63t22 -29.5t33 -8.5z" />
    <glyph glyph-name="A" unicode="A" horiz-adv-x="536" 
d="M147 238l-75 -238h-40l217 685h42l212 -685h-41l-73 238h-242zM378 272l-79 258q-18 58 -28 120h-1q-7 -46 -31 -120l-81 -258h220z" />
    <glyph glyph-name="B" unicode="B" horiz-adv-x="534" 
d="M98 0v685h168q95 0 137.5 -49.5t42.5 -129.5q0 -115 -89 -144q56 -13 88.5 -57.5t32.5 -119.5q0 -94 -55 -139.5t-152 -45.5h-173zM138 33h134q87 0 126 39t39 116q0 79 -38.5 116.5t-125.5 37.5h-135v-309zM137 375h134q73 0 104 32.5t31 100.5q0 144 -137 144h-132
v-277z" />
    <glyph glyph-name="C" unicode="C" horiz-adv-x="528" 
d="M317 -7q-131 0 -189 86t-58 260q0 353 240 353q90 0 160 -53l-20 -28q-60 47 -140 47q-108 0 -153.5 -78.5t-45.5 -238.5q0 -163 45.5 -238.5t160.5 -75.5q78 0 145 53l20 -28q-68 -59 -165 -59z" />
    <glyph glyph-name="D" unicode="D" horiz-adv-x="576" 
d="M98 0v685h139q149 0 209 -82t60 -274q0 -177 -61.5 -253t-205.5 -76h-141zM138 33h105q126 0 174 69t48 230q0 174 -47.5 247t-175.5 73h-104v-619z" />
    <glyph glyph-name="E" unicode="E" horiz-adv-x="489" 
d="M98 0v685h329v-33h-289v-274h236v-33h-236v-312h300v-33h-340z" />
    <glyph glyph-name="F" unicode="F" horiz-adv-x="480" 
d="M98 0v685h327v-33h-287v-274h240v-33h-240v-345h-40z" />
    <glyph glyph-name="G" unicode="G" horiz-adv-x="579" 
d="M460 52q-64 -59 -151 -59q-125 0 -182 85.5t-57 260.5q0 353 238 353q99 0 163 -56l-22 -28q-60 50 -142 50q-105 0 -150.5 -83t-45.5 -236q0 -157 46 -235t149 -78q90 0 149 56v234h-162v33h202v-349h-24z" />
    <glyph glyph-name="H" unicode="H" horiz-adv-x="593" 
d="M98 0v685h40v-302h317v302h40v-685h-40v350h-317v-350h-40z" />
    <glyph glyph-name="I" unicode="I" horiz-adv-x="302" 
d="M131 656l-72 5v24h184v-24l-72 -5v-627l72 -5v-24h-184v24l72 5v627z" />
    <glyph glyph-name="J" unicode="J" horiz-adv-x="236" 
d="M12 -126l-14 28q62 33 81 63.5t19 102.5v617h40v-599q0 -96 -23 -136.5t-103 -75.5z" />
    <glyph glyph-name="K" unicode="K" horiz-adv-x="512" 
d="M422 0l-255 367l251 318h46l-252 -317l257 -368h-47zM98 0v685h40v-685h-40z" />
    <glyph glyph-name="L" unicode="L" horiz-adv-x="461" 
d="M98 0v685h40v-652h271v-33h-311z" />
    <glyph glyph-name="M" unicode="M" horiz-adv-x="683" 
d="M98 0v685h62l151 -414q27 -72 32 -103h1q8 48 29 103l152 414h60v-685h-39v511q0 71 2 147h-1q-14 -59 -43 -135l-142 -386h-41l-142 386q-25 70 -44 135h-1q0 -33 1.5 -77t1.5 -70v-511h-39z" />
    <glyph glyph-name="N" unicode="N" horiz-adv-x="593" 
d="M98 0v685h53l254 -520q37 -73 56 -130h1q-5 58 -5 142v508h38v-685h-49l-252 511q-36 72 -62 148h-1q5 -55 5 -170v-489h-38z" />
    <glyph glyph-name="O" unicode="O" horiz-adv-x="608" 
d="M306 -7q-236 0 -236 346q0 171 59.5 262t174.5 91t174.5 -90.5t59.5 -259.5q0 -175 -55.5 -262t-176.5 -87zM305 26q102 0 147 76.5t45 234.5q0 322 -193 322t-193 -318q0 -160 46 -237.5t148 -77.5z" />
    <glyph glyph-name="P" unicode="P" horiz-adv-x="507" 
d="M98 0v685h148q201 0 201 -191q0 -99 -50 -149.5t-140 -50.5h-119v-294h-40zM138 327h115q77 0 114 40t37 126q0 83 -38 121t-124 38h-104v-325z" />
    <glyph glyph-name="Q" unicode="Q" horiz-adv-x="612" 
d="M323 -1l215 -68l-13 -36l-290 105q-52 19 -86.5 53.5t-56.5 106t-22 179.5q0 171 59.5 262t174.5 91t174.5 -90.5t59.5 -259.5q0 -170 -50.5 -253.5t-164.5 -89.5zM305 26q102 0 147 76.5t45 234.5q0 322 -193 322t-193 -318q0 -160 46 -237.5t148 -77.5z" />
    <glyph glyph-name="R" unicode="R" horiz-adv-x="551" 
d="M98 0v685h161q85 0 138.5 -44.5t53.5 -135.5q0 -158 -127 -184q27 -10 47 -31.5t37 -66.5l85 -223h-41l-82 210q-23 60 -52 80.5t-88 20.5h-92v-311h-40zM138 344h122q82 0 116 39.5t34 119.5q0 74 -37 111.5t-120 37.5h-115v-308z" />
    <glyph glyph-name="S" unicode="S" horiz-adv-x="499" 
d="M234 -7q-124 0 -203 88l25 27q72 -82 177 -82q155 0 155 146q0 70 -33 103.5t-117 69.5q-34 15 -53 24.5t-43 26t-36.5 34t-21.5 43.5t-9 59q0 74 48 117t124 43q88 0 155 -45l-19 -30q-58 42 -136 42q-57 0 -95 -32.5t-38 -93.5q0 -62 30 -91t107 -63
q96 -42 136.5 -83.5t40.5 -123.5q0 -80 -48.5 -129.5t-145.5 -49.5z" />
    <glyph glyph-name="T" unicode="T" horiz-adv-x="493" 
d="M226 0v652h-173v33h386v-33h-173v-652h-40z" />
    <glyph glyph-name="U" unicode="U" horiz-adv-x="587" 
d="M449 104v581h40v-685h-25l-14 70q-81 -77 -183 -77q-173 0 -173 198v494h40v-488q0 -91 33 -130.5t99 -39.5q106 0 183 77z" />
    <glyph glyph-name="V" unicode="V" horiz-adv-x="526" 
d="M239 0l-207 685h41l158 -523q19 -62 29 -125h1q8 52 31 125l162 523h40l-212 -685h-43z" />
    <glyph glyph-name="W" unicode="W" horiz-adv-x="783" 
d="M187 0l-151 685h41l115 -531q15 -65 24 -123h1q13 76 25 123l131 531h47l125 -531q17 -68 24 -123h1q7 52 23 123l115 531h39l-149 -685h-56l-123 530q-17 75 -23 114h-1q-5 -44 -23 -114l-129 -530h-56z" />
    <glyph glyph-name="X" unicode="X" horiz-adv-x="520" 
d="M237 376l-172 309h42q154 -276 154 -277l153 277h41l-170 -306l209 -379h-42l-191 348l-194 -348h-41z" />
    <glyph glyph-name="Y" unicode="Y" horiz-adv-x="538" 
d="M245 0v265l-201 420h42l145 -304q26 -57 35 -84q16 43 34 84l142 304h41l-198 -421v-264h-40z" />
    <glyph glyph-name="Z" unicode="Z" horiz-adv-x="466" 
d="M46 0v32l331 620h-316v33h357v-34l-330 -618h328v-33h-370z" />
    <glyph glyph-name="bracketleft" unicode="[" horiz-adv-x="294" 
d="M95 -154v888h152v-33h-112v-822h112v-33h-152z" />
    <glyph glyph-name="backslash" unicode="\" horiz-adv-x="335" 
d="M277 -144l-257 901h38l257 -901h-38z" />
    <glyph glyph-name="bracketright" unicode="]" horiz-adv-x="294" 
d="M47 -154v33h112v822h-112v33h152v-888h-152z" />
    <glyph glyph-name="asciicircum" unicode="^" horiz-adv-x="439" 
d="M63 459l142 249h31l143 -249h-40l-119 211l-118 -211h-39z" />
    <glyph glyph-name="underscore" unicode="_" horiz-adv-x="271" 
d="M-1 -120v33h273v-33h-273z" />
    <glyph glyph-name="grave" unicode="`" horiz-adv-x="450" 
d="M285 522l-152 95l22 31l146 -105z" />
    <glyph glyph-name="a" unicode="a" 
d="M329 270v67q0 49 -19.5 73t-65.5 24q-68 0 -141 -50l-16 26q77 56 158 56q122 0 122 -126v-340h-22l-15 66q-52 -73 -138 -73q-62 0 -97 35t-35 98q0 73 46 108.5t145 35.5h78zM329 100v138h-75q-85 0 -120 -26t-35 -87q0 -98 96 -98q80 0 134 73z" />
    <glyph glyph-name="b" unicode="b" horiz-adv-x="488" 
d="M266 -7q-77 0 -140 71l-14 -64h-22v708h38v-316q67 74 143 74q73 0 114 -60t41 -179q0 -117 -41.5 -175.5t-118.5 -58.5zM264 27q123 0 123 195q0 115 -30 162.5t-90 47.5q-27 0 -55.5 -13t-43.5 -24.5t-40 -33.5v-267q65 -67 136 -67z" />
    <glyph glyph-name="c" unicode="c" horiz-adv-x="418" 
d="M238 -7q-79 0 -127.5 55t-48.5 180q0 123 48.5 180.5t127.5 57.5q75 0 127 -54l-24 -25q-44 47 -105 47q-135 0 -135 -203q0 -110 34.5 -158t103.5 -48q68 0 109 50l27 -21q-53 -61 -137 -61z" />
    <glyph glyph-name="d" unicode="d" horiz-adv-x="488" 
d="M217 -7q-73 0 -114 60t-41 179q0 117 41.5 175.5t118.5 58.5q75 0 138 -69v311h38v-708h-22l-14 69q-70 -76 -145 -76zM221 27q27 0 55.5 13t43.5 24.5t40 33.5v267q-65 67 -136 67q-123 0 -123 -195q0 -115 30 -162.5t90 -47.5z" />
    <glyph glyph-name="e" unicode="e" 
d="M101 230q0 -111 35 -158t109 -47q67 0 119 41l22 -27q-62 -46 -139 -46q-185 0 -185 235q0 123 47 180.5t125 57.5q158 0 158 -220v-16h-291zM102 261h251q0 93 -30 133t-89 40q-124 0 -132 -173z" />
    <glyph glyph-name="f" unicode="f" horiz-adv-x="283" 
d="M101 428h-58v31h58v150q0 50 27.5 78.5t68.5 28.5q51 0 86 -24l-17 -27q-33 19 -67 19q-27 0 -43.5 -19.5t-16.5 -58.5v-147h100v-31h-100v-428h-38v428z" />
    <glyph glyph-name="g" unicode="g" horiz-adv-x="433" 
d="M269 459h134v-24l-78 -7q41 -39 41 -106q0 -69 -42 -108.5t-108 -39.5q-38 0 -67 13q-42 -42 -42 -83q0 -36 45 -36h105q70 0 108 -33t38 -94q0 -71 -51 -111.5t-141 -40.5q-81 0 -126 36.5t-45 93.5q0 68 72 119q-43 15 -43 61q0 50 57 99q-62 39 -62 121q0 69 42.5 108
t110.5 39q31 0 52 -7zM143 33q-32 -25 -48 -50.5t-16 -63.5q0 -45 31.5 -72t99.5 -27q75 0 114.5 31t39.5 90q0 92 -100 92h-121zM215 204q51 0 82 29.5t31 89.5q0 61 -29 87t-83 26q-52 0 -83 -29t-31 -89q0 -59 31 -86.5t82 -27.5z" />
    <glyph glyph-name="h" unicode="h" horiz-adv-x="485" 
d="M90 0v708h38v-322q85 80 156 80q52 0 84 -32t32 -91v-343h-38v336q0 96 -81 96q-65 0 -153 -76v-356h-38z" />
    <glyph glyph-name="i" unicode="i" horiz-adv-x="253" 
d="M120 0v428l-63 7v24h101v-459h-38zM130 583q-15 0 -24.5 9.5t-9.5 24.5t9 24.5t24 9.5t24.5 -9.5t9.5 -24.5t-9 -24.5t-24 -9.5z" />
    <glyph glyph-name="j" unicode="j" horiz-adv-x="253" 
d="M60 -209l-13 25q42 23 57.5 46.5t15.5 78.5v487l-63 7v24h101v-518q0 -69 -22.5 -98t-75.5 -52zM130 583q-15 0 -24.5 9.5t-9.5 24.5t9 24.5t24 9.5t24.5 -9.5t9.5 -24.5t-9 -24.5t-24 -9.5z" />
    <glyph glyph-name="k" unicode="k" horiz-adv-x="427" 
d="M90 0v708h38v-708h-38zM356 0l-202 257l178 202h46l-178 -202l202 -257h-46z" />
    <glyph glyph-name="l" unicode="l" horiz-adv-x="233" 
d="M157 -7q-29 0 -48 16.5t-19 55.5v643h38v-641q0 -43 34 -43l22 4l8 -27q-18 -8 -35 -8z" />
    <glyph glyph-name="m" unicode="m" horiz-adv-x="726" 
d="M90 0v459h22l15 -69q81 76 148 76q39 0 66 -20.5t39 -54.5q44 38 78 56.5t73 18.5q50 0 79.5 -31t29.5 -90v-345h-38v338q0 50 -18 72t-56 22q-66 0 -144 -68v-364h-38v338q0 50 -18 72t-56 22q-37 0 -69 -17.5t-75 -53.5v-361h-38z" />
    <glyph glyph-name="n" unicode="n" horiz-adv-x="485" 
d="M90 0v459h22l15 -74q84 81 157 81q52 0 84 -32t32 -91v-343h-38v336q0 96 -81 96q-65 0 -153 -76v-356h-38z" />
    <glyph glyph-name="o" unicode="o" horiz-adv-x="481" 
d="M241 -7q-82 0 -130.5 57t-48.5 178q0 122 47.5 180t128.5 58t131 -58t50 -178q0 -121 -48 -179t-130 -58zM241 24q69 0 104 48t35 154q0 209 -140 209q-69 0 -104 -48t-35 -156q0 -109 35.5 -158t104.5 -49z" />
    <glyph glyph-name="p" unicode="p" horiz-adv-x="488" 
d="M90 -207v666h22l14 -69q70 76 145 76q73 0 114 -60t41 -179q0 -117 -41.5 -175.5t-118.5 -58.5q-75 0 -138 69v-269h-38zM264 27q123 0 123 195q0 115 -30 162.5t-90 47.5q-27 0 -55.5 -13t-43.5 -24.5t-40 -33.5v-267q65 -67 136 -67z" />
    <glyph glyph-name="q" unicode="q" horiz-adv-x="488" 
d="M360 -207v274q-67 -74 -143 -74q-73 0 -114 60t-41 179q0 117 41.5 175.5t118.5 58.5t140 -71l14 64h22v-666h-38zM221 27q27 0 55.5 13t43.5 24.5t40 33.5v267q-65 67 -136 67q-123 0 -123 -195q0 -115 30 -162.5t90 -47.5z" />
    <glyph glyph-name="r" unicode="r" horiz-adv-x="318" 
d="M90 0v459h22l14 -89q76 94 147 94l14 -1l-3 -40q-6 1 -14 1q-67 0 -142 -87v-337h-38z" />
    <glyph glyph-name="s" unicode="s" horiz-adv-x="390" 
d="M184 -7q-84 0 -144 50l19 26q58 -44 125 -44q53 0 80.5 24.5t27.5 67.5q0 44 -23 66.5t-86 43.5q-61 20 -91 48.5t-30 81.5q0 48 34 78.5t94 30.5q68 0 123 -33l-15 -29q-52 30 -109 30q-42 0 -66 -19.5t-24 -56.5q0 -40 19.5 -59t72.5 -38q74 -27 106.5 -55t32.5 -88
q0 -61 -39.5 -93t-106.5 -32z" />
    <glyph glyph-name="t" unicode="t" horiz-adv-x="294" 
d="M102 428h-59v31h59v124l37 10v-134h97v-31h-97v-360q0 -43 39 -43q29 0 57 14l13 -27q-32 -19 -70 -19q-34 0 -55 18.5t-21 57.5v359z" />
    <glyph glyph-name="u" unicode="u" horiz-adv-x="485" 
d="M201 -7q-52 0 -84 32t-32 91v343h38v-336q0 -96 81 -96q67 0 153 67v365h38v-459h-22l-15 65q-82 -72 -157 -72z" />
    <glyph glyph-name="v" unicode="v" horiz-adv-x="431" 
d="M194 0l-152 459h40l103 -314q25 -78 31 -119h1q8 44 32 119l101 314h39l-152 -459h-43z" />
    <glyph glyph-name="w" unicode="w" horiz-adv-x="657" 
d="M169 0l-122 459h40l84 -333q13 -51 20 -91h1q19 84 21 91l95 333h47l93 -333q10 -36 20 -91h1q10 51 20 91l84 333h39l-122 -459h-45l-98 355q-7 24 -15 73h-1q-7 -41 -16 -73l-103 -355h-43z" />
    <glyph glyph-name="x" unicode="x" horiz-adv-x="420" 
d="M40 0l150 247l-127 212h41l67 -113q31 -51 40 -71h1q20 41 38 71l68 113h40l-128 -210l150 -249h-41l-82 138q-37 62 -47 85h-1q-13 -28 -46 -85l-83 -138h-40z" />
    <glyph glyph-name="y" unicode="y" horiz-adv-x="431" 
d="M70 -209l-11 28q66 24 97 61t54 120h-21l-147 459h40l100 -314q22 -70 35 -125h1q1 4 37 125l95 314h39l-151 -484q-28 -88 -62 -124t-106 -60z" />
    <glyph glyph-name="z" unicode="z" horiz-adv-x="412" 
d="M57 0v36l258 392h-238v31h278v-36l-258 -392h266v-31h-306z" />
    <glyph glyph-name="braceleft" unicode="{" horiz-adv-x="364" 
d="M249 -154q-50 0 -78.5 25t-28.5 73v240q0 48 -22.5 69.5t-75.5 21.5v33q52 0 75 22t23 70v236q0 48 28.5 73t78.5 25h68v-33h-71q-64 0 -64 -69v-229q0 -53 -17.5 -76t-49.5 -33v-2q32 -9 49.5 -33.5t17.5 -77.5v-233q0 -69 64 -69h71v-33h-68z" />
    <glyph glyph-name="bar" unicode="|" horiz-adv-x="219" 
d="M90 -144v901h39v-901h-39z" />
    <glyph glyph-name="braceright" unicode="}" horiz-adv-x="364" 
d="M47 -154v33h71q64 0 64 69v233q0 53 17.5 77.5t49.5 33.5v2q-32 10 -49.5 33t-17.5 76v229q0 69 -64 69h-71v33h68q50 0 78.5 -25t28.5 -73v-236q0 -48 23 -70t75 -22v-33q-53 0 -75.5 -21.5t-22.5 -69.5v-240q0 -48 -28.5 -73t-78.5 -25h-68z" />
    <glyph glyph-name="asciitilde" unicode="~" horiz-adv-x="460" 
d="M94 282l-26 13q21 42 42 60.5t51 18.5q31 0 76 -28.5t64 -28.5q15 0 27 9t19 19t19 31l26 -13q-21 -42 -42 -60.5t-51 -18.5q-31 0 -76 28.5t-64 28.5q-15 0 -27 -9t-19 -19t-19 -31z" />
    <glyph glyph-name="nbspace" unicode="&#xa0;" horiz-adv-x="209" 
 />
    <glyph glyph-name="exclamdown" unicode="&#xa1;" horiz-adv-x="228" 
d="M93 -207l5 500h32l5 -500h-42zM114 385q-17 0 -28.5 12t-11.5 29q0 16 12 28t28 12t28 -12t12 -28q0 -17 -11.5 -29t-28.5 -12z" />
    <glyph glyph-name="cent" unicode="&#xa2;" horiz-adv-x="419" 
d="M216 465v106h34v-105q66 -4 115 -54l-24 -25q-39 42 -91 46v-408q59 4 100 52l27 -21q-50 -58 -127 -63v-95h-34v96q-70 7 -112 62.5t-42 171.5q0 114 42 172t112 65zM216 433q-115 -15 -115 -202q0 -101 29 -149.5t86 -55.5v407z" />
    <glyph glyph-name="sterling" unicode="&#xa3;" horiz-adv-x="497" 
d="M187 299q23 -69 23 -118q0 -97 -79 -148h311v-33h-359v35q88 52 88 146q0 54 -25 118h-92v33h80q-27 75 -27 133q0 86 49 131.5t124 45.5q89 0 163 -58l-19 -26q-40 28 -70 39.5t-75 11.5q-61 0 -96 -36.5t-35 -106.5q0 -57 28 -134h189v-33h-178z" />
    <glyph glyph-name="currency" unicode="&#xa4;" horiz-adv-x="486" 
d="M61 54l-25 23l76 91q-33 50 -33 130q0 79 32 132l-75 91l26 23l71 -86q42 42 109 42q66 0 111 -43l72 87l25 -23l-75 -91q33 -50 33 -130t-33 -132l75 -91l-26 -23l-72 86q-43 -41 -108 -41q-68 0 -111 42zM244 131q125 0 125 165q0 85 -32.5 128.5t-93.5 43.5
q-125 0 -125 -167q0 -170 126 -170z" />
    <glyph glyph-name="yen" unicode="&#xa5;" horiz-adv-x="546" 
d="M222 316h-161v33h144l-35 71l-70 144l-36 71h43l132 -275q24 -50 35 -85q19 52 34 85l131 275h42q-140 -286 -141 -286h145v-33h-160l-32 -64v-48h192v-33h-192v-171h-40v171h-192v33h192v49z" />
    <glyph glyph-name="brokenbar" unicode="&#xa6;" horiz-adv-x="219" 
d="M90 348v409h39v-409h-39zM90 -144v407h39v-407h-39z" />
    <glyph glyph-name="section" unicode="&#xa7;" horiz-adv-x="538" 
d="M186 409q-55 35 -55 112q0 53 40 87t107 34q75 0 139 -46l-18 -28q-57 41 -121 41q-108 0 -108 -87q0 -51 25 -75.5t105 -50.5q86 -28 126.5 -63t40.5 -104q0 -107 -119 -137q67 -42 67 -115q0 -60 -38.5 -93.5t-107.5 -33.5q-100 0 -164 62l22 26q62 -55 142 -55
q55 0 80.5 23t25.5 71t-28.5 74.5t-108.5 52.5q-85 28 -126 64.5t-41 100.5q0 107 115 140zM310 112q118 21 118 119q0 57 -29.5 82.5t-105.5 49.5q-41 14 -68 25q-115 -19 -115 -121q0 -52 30 -78.5t105 -51.5q38 -12 65 -25z" />
    <glyph glyph-name="dieresis" unicode="&#xa8;" horiz-adv-x="541" 
d="M345 540q-15 0 -24 9t-9 24q0 33 32 33q15 0 24 -9t9 -24q0 -33 -32 -33zM197 540q-15 0 -24 9t-9 24q0 33 32 33q15 0 24 -9t9 -24q0 -33 -32 -33z" />
    <glyph glyph-name="copyright" unicode="&#xa9;" horiz-adv-x="689" 
d="M345 -7q-129 0 -205.5 94t-76.5 255q0 160 76.5 255t205.5 95q128 0 204.5 -95t76.5 -255q0 -161 -76 -255t-205 -94zM346 23q117 0 180 84.5t63 234.5t-63 235t-180 85t-181.5 -85.5t-64.5 -234.5t64.5 -234t181.5 -85zM352 124q-83 0 -121 54.5t-38 162.5
q0 222 156 222q58 0 101 -33l-19 -27q-36 28 -82 28q-64 0 -90 -45.5t-26 -142.5q0 -98 26 -142.5t93 -44.5q44 0 86 32l18 -27q-44 -37 -104 -37z" />
    <glyph glyph-name="ordfeminine" unicode="&#xaa;" horiz-adv-x="420" 
d="M303 459v60q0 44 -17.5 66t-60.5 22q-64 0 -130 -45l-16 27q74 51 147 51q115 0 115 -117v-315h-24l-13 60q-50 -66 -126 -66q-58 0 -91 32.5t-33 90.5q0 69 43.5 101.5t136.5 32.5h69zM303 301v127h-67q-78 0 -109.5 -24t-31.5 -80q0 -89 86 -89q73 0 122 66z" />
    <glyph glyph-name="guillemotleft" unicode="&#xab;" horiz-adv-x="425" 
d="M334 52l-127 192l127 194l29 -20l-114 -174l114 -172zM184 52l-127 192l127 194l29 -20l-114 -174l114 -172z" />
    <glyph glyph-name="logicalnot" unicode="&#xac;" horiz-adv-x="438" 
d="M319 165v140h-245v33h283v-173h-38z" />
    <glyph glyph-name="registered" unicode="&#xae;" horiz-adv-x="535" 
d="M267 224q-91 0 -145.5 61.5t-54.5 176.5q0 113 55 175t145 62t145 -62t55 -175q0 -115 -54.5 -176.5t-145.5 -61.5zM267 254q79 0 122.5 52.5t43.5 155.5t-43.5 155t-122.5 52q-80 0 -123 -52t-43 -155t43 -155.5t123 -52.5zM192 327v276h76q39 0 61.5 -19t22.5 -57
q0 -59 -53 -74q22 -8 35 -45l29 -81h-37l-28 79q-9 24 -18.5 32t-25.5 8h-28v-119h-34zM226 474h40q28 0 39 12.5t11 39.5q0 25 -11 36.5t-39 11.5h-40v-100z" />
    <glyph glyph-name="macron" unicode="&#xaf;" horiz-adv-x="541" 
d="M167 571v31h207v-31h-207z" />
    <glyph glyph-name="degree" unicode="&#xb0;" horiz-adv-x="356" 
d="M178 383q-57 0 -95.5 40.5t-38.5 111.5q0 72 39 114.5t95 42.5t95 -42t39 -112t-39 -112.5t-95 -42.5zM178 413q94 0 94 124q0 64 -25.5 94t-68.5 30q-44 0 -70 -30t-26 -94q0 -63 26.5 -93.5t69.5 -30.5z" />
    <glyph glyph-name="plusminus" unicode="&#xb1;" horiz-adv-x="504" 
d="M233 130v147h-160v33h160v168h38v-168h160v-33h-160v-147h-38zM73 30v33h358v-33h-358z" />
    <glyph glyph-name="twosuperior" unicode="&#xb2;" horiz-adv-x="349" 
d="M48 218v35q120 104 158.5 159t38.5 108q0 89 -83 89q-45 0 -97 -30l-15 29q56 34 113 34q54 0 88 -31.5t34 -90.5t-41 -118t-152 -152h201v-32h-245z" />
    <glyph glyph-name="threesuperior" unicode="&#xb3;" horiz-adv-x="372" 
d="M169 175q-64 0 -120 27l12 28q54 -23 106 -23q109 0 109 102q0 100 -107 100h-36v32h33q46 0 70 22.5t24 63.5q0 39 -21.5 61t-63.5 22q-45 0 -99 -29l-14 27q58 34 117 34q57 0 89 -31t32 -79q0 -79 -71 -104q88 -21 88 -119q0 -63 -38.5 -98.5t-109.5 -35.5z" />
    <glyph glyph-name="acute" unicode="&#xb4;" horiz-adv-x="450" 
d="M165 522l-16 21l146 105l22 -31z" />
    <glyph glyph-name="mu" unicode="&#xb5;" horiz-adv-x="490" 
d="M128 26v-233h-38v666h38v-336q0 -96 81 -96q67 0 153 67v365h38v-459h-22l-15 65q-82 -72 -157 -72q-52 0 -78 33z" />
    <glyph glyph-name="paragraph" unicode="&#xb6;" horiz-adv-x="479" 
d="M222 -87v471h-13q-67 0 -108 40.5t-41 109.5q0 71 36 111t105 40h180v-772h-40v739h-79v-739h-40z" />
    <glyph glyph-name="periodcentered" unicode="&#xb7;" horiz-adv-x="212" 
d="M106 303q-16 0 -27.5 11.5t-11.5 27.5t11.5 27.5t27.5 11.5t27.5 -11.5t11.5 -27.5t-11.5 -27.5t-27.5 -11.5z" />
    <glyph glyph-name="cedilla" unicode="&#xb8;" horiz-adv-x="541" 
d="M275 -197q-39 0 -69 27l18 23q28 -20 52 -20q42 0 42 42q0 43 -42 43q-19 0 -36 -4l37 86h34l-25 -54q30 -1 48 -20t18 -50q0 -34 -20 -53.5t-57 -19.5z" />
    <glyph glyph-name="onesuperior" unicode="&#xb9;" horiz-adv-x="321" 
d="M64 221v31h88v341l-83 -46l-13 22l105 75h31v-392h82v-31h-210z" />
    <glyph glyph-name="ordmasculine" unicode="&#xba;" horiz-adv-x="420" 
d="M223 202q-76 0 -121.5 52.5t-45.5 165.5q0 112 44.5 166t120.5 54t122 -53.5t46 -165.5t-45 -165.5t-121 -53.5zM223 232q63 0 94.5 44t31.5 142q0 191 -127 191q-63 0 -94 -43.5t-31 -143.5q0 -101 31.5 -145.5t94.5 -44.5z" />
    <glyph glyph-name="guillemotright" unicode="&#xbb;" horiz-adv-x="425" 
d="M241 52l-29 20l114 174l-114 172l29 20l127 -192zM91 52l-29 20l114 174l-114 172l29 20l127 -192z" />
    <glyph glyph-name="onequarter" unicode="&#xbc;" horiz-adv-x="921" 
d="M776 69h-222v36l142 313h42l-145 -316h183v189l40 8v-197h52v-33h-52v-106h-40v106zM249 0l378 635h41l-378 -635h-41zM64 221v31h88v341l-83 -46l-13 22l105 75h31v-392h82v-31h-210z" />
    <glyph glyph-name="onehalf" unicode="&#xbd;" horiz-adv-x="925" 
d="M612 0v35q120 104 158.5 159t38.5 108q0 89 -83 89q-45 0 -97 -30l-15 29q56 34 113 34q54 0 88 -31.5t34 -90.5t-41 -118t-152 -152h201v-32h-245zM248 0l378 635h41l-378 -635h-41zM64 221v31h88v341l-83 -46l-13 22l105 75h31v-392h82v-31h-210z" />
    <glyph glyph-name="threequarters" unicode="&#xbe;" horiz-adv-x="953" 
d="M808 69h-222v36l142 313h42l-145 -316h183v189l40 8v-197h52v-33h-52v-106h-40v106zM169 175q-64 0 -120 27l12 28q54 -23 106 -23q109 0 109 102q0 100 -107 100h-36v32h33q46 0 70 22.5t24 63.5q0 39 -21.5 61t-63.5 22q-45 0 -99 -29l-14 27q58 34 117 34q57 0 89 -31
t32 -79q0 -79 -71 -104q88 -21 88 -119q0 -63 -38.5 -98.5t-109.5 -35.5zM291 0l378 635h41l-378 -635h-41z" />
    <glyph glyph-name="questiondown" unicode="&#xbf;" horiz-adv-x="411" 
d="M216 -213q-149 0 -149 148q0 43 14.5 77t29 49t39.5 35q41 33 53 54.5t12 71.5v71h38v-73q0 -14 -1.5 -26t-2.5 -21.5t-5.5 -19t-6 -15.5t-8 -14.5t-8 -11t-10.5 -11t-10 -9t-12 -9.5l-11 -9q-22 -18 -34 -31t-24.5 -41.5t-12.5 -64.5q0 -63 25.5 -90t82.5 -27
q70 0 133 41l15 -27q-65 -47 -147 -47zM233 387q-16 0 -27.5 12t-11.5 28t11.5 27.5t27.5 11.5t27.5 -11.5t11.5 -27.5t-11.5 -28t-27.5 -12z" />
    <glyph glyph-name="Agrave" unicode="&#xc0;" horiz-adv-x="536" 
d="M147 238l-75 -238h-40l217 685h42l212 -685h-41l-73 238h-242zM378 272l-79 258q-18 58 -28 120h-1q-7 -46 -31 -120l-81 -258h220zM328 733l-152 95l22 31l146 -105z" />
    <glyph glyph-name="Aacute" unicode="&#xc1;" horiz-adv-x="536" 
d="M147 238l-75 -238h-40l217 685h42l212 -685h-41l-73 238h-242zM378 272l-79 258q-18 58 -28 120h-1q-7 -46 -31 -120l-81 -258h220zM208 733l-16 21l146 105l22 -31z" />
    <glyph glyph-name="Acircumflex" unicode="&#xc2;" horiz-adv-x="536" 
d="M147 238l-75 -238h-40l217 685h42l212 -685h-41l-73 238h-242zM378 272l-79 258q-18 58 -28 120h-1q-7 -46 -31 -120l-81 -258h220zM173 735l-18 18l103 110h22l105 -110l-18 -18l-98 90z" />
    <glyph glyph-name="Atilde" unicode="&#xc3;" horiz-adv-x="536" 
d="M147 238l-75 -238h-40l217 685h42l212 -685h-41l-73 238h-242zM378 272l-79 258q-18 58 -28 120h-1q-7 -46 -31 -120l-81 -258h220zM171 749l-27 12q26 62 73 62q20 0 54.5 -18t49.5 -18q17 0 26 9.5t19 30.5l27 -12q-25 -62 -73 -62q-20 0 -54.5 18t-49.5 18
q-12 0 -21 -6t-13 -13t-11 -21z" />
    <glyph glyph-name="Adieresis" unicode="&#xc4;" horiz-adv-x="536" 
d="M147 238l-75 -238h-40l217 685h42l212 -685h-41l-73 238h-242zM378 272l-79 258q-18 58 -28 120h-1q-7 -46 -31 -120l-81 -258h220zM343 751q-15 0 -24 9t-9 24q0 33 32 33q15 0 24 -9t9 -24q0 -33 -32 -33zM195 751q-15 0 -24 9t-9 24q0 33 32 33q15 0 24 -9t9 -24
q0 -33 -32 -33z" />
    <glyph glyph-name="Aring" unicode="&#xc5;" horiz-adv-x="536" 
d="M147 238l-75 -238h-40l217 685h42l212 -685h-41l-73 238h-242zM378 272l-79 258q-18 58 -28 120h-1q-7 -46 -31 -120l-81 -258h220zM269 737q-35 0 -56.5 25t-21.5 58t21.5 58.5t56.5 25.5t56 -25t21 -59q0 -33 -21 -58t-56 -25zM269 764q19 0 32 14.5t13 41.5
q0 28 -13 42.5t-32 14.5q-21 0 -33.5 -14.5t-12.5 -42.5q0 -27 13 -41.5t33 -14.5z" />
    <glyph glyph-name="AE" unicode="&#xc6;" horiz-adv-x="857" 
d="M212 238l-135 -238h-43l388 685h350v-33h-289v-274h236v-33h-236v-312h300v-33h-340v238h-231zM443 272v232l2 155h-1q-31 -66 -76 -145l-137 -242h212z" />
    <glyph glyph-name="Ccedilla" unicode="&#xc7;" horiz-adv-x="528" 
d="M269 -4q-105 15 -152 100.5t-47 242.5q0 353 240 353q90 0 160 -53l-20 -28q-60 47 -140 47q-108 0 -153.5 -78.5t-45.5 -238.5q0 -163 45.5 -238.5t160.5 -75.5q78 0 145 53l20 -28q-68 -59 -165 -59h-15l-22 -47q30 -1 48 -20t18 -50q0 -34 -20 -53.5t-57 -19.5
q-39 0 -69 27l18 23q28 -20 52 -20q42 0 42 42q0 43 -42 43q-19 0 -36 -4z" />
    <glyph glyph-name="Egrave" unicode="&#xc8;" horiz-adv-x="489" 
d="M98 0v685h329v-33h-289v-274h236v-33h-236v-312h300v-33h-340zM313 733l-152 95l22 31l146 -105z" />
    <glyph glyph-name="Eacute" unicode="&#xc9;" horiz-adv-x="489" 
d="M98 0v685h329v-33h-289v-274h236v-33h-236v-312h300v-33h-340zM212 733l-16 21l146 105l22 -31z" />
    <glyph glyph-name="Ecircumflex" unicode="&#xca;" horiz-adv-x="489" 
d="M98 0v685h329v-33h-289v-274h236v-33h-236v-312h300v-33h-340zM166 735l-18 18l103 110h22l105 -110l-18 -18l-98 90z" />
    <glyph glyph-name="Edieresis" unicode="&#xcb;" horiz-adv-x="489" 
d="M98 0v685h329v-33h-289v-274h236v-33h-236v-312h300v-33h-340zM333 751q-15 0 -24 9t-9 24q0 33 32 33q15 0 24 -9t9 -24q0 -33 -32 -33zM185 751q-15 0 -24 9t-9 24q0 33 32 33q15 0 24 -9t9 -24q0 -33 -32 -33z" />
    <glyph glyph-name="Igrave" unicode="&#xcc;" horiz-adv-x="302" 
d="M131 656l-72 5v24h184v-24l-72 -5v-627l72 -5v-24h-184v24l72 5v627zM202 733l-152 95l22 31l146 -105z" />
    <glyph glyph-name="Iacute" unicode="&#xcd;" horiz-adv-x="302" 
d="M131 656l-72 5v24h184v-24l-72 -5v-627l72 -5v-24h-184v24l72 5v627zM106 733l-16 21l146 105l22 -31z" />
    <glyph glyph-name="Icircumflex" unicode="&#xce;" horiz-adv-x="302" 
d="M131 656l-72 5v24h184v-24l-72 -5v-627l72 -5v-24h-184v24l72 5v627zM56 735l-18 18l103 110h22l105 -110l-18 -18l-98 90z" />
    <glyph glyph-name="Idieresis" unicode="&#xcf;" horiz-adv-x="302" 
d="M131 656l-72 5v24h184v-24l-72 -5v-627l72 -5v-24h-184v24l72 5v627zM226 751q-15 0 -24 9t-9 24q0 33 32 33q15 0 24 -9t9 -24q0 -33 -32 -33zM78 751q-15 0 -24 9t-9 24q0 33 32 33q15 0 24 -9t9 -24q0 -33 -32 -33z" />
    <glyph glyph-name="Eth" unicode="&#xd0;" horiz-adv-x="576" 
d="M98 325h-80v33h80v327h139q149 0 209 -82t60 -274q0 -177 -61.5 -253t-205.5 -76h-141v325zM138 358h159v-33h-159v-292h105q126 0 174 69t48 230q0 174 -47.5 247t-175.5 73h-104v-294z" />
    <glyph glyph-name="Ntilde" unicode="&#xd1;" horiz-adv-x="593" 
d="M98 0v685h53l254 -520q37 -73 56 -130h1q-5 58 -5 142v508h38v-685h-49l-252 511q-36 72 -62 148h-1q5 -55 5 -170v-489h-38zM204 749l-27 12q26 62 73 62q20 0 54.5 -18t49.5 -18q12 0 21 6t13 13t11 21l27 -12q-25 -62 -73 -62q-20 0 -54.5 18t-49.5 18q-17 0 -26 -9.5
t-19 -30.5z" />
    <glyph glyph-name="Ograve" unicode="&#xd2;" horiz-adv-x="608" 
d="M306 -7q-236 0 -236 346q0 171 59.5 262t174.5 91t174.5 -90.5t59.5 -259.5q0 -175 -55.5 -262t-176.5 -87zM305 26q102 0 147 76.5t45 234.5q0 322 -193 322t-193 -318q0 -160 46 -237.5t148 -77.5zM364 733l-152 95l22 31l146 -105z" />
    <glyph glyph-name="Oacute" unicode="&#xd3;" horiz-adv-x="608" 
d="M306 -7q-236 0 -236 346q0 171 59.5 262t174.5 91t174.5 -90.5t59.5 -259.5q0 -175 -55.5 -262t-176.5 -87zM305 26q102 0 147 76.5t45 234.5q0 322 -193 322t-193 -318q0 -160 46 -237.5t148 -77.5zM244 733l-16 21l146 105l22 -31z" />
    <glyph glyph-name="Ocircumflex" unicode="&#xd4;" horiz-adv-x="608" 
d="M306 -7q-236 0 -236 346q0 171 59.5 262t174.5 91t174.5 -90.5t59.5 -259.5q0 -175 -55.5 -262t-176.5 -87zM305 26q102 0 147 76.5t45 234.5q0 322 -193 322t-193 -318q0 -160 46 -237.5t148 -77.5zM209 735l-18 18l103 110h22l105 -110l-18 -18l-98 90z" />
    <glyph glyph-name="Otilde" unicode="&#xd5;" horiz-adv-x="608" 
d="M306 -7q-236 0 -236 346q0 171 59.5 262t174.5 91t174.5 -90.5t59.5 -259.5q0 -175 -55.5 -262t-176.5 -87zM305 26q102 0 147 76.5t45 234.5q0 322 -193 322t-193 -318q0 -160 46 -237.5t148 -77.5zM207 749l-27 12q26 62 73 62q20 0 54.5 -18t49.5 -18q17 0 26 9.5
t19 30.5l27 -12q-25 -62 -73 -62q-20 0 -54.5 18t-49.5 18q-12 0 -21 -6t-13 -13t-11 -21z" />
    <glyph glyph-name="Odieresis" unicode="&#xd6;" horiz-adv-x="608" 
d="M306 -7q-236 0 -236 346q0 171 59.5 262t174.5 91t174.5 -90.5t59.5 -259.5q0 -175 -55.5 -262t-176.5 -87zM305 26q102 0 147 76.5t45 234.5q0 322 -193 322t-193 -318q0 -160 46 -237.5t148 -77.5zM379 751q-15 0 -24 9t-9 24q0 33 32 33q15 0 24 -9t9 -24
q0 -33 -32 -33zM231 751q-15 0 -24 9t-9 24q0 33 32 33q15 0 24 -9t9 -24q0 -33 -32 -33z" />
    <glyph glyph-name="multiply" unicode="&#xd7;" horiz-adv-x="448" 
d="M105 118l-25 22l122 139l-122 139l26 22l118 -135l119 135l25 -22l-122 -139l122 -139l-26 -22l-119 135z" />
    <glyph glyph-name="Oslash" unicode="&#xd8;" horiz-adv-x="608" 
d="M483 595q55 -89 55 -253q0 -175 -55.5 -262t-176.5 -87q-97 0 -155 58l-60 -99l-30 17l67 110q-58 86 -58 260q0 171 59.5 262t174.5 91q98 0 157 -67l55 91l30 -17zM149 114l292 479q-46 66 -137 66q-193 0 -193 -318q0 -152 38 -227zM461 559l-291 -477q46 -56 135 -56
q102 0 147 76.5t45 234.5q0 144 -36 222z" />
    <glyph glyph-name="Ugrave" unicode="&#xd9;" horiz-adv-x="587" 
d="M449 104v581h40v-685h-25l-14 70q-81 -77 -183 -77q-173 0 -173 198v494h40v-488q0 -91 33 -130.5t99 -39.5q106 0 183 77zM336 733l-152 95l22 31l146 -105z" />
    <glyph glyph-name="Uacute" unicode="&#xda;" horiz-adv-x="587" 
d="M449 104v581h40v-685h-25l-14 70q-81 -77 -183 -77q-173 0 -173 198v494h40v-488q0 -91 33 -130.5t99 -39.5q106 0 183 77zM253 733l-16 21l146 105l22 -31z" />
    <glyph glyph-name="Ucircumflex" unicode="&#xdb;" horiz-adv-x="587" 
d="M449 104v581h40v-685h-25l-14 70q-81 -77 -183 -77q-173 0 -173 198v494h40v-488q0 -91 33 -130.5t99 -39.5q106 0 183 77zM198 735l-18 18l103 110h22l105 -110l-18 -18l-98 90z" />
    <glyph glyph-name="Udieresis" unicode="&#xdc;" horiz-adv-x="587" 
d="M449 104v581h40v-685h-25l-14 70q-81 -77 -183 -77q-173 0 -173 198v494h40v-488q0 -91 33 -130.5t99 -39.5q106 0 183 77zM368 751q-15 0 -24 9t-9 24q0 33 32 33q15 0 24 -9t9 -24q0 -33 -32 -33zM220 751q-15 0 -24 9t-9 24q0 33 32 33q15 0 24 -9t9 -24
q0 -33 -32 -33z" />
    <glyph glyph-name="Yacute" unicode="&#xdd;" horiz-adv-x="538" 
d="M245 0v265l-201 420h42l145 -304q26 -57 35 -84q16 43 34 84l142 304h41l-198 -421v-264h-40zM239 733l-16 21l146 105l22 -31z" />
    <glyph glyph-name="Thorn" unicode="&#xde;" horiz-adv-x="507" 
d="M98 0v685h40v-116h108q201 0 201 -191q0 -99 -50 -149.5t-140 -50.5h-119v-178h-40zM138 211h115q77 0 114 40t37 126q0 83 -38 121t-124 38h-104v-325z" />
    <glyph glyph-name="germandbls" unicode="&#xdf;" horiz-adv-x="509" 
d="M300 -7q-45 0 -96 19l10 30q40 -17 89 -17q55 0 85.5 31.5t30.5 92.5q0 48 -23.5 78t-67.5 59q-2 2 -13.5 9t-14 9t-12 9t-12.5 10t-10.5 9.5t-10 10.5t-7.5 10.5t-6.5 12t-3 12.5t-1.5 14q0 21 17 44t37 41t37 47.5t17 62.5q0 44 -24 69t-71 25q-122 0 -122 -170v-511
h-38v513q0 94 44 147t117 53q64 0 98.5 -36t34.5 -91q0 -34 -17 -65.5t-37.5 -51t-37.5 -40.5t-17 -36q0 -18 13 -31t57 -45q31 -22 42.5 -31.5t33 -32t30 -47.5t8.5 -57q0 -75 -44 -115.5t-115 -40.5z" />
    <glyph glyph-name="agrave" unicode="&#xe0;" 
d="M329 270v67q0 49 -19.5 73t-65.5 24q-68 0 -141 -50l-16 26q77 56 158 56q122 0 122 -126v-340h-22l-15 66q-52 -73 -138 -73q-62 0 -97 35t-35 98q0 73 46 108.5t145 35.5h78zM329 100v138h-75q-85 0 -120 -26t-35 -87q0 -98 96 -98q80 0 134 73zM291 522l-152 95l22 31
l146 -105z" />
    <glyph glyph-name="aacute" unicode="&#xe1;" 
d="M329 270v67q0 49 -19.5 73t-65.5 24q-68 0 -141 -50l-16 26q77 56 158 56q122 0 122 -126v-340h-22l-15 66q-52 -73 -138 -73q-62 0 -97 35t-35 98q0 73 46 108.5t145 35.5h78zM329 100v138h-75q-85 0 -120 -26t-35 -87q0 -98 96 -98q80 0 134 73zM176 522l-16 21
l146 105l22 -31z" />
    <glyph glyph-name="acircumflex" unicode="&#xe2;" 
d="M329 270v67q0 49 -19.5 73t-65.5 24q-68 0 -141 -50l-16 26q77 56 158 56q122 0 122 -126v-340h-22l-15 66q-52 -73 -138 -73q-62 0 -97 35t-35 98q0 73 46 108.5t145 35.5h78zM329 100v138h-75q-85 0 -120 -26t-35 -87q0 -98 96 -98q80 0 134 73zM141 524l-18 18
l103 110h22l105 -110l-18 -18l-98 90z" />
    <glyph glyph-name="atilde" unicode="&#xe3;" 
d="M329 270v67q0 49 -19.5 73t-65.5 24q-68 0 -141 -50l-16 26q77 56 158 56q122 0 122 -126v-340h-22l-15 66q-52 -73 -138 -73q-62 0 -97 35t-35 98q0 73 46 108.5t145 35.5h78zM329 100v138h-75q-85 0 -120 -26t-35 -87q0 -98 96 -98q80 0 134 73zM129 538l-27 12
q26 62 73 62q20 0 54.5 -18t49.5 -18q17 0 26 9.5t19 30.5l27 -12q-25 -62 -73 -62q-20 0 -54.5 18t-49.5 18q-12 0 -21 -6t-13 -13t-11 -21z" />
    <glyph glyph-name="adieresis" unicode="&#xe4;" 
d="M329 270v67q0 49 -19.5 73t-65.5 24q-68 0 -141 -50l-16 26q77 56 158 56q122 0 122 -126v-340h-22l-15 66q-52 -73 -138 -73q-62 0 -97 35t-35 98q0 73 46 108.5t145 35.5h78zM329 100v138h-75q-85 0 -120 -26t-35 -87q0 -98 96 -98q80 0 134 73zM307 540q-15 0 -24 9
t-9 24q0 33 32 33q15 0 24 -9t9 -24q0 -33 -32 -33zM159 540q-15 0 -24 9t-9 24q0 33 32 33q15 0 24 -9t9 -24q0 -33 -32 -33z" />
    <glyph glyph-name="aring" unicode="&#xe5;" 
d="M329 270v67q0 49 -19.5 73t-65.5 24q-68 0 -141 -50l-16 26q77 56 158 56q122 0 122 -126v-340h-22l-15 66q-52 -73 -138 -73q-62 0 -97 35t-35 98q0 73 46 108.5t145 35.5h78zM329 100v138h-75q-85 0 -120 -26t-35 -87q0 -98 96 -98q80 0 134 73zM235 526
q-35 0 -56.5 25t-21.5 58t21.5 58.5t56.5 25.5t56 -25t21 -59q0 -33 -21 -58t-56 -25zM235 553q19 0 32 14.5t13 41.5q0 28 -13 42.5t-32 14.5q-21 0 -33.5 -14.5t-12.5 -42.5q0 -27 13 -41.5t33 -14.5z" />
    <glyph glyph-name="ae" unicode="&#xe6;" horiz-adv-x="719" 
d="M329 266v71q0 97 -85 97q-68 0 -141 -50l-16 26q77 56 158 56q98 0 115 -89q41 89 139 89q158 0 158 -220v-11h-291v-4q0 -111 35 -158.5t109 -47.5q67 0 119 41l22 -27q-62 -46 -139 -46q-117 0 -158 96q-67 -96 -162 -96q-62 0 -97 34.5t-35 96.5q0 73 46 107.5
t145 34.5h78zM340 114q-11 62 -11 121h-75q-85 0 -120 -26t-35 -86q0 -96 96 -96q85 0 145 87zM367 266h251q0 92 -30 130t-89 38t-92.5 -39t-39.5 -129z" />
    <glyph glyph-name="ccedilla" unicode="&#xe7;" horiz-adv-x="418" 
d="M206 -5q-144 23 -144 233q0 123 48.5 180.5t127.5 57.5q75 0 127 -54l-24 -25q-44 47 -105 47q-135 0 -135 -203q0 -110 34.5 -158t103.5 -48q68 0 109 50l27 -21q-53 -61 -136 -61l-22 -47q30 -1 48 -20t18 -50q0 -34 -20 -53.5t-57 -19.5q-39 0 -69 27l18 23
q28 -20 52 -20q42 0 42 42q0 43 -42 43q-19 0 -36 -4z" />
    <glyph glyph-name="egrave" unicode="&#xe8;" 
d="M101 230q0 -111 35 -158t109 -47q67 0 119 41l22 -27q-62 -46 -139 -46q-185 0 -185 235q0 123 47 180.5t125 57.5q158 0 158 -220v-16h-291zM102 261h251q0 93 -30 133t-89 40q-124 0 -132 -173zM289 522l-152 95l22 31l146 -105z" />
    <glyph glyph-name="eacute" unicode="&#xe9;" 
d="M101 230q0 -111 35 -158t109 -47q67 0 119 41l22 -27q-62 -46 -139 -46q-185 0 -185 235q0 123 47 180.5t125 57.5q158 0 158 -220v-16h-291zM102 261h251q0 93 -30 133t-89 40q-124 0 -132 -173zM176 522l-16 21l146 105l22 -31z" />
    <glyph glyph-name="ecircumflex" unicode="&#xea;" 
d="M101 230q0 -111 35 -158t109 -47q67 0 119 41l22 -27q-62 -46 -139 -46q-185 0 -185 235q0 123 47 180.5t125 57.5q158 0 158 -220v-16h-291zM102 261h251q0 93 -30 133t-89 40q-124 0 -132 -173zM136 524l-18 18l103 110h22l105 -110l-18 -18l-98 90z" />
    <glyph glyph-name="edieresis" unicode="&#xeb;" 
d="M101 230q0 -111 35 -158t109 -47q67 0 119 41l22 -27q-62 -46 -139 -46q-185 0 -185 235q0 123 47 180.5t125 57.5q158 0 158 -220v-16h-291zM102 261h251q0 93 -30 133t-89 40q-124 0 -132 -173zM309 540q-15 0 -24 9t-9 24q0 33 32 33q15 0 24 -9t9 -24q0 -33 -32 -33z
M161 540q-15 0 -24 9t-9 24q0 33 32 33q15 0 24 -9t9 -24q0 -33 -32 -33z" />
    <glyph glyph-name="igrave" unicode="&#xec;" horiz-adv-x="253" 
d="M120 0v428l-63 7v24h101v-459h-38zM175 522l-152 95l22 31l146 -105z" />
    <glyph glyph-name="iacute" unicode="&#xed;" horiz-adv-x="253" 
d="M120 0v428l-63 7v24h101v-459h-38zM86 522l-16 21l146 105l22 -31z" />
    <glyph glyph-name="icircumflex" unicode="&#xee;" horiz-adv-x="253" 
d="M120 0v428l-63 7v24h101v-459h-38zM31 524l-18 18l103 110h22l105 -110l-18 -18l-98 90z" />
    <glyph glyph-name="idieresis" unicode="&#xef;" horiz-adv-x="253" 
d="M120 0v428l-63 7v24h101v-459h-38zM201 540q-15 0 -24 9t-9 24q0 33 32 33q15 0 24 -9t9 -24q0 -33 -32 -33zM53 540q-15 0 -24 9t-9 24q0 33 32 33q15 0 24 -9t9 -24q0 -33 -32 -33z" />
    <glyph glyph-name="eth" unicode="&#xf0;" horiz-adv-x="481" 
d="M264 602l-111 -69l-18 26l105 65q-39 34 -105 70l14 27q79 -42 121 -79l95 58l17 -25q-88 -54 -88 -55q125 -123 125 -366q0 -140 -46.5 -200.5t-131.5 -60.5q-82 0 -130.5 57t-48.5 178q0 122 47.5 180t127.5 58q88 0 132 -71q-26 130 -105 207zM241 24q69 0 104 48
t35 154q0 209 -140 209q-69 0 -104 -48t-35 -156q0 -109 35.5 -158t104.5 -49z" />
    <glyph glyph-name="ntilde" unicode="&#xf1;" horiz-adv-x="485" 
d="M90 0v459h22l15 -74q84 81 157 81q52 0 84 -32t32 -91v-343h-38v336q0 96 -81 96q-65 0 -153 -76v-356h-38zM143 538l-27 12q26 62 73 62q20 0 54.5 -18t49.5 -18q17 0 26 9.5t19 30.5l27 -12q-25 -62 -73 -62q-20 0 -54.5 18t-49.5 18q-12 0 -21 -6t-13 -13t-11 -21z
" />
    <glyph glyph-name="ograve" unicode="&#xf2;" horiz-adv-x="481" 
d="M241 -7q-82 0 -130.5 57t-48.5 178q0 122 47.5 180t128.5 58t131 -58t50 -178q0 -121 -48 -179t-130 -58zM241 24q69 0 104 48t35 154q0 209 -140 209q-69 0 -104 -48t-35 -156q0 -109 35.5 -158t104.5 -49zM290 522l-152 95l22 31l146 -105z" />
    <glyph glyph-name="oacute" unicode="&#xf3;" horiz-adv-x="481" 
d="M241 -7q-82 0 -130.5 57t-48.5 178q0 122 47.5 180t128.5 58t131 -58t50 -178q0 -121 -48 -179t-130 -58zM241 24q69 0 104 48t35 154q0 209 -140 209q-69 0 -104 -48t-35 -156q0 -109 35.5 -158t104.5 -49zM190 522l-16 21l146 105l22 -31z" />
    <glyph glyph-name="ocircumflex" unicode="&#xf4;" horiz-adv-x="481" 
d="M241 -7q-82 0 -130.5 57t-48.5 178q0 122 47.5 180t128.5 58t131 -58t50 -178q0 -121 -48 -179t-130 -58zM241 24q69 0 104 48t35 154q0 209 -140 209q-69 0 -104 -48t-35 -156q0 -109 35.5 -158t104.5 -49zM145 524l-18 18l103 110h22l105 -110l-18 -18l-98 90z" />
    <glyph glyph-name="otilde" unicode="&#xf5;" horiz-adv-x="481" 
d="M241 -7q-82 0 -130.5 57t-48.5 178q0 122 47.5 180t128.5 58t131 -58t50 -178q0 -121 -48 -179t-130 -58zM241 24q69 0 104 48t35 154q0 209 -140 209q-69 0 -104 -48t-35 -156q0 -109 35.5 -158t104.5 -49zM143 538l-27 12q26 62 73 62q20 0 54.5 -18t49.5 -18
q17 0 26 9.5t19 30.5l27 -12q-25 -62 -73 -62q-20 0 -54.5 18t-49.5 18q-12 0 -21 -6t-13 -13t-11 -21z" />
    <glyph glyph-name="odieresis" unicode="&#xf6;" horiz-adv-x="481" 
d="M241 -7q-82 0 -130.5 57t-48.5 178q0 122 47.5 180t128.5 58t131 -58t50 -178q0 -121 -48 -179t-130 -58zM241 24q69 0 104 48t35 154q0 209 -140 209q-69 0 -104 -48t-35 -156q0 -109 35.5 -158t104.5 -49zM315 540q-15 0 -24 9t-9 24q0 33 32 33q15 0 24 -9t9 -24
q0 -33 -32 -33zM167 540q-15 0 -24 9t-9 24q0 33 32 33q15 0 24 -9t9 -24q0 -33 -32 -33z" />
    <glyph glyph-name="divide" unicode="&#xf7;" horiz-adv-x="504" 
d="M73 267v33h358v-33h-358zM252 392q-16 0 -27.5 11.5t-11.5 27.5t11.5 27.5t27.5 11.5t27.5 -11.5t11.5 -27.5t-11.5 -27.5t-27.5 -11.5zM252 97q-16 0 -27.5 11.5t-11.5 27.5t11.5 27.5t27.5 11.5t27.5 -11.5t11.5 -27.5t-11.5 -27.5t-27.5 -11.5z" />
    <glyph glyph-name="oslash" unicode="&#xf8;" horiz-adv-x="481" 
d="M374 402q45 -63 45 -172q0 -121 -48 -179t-130 -58q-65 0 -109 35l-49 -76l-26 18l53 81q-48 61 -48 177q0 122 47.5 180t128.5 58q69 0 114 -41l46 71l26 -18zM130 82q13 20 34 53t66 102l75 115l30 46q-33 37 -95 37q-69 0 -104 -48t-35 -156q0 -99 29 -149zM354 370
l-204 -314q33 -32 91 -32q69 0 104 48t35 154q0 94 -26 144z" />
    <glyph glyph-name="ugrave" unicode="&#xf9;" horiz-adv-x="485" 
d="M201 -7q-52 0 -84 32t-32 91v343h38v-336q0 -96 81 -96q67 0 153 67v365h38v-459h-22l-15 65q-82 -72 -157 -72zM290 522l-152 95l22 31l146 -105z" />
    <glyph glyph-name="uacute" unicode="&#xfa;" horiz-adv-x="485" 
d="M201 -7q-52 0 -84 32t-32 91v343h38v-336q0 -96 81 -96q67 0 153 67v365h38v-459h-22l-15 65q-82 -72 -157 -72zM195 522l-16 21l146 105l22 -31z" />
    <glyph glyph-name="ucircumflex" unicode="&#xfb;" horiz-adv-x="485" 
d="M201 -7q-52 0 -84 32t-32 91v343h38v-336q0 -96 81 -96q67 0 153 67v365h38v-459h-22l-15 65q-82 -72 -157 -72zM147 524l-18 18l103 110h22l105 -110l-18 -18l-98 90z" />
    <glyph glyph-name="udieresis" unicode="&#xfc;" horiz-adv-x="485" 
d="M201 -7q-52 0 -84 32t-32 91v343h38v-336q0 -96 81 -96q67 0 153 67v365h38v-459h-22l-15 65q-82 -72 -157 -72zM317 540q-15 0 -24 9t-9 24q0 33 32 33q15 0 24 -9t9 -24q0 -33 -32 -33zM169 540q-15 0 -24 9t-9 24q0 33 32 33q15 0 24 -9t9 -24q0 -33 -32 -33z" />
    <glyph glyph-name="yacute" unicode="&#xfd;" horiz-adv-x="431" 
d="M70 -209l-11 28q66 24 97 61t54 120h-21l-147 459h40l100 -314q22 -70 35 -125h1q1 4 37 125l95 314h39l-151 -484q-28 -88 -62 -124t-106 -60zM175 522l-16 21l146 105l22 -31z" />
    <glyph glyph-name="thorn" unicode="&#xfe;" horiz-adv-x="488" 
d="M90 -207v915h38v-316q67 74 143 74q73 0 114 -60t41 -179q0 -117 -41.5 -175.5t-118.5 -58.5q-75 0 -138 69v-269h-38zM264 27q123 0 123 195q0 115 -30 162.5t-90 47.5q-27 0 -55.5 -13t-43.5 -24.5t-40 -33.5v-267q65 -67 136 -67z" />
    <glyph glyph-name="ydieresis" unicode="&#xff;" horiz-adv-x="431" 
d="M70 -209l-11 28q66 24 97 61t54 120h-21l-147 459h40l100 -314q22 -70 35 -125h1q1 4 37 125l95 314h39l-151 -484q-28 -88 -62 -124t-106 -60zM290 540q-15 0 -24 9t-9 24q0 33 32 33q15 0 24 -9t9 -24q0 -33 -32 -33zM142 540q-15 0 -24 9t-9 24q0 33 32 33q15 0 24 -9
t9 -24q0 -33 -32 -33z" />
    <glyph glyph-name="dotlessi" unicode="&#x131;" horiz-adv-x="253" 
d="M120 0v428l-63 7v24h101v-459h-38z" />
    <glyph glyph-name="Lslash" unicode="&#x141;" horiz-adv-x="461" 
d="M138 302v-269h271v-33h-311v287l-76 -27v34l76 28v363h40v-348l163 59v-34z" />
    <glyph glyph-name="lslash" unicode="&#x142;" horiz-adv-x="243" 
d="M95 329l-76 -42v33l76 42v346h38v-325l93 51v-33l-93 -51v-283q0 -43 34 -43l22 4l8 -27q-18 -8 -35 -8q-29 0 -48 16.5t-19 55.5v264z" />
    <glyph glyph-name="OE" unicode="&#x152;" horiz-adv-x="829" 
d="M339 0q-149 0 -209 82t-60 274q0 177 61.5 253t205.5 76h430v-33h-289v-274h236v-33h-236v-312h300v-33h-439zM334 33h104v619h-105q-126 0 -174 -69t-48 -230q0 -174 47.5 -247t175.5 -73z" />
    <glyph glyph-name="oe" unicode="&#x153;" horiz-adv-x="770" 
d="M399 113q-37 -120 -158 -120q-82 0 -130.5 57t-48.5 178q0 122 47.5 180t128.5 58q122 0 160 -121q36 121 153 121q158 0 158 -220v-16h-291q0 -111 35 -158t109 -47q67 0 119 41l22 -27q-62 -46 -139 -46q-129 0 -165 120zM241 24q69 0 104 48t35 154q0 209 -140 209
q-69 0 -104 -48t-35 -156q0 -109 35.5 -158t104.5 -49zM419 261h251q0 93 -30 133t-89 40q-124 0 -132 -173z" />
    <glyph glyph-name="Scaron" unicode="&#x160;" horiz-adv-x="499" 
d="M234 -7q-124 0 -203 88l25 27q72 -82 177 -82q155 0 155 146q0 70 -33 103.5t-117 69.5q-34 15 -53 24.5t-43 26t-36.5 34t-21.5 43.5t-9 59q0 74 48 117t124 43q88 0 155 -45l-19 -30q-58 42 -136 42q-57 0 -95 -32.5t-38 -93.5q0 -62 30 -91t107 -63
q96 -42 136.5 -83.5t40.5 -123.5q0 -80 -48.5 -129.5t-145.5 -49.5zM232 741l-105 110l18 18l98 -90l96 90l18 -18l-103 -110h-22z" />
    <glyph glyph-name="scaron" unicode="&#x161;" horiz-adv-x="390" 
d="M184 -7q-84 0 -144 50l19 26q58 -44 125 -44q53 0 80.5 24.5t27.5 67.5q0 44 -23 66.5t-86 43.5q-61 20 -91 48.5t-30 81.5q0 48 34 78.5t94 30.5q68 0 123 -33l-15 -29q-52 30 -109 30q-42 0 -66 -19.5t-24 -56.5q0 -40 19.5 -59t72.5 -38q74 -27 106.5 -55t32.5 -88
q0 -61 -39.5 -93t-106.5 -32zM173 530l-105 110l18 18l98 -90l96 90l18 -18l-103 -110h-22z" />
    <glyph glyph-name="Ydieresis" unicode="&#x178;" horiz-adv-x="538" 
d="M245 0v265l-201 420h42l145 -304q26 -57 35 -84q16 43 34 84l142 304h41l-198 -421v-264h-40zM342 751q-15 0 -24 9t-9 24q0 33 32 33q15 0 24 -9t9 -24q0 -33 -32 -33zM194 751q-15 0 -24 9t-9 24q0 33 32 33q15 0 24 -9t9 -24q0 -33 -32 -33z" />
    <glyph glyph-name="Zcaron" unicode="&#x17d;" horiz-adv-x="466" 
d="M46 0v32l331 620h-316v33h357v-34l-330 -618h328v-33h-370zM231 741l-105 110l18 18l98 -90l96 90l18 -18l-103 -110h-22z" />
    <glyph glyph-name="zcaron" unicode="&#x17e;" horiz-adv-x="412" 
d="M57 0v36l258 392h-238v31h278v-36l-258 -392h266v-31h-306zM205 530l-105 110l18 18l98 -90l96 90l18 -18l-103 -110h-22z" />
    <glyph glyph-name="florin" unicode="&#x192;" horiz-adv-x="369" 
d="M142 396h-77v33h80l15 142q13 121 115 121q46 0 87 -28l-17 -29q-37 23 -70 23q-35 0 -53 -19.5t-23 -68.5l-14 -141h117v-33h-120l-61 -603h-39z" />
    <glyph glyph-name="circumflex" unicode="&#x2c6;" horiz-adv-x="541" 
d="M175 524l-18 18l103 110h22l105 -110l-18 -18l-98 90z" />
    <glyph glyph-name="caron" unicode="&#x2c7;" horiz-adv-x="541" 
d="M259 530l-105 110l18 18l98 -90l96 90l18 -18l-103 -110h-22z" />
    <glyph glyph-name="breve" unicode="&#x2d8;" horiz-adv-x="541" 
d="M268 543q-39 0 -66 25t-37 62l29 9q11 -30 27 -46t46 -16t46 15.5t28 46.5l29 -9q-10 -37 -37 -62t-65 -25z" />
    <glyph glyph-name="dotaccent" unicode="&#x2d9;" horiz-adv-x="541" 
d="M271 563q-15 0 -24 9t-9 24q0 33 32 33q15 0 24 -9t9 -24q0 -33 -32 -33z" />
    <glyph glyph-name="ring" unicode="&#x2da;" horiz-adv-x="541" 
d="M271 526q-35 0 -56.5 25t-21.5 58t21.5 58.5t56.5 25.5t56 -25t21 -59q0 -33 -21 -58t-56 -25zM271 553q19 0 32 14.5t13 41.5q0 28 -13 42.5t-32 14.5q-21 0 -33.5 -14.5t-12.5 -42.5q0 -27 13 -41.5t33 -14.5z" />
    <glyph glyph-name="ogonek" unicode="&#x2db;" horiz-adv-x="541" 
d="M286 -197q-32 0 -54.5 18t-22.5 53q0 55 77 126h33q-39 -43 -57 -70.5t-18 -54.5q0 -20 11.5 -31t31.5 -11q26 0 59 19l14 -24q-38 -25 -74 -25z" />
    <glyph glyph-name="tilde" unicode="&#x2dc;" horiz-adv-x="541" 
d="M173 538l-27 12q26 62 73 62q20 0 54.5 -18t49.5 -18q17 0 26 9.5t19 30.5l27 -12q-25 -62 -73 -62q-20 0 -54.5 18t-49.5 18q-12 0 -21 -6t-13 -13t-11 -21z" />
    <glyph glyph-name="hungarumlaut" unicode="&#x2dd;" horiz-adv-x="450" 
d="M292 523l-23 13l96 152l32 -20zM170 523l-23 13l96 152l32 -20z" />
    <glyph glyph-name="endash" unicode="&#x2013;" horiz-adv-x="455" 
d="M58 264v33h339v-33h-339z" />
    <glyph glyph-name="emdash" unicode="&#x2014;" horiz-adv-x="645" 
d="M58 264v33h529v-33h-529z" />
    <glyph glyph-name="quoteleft" unicode="&#x2018;" horiz-adv-x="195" 
d="M98 528q-18 0 -30 14t-12 38q0 87 74 110l9 -21q-45 -20 -45 -65q18 -1 29.5 -12t11.5 -26q0 -17 -11 -27.5t-26 -10.5z" />
    <glyph glyph-name="quoteright" unicode="&#x2019;" horiz-adv-x="195" 
d="M65 526l-9 21q45 20 45 65q-18 1 -29.5 12t-11.5 26q0 16 11 27t26 11q18 0 30 -14t12 -38q0 -88 -74 -110z" />
    <glyph glyph-name="quotesinglbase" unicode="&#x201a;" horiz-adv-x="195" 
d="M65 -88l-9 21q45 20 45 65q-18 1 -29.5 12t-11.5 26q0 16 11 27t26 11q18 0 30 -14.5t12 -38.5q0 -87 -74 -109z" />
    <glyph glyph-name="quotedblleft" unicode="&#x201c;" horiz-adv-x="335" 
d="M98 528q-18 0 -30 14t-12 38q0 87 74 110l9 -21q-45 -20 -45 -65q18 -1 29.5 -12t11.5 -26q0 -17 -11 -27.5t-26 -10.5zM238 528q-19 0 -30.5 14t-11.5 38q0 87 74 110l8 -21q-44 -20 -44 -65q18 -1 29.5 -12t11.5 -26q0 -17 -11 -27.5t-26 -10.5z" />
    <glyph glyph-name="quotedblright" unicode="&#x201d;" horiz-adv-x="335" 
d="M65 526l-9 21q45 20 45 65q-18 1 -29.5 12t-11.5 26q0 16 11 27t26 11q18 0 30 -14t12 -38q0 -88 -74 -110zM205 526l-9 21q45 21 45 65q-19 1 -30 11.5t-11 26.5t10.5 27t26.5 11q18 0 29.5 -14t11.5 -38q0 -88 -73 -110z" />
    <glyph glyph-name="quotedblbase" unicode="&#x201e;" horiz-adv-x="335" 
d="M65 -88l-9 21q45 20 45 65q-18 1 -29.5 12t-11.5 26q0 16 11 27t26 11q18 0 30 -14.5t12 -38.5q0 -87 -74 -109zM205 -88l-9 21q45 21 45 65q-19 1 -30 11.5t-11 26.5t10.5 27t26.5 11q18 0 29.5 -14.5t11.5 -38.5q0 -87 -73 -109z" />
    <glyph glyph-name="dagger" unicode="&#x2020;" horiz-adv-x="338" 
d="M150 262v263h-99v33h99v127h38v-127h99v-33h-99v-263h-38z" />
    <glyph glyph-name="daggerdbl" unicode="&#x2021;" horiz-adv-x="338" 
d="M150 262v127h-99v33h99v103h-99v33h99v127h38v-127h99v-33h-99v-103h99v-33h-99v-127h-38z" />
    <glyph glyph-name="bullet" unicode="&#x2022;" horiz-adv-x="242" 
d="M121 248q-29 0 -48 21t-19 52t19 52t48 21t48 -21t19 -52t-19 -52t-48 -21z" />
    <glyph glyph-name="ellipsis" unicode="&#x2026;" horiz-adv-x="578" 
d="M472 -6q-16 0 -27.5 11.5t-11.5 27.5t11.5 27.5t27.5 11.5t27.5 -11.5t11.5 -27.5t-11.5 -27.5t-27.5 -11.5zM289 -6q-16 0 -27.5 11.5t-11.5 27.5t11.5 27.5t27.5 11.5t27.5 -11.5t11.5 -27.5t-11.5 -27.5t-27.5 -11.5zM106 -6q-16 0 -27.5 11.5t-11.5 27.5t11.5 27.5
t27.5 11.5t27.5 -11.5t11.5 -27.5t-11.5 -27.5t-27.5 -11.5z" />
    <glyph glyph-name="perthousand" unicode="&#x2030;" horiz-adv-x="1139" 
d="M198 299q-67 0 -106.5 46t-39.5 126q0 78 38.5 124.5t103.5 46.5q66 0 106 -46t40 -128q0 -77 -38 -123t-104 -46zM593 -7q-67 0 -106.5 46t-39.5 126q0 78 38.5 124.5t103.5 46.5q66 0 106 -46t40 -128q0 -77 -38 -123t-104 -46zM945 -7q-67 0 -106.5 46t-39.5 126
q0 78 38.5 124.5t103.5 46.5q66 0 106 -46t40 -128q0 -77 -38 -123t-104 -46zM591 25q105 0 105 134q0 145 -106 145q-104 0 -104 -136q0 -143 105 -143zM196 331q105 0 105 134q0 145 -106 145q-104 0 -104 -136q0 -143 105 -143zM943 25q105 0 105 134q0 145 -106 145
q-104 0 -104 -136q0 -143 105 -143zM184 0l378 635h41l-378 -635h-41z" />
    <glyph glyph-name="guilsinglleft" unicode="&#x2039;" horiz-adv-x="275" 
d="M184 52l-127 192l127 194l29 -20l-114 -174l114 -172z" />
    <glyph glyph-name="guilsinglright" unicode="&#x203a;" horiz-adv-x="275" 
d="M91 52l-29 20l114 174l-114 172l29 20l127 -192z" />
    <glyph glyph-name="fraction" unicode="&#x2044;" horiz-adv-x="261" 
d="M-79 0l378 635h41l-378 -635h-41z" />
    <glyph glyph-name="Euro" unicode="&#x20ac;" horiz-adv-x="553" 
d="M113 370h-87v33h90q29 239 221 239q92 0 162 -51l-21 -28q-56 45 -141 45q-83 0 -126 -51.5t-55 -153.5h233v-33h-236q-1 -17 -1 -54q0 -31 1 -46h236v-33h-234q11 -106 56 -158t137 -52q82 0 141 48l22 -27q-63 -55 -163 -55q-208 0 -233 244h-89v33h86q-1 14 -1 44
q0 20 2 56z" />
    <glyph glyph-name="trademark" unicode="&#x2122;" horiz-adv-x="694" 
d="M586 561q0 30 1 60.5t1 34.5q-9 -37 -27 -89l-61 -170h-34l-61 167q-2 4 -26 94h-1q3 -66 3 -97v-233h-35v357h55l66 -194q13 -36 17 -69h1q5 40 16 69l66 194h56v-357h-37v233zM146 328v326h-90v31h217v-31h-90v-326h-37z" />
    <glyph glyph-name="minus" unicode="&#x2212;" horiz-adv-x="504" 
d="M73 267v33h358v-33h-358z" />
    <glyph glyph-name="ff" unicode="&#xfb00;" horiz-adv-x="519" 
d="M43 428v31h58v143q0 49 26.5 76.5t65.5 27.5q49 0 84 -24l-17 -27q-33 19 -65 19q-56 0 -56 -75v-140h198v150q0 50 27.5 78.5t68.5 28.5q51 0 86 -24l-17 -27q-33 19 -67 19q-27 0 -43.5 -19.5t-16.5 -58.5v-147h100v-31h-100v-428h-38v428h-198v-428h-38v428h-58z" />
    <glyph glyph-name="fi" unicode="&#xfb01;" horiz-adv-x="465" 
d="M139 428v-428h-38v428h-58v31h58v127q0 65 35 97.5t86 32.5q63 0 112 -37l-19 -26q-46 31 -93 31q-83 0 -83 -101v-124h236v-459h-38v428h-198z" />
    <glyph glyph-name="fl" unicode="&#xfb02;" horiz-adv-x="480" 
d="M139 459h110v-31h-110v-428h-38v428h-58v31h58v116q0 73 41.5 107t107.5 34q44 0 92 -8h33v-641q0 -43 34 -43l22 4l8 -27q-18 -8 -35 -8q-29 0 -48 16.5t-19 55.5v610q-41 9 -87 9q-54 0 -82.5 -25.5t-28.5 -86.5v-113z" />
    <glyph glyph-name="ffi" unicode="&#xfb03;" horiz-adv-x="701" 
d="M337 0v428h-198v-428h-38v428h-58v31h58v143q0 49 26.5 76.5t65.5 27.5q49 0 84 -24l-17 -27q-33 19 -65 19q-56 0 -56 -75v-140h198v127q0 65 35 97.5t86 32.5q63 0 112 -37l-19 -26q-46 31 -93 31q-83 0 -83 -101v-124h236v-459h-38v428h-198v-428h-38z" />
    <glyph glyph-name="ffl" unicode="&#xfb04;" horiz-adv-x="716" 
d="M337 0v428h-198v-428h-38v428h-58v31h58v143q0 49 26.5 76.5t65.5 27.5q49 0 84 -24l-17 -27q-33 19 -65 19q-56 0 -56 -75v-140h198v116q0 73 41.5 107t107.5 34q44 0 92 -8h33v-641q0 -43 34 -43l22 4l8 -27q-18 -8 -35 -8q-29 0 -48 16.5t-19 55.5v610q-41 9 -87 9
q-54 0 -82.5 -25.5t-28.5 -86.5v-113h110v-31h-110v-428h-38z" />
    <glyph glyph-name="fj" horiz-adv-x="465" 
d="M277 -209l-13 25q42 23 57.5 46.5t15.5 78.5v487h-198v-428h-38v428h-58v31h58v127q0 65 35 97.5t86 32.5q63 0 112 -37l-19 -26q-46 31 -93 31q-83 0 -83 -101v-124h236v-518q0 -69 -22.5 -98t-75.5 -52z" />
    </font>
</defs>
</svg>
