<?xml version="1.0" standalone="no"?>
<!DOCTYPE svg PUBLIC "-//W3C//DTD SVG 1.1//EN" "http://www.w3.org/Graphics/SVG/1.1/DTD/svg11.dtd" >
<svg>
<metadata>
Created by FontForge 20110222 at Mon Jan 20 07:53:17 2014
 By Orthosie Webhosting
2004 Erik Spiekermann, Christian Schwartz; published by FontShop International for the FontFont library.
</metadata>
<defs>
<font id="UnitRegularItalicRegular" horiz-adv-x="529" >
  <font-face 
    font-family="UnitRegularItalicRegular"
    font-weight="400"
    font-style="italic"
    font-stretch="normal"
    units-per-em="1000"
    panose-1="2 0 5 6 5 0 0 2 0 4"
    ascent="714"
    descent="-286"
    x-height="501"
    cap-height="689"
    bbox="-129 -214 1091 935"
    underline-thickness="20"
    underline-position="-122"
    unicode-range="U+0020-FB04"
  />
<missing-glyph horiz-adv-x="508" 
d="M29 689h450v-689h-450v689zM404 75v539h-300v-539h300z" />
    <glyph glyph-name=".notdef" horiz-adv-x="508" 
d="M29 689h450v-689h-450v689zM404 75v539h-300v-539h300z" />
    <glyph glyph-name=".null" horiz-adv-x="0" 
 />
    <glyph glyph-name="nonmarkingreturn" horiz-adv-x="220" 
 />
    <glyph glyph-name="space" unicode=" " horiz-adv-x="220" 
 />
    <glyph glyph-name="exclam" unicode="!" horiz-adv-x="272" 
d="M172 689h105l-126 -479h-64zM93 -7q-27 0 -45.5 18.5t-18.5 46.5t18.5 46.5t45.5 18.5q28 0 46 -18.5t18 -46.5t-18 -46.5t-46 -18.5z" />
    <glyph glyph-name="quotedbl" unicode="&#x22;" horiz-adv-x="404" 
d="M341 709h78l-55 -256h-78zM177 709h78l-55 -256h-78z" />
    <glyph glyph-name="numbersign" unicode="#" horiz-adv-x="539" 
d="M107 470h92l43 166h67l-43 -166h112l44 166h66l-43 -166h88l-16 -74h-92l-38 -145h88l-15 -74h-92l-46 -177h-67l46 177h-112l-46 -177h-67l46 177h-88l15 74h92l38 145h-88zM208 251h113l38 145h-113z" />
    <glyph glyph-name="dollar" unicode="$" horiz-adv-x="493" 
d="M160 -7q-45 8 -81.5 26t-64.5 44l35 67q31 -27 60.5 -45t67.5 -24l51 240q-60 31 -94 68.5t-34 96.5q0 46 14.5 81t40.5 58.5t63 34t81 8.5l29 135h59l-30 -143q35 -8 61.5 -23.5t46.5 -32.5l-32 -65q-19 15 -42 29.5t-50 22.5l-45 -209q28 -15 52 -31.5t42 -37t28 -47
t10 -60.5q0 -42 -12.5 -78.5t-38.5 -63t-65.5 -41.5t-93.5 -15l-25 -119h-59zM341 187q0 31 -16.5 50.5t-46.5 37.5l-46 -216q58 4 83.5 37t25.5 91zM184 477q0 -30 15 -50t47 -39l41 190q-51 0 -77 -26.5t-26 -74.5z" />
    <glyph glyph-name="percent" unicode="%" horiz-adv-x="810" 
d="M223 302q-63 0 -98 40.5t-35 106.5q0 51 20.5 98t58.5 73q19 14 42 20.5t48 6.5q61 0 96 -40t35 -103q0 -49 -17 -94.5t-49 -71.5q-42 -36 -101 -36zM579 -11q-63 0 -98 40.5t-35 106.5q0 51 20.5 98t58.5 73q19 14 42 20.5t48 6.5q61 0 96 -40t35 -103q0 -49 -17 -94.5
t-49 -71.5q-42 -36 -101 -36zM614 636h75l-468 -636h-75zM584 50q37 0 56 31q7 12 12.5 27.5t9 32t5 33t1.5 29.5q0 38 -15 54t-44 16q-28 0 -44 -16q-10 -10 -17.5 -26.5t-13 -35.5t-8 -39t-2.5 -37q0 -37 15 -53t45 -16zM228 363q37 0 56 31q7 12 12.5 27.5t9 32t5 33
t1.5 29.5q0 38 -15 54t-44 16q-28 0 -44 -16q-10 -10 -17.5 -26.5t-13 -35.5t-8 -39t-2.5 -37q0 -37 15 -53t45 -16z" />
    <glyph glyph-name="ampersand" unicode="&#x26;" horiz-adv-x="604" 
d="M228 -13q-49 0 -86 14.5t-62 39t-37.5 57t-12.5 68.5q0 48 14.5 85t39.5 64.5t59 47t74 33.5q-22 34 -32 69t-10 70q0 36 13 66.5t36.5 53t55 35t68.5 12.5q66 0 108.5 -37t42.5 -101q0 -72 -46 -115.5t-125 -74.5l104 -174q20 34 35 73t26 84l79 -10q-37 -130 -98 -217
l78 -130h-98l-38 63q-41 -37 -87.5 -56.5t-100.5 -19.5zM239 58q39 0 74 17.5t65 49.5l-132 219q-57 -23 -88.5 -67.5t-31.5 -110.5q0 -46 25.5 -77t87.5 -31zM261 536q0 -23 7 -48t21 -48l9 -15q62 31 87 62t25 76q0 35 -17.5 52.5t-46.5 17.5q-38 0 -61.5 -26t-23.5 -71z
" />
    <glyph glyph-name="quotesingle" unicode="'" horiz-adv-x="239" 
d="M176 709h78l-55 -256h-78z" />
    <glyph glyph-name="parenleft" unicode="(" horiz-adv-x="342" 
d="M187 -160q-66 48 -101 124t-34 185q0 88 27 201q24 98 53 170t66.5 122t84 82t105.5 50l17 -53q-44 -20 -78 -47.5t-62 -71.5t-51.5 -109.5t-46.5 -160.5q-14 -60 -21 -107t-7 -90q0 -85 22 -144.5t67 -101.5z" />
    <glyph glyph-name="parenright" unicode=")" horiz-adv-x="342" 
d="M-43 -107q44 19 78 46.5t62 72t51.5 110t46.5 160.5q14 60 21 107t7 90q0 85 -22 144.5t-67 101.5l41 49q66 -48 101 -124t34 -185q0 -89 -27 -201q-24 -98 -53 -170t-66.5 -122t-84 -82t-105.5 -50z" />
    <glyph glyph-name="asterisk" unicode="*" horiz-adv-x="469" 
d="M123 356l109 125l-123 48l31 61l121 -50l31 149h65l-32 -152l132 50l17 -62l-146 -48l68 -126l-53 -35l-65 125l-105 -125z" />
    <glyph glyph-name="plus" unicode="+" horiz-adv-x="533" 
d="M226 256h-156l16 73h156l38 178h79l-38 -178h155l-16 -73h-155l-37 -178h-79z" />
    <glyph glyph-name="comma" unicode="," horiz-adv-x="269" 
d="M-7 -92q32 14 54 38t27 50q-13 4 -30 20t-17 44t19 47t46 19q28 0 47 -19.5t19 -57.5q0 -28 -10 -57t-30 -54.5t-51.5 -45.5t-73.5 -29v45z" />
    <glyph glyph-name="hyphen" unicode="-" horiz-adv-x="292" 
d="M63 315h188l-19 -89h-188z" />
    <glyph glyph-name="period" unicode="." horiz-adv-x="268" 
d="M92 -6q-27 0 -46 19t-19 47t19 47t46 19q28 0 46.5 -19t18.5 -47t-18.5 -47t-46.5 -19z" />
    <glyph glyph-name="slash" unicode="/" horiz-adv-x="368" 
d="M360 761h82l-415 -910h-82z" />
    <glyph glyph-name="zero" unicode="0" horiz-adv-x="601" 
d="M273 -12q-101 0 -157.5 62t-56.5 181q0 29 4 60.5t10.5 63t16 61t20.5 54.5q41 93 103 135.5t144 42.5q99 0 153.5 -62t54.5 -177q0 -35 -5 -72.5t-13.5 -74.5t-20.5 -70.5t-26 -60.5q-39 -75 -95.5 -109t-131.5 -34zM276 58q53 0 88 29t60 92q10 27 19.5 59.5t16 66
t10.5 65t4 54.5q0 153 -123 153q-55 0 -91 -30.5t-62 -98.5q-9 -25 -17.5 -56t-15 -62.5t-10.5 -62t-4 -54.5q0 -155 125 -155z" />
    <glyph glyph-name="one" unicode="1" horiz-adv-x="442" 
d="M34 72h121l96 453l-139 -54l-22 47l207 125h66l-121 -571h112l-15 -72h-320z" />
    <glyph glyph-name="two" unicode="2" horiz-adv-x="488" 
d="M11 82q107 75 177.5 132t112 103.5t58.5 86t17 80.5q0 43 -25 67t-68 24q-46 0 -79.5 -14t-66.5 -34l-34 56q41 30 89.5 48t101.5 18q35 0 66 -11t54.5 -31.5t37 -50.5t13.5 -69q0 -49 -17 -93.5t-58.5 -92.5t-110 -102t-171.5 -122h285l-16 -77h-383z" />
    <glyph glyph-name="three" unicode="3" horiz-adv-x="501" 
d="M171 -66q-57 0 -101 13.5t-73 29.5l13 70q32 -15 70.5 -26t86.5 -11t80.5 14t52.5 43q16 23 23.5 57t5.5 61q-2 96 -117 96h-49l15 70h45q45 0 73.5 10t45.5 33q11 17 18 39.5t7 51.5q0 41 -24 64.5t-75 23.5q-37 0 -68.5 -8.5t-69.5 -27.5l-28 62q46 26 88 38t96 12
q37 0 68.5 -11.5t54 -32t35 -50t12.5 -65.5q0 -65 -27.5 -112.5t-90.5 -66.5q43 -18 63.5 -56t20.5 -84q0 -45 -14.5 -87t-37.5 -72q-62 -78 -199 -78z" />
    <glyph glyph-name="four" unicode="4" horiz-adv-x="553" 
d="M33 184l290 452h94l-298 -460h209l57 266l92 17l-60 -283h72l-17 -75h-71l-33 -154h-88l32 154h-297z" />
    <glyph glyph-name="five" unicode="5" horiz-adv-x="501" 
d="M171 -64q-49 0 -91 10t-76 26l12 70q35 -14 74.5 -23.5t76.5 -9.5q48 0 81.5 16.5t54.5 47.5q18 27 26.5 64.5t8.5 69.5q0 54 -29.5 82t-94.5 28q-33 0 -63 -5.5t-58 -16.5l98 341h311l-16 -78h-241l-50 -178q11 3 23 5t26 2q88 0 137 -48t49 -136q0 -52 -17 -104
t-50 -87q-33 -37 -81 -56.5t-111 -19.5z" />
    <glyph glyph-name="six" unicode="6" horiz-adv-x="558" 
d="M261 -12q-45 0 -82 16t-63 46.5t-40.5 74t-14.5 98.5q0 59 13.5 115.5t37.5 106.5t57 91t72 70q53 39 120.5 62t151.5 34v-68q-75 -14 -130 -34.5t-97 -54.5q-34 -28 -59 -68t-42 -85q30 23 63.5 36t72.5 13t71.5 -13.5t56.5 -38t37 -59.5t13 -77q0 -60 -18.5 -108.5
t-50.5 -83.5t-75.5 -54t-93.5 -19zM292 372q-37 0 -67.5 -11.5t-59.5 -33.5q-15 -62 -15 -109q0 -86 29 -122.5t85 -36.5q34 0 60.5 15.5t44.5 42t27 62t9 75.5q0 55 -28.5 86.5t-84.5 31.5z" />
    <glyph glyph-name="seven" unicode="7" horiz-adv-x="491" 
d="M79 -52q33 114 73.5 208.5t84 170t89 133t89.5 98.5h-307l16 78h390l-17 -82q-51 -48 -99.5 -113t-91 -143.5t-78 -170t-60.5 -191.5z" />
    <glyph glyph-name="eight" unicode="8" horiz-adv-x="551" 
d="M250 -12q-50 0 -88.5 14.5t-65 39t-40.5 57t-14 68.5q0 46 14 79t37 55.5t53 38t63 27.5q-43 30 -57.5 68t-14.5 75q0 45 16 80t44.5 60t66 38t81.5 13q43 0 76.5 -13.5t56.5 -36t35.5 -52.5t12.5 -63q0 -64 -36 -105t-113 -73q54 -30 77.5 -72.5t23.5 -92.5
q0 -45 -16.5 -83t-46.5 -65t-72 -42t-93 -15zM257 334q-27 -12 -50 -26t-40.5 -33t-27.5 -43.5t-10 -57.5q0 -58 34 -88.5t94 -30.5q65 0 98 38.5t33 95.5q0 34 -16.5 62.5t-52.5 48.5zM225 509q0 -30 16 -56t58 -49l24 -13q34 17 56 34t34.5 35.5t17.5 38t5 41.5
q0 40 -24 67t-71 27q-55 0 -85.5 -34t-30.5 -91z" />
    <glyph glyph-name="nine" unicode="9" horiz-adv-x="558" 
d="M60 0q59 11 107.5 26t87.5 37.5t69 54.5t52 78q11 22 20 46q-30 -21 -62.5 -33t-71.5 -12q-40 0 -73 14t-56 39.5t-36 61.5t-13 79q0 54 18.5 101t51.5 82t77 55t95 20q89 0 143.5 -54t56.5 -159q0 -32 -5 -68t-14 -71.5t-21 -69.5t-27 -62q-55 -106 -152.5 -161.5
t-246.5 -70.5v67zM287 265q37 0 68.5 11.5t60.5 33.5q9 34 14 67t5 62q0 75 -28.5 107t-85.5 32q-37 0 -64.5 -18t-45.5 -46t-26.5 -63.5t-8.5 -69.5q0 -60 29 -88t82 -28z" />
    <glyph glyph-name="colon" unicode=":" horiz-adv-x="288" 
d="M167 301q-27 0 -46 19t-19 47t19 47t46 19q28 0 46.5 -19t18.5 -47t-18.5 -47t-46.5 -19zM102 -6q-27 0 -46 19t-19 47t19 47t46 19q28 0 46.5 -19t18.5 -47t-18.5 -47t-46.5 -19z" />
    <glyph glyph-name="semicolon" unicode=";" horiz-adv-x="290" 
d="M-2 -95q34 16 57.5 40.5t28.5 50.5q-13 4 -30 20t-17 44t19 47t46 19q28 0 47 -19.5t19 -57.5q0 -28 -9 -56t-28 -52.5t-48.5 -44.5t-69.5 -31zM167 301q-27 0 -46 19t-19 47t19 47t46 19q28 0 46.5 -19t18.5 -47t-18.5 -47t-46.5 -19z" />
    <glyph glyph-name="less" unicode="&#x3c;" horiz-adv-x="370" 
d="M60 286l10 44l258 183l35 -59l-216 -159l148 -178l-54 -46z" />
    <glyph glyph-name="equal" unicode="=" horiz-adv-x="534" 
d="M108 429h390l-16 -73h-390zM66 229h390l-16 -73h-390z" />
    <glyph glyph-name="greater" unicode="&#x3e;" horiz-adv-x="370" 
d="M21 130l216 159l-148 178l54 46l181 -215l-10 -44l-258 -183z" />
    <glyph glyph-name="question" unicode="?" horiz-adv-x="427" 
d="M151 302q6 29 15.5 50t22.5 36.5t29.5 27t35.5 22.5q24 13 41.5 24.5t29 24.5t17.5 30.5t6 42.5q0 30 -16.5 48.5t-62.5 18.5q-33 0 -66 -10t-55 -21l-16 67q29 16 66.5 27t79.5 11q75 0 115.5 -37.5t40.5 -103.5q0 -41 -11.5 -69t-31.5 -48t-47 -36t-58 -33
q-28 -15 -43.5 -35.5t-22.5 -54.5l-15 -74h-73zM143 -7q-27 0 -45.5 18.5t-18.5 46.5t18.5 46.5t45.5 18.5q28 0 46 -18.5t18 -46.5t-18 -46.5t-46 -18.5z" />
    <glyph glyph-name="at" unicode="@" horiz-adv-x="819" 
d="M354 -161q-154 0 -230 86.5t-75 241.5q0 96 26.5 180t77.5 146.5t125.5 98.5t170.5 36q78 0 137 -22t98 -62.5t59 -98t20 -127.5q0 -76 -10.5 -136.5t-32.5 -103t-56.5 -65.5t-83.5 -23q-61 0 -88.5 29t-32.5 75q-14 -17 -30 -32.5t-34 -28.5t-38.5 -20.5t-43.5 -7.5
q-38 0 -65 33.5t-27 107.5q0 45 12 105q22 108 65.5 157.5t113.5 49.5q35 0 61 -16.5t38 -29.5l7 35h81l-60 -285q-12 -56 0 -81t38 -25q56 0 82.5 72t25.5 199q-1 115 -58 175t-185 60q-86 0 -145.5 -34.5t-96.5 -91.5t-53.5 -129.5t-16.5 -148.5q0 -129 53.5 -191
t174.5 -62q44 0 79.5 6t65.5 17l6 -64q-35 -13 -72 -19t-83 -6zM337 74q31 0 61 22t56 48l46 216q-14 13 -33.5 24.5t-44.5 11.5q-21 0 -36.5 -7.5t-28 -25.5t-22 -47.5t-18.5 -73.5q-15 -75 -15 -113q0 -29 9 -42t26 -13z" />
    <glyph glyph-name="A" unicode="A" horiz-adv-x="558" 
d="M324 690h99l54 -690h-92l-13 202h-207l-100 -202h-94zM201 276h166l-8 120q-5 73 -5.5 123.5t1.5 91.5h-2q-7 -21 -14 -40.5t-16.5 -42.5t-23 -51.5t-32.5 -68.5z" />
    <glyph glyph-name="B" unicode="B" horiz-adv-x="557" 
d="M176 689h167q47 0 82 -12.5t58 -33.5t34 -50t11 -62q0 -60 -27 -107.5t-87 -67.5q36 -12 60.5 -45.5t24.5 -86.5q0 -52 -18 -97.5t-47 -72.5q-33 -31 -79.5 -42.5t-101.5 -11.5h-223zM254 75q45 0 75.5 12t47.5 39q14 21 21 51t7 58q0 41 -24.5 63t-81.5 22h-112
l-52 -245h119zM313 396q32 0 53.5 8.5t35.5 24.5q16 17 23.5 45.5t7.5 55.5q0 38 -23.5 61t-75.5 23h-86l-47 -218h112z" />
    <glyph glyph-name="C" unicode="C" horiz-adv-x="534" 
d="M283 -13q-110 0 -164.5 64t-54.5 176q0 37 6 79.5t16 85t24 81.5t29 69q40 78 100 119t148 41q57 0 99 -16.5t73 -45.5l-46 -64q-25 21 -57 36t-73 15q-59 0 -96.5 -28t-63.5 -87q-11 -25 -22.5 -61.5t-20.5 -77t-15 -81t-6 -73.5q0 -80 30.5 -118.5t102.5 -38.5
q44 0 83 17t68 37l22 -73q-38 -24 -84.5 -40t-97.5 -16z" />
    <glyph glyph-name="D" unicode="D" horiz-adv-x="591" 
d="M185 689h156q107 0 165 -51t58 -166q0 -35 -5 -75.5t-13 -81t-19.5 -78.5t-24.5 -68q-22 -51 -49.5 -83.5t-61 -51.5t-73.5 -26.5t-87 -7.5h-192zM243 76q36 0 63 6t47.5 20.5t36 38.5t28.5 60q10 27 19 62.5t16.5 73t12 73t4.5 64.5q0 73 -30 107t-96 34h-85l-115 -539
h99z" />
    <glyph glyph-name="E" unicode="E" horiz-adv-x="493" 
d="M185 689h342l-16 -76h-253l-45 -215h199l-16 -75h-198l-53 -246h265l-16 -77h-355z" />
    <glyph glyph-name="F" unicode="F" horiz-adv-x="479" 
d="M186 689h333l-16 -77h-244l-45 -212h198l-16 -77h-198l-69 -323h-89z" />
    <glyph glyph-name="G" unicode="G" horiz-adv-x="597" 
d="M398 0v47q-26 -26 -61 -42.5t-78 -16.5q-96 0 -144 62t-49 172q0 37 5 79t15 84.5t23 83t30 73.5q39 78 99.5 119t146.5 41q61 0 102 -18.5t72 -46.5l-45 -68q-27 26 -59 41.5t-75 15.5q-58 0 -94 -27.5t-62 -87.5q-12 -28 -23.5 -66.5t-20 -79.5t-14 -82t-5.5 -74
q0 -72 27 -109.5t87 -37.5q41 0 70 16.5t54 41.5l35 169h-126l17 77h213l-78 -366h-62z" />
    <glyph glyph-name="H" unicode="H" horiz-adv-x="606" 
d="M185 689h89l-60 -284h241l60 284h89l-146 -689h-89l70 328h-241l-70 -328h-89z" />
    <glyph glyph-name="I" unicode="I" horiz-adv-x="326" 
d="M5 45l69 9l124 580l-66 10l9 45h225l-9 -45l-71 -10l-123 -580l67 -9l-10 -45h-225z" />
    <glyph glyph-name="J" unicode="J" horiz-adv-x="285" 
d="M-65 -84q21 8 40 18t34.5 25t27.5 37.5t19 56.5l135 636h90l-137 -648q-9 -42 -24 -72t-38 -51t-55 -36t-76 -28z" />
    <glyph glyph-name="K" unicode="K" horiz-adv-x="534" 
d="M215 364l274 325h103l-282 -333l143 -356h-94zM186 689h89l-146 -689h-89z" />
    <glyph glyph-name="L" unicode="L" horiz-adv-x="459" 
d="M186 689h89l-129 -611h228l-17 -78h-317z" />
    <glyph glyph-name="M" unicode="M" horiz-adv-x="736" 
d="M186 689h127l35 -341q5 -48 4.5 -90t-3.5 -69h2q8 26 22 65.5t39 87.5l182 347h138l-146 -689h-89l85 400q17 84 31.5 142t19.5 77h-2q-3 -8 -12.5 -29.5t-22.5 -49.5t-29 -60t-32 -62l-159 -290h-82l-34 286q-4 31 -6 64t-3 61.5t-1 50v29.5h-2q-2 -9 -5 -28.5t-8 -48
t-11.5 -63t-14.5 -73.5l-86 -406h-83z" />
    <glyph glyph-name="N" unicode="N" horiz-adv-x="605" 
d="M186 689h90l101 -403q12 -47 19 -91.5t11 -79.5h1q5 35 12.5 88.5t19.5 110.5l79 375h82l-146 -689h-93l-92 372q-9 35 -14.5 62t-9.5 49.5t-6.5 42t-4.5 38.5h-2q-4 -37 -13 -92.5t-22 -116.5l-75 -355h-83z" />
    <glyph glyph-name="O" unicode="O" horiz-adv-x="619" 
d="M278 -13q-100 0 -156.5 64.5t-56.5 183.5q0 43 8 91t21 94t30 87.5t36 70.5q80 124 216 124q105 0 160 -65.5t55 -182.5q0 -46 -8 -95.5t-21.5 -97t-31 -89.5t-37.5 -72q-39 -58 -91.5 -85.5t-123.5 -27.5zM282 58q54 0 89.5 28.5t61.5 89.5q12 29 23.5 67t20.5 78.5
t14.5 81t5.5 74.5q-1 75 -31 114t-92 39q-54 0 -89 -28.5t-62 -89.5q-13 -29 -24.5 -67.5t-20.5 -79.5t-14.5 -80.5t-5.5 -70.5q0 -156 124 -156z" />
    <glyph glyph-name="P" unicode="P" horiz-adv-x="542" 
d="M186 689h171q50 0 86 -12.5t59.5 -35.5t35 -54.5t11.5 -69.5q0 -47 -13.5 -93t-38.5 -77q-30 -39 -78 -57.5t-112 -18.5h-120l-58 -271h-89zM312 347q38 0 67 11t46 40q14 21 21 54.5t7 64.5q0 48 -25 71.5t-82 23.5h-87l-56 -265h109z" />
    <glyph glyph-name="Q" unicode="Q" horiz-adv-x="619" 
d="M493 99q-27 -40 -59.5 -60.5t-70.5 -29.5l175 -46l-37 -86l-297 120q-69 28 -104 86t-35 152q0 43 8 91t21 94t30 87.5t36 70.5q80 124 216 124q105 0 160 -65.5t55 -182.5q0 -46 -8 -96t-21.5 -97.5t-31 -89.5t-37.5 -72zM282 58q54 0 89.5 28.5t61.5 89.5
q12 29 23.5 67t20.5 78.5t14.5 81t5.5 74.5q-1 75 -31 114t-92 39q-54 0 -89 -28.5t-62 -89.5q-13 -29 -24.5 -67.5t-20.5 -79.5t-14.5 -80.5t-5.5 -70.5q0 -156 124 -156z" />
    <glyph glyph-name="R" unicode="R" horiz-adv-x="553" 
d="M186 689h160q94 0 143 -44.5t49 -121.5q0 -50 -12.5 -86.5t-35 -62t-53.5 -40.5t-68 -21q23 -11 35.5 -35.5t23.5 -79.5l41 -198h-90l-40 194q-6 31 -15 50.5t-20.5 31t-26 15.5t-32.5 4h-53l-63 -295h-89zM306 370q70 0 101 32q9 10 16 24t11.5 30.5t7 33.5t2.5 32
q0 42 -24 65t-83 23h-78l-51 -240h98z" />
    <glyph glyph-name="S" unicode="S" horiz-adv-x="500" 
d="M224 -13q-34 0 -66.5 6.5t-61 17t-52 25t-40.5 30.5l37 69q43 -35 85 -53t91 -18q65 0 97 35.5t32 87.5q0 25 -6 43t-18.5 34t-33 30.5t-49.5 32.5q-34 20 -57 39.5t-37.5 41t-21 47t-6.5 57.5q0 46 14.5 81.5t41 59.5t62.5 36.5t79 12.5q64 0 110 -17.5t77 -39.5
l-31 -72q-30 22 -72 37.5t-86 15.5q-51 1 -79.5 -27t-28.5 -82q0 -20 3.5 -35t13.5 -28t27 -26t44 -29q32 -19 58.5 -39t46 -44.5t30.5 -54.5t11 -69t-11 -75.5t-36.5 -65.5t-66 -46.5t-100.5 -17.5z" />
    <glyph glyph-name="T" unicode="T" horiz-adv-x="483" 
d="M274 611h-160l16 78h405l-16 -78h-156l-130 -611h-89z" />
    <glyph glyph-name="U" unicode="U" horiz-adv-x="615" 
d="M227 -13q-29 0 -56.5 8t-49 26t-35 48t-13.5 74q0 29 8 69l101 477h89l-101 -475q-9 -42 -9 -71q0 -41 19 -59.5t61 -18.5q24 0 48 6.5t45 17t38.5 22.5t30.5 24l118 554h89l-146 -689h-64v68q-35 -33 -80 -57t-93 -24z" />
    <glyph glyph-name="V" unicode="V" horiz-adv-x="549" 
d="M122 689h93l25 -402q3 -50 4 -90.5t0 -76.5h2q7 18 14.5 34.5t15.5 35.5t18 41t23 49l196 409h96l-345 -689h-89z" />
    <glyph glyph-name="W" unicode="W" horiz-adv-x="785" 
d="M126 689h92l-6 -347q-2 -81 -6 -146.5t-8 -102.5h2q12 37 35 101t52 136l147 359h102l-4 -361q-1 -66 -5.5 -127t-9.5 -108h2q16 46 38.5 110t54.5 145l137 341h92l-291 -689h-108l5 342q0 31 1.5 64.5t3.5 64t4 56.5t4 42h-2q-5 -13 -13 -38t-18.5 -56t-23 -64.5
t-25.5 -64.5l-145 -346h-110z" />
    <glyph glyph-name="X" unicode="X" horiz-adv-x="534" 
d="M238 374l-91 315h96l58 -243l165 243h103l-228 -320l111 -369h-96l-77 297l-205 -297h-103z" />
    <glyph glyph-name="Y" unicode="Y" horiz-adv-x="519" 
d="M220 279l-103 410h98l48 -223q6 -31 10 -56.5t6 -51.5q13 26 26.5 51.5t33.5 55.5l142 224h103l-275 -416l-58 -273h-90z" />
    <glyph glyph-name="Z" unicode="Z" horiz-adv-x="479" 
d="M1 68l399 543h-267l16 78h376l-15 -71l-398 -540h283l-17 -78h-392z" />
    <glyph glyph-name="bracketleft" unicode="[" horiz-adv-x="310" 
d="M186 733h178l-14 -66h-94l-161 -756h94l-14 -66h-178z" />
    <glyph glyph-name="backslash" unicode="\" horiz-adv-x="370" 
d="M100 761h78l141 -910h-78z" />
    <glyph glyph-name="bracketright" unicode="]" horiz-adv-x="310" 
d="M-27 -89h94l161 756h-94l14 66h177l-189 -888h-177z" />
    <glyph glyph-name="asciicircum" unicode="^" horiz-adv-x="483" 
d="M296 708h80l83 -268h-79l-58 183l-134 -183h-87z" />
    <glyph glyph-name="underscore" unicode="_" horiz-adv-x="331" 
d="M-60 -60h315l-16 -75h-315z" />
    <glyph glyph-name="grave" unicode="`" horiz-adv-x="533" 
d="M204 668l55 74l169 -126l-37 -52z" />
    <glyph glyph-name="a" unicode="a" horiz-adv-x="513" 
d="M168 -13q-29 0 -52 8.5t-40 28t-26 51t-9 77.5q0 26 3.5 59t11 67t19 67t26.5 59q31 54 72.5 82t95.5 28q42 0 70.5 -16.5t54.5 -45.5l27 49h59l-79 -374q-7 -32 -10 -65t-3 -62h-75v63q-32 -32 -68.5 -54t-76.5 -22zM181 54q38 0 70.5 20t64.5 46l58 275q-8 9 -17 17.5
t-20.5 16t-26.5 12t-35 4.5q-29 0 -53 -14t-44 -51q-12 -21 -21.5 -51.5t-16.5 -63t-11 -64t-4 -54.5q0 -49 14 -71t42 -22z" />
    <glyph glyph-name="b" unicode="b" horiz-adv-x="518" 
d="M243 -13q-42 0 -74 17t-54 46l-26 -50h-60l154 724h83l-59 -276q26 24 63.5 45t82.5 21q25 0 47 -9t38.5 -28.5t25.5 -50.5t9 -75q0 -27 -4 -60t-11.5 -67.5t-19 -68.5t-26.5 -61q-31 -56 -74 -81.5t-95 -25.5zM227 52q35 0 61.5 14.5t47.5 53.5q11 21 21 52t17 64
t11 64.5t4 54.5q0 48 -16 68t-43 20q-38 0 -72.5 -19.5t-65.5 -45.5l-60 -282q13 -14 37 -29t58 -15z" />
    <glyph glyph-name="c" unicode="c" horiz-adv-x="430" 
d="M205 -11q-81 0 -124 47t-43 137q0 31 5.5 66t15 69t22.5 64t27 52q33 50 76.5 70.5t99.5 19.5q42 0 75 -13t56 -34l-39 -61q-23 16 -46 28t-52 12q-38 0 -63.5 -16t-44.5 -60q-9 -20 -17 -46t-14.5 -54t-10.5 -55.5t-4 -49.5q0 -62 22.5 -85.5t67.5 -23.5q35 0 64 16
t55 35l30 -57q-29 -27 -71 -44t-87 -17z" />
    <glyph glyph-name="d" unicode="d" horiz-adv-x="518" 
d="M168 -13q-29 0 -52 8.5t-40 28t-26 51t-9 77.5q0 26 3.5 59t11 67t19 67t26.5 59q31 54 72.5 82t95.5 28q42 0 73.5 -16.5t50.5 -38.5l57 265h83l-126 -597q-7 -32 -10 -65t-3 -62h-75v63q-33 -32 -72 -54t-79 -22zM181 54q38 0 73.5 20t67.5 46l58 275q-16 17 -40 33.5
t-65 16.5q-29 0 -53 -14t-44 -51q-12 -21 -21.5 -51.5t-16.5 -63t-11 -64t-4 -54.5q0 -49 14 -71t42 -22z" />
    <glyph glyph-name="e" unicode="e" horiz-adv-x="458" 
d="M202 -13q-78 0 -120.5 48t-42.5 139q0 31 5.5 65t15.5 67t23 62.5t28 50.5q35 51 81 73t95 22q75 0 111 -35.5t36 -88.5q0 -58 -31 -93t-77.5 -54t-99.5 -25.5t-98 -6.5q-2 -14 -3 -27t-1 -24q0 -55 21 -80.5t69 -25.5q38 0 70 16t64 38l19 -63q-39 -29 -79 -43.5
t-86 -14.5zM173 367q-10 -18 -18 -41.5t-15 -49.5q35 0 72 3.5t68 14.5t50.5 32t19.5 56q0 34 -15 51t-52 17q-32 0 -59.5 -19t-50.5 -64z" />
    <glyph glyph-name="f" unicode="f" horiz-adv-x="292" 
d="M81 501h55l17 85q8 42 23.5 70t35.5 44.5t43.5 23t48.5 6.5q33 0 52.5 -6.5t34.5 -18.5l-22 -63q-14 9 -30 14.5t-38 5.5q-51 0 -66 -80l-16 -81h90l-14 -66h-88l-72 -375q-6 -32 -14.5 -59.5t-23 -51.5t-36.5 -45.5t-55 -40.5l-40 55q12 9 25 21.5t25 30.5t22.5 44.5
t17.5 64.5l68 356h-57z" />
    <glyph glyph-name="g" unicode="g" horiz-adv-x="518" 
d="M191 -212q-60 0 -103.5 15t-82.5 36l20 60q38 -19 76 -31t85 -12q45 0 67 21.5t30 61.5l24 113q-29 -26 -64 -45.5t-75 -19.5q-29 0 -52 8.5t-40 28t-26 51t-9 77.5q0 26 3.5 59t11 67t19 67t26.5 59q31 54 72.5 82t95.5 28q42 0 73.5 -16.5t57.5 -45.5l27 49h58
l-120 -566q-17 -80 -61 -113.5t-113 -33.5zM181 54q38 0 73.5 20t67.5 46l58 275q-16 17 -40 33.5t-65 16.5q-29 0 -53 -14t-44 -51q-12 -21 -21.5 -51.5t-16.5 -63t-11 -64t-4 -54.5q0 -49 13.5 -71t42.5 -22z" />
    <glyph glyph-name="h" unicode="h" horiz-adv-x="508" 
d="M183 724h83l-59 -279q32 26 67.5 47.5t80.5 21.5t72 -27.5t27 -78.5q0 -10 -1.5 -21t-3.5 -23l-77 -364h-83l76 357q5 23 5 38q0 46 -44 46q-34 0 -65.5 -16t-66.5 -41l-82 -384h-83z" />
    <glyph glyph-name="i" unicode="i" horiz-adv-x="272" 
d="M139 434l-66 12l11 55h152l-106 -501h-83zM225 598q-24 0 -40 16.5t-16 40.5q0 25 16.5 41.5t40.5 16.5q25 0 41 -16t16 -42q0 -24 -16 -40.5t-42 -16.5z" />
    <glyph glyph-name="j" unicode="j" horiz-adv-x="272" 
d="M-52 -147q23 15 39.5 29t28 32t19.5 41.5t15 56.5l89 422l-66 12l11 55h152l-104 -490q-11 -52 -24.5 -86t-32.5 -57.5t-44 -40t-59 -33.5zM225 598q-24 0 -40 16.5t-16 40.5q0 25 16.5 41.5t40.5 16.5q25 0 41 -16t16 -42q0 -24 -16 -40.5t-42 -16.5z" />
    <glyph glyph-name="k" unicode="k" horiz-adv-x="467" 
d="M183 724h83l-153 -724h-84zM186 285l200 217h97l-208 -226l126 -276h-84z" />
    <glyph glyph-name="l" unicode="l" horiz-adv-x="276" 
d="M136 88q-2 -10 -2 -14q0 -22 26 -22q5 0 9.5 0.5t9.5 1.5t10 3v-56q-10 -5 -24.5 -8t-32.5 -3q-79 0 -79 77q0 21 6 51l129 606h83z" />
    <glyph glyph-name="m" unicode="m" horiz-adv-x="742" 
d="M114 402q5 25 6 50.5t1 48.5h71v-60q35 29 73 51t83 22q37 0 59 -20t30 -53q39 32 77.5 52.5t80.5 20.5q44 0 68.5 -26.5t24.5 -74.5q0 -11 -1 -23t-4 -26l-77 -364h-83l76 357q6 25 6 44q0 20 -9 30t-30 10q-32 0 -59.5 -13t-64.5 -39l-83 -389h-83l76 357q6 25 6 43
q0 20 -9 30.5t-30 10.5q-34 0 -61.5 -13.5t-62.5 -38.5l-83 -389h-83z" />
    <glyph glyph-name="n" unicode="n" horiz-adv-x="508" 
d="M355 514q45 0 72 -27.5t27 -78.5q0 -10 -1.5 -21t-3.5 -23l-77 -364h-83l76 357q5 23 5 38q0 46 -44 46q-34 0 -65.5 -16t-66.5 -41l-82 -384h-83l85 402q5 25 6 50.5t1 48.5h71v-64q41 34 80.5 55.5t82.5 21.5z" />
    <glyph glyph-name="o" unicode="o" horiz-adv-x="496" 
d="M212 -12q-85 0 -129 48.5t-44 139.5q0 31 5 65t14 66.5t21 61.5t26 50q35 53 79.5 73.5t95.5 20.5q85 0 129 -48.5t44 -139.5q0 -31 -5 -65t-14 -66.5t-21 -61.5t-26 -50q-35 -53 -79.5 -73.5t-95.5 -20.5zM215 53q35 0 61 15.5t49 63.5q9 18 17 44t14 54t9.5 55.5
t3.5 50.5q0 60 -23 86t-69 26q-35 0 -61 -15.5t-49 -63.5q-9 -18 -17 -44t-14 -54t-9.5 -56t-3.5 -50q0 -60 23 -86t69 -26z" />
    <glyph glyph-name="p" unicode="p" horiz-adv-x="518" 
d="M114 402q5 25 6 50.5t1 48.5h74v-61q31 28 70.5 51t87.5 23q25 0 47 -9t38.5 -28.5t25.5 -50.5t9 -75q0 -27 -4 -60t-11.5 -67.5t-19 -68.5t-26.5 -61q-31 -56 -74 -81.5t-95 -25.5q-42 0 -72 16t-50 39l-52 -243h-83zM227 52q35 0 61.5 14.5t47.5 53.5q11 21 21 52
t17 64t11 64.5t4 54.5q0 48 -16 68t-43 20q-38 0 -72.5 -19.5t-65.5 -45.5l-60 -282q13 -14 37 -29t58 -15z" />
    <glyph glyph-name="q" unicode="q" horiz-adv-x="518" 
d="M307 52q-29 -26 -64 -45.5t-75 -19.5q-29 0 -52 8.5t-40 28t-26 51t-9 77.5q0 26 3.5 59t11 67t19 67t26.5 59q31 54 72.5 82t95.5 28q42 0 73.5 -16.5t57.5 -45.5l27 49h58l-149 -702h-83zM181 54q38 0 73.5 20t67.5 46l58 275q-16 17 -40 33.5t-65 16.5q-29 0 -53 -14
t-44 -51q-12 -21 -21.5 -51.5t-16.5 -63t-11 -64t-4 -54.5q0 -49 14 -71t42 -22z" />
    <glyph glyph-name="r" unicode="r" horiz-adv-x="352" 
d="M114 402q5 25 6 50.5t1 48.5h73v-77q32 37 72 61.5t81 23.5v-90q-33 0 -73 -9.5t-85 -45.5l-77 -364h-83z" />
    <glyph glyph-name="s" unicode="s" horiz-adv-x="427" 
d="M174 -13q-25 0 -49 4.5t-45.5 12t-38.5 17.5t-29 20l28 61q26 -20 62 -34.5t75 -14.5q42 0 68 19t26 63q0 17 -5 29.5t-15.5 23t-26 20.5t-36.5 22q-18 11 -36 23t-32 27.5t-22.5 37t-8.5 51.5q0 37 13 64.5t34.5 45.5t50 26.5t59.5 8.5q43 0 75.5 -11t61.5 -31l-23 -62
q-25 16 -53 27t-61 11q-38 0 -58 -18.5t-20 -56.5q0 -14 4.5 -24.5t13.5 -20t23 -18.5t34 -21q23 -14 43.5 -26.5t35.5 -29t23.5 -39t8.5 -54.5q0 -76 -48.5 -114.5t-131.5 -38.5z" />
    <glyph glyph-name="t" unicode="t" horiz-adv-x="307" 
d="M83 501h55l29 133l86 15l-32 -148h100l-14 -66h-100l-69 -328q-3 -15 -3 -26q0 -17 8 -23t23 -6q17 0 31.5 5.5t28.5 12.5v-60q-16 -10 -36.5 -16.5t-39.5 -6.5q-47 0 -72.5 23t-25.5 66q0 8 1 17.5t3 19.5l68 322h-55z" />
    <glyph glyph-name="u" unicode="u" horiz-adv-x="508" 
d="M149 -13q-45 0 -72 27.5t-27 78.5q0 10 1.5 21t3.5 23l77 364h83l-76 -357q-5 -23 -5 -37q0 -47 44 -47q34 0 66 16t67 41l81 384h83l-79 -374q-7 -32 -10 -65t-3 -62h-75v62q-34 -29 -74 -52t-85 -23z" />
    <glyph glyph-name="v" unicode="v" horiz-adv-x="452" 
d="M79 501h85l21 -267q3 -42 4.5 -84.5t0.5 -74.5h1q13 36 26.5 73t31.5 73l138 280h88l-262 -501h-80z" />
    <glyph glyph-name="w" unicode="w" horiz-adv-x="664" 
d="M77 501h85l5 -255v-46q0 -24 -1 -45q-1 -25 -1 -49h2q8 23 17 47q8 20 16.5 42.5t16.5 39.5l122 266h86l8 -256q1 -22 1 -46.5t-1 -44.5q-1 -25 -2 -48h2q9 25 19 50q8 21 17 44t17 40l116 261h87l-234 -501h-83l-9 263q-1 18 -1.5 38t-0.5 39v63h-1q-4 -11 -10 -26.5
t-13.5 -33t-15.5 -36t-15 -34.5l-126 -273h-83z" />
    <glyph glyph-name="x" unicode="x" horiz-adv-x="448" 
d="M182 273l-86 228h91l24 -81q10 -32 16 -53t11 -43h2q13 23 25.5 43t32.5 50l55 84h99l-179 -239l96 -262h-90l-36 105q-10 29 -16 49t-11 41h-2q-6 -10 -12 -19t-13 -19t-16 -22t-22 -28l-83 -107h-99z" />
    <glyph glyph-name="y" unicode="y" horiz-adv-x="469" 
d="M-17 -139q61 16 99.5 46.5t64.5 92.5h-15l-49 501h86l23 -295q2 -34 3.5 -70t-0.5 -65h1q11 27 26 63t35 78l142 289h89l-278 -541q-24 -45 -46.5 -75t-47.5 -48.5t-54 -28t-65 -15.5z" />
    <glyph glyph-name="z" unicode="z" horiz-adv-x="421" 
d="M9 78l304 354h-217l14 69h311l-16 -77l-305 -355h238l-15 -69h-331z" />
    <glyph glyph-name="braceleft" unicode="{" horiz-adv-x="364" 
d="M171 -155q-44 0 -74.5 22t-30.5 72q0 20 4 39l42 195q4 17 4 33q0 27 -17.5 37t-54.5 10l16 77q23 0 39.5 2.5t28.5 10t19 21t12 35.5l46 215q14 69 48 94t82 25h82l-14 -66h-64q-27 0 -37 -15.5t-18 -52.5l-46 -217q-5 -26 -13.5 -42.5t-19.5 -27t-25.5 -16t-31.5 -9.5
v-2q20 -6 35 -21t15 -49q0 -19 -4 -39l-41 -197q-2 -11 -3 -18t-1 -17q0 -17 8.5 -25t28.5 -8h56l-14 -66h-57z" />
    <glyph glyph-name="bar" unicode="|" horiz-adv-x="260" 
d="M109 761h62v-910h-62v910z" />
    <glyph glyph-name="braceright" unicode="}" horiz-adv-x="364" 
d="M-27 -89h64q27 0 37 15.5t18 52.5l47 222q5 25 13.5 42t19.5 27.5t25.5 16t31.5 9.5v2q-21 6 -35.5 21.5t-14.5 50.5q0 18 4 37l40 192q4 19 4 35q0 17 -8.5 25t-28.5 8h-56l14 66h57q44 0 74.5 -22t30.5 -72q0 -20 -4 -39l-41 -190q-4 -17 -4 -33q0 -27 17.5 -37
t54.5 -10l-16 -77q-23 0 -39.5 -2.5t-28.5 -10t-19.5 -21t-11.5 -35.5l-47 -220q-14 -69 -48 -94t-82 -25h-82z" />
    <glyph glyph-name="asciitilde" unicode="~" horiz-adv-x="503" 
d="M77 288q59 101 132 101q22 0 39 -6.5t31.5 -14.5t28.5 -14.5t31 -6.5q20 0 35 16.5t31 36.5l50 -33q-59 -101 -133 -101q-22 0 -39 6.5t-31.5 14.5t-29 14.5t-30.5 6.5q-20 0 -34.5 -16.5t-31.5 -36.5z" />
    <glyph glyph-name="Zcaron" horiz-adv-x="479" 
d="M1 68l399 543h-267l16 78h376l-15 -71l-398 -540h283l-17 -78h-392zM218 866l44 35l89 -84l130 84l33 -40l-144 -129h-56z" />
    <glyph glyph-name="Zcaron" unicode="&#x17d;" horiz-adv-x="479" 
d="M1 68l399 543h-267l16 78h376l-15 -71l-398 -540h283l-17 -78h-392zM218 866l44 35l89 -84l130 84l33 -40l-144 -129h-56z" />
    <glyph glyph-name="zcaron" horiz-adv-x="421" 
d="M9 78l304 354h-217l14 69h311l-16 -77l-305 -355h238l-15 -69h-331zM154 704l44 35l89 -84l130 84l33 -40l-144 -129h-56z" />
    <glyph glyph-name="zcaron" unicode="&#x17e;" horiz-adv-x="421" 
d="M9 78l304 354h-217l14 69h311l-16 -77l-305 -355h238l-15 -69h-331zM154 704l44 35l89 -84l130 84l33 -40l-144 -129h-56z" />
    <glyph glyph-name="uni00A0" unicode="&#xa0;" horiz-adv-x="220" 
 />
    <glyph glyph-name="exclamdown" unicode="&#xa1;" horiz-adv-x="272" 
d="M117 292h64l-85 -479h-105zM175 379q-28 0 -46 18.5t-18 46.5t18 46.5t46 18.5q27 0 45.5 -18.5t18.5 -46.5t-18.5 -46.5t-45.5 -18.5z" />
    <glyph glyph-name="cent" unicode="&#xa2;" horiz-adv-x="439" 
d="M163 -6q-59 13 -89.5 58t-30.5 121q0 31 5.5 66t15 69t22.5 64t27 52q31 46 70.5 67t90.5 23l26 122h59l-27 -126q52 -12 91 -52l-32 -60q-19 17 -37.5 28t-38.5 16l-81 -385q30 4 56.5 19.5t50.5 32.5l19 -63q-29 -26 -63 -40.5t-76 -16.5l-25 -120h-59zM129 165
q0 -48 12.5 -72t38.5 -32l81 384q-29 -4 -49 -20.5t-37 -54.5q-9 -20 -17 -46t-14.5 -54t-10.5 -55.5t-4 -49.5z" />
    <glyph glyph-name="sterling" unicode="&#xa3;" horiz-adv-x="505" 
d="M82 359h60q-3 19 -5.5 39t-2.5 41q0 55 16 94.5t43.5 65t65 37.5t80.5 12q56 0 95.5 -16.5t77.5 -45.5l-34 -67q-29 22 -62.5 38.5t-80.5 16.5q-59 1 -86 -34t-27 -99q0 -20 2 -41t5 -41h188l-16 -75h-163q1 -8 1.5 -15.5t0.5 -15.5q0 -57 -23.5 -101.5t-80.5 -76.5h283
l-16 -75h-395l17 81q76 29 104.5 71t28.5 97q0 17 -3 35h-89z" />
    <glyph glyph-name="currency" unicode="&#xa4;" horiz-adv-x="540" 
d="M13 122l88 80q-12 31 -12 75q0 13 1.5 26.5t3.5 27.5q12 67 41 112q-13 16 -24.5 30t-19.5 25q-11 12 -19 24l61 48q15 -19 27 -34q5 -7 9.5 -13t8.5 -11q4 -6 9 -11q31 23 65 33t67 8q30 -2 58 -12t51 -31q16 14 30 27t25 23q12 11 23 21l47 -53q-12 -11 -26 -23
q-12 -11 -27.5 -25t-32.5 -30q5 -15 8 -31t3 -39q0 -14 -1 -28t-4 -30q-12 -68 -43 -115l63 -79l-60 -48l-28 34q-10 12 -19 24q-4 6 -9 11q-30 -22 -64 -31.5t-66 -7.5q-29 2 -56.5 12t-50.5 31q-17 -15 -31.5 -28.5t-25.5 -23.5q-13 -12 -24 -22zM256 166q25 -1 45 6
t35.5 24.5t27 46.5t19.5 73q4 20 5.5 36t1.5 30q0 51 -21 71t-60 22q-25 1 -44.5 -6t-35 -24.5t-27 -47t-19.5 -73.5q-4 -20 -5.5 -36t-1.5 -30q0 -50 21 -70t59 -22z" />
    <glyph glyph-name="yen" unicode="&#xa5;" horiz-adv-x="584" 
d="M65 225h174l5 24l-17 61h-144l14 65l112 -1l-71 262l97 -1l50 -205q7 -29 10.5 -58t6.5 -55q14 26 28.5 55.5t33.5 56.5l141 206l100 1l-184 -262l115 1l-14 -65h-146l-42 -61l-5 -24h175l-14 -65h-175l-34 -160h-90l34 160h-174z" />
    <glyph glyph-name="brokenbar" unicode="&#xa6;" horiz-adv-x="252" 
d="M203 761h60l-82 -384h-60zM91 235h60l-82 -384h-60z" />
    <glyph glyph-name="section" unicode="&#xa7;" horiz-adv-x="538" 
d="M208 -168q-63 0 -111.5 19t-72.5 40l29 66q28 -21 66.5 -38.5t91.5 -17.5q44 0 67 22.5t23 63.5q0 21 -10.5 36.5t-27 28t-38.5 23.5l-44 22q-24 12 -47.5 25.5t-41.5 31.5t-29 42t-11 57q0 119 141 146q-19 18 -30.5 41.5t-11.5 57.5q0 33 10.5 60.5t32 47.5t54 31.5
t76.5 11.5q57 0 96 -15t66 -35l-37 -63q-31 21 -61 32t-65 11q-49 0 -69.5 -19.5t-20.5 -53.5q0 -18 8 -31t21.5 -23.5t32.5 -20t42 -19.5q25 -12 51 -25.5t47 -32t34 -44t13 -60.5q0 -68 -36 -103t-107 -47q21 -19 34.5 -44t13.5 -60q0 -78 -48.5 -121t-130.5 -43zM258 357
q-66 -6 -94 -29t-28 -64q0 -19 6 -32.5t18 -25t30.5 -22t42.5 -22.5l40 -20q124 10 124 98q0 18 -7 31.5t-18.5 24.5t-27.5 20t-34 17z" />
    <glyph glyph-name="dieresis" unicode="&#xa8;" 
d="M438 569q-23 0 -40 17t-17 41t17 41t40 17t40 -17t17 -41t-17 -41t-40 -17zM247 569q-23 0 -40 17t-17 41t17 41t40 17t40 -17t17 -41t-17 -41t-40 -17z" />
    <glyph glyph-name="copyright" unicode="&#xa9;" horiz-adv-x="742" 
d="M351 -18q-66 0 -118 22t-88 62t-55 96t-19 124q0 45 8.5 91t23.5 88.5t36.5 80t47.5 67.5q49 55 112 84.5t138 29.5q62 0 112.5 -21.5t86 -60.5t55 -94.5t19.5 -122.5q0 -51 -9 -100t-26 -93.5t-40.5 -83t-52.5 -68.5q-47 -49 -105.5 -75t-125.5 -26zM353 28
q58 0 107.5 23.5t87.5 67.5q24 27 44 63t33.5 76t21 83t7.5 84q0 58 -15 105.5t-43 80.5t-69.5 51t-93.5 18q-65 0 -118.5 -27.5t-93.5 -77.5q-21 -27 -38.5 -61t-29.5 -71.5t-19 -77.5t-7 -78q0 -58 15 -106t44 -82t71 -52.5t96 -18.5zM364 124q-66 0 -104.5 41.5
t-38.5 126.5q0 30 5 62t14 61.5t21.5 55t27.5 43.5q28 35 62 49t71 14q42 0 71 -13t50 -33l-40 -54q-16 15 -35 25t-46 10q-23 0 -42 -9t-35 -35q-9 -15 -17 -37.5t-14 -48t-10 -51.5t-4 -48q0 -54 18 -75t53 -21q24 0 49 11t45 28l30 -52q-56 -50 -131 -50z" />
    <glyph glyph-name="ordfeminine" unicode="&#xaa;" horiz-adv-x="462" 
d="M186 174q-26 0 -47 8t-36 25.5t-23 46t-8 69.5q0 24 3.5 53.5t10 60t16.5 60t24 53.5q56 99 151 99q38 0 64 -15t49 -41l24 44h56l-71 -336q-6 -29 -9 -59t-3 -57h-70v58q-29 -29 -62.5 -49t-68.5 -20zM200 237q34 0 62.5 17t57.5 40l52 248q-14 16 -33.5 29.5
t-55.5 13.5q-26 0 -46.5 -11.5t-38.5 -45.5q-10 -19 -18.5 -46t-15 -56.5t-10 -57.5t-3.5 -49q0 -45 12 -63.5t37 -18.5z" />
    <glyph glyph-name="guillemotleft" unicode="&#xab;" horiz-adv-x="508" 
d="M242 256l182 214l56 -44l-147 -183l77 -187l-70 -29zM53 256l182 214l56 -44l-147 -183l77 -187l-70 -29z" />
    <glyph glyph-name="logicalnot" unicode="&#xac;" horiz-adv-x="475" 
d="M322 289h-244l16 73h323l-46 -214h-79z" />
    <glyph glyph-name="uni00AD" unicode="&#xad;" horiz-adv-x="292" 
d="M63 315h188l-19 -89h-188z" />
    <glyph glyph-name="registered" unicode="&#xae;" horiz-adv-x="533" 
d="M283 194q-46 0 -83 15t-62.5 43t-39 67.5t-13.5 87.5q0 42 9 82.5t25.5 75.5t40 64t51.5 48q56 39 125 39q44 0 80 -15t61.5 -42.5t39.5 -66.5t14 -87q0 -59 -16.5 -112t-44.5 -94q-34 -51 -82 -78t-105 -27zM283 240q48 0 85.5 22.5t63.5 64.5q22 35 34.5 84.5
t12.5 95.5q0 75 -37 118.5t-106 43.5q-31 0 -58 -8.5t-49 -26.5q-21 -17 -38 -42t-29 -55.5t-18.5 -65t-6.5 -70.5q0 -74 36.5 -117.5t109.5 -43.5zM252 602h77q45 0 65 -21.5t20 -52.5q0 -38 -17.5 -58.5t-48.5 -25.5q12 -5 17 -17.5t8 -35.5l10 -77h-56l-8 82
q-2 23 -9 29.5t-19 6.5h-18l-25 -118h-57zM313 477q23 0 33 11.5t10 34.5q0 14 -7 22t-23 8h-27l-17 -76h31z" />
    <glyph glyph-name="macron" unicode="&#xaf;" 
d="M230 688h249l-15 -72h-249z" />
    <glyph glyph-name="degree" unicode="&#xb0;" horiz-adv-x="391" 
d="M237 359q-64 0 -102 37.5t-38 105.5q0 39 13 76.5t35 62.5q23 26 54 39.5t68 13.5q67 0 103 -38.5t37 -101.5q0 -31 -9 -65.5t-26 -59.5q-23 -33 -57 -51.5t-78 -18.5zM239 414q52 0 76 47q10 20 15.5 48t5.5 51q0 42 -18.5 60.5t-52.5 18.5q-41 0 -63 -26
q-8 -9 -14.5 -23.5t-11 -31t-7 -33.5t-2.5 -32q0 -42 18.5 -60.5t53.5 -18.5z" />
    <glyph glyph-name="plusminus" unicode="&#xb1;" horiz-adv-x="534" 
d="M234 286h-156l15 73h156l32 148h79l-32 -148h155l-15 -73h-155l-30 -138h-79zM38 104h390l-15 -73h-390z" />
    <glyph glyph-name="twosuperior" unicode="&#xb2;" horiz-adv-x="381" 
d="M57 275q76 49 123.5 85t74 64.5t36 53t9.5 49.5q0 26 -15 42t-41 16q-31 0 -51.5 -8t-43.5 -22l-30 49q29 22 62 34.5t73 12.5q57 0 92 -34.5t35 -88.5q0 -32 -12.5 -62t-40.5 -61t-73.5 -64t-111.5 -70h191l-14 -63h-277z" />
    <glyph glyph-name="threesuperior" unicode="&#xb3;" horiz-adv-x="371" 
d="M173 163q-40 0 -73 9t-60 22l14 61q26 -10 58.5 -17.5t62.5 -7.5q51 0 71 26.5t20 74.5q0 32 -19 46.5t-64 14.5h-33l13 61h32q51 0 72 17t21 56q0 26 -18.5 42.5t-57.5 16.5q-25 0 -46 -5.5t-43 -13.5l-18 56q26 11 56 19.5t65 8.5q30 0 56 -8t44.5 -23t29.5 -36.5
t11 -48.5q0 -42 -19.5 -71.5t-64.5 -43.5q32 -12 48.5 -37.5t16.5 -57.5q0 -71 -43.5 -116t-131.5 -45z" />
    <glyph glyph-name="acute" unicode="&#xb4;" 
d="M241 617l197 129l39 -80l-207 -102z" />
    <glyph glyph-name="mu" unicode="&#xb5;" horiz-adv-x="514" 
d="M159 -13q-33 0 -49 16l-43 -204h-84l149 702h83l-76 -357q-9 -42 -0.5 -63t39.5 -21q34 0 66 16t67 41l81 384h83l-79 -374q-7 -32 -10 -65t-3 -62h-75v62q-37 -31 -76 -53t-73 -22z" />
    <glyph glyph-name="paragraph" unicode="&#xb6;" horiz-adv-x="558" 
d="M258 347h-5q-68 0 -107 40t-39 104q0 49 16 86.5t45 62t68.5 37t86.5 12.5h240l-164 -776h-75l149 704h-83l-149 -704h-75z" />
    <glyph glyph-name="periodcentered" unicode="&#xb7;" horiz-adv-x="268" 
d="M150 268q-27 0 -46 19t-19 47t19 47t46 19q28 0 46.5 -19t18.5 -47t-18.5 -47t-46.5 -19z" />
    <glyph glyph-name="cedilla" unicode="&#xb8;" 
d="M183 -213q-27 0 -47 7.5t-34 18.5l24 43q13 -8 25 -12.5t29 -4.5q22 0 31 10t9 27q0 13 -9 22t-28 9q-13 0 -20.5 -1t-15.5 -3l52 97h53l-29 -51q32 -8 45.5 -26.5t13.5 -49.5q0 -15 -5 -30.5t-16 -27.5t-30.5 -20t-47.5 -8z" />
    <glyph glyph-name="onesuperior" unicode="&#xb9;" horiz-adv-x="350" 
d="M67 268h84l58 272l-92 -32l-13 43l148 94h55l-80 -377h82l-13 -60h-242z" />
    <glyph glyph-name="ordmasculine" unicode="&#xba;" horiz-adv-x="459" 
d="M233 174q-74 0 -115.5 45t-41.5 126q0 28 4.5 58.5t12.5 60t18.5 55.5t23.5 45q32 48 73 66.5t87 18.5q74 0 116 -44t42 -126q0 -28 -4.5 -58t-12.5 -59.5t-18.5 -55.5t-23.5 -45q-32 -48 -73.5 -67.5t-87.5 -19.5zM236 237q15 0 28.5 3t25.5 10.5t22.5 21t20.5 35.5
q8 16 15 39t12.5 48t9 50t3.5 45q0 54 -20 75.5t-61 21.5q-15 0 -28.5 -2.5t-25 -10t-22 -20.5t-20.5 -35q-8 -17 -15 -39.5t-12.5 -47.5t-9 -50t-3.5 -45q0 -54 19.5 -76.5t60.5 -22.5z" />
    <glyph glyph-name="guillemotright" unicode="&#xbb;" horiz-adv-x="509" 
d="M213 71l147 183l-77 187l70 29l98 -229l-182 -214zM24 71l147 183l-77 187l70 29l98 -229l-182 -214z" />
    <glyph glyph-name="onequarter" unicode="&#xbc;" horiz-adv-x="937" 
d="M518 136l201 298h81l-206 -304h139l37 172l78 14l-40 -186h49l-14 -64h-49l-21 -102h-75l21 102h-216zM67 268h84l58 272l-92 -32l-13 43l148 94h55l-80 -377h82l-13 -60h-242zM677 636h75l-468 -636h-75z" />
    <glyph glyph-name="onehalf" unicode="&#xbd;" horiz-adv-x="947" 
d="M579 67q76 49 123.5 85t74 64.5t36 53t9.5 49.5q0 26 -15 42t-41 16q-31 0 -51.5 -8t-43.5 -22l-30 49q29 22 62 34.5t73 12.5q57 0 92 -34.5t35 -88.5q0 -32 -12.5 -62t-40.5 -61t-73.5 -64t-111.5 -70h191l-14 -63h-277zM67 268h84l58 272l-92 -32l-13 43l148 94h55
l-80 -377h82l-13 -60h-242zM677 636h75l-468 -636h-75z" />
    <glyph glyph-name="threequarters" unicode="&#xbe;" horiz-adv-x="956" 
d="M537 136l201 298h81l-206 -304h139l37 172l78 14l-40 -186h49l-14 -64h-49l-21 -102h-75l21 102h-216zM173 163q-40 0 -73 9t-60 22l14 61q26 -10 58.5 -17.5t62.5 -7.5q51 0 71 26.5t20 74.5q0 32 -19 46.5t-64 14.5h-33l13 61h32q51 0 72 17t21 56q0 26 -18.5 42.5
t-57.5 16.5q-25 0 -46 -5.5t-43 -13.5l-18 56q25 12 55.5 20t65.5 8q30 0 56 -8t44.5 -23t29.5 -36.5t11 -48.5q0 -42 -19.5 -71.5t-64.5 -43.5q32 -12 48.5 -37.5t16.5 -57.5q0 -71 -43.5 -116t-131.5 -45zM696 636h75l-468 -636h-75z" />
    <glyph glyph-name="questiondown" unicode="&#xbf;" horiz-adv-x="427" 
d="M145 -199q-75 0 -115.5 37.5t-40.5 103.5q0 41 11.5 69t31.5 48t47 36t58 33q28 15 43.5 35.5t22.5 54.5l15 74h73l-19 -92q-6 -29 -15.5 -50t-22.5 -36.5t-29.5 -27.5t-35.5 -22q-24 -13 -41.5 -24.5t-29 -24.5t-17.5 -30.5t-6 -42.5q0 -30 16.5 -48.5t62.5 -18.5
q33 0 66 10t55 21l16 -67q-29 -16 -66.5 -27t-79.5 -11zM280 379q-28 0 -46 18.5t-18 46.5t18 46.5t46 18.5q27 0 45.5 -18.5t18.5 -46.5t-18.5 -46.5t-45.5 -18.5z" />
    <glyph glyph-name="Agrave" unicode="&#xc0;" horiz-adv-x="558" 
d="M324 690h99l54 -690h-92l-13 202h-207l-100 -202h-94zM201 276h166l-8 120q-5 73 -5.5 123.5t1.5 91.5h-2q-7 -21 -14 -40.5t-16.5 -42.5t-23 -51.5t-32.5 -68.5zM247 830l55 74l169 -126l-37 -52z" />
    <glyph glyph-name="Aacute" unicode="&#xc1;" horiz-adv-x="558" 
d="M324 690h99l54 -690h-92l-13 202h-207l-100 -202h-94zM201 276h166l-8 120q-5 73 -5.5 123.5t1.5 91.5h-2q-7 -21 -14 -40.5t-16.5 -42.5t-23 -51.5t-32.5 -68.5zM287 779l197 129l39 -80l-207 -102z" />
    <glyph glyph-name="Acircumflex" unicode="&#xc2;" horiz-adv-x="558" 
d="M324 690h99l54 -690h-92l-13 202h-207l-100 -202h-94zM201 276h166l-8 120q-5 73 -5.5 123.5t1.5 91.5h-2q-7 -21 -14 -40.5t-16.5 -42.5t-23 -51.5t-32.5 -68.5zM234 775l144 129h56l96 -134l-44 -35l-89 84l-130 -84z" />
    <glyph glyph-name="Atilde" unicode="&#xc3;" horiz-adv-x="558" 
d="M324 690h99l54 -690h-92l-13 202h-207l-100 -202h-94zM201 276h166l-8 120q-5 73 -5.5 123.5t1.5 91.5h-2q-7 -21 -14 -40.5t-16.5 -42.5t-23 -51.5t-32.5 -68.5zM229 771q23 42 49 64.5t57 22.5q19 0 34 -5.5t28 -12.5t25.5 -12.5t27.5 -5.5q17 0 29 11.5t26 28.5
l42 -30q-23 -42 -49.5 -64.5t-58.5 -22.5q-19 0 -33.5 5.5t-27.5 12.5t-25 12.5t-27 5.5q-17 0 -29 -11.5t-27 -28.5z" />
    <glyph glyph-name="Adieresis" unicode="&#xc4;" horiz-adv-x="558" 
d="M324 690h99l54 -690h-92l-13 202h-207l-100 -202h-94zM201 276h166l-8 120q-5 73 -5.5 123.5t1.5 91.5h-2q-7 -21 -14 -40.5t-16.5 -42.5t-23 -51.5t-32.5 -68.5zM481 731q-23 0 -40 17t-17 41t17 41t40 17t40 -17t17 -41t-17 -41t-40 -17zM290 731q-23 0 -40 17t-17 41
t17 41t40 17t40 -17t17 -41t-17 -41t-40 -17z" />
    <glyph glyph-name="Aring" unicode="&#xc5;" horiz-adv-x="558" 
d="M324 690h99l54 -690h-92l-13 202h-207l-100 -202h-94zM201 276h166l-8 120q-5 73 -5.5 123.5t1.5 91.5h-2q-7 -21 -14 -40.5t-16.5 -42.5t-23 -51.5t-32.5 -68.5zM386 725q-45 0 -69 28.5t-24 66.5q0 5 0.5 10t1.5 10q7 41 34.5 68t69.5 27q45 0 68.5 -29t23.5 -68
q0 -3 -0.5 -8t-1.5 -10q-6 -39 -33.5 -67t-69.5 -28zM385 771q22 0 33 14t16 41q1 5 1.5 9.5t0.5 9.5q0 20 -9 32t-28 12q-22 0 -33 -13.5t-16 -41.5q-1 -5 -1.5 -9.5t-0.5 -9.5q0 -20 9 -32t28 -12z" />
    <glyph glyph-name="AE" unicode="&#xc6;" horiz-adv-x="828" 
d="M467 689h383l-16 -76h-253l-45 -215h199l-16 -75h-198l-53 -246h265l-16 -77h-355l39 184h-206l-131 -184h-96zM249 260h168l41 191l38 168h-2l-22.5 -37.5t-21.5 -35.5t-24.5 -37.5t-31.5 -44.5z" />
    <glyph glyph-name="Ccedilla" unicode="&#xc7;" horiz-adv-x="534" 
d="M187 -213q-27 0 -47 7.5t-34 18.5l24 43q13 -8 25 -12.5t29 -4.5q22 0 31 10t9 27q0 13 -9 22t-28 9q-13 0 -20.5 -1t-15.5 -3l51 95q-69 21 -103.5 80t-34.5 149q0 37 6 79.5t16 85t24 81.5t29 69q40 78 100 119t148 41q57 0 99 -16.5t73 -45.5l-46 -64q-25 21 -57 36
t-73 15q-59 0 -96.5 -28t-63.5 -87q-11 -25 -22.5 -61.5t-20.5 -77t-15 -81t-6 -73.5q0 -80 30.5 -118.5t102.5 -38.5q44 0 83 17t68 37l22 -73q-38 -24 -84.5 -40t-97.5 -16q-9 0 -17.5 0.5t-16.5 1.5l-22 -40q32 -8 45.5 -26.5t13.5 -49.5q0 -15 -5 -30.5t-16 -27.5
t-30.5 -20t-47.5 -8z" />
    <glyph glyph-name="Egrave" unicode="&#xc8;" horiz-adv-x="493" 
d="M184 689h342l-16 -76h-253l-45 -215h199l-16 -75h-198l-53 -246h265l-16 -77h-355zM233 830l55 74l169 -126l-37 -52z" />
    <glyph glyph-name="Eacute" unicode="&#xc9;" horiz-adv-x="493" 
d="M185 689h342l-16 -76h-253l-45 -215h199l-16 -75h-198l-53 -246h265l-16 -77h-355zM271 779l197 129l39 -80l-207 -102z" />
    <glyph glyph-name="Ecircumflex" unicode="&#xca;" horiz-adv-x="493" 
d="M183 689h342l-16 -76h-253l-45 -215h199l-16 -75h-198l-53 -246h265l-16 -77h-355zM215 775l144 129h56l96 -134l-44 -35l-89 84l-130 -84z" />
    <glyph glyph-name="Edieresis" unicode="&#xcb;" horiz-adv-x="493" 
d="M179 689h342l-16 -76h-253l-45 -215h199l-16 -75h-198l-53 -246h265l-16 -77h-355zM266 731q-23 0 -40 17t-17 41t17 41t40 17t40 -17t17 -41t-17 -41t-40 -17zM457 731q-23 0 -40 17t-17 41t17 41t40 17t40 -17t17 -41t-17 -41t-40 -17z" />
    <glyph glyph-name="Igrave" unicode="&#xcc;" horiz-adv-x="326" 
d="M-5 45l69 9l124 580l-66 10l9 45h225l-9 -45l-71 -10l-123 -580l67 -9l-10 -45h-225zM131 830l55 74l169 -126l-37 -52z" />
    <glyph glyph-name="Iacute" unicode="&#xcd;" horiz-adv-x="326" 
d="M5 45l69 9l124 580l-66 10l9 45h225l-9 -45l-71 -10l-123 -580l67 -9l-10 -45h-225zM168 779l197 129l39 -80l-207 -102z" />
    <glyph glyph-name="Icircumflex" unicode="&#xce;" horiz-adv-x="326" 
d="M5 45l69 9l124 580l-66 10l9 45h225l-9 -45l-71 -10l-123 -580l67 -9l-10 -45h-225zM118 775l144 129h56l96 -134l-44 -35l-89 84l-130 -84z" />
    <glyph glyph-name="Idieresis" unicode="&#xcf;" horiz-adv-x="326" 
d="M0 45l69 9l124 580l-66 10l9 45h225l-9 -45l-71 -10l-123 -580l67 -9l-10 -45h-225zM174 731q-23 0 -40 17t-17 41t17 41t40 17t40 -17t17 -41t-17 -41t-40 -17zM365 731q-23 0 -40 17t-17 41t17 41t40 17t40 -17t17 -41t-17 -41t-40 -17z" />
    <glyph glyph-name="Eth" unicode="&#xd0;" horiz-adv-x="591" 
d="M60 379h59l66 310h156q107 0 165 -51t58 -166q0 -35 -5 -75.5t-13 -81t-19.5 -78.5t-24.5 -68q-22 -51 -49.5 -83.5t-61 -51.5t-73.5 -26.5t-87 -7.5h-192l64 302h-60zM243 76q36 0 63 6t47.5 20.5t36 38.5t28.5 60q10 27 19 62.5t16.5 73t12 73t4.5 64.5q0 73 -30 107
t-96 34h-85l-51 -236h135l-17 -77h-134l-48 -226h99z" />
    <glyph glyph-name="Ntilde" unicode="&#xd1;" horiz-adv-x="605" 
d="M186 689h90l101 -403q12 -47 19 -91.5t11 -79.5h1q5 35 12.5 88.5t19.5 110.5l79 375h82l-146 -689h-93l-92 372q-9 35 -14.5 62t-9.5 49.5t-6.5 42t-4.5 38.5h-2q-4 -37 -13 -92.5t-22 -116.5l-75 -355h-83zM252 771q23 42 49 64.5t57 22.5q19 0 34 -5.5t28 -12.5
t25.5 -12.5t27.5 -5.5q17 0 29 11.5t26 28.5l42 -30q-23 -42 -49.5 -64.5t-58.5 -22.5q-19 0 -33.5 5.5t-27.5 12.5t-25 12.5t-27 5.5q-17 0 -29 -11.5t-27 -28.5z" />
    <glyph glyph-name="Ograve" unicode="&#xd2;" horiz-adv-x="619" 
d="M278 -13q-100 0 -156.5 64.5t-56.5 183.5q0 43 8 91t21 94t30 87.5t36 70.5q80 124 216 124q105 0 160 -65.5t55 -182.5q0 -46 -8 -95.5t-21.5 -97t-31 -89.5t-37.5 -72q-39 -58 -91.5 -85.5t-123.5 -27.5zM282 58q54 0 89.5 28.5t61.5 89.5q12 29 23.5 67t20.5 78.5
t14.5 81t5.5 74.5q-1 75 -31 114t-92 39q-54 0 -89 -28.5t-62 -89.5q-13 -29 -24.5 -67.5t-20.5 -79.5t-14.5 -80.5t-5.5 -70.5q0 -156 124 -156zM287 830l55 74l169 -126l-37 -52z" />
    <glyph glyph-name="Oacute" unicode="&#xd3;" horiz-adv-x="619" 
d="M278 -13q-100 0 -156.5 64.5t-56.5 183.5q0 43 8 91t21 94t30 87.5t36 70.5q80 124 216 124q105 0 160 -65.5t55 -182.5q0 -46 -8 -95.5t-21.5 -97t-31 -89.5t-37.5 -72q-39 -58 -91.5 -85.5t-123.5 -27.5zM282 58q54 0 89.5 28.5t61.5 89.5q12 29 23.5 67t20.5 78.5
t14.5 81t5.5 74.5q-1 75 -31 114t-92 39q-54 0 -89 -28.5t-62 -89.5q-13 -29 -24.5 -67.5t-20.5 -79.5t-14.5 -80.5t-5.5 -70.5q0 -156 124 -156zM314 779l197 129l39 -80l-207 -102z" />
    <glyph glyph-name="Ocircumflex" unicode="&#xd4;" horiz-adv-x="619" 
d="M278 -13q-100 0 -156.5 64.5t-56.5 183.5q0 43 8 91t21 94t30 87.5t36 70.5q80 124 216 124q105 0 160 -65.5t55 -182.5q0 -46 -8 -95.5t-21.5 -97t-31 -89.5t-37.5 -72q-39 -58 -91.5 -85.5t-123.5 -27.5zM282 58q54 0 89.5 28.5t61.5 89.5q12 29 23.5 67t20.5 78.5
t14.5 81t5.5 74.5q-1 75 -31 114t-92 39q-54 0 -89 -28.5t-62 -89.5q-13 -29 -24.5 -67.5t-20.5 -79.5t-14.5 -80.5t-5.5 -70.5q0 -156 124 -156zM253 775l144 129h56l96 -134l-44 -35l-89 84l-130 -84z" />
    <glyph glyph-name="Otilde" unicode="&#xd5;" horiz-adv-x="619" 
d="M278 -13q-100 0 -156.5 64.5t-56.5 183.5q0 43 8 91t21 94t30 87.5t36 70.5q80 124 216 124q105 0 160 -65.5t55 -182.5q0 -46 -8 -95.5t-21.5 -97t-31 -89.5t-37.5 -72q-39 -58 -91.5 -85.5t-123.5 -27.5zM282 58q54 0 89.5 28.5t61.5 89.5q12 29 23.5 67t20.5 78.5
t14.5 81t5.5 74.5q-1 75 -31 114t-92 39q-54 0 -89 -28.5t-62 -89.5q-13 -29 -24.5 -67.5t-20.5 -79.5t-14.5 -80.5t-5.5 -70.5q0 -156 124 -156zM252 771q23 42 49 64.5t57 22.5q19 0 34 -5.5t28 -12.5t25.5 -12.5t27.5 -5.5q17 0 29 11.5t26 28.5l42 -30
q-23 -42 -49.5 -64.5t-58.5 -22.5q-19 0 -33.5 5.5t-27.5 12.5t-25 12.5t-27 5.5q-17 0 -29 -11.5t-27 -28.5z" />
    <glyph glyph-name="Odieresis" unicode="&#xd6;" horiz-adv-x="619" 
d="M278 -13q-100 0 -156.5 64.5t-56.5 183.5q0 43 8 91t21 94t30 87.5t36 70.5q80 124 216 124q105 0 160 -65.5t55 -182.5q0 -46 -8 -95.5t-21.5 -97t-31 -89.5t-37.5 -72q-39 -58 -91.5 -85.5t-123.5 -27.5zM282 58q54 0 89.5 28.5t61.5 89.5q12 29 23.5 67t20.5 78.5
t14.5 81t5.5 74.5q-1 75 -31 114t-92 39q-54 0 -89 -28.5t-62 -89.5q-13 -29 -24.5 -67.5t-20.5 -79.5t-14.5 -80.5t-5.5 -70.5q0 -156 124 -156zM496 731q-23 0 -40 17t-17 41t17 41t40 17t40 -17t17 -41t-17 -41t-40 -17zM305 731q-23 0 -40 17t-17 41t17 41t40 17t40 -17
t17 -41t-17 -41t-40 -17z" />
    <glyph glyph-name="multiply" unicode="&#xd7;" horiz-adv-x="522" 
d="M71 155l148 138l-102 141l57 48l100 -138l145 136l45 -54l-149 -139l103 -140l-58 -48l-100 137l-145 -136z" />
    <glyph glyph-name="Oslash" unicode="&#xd8;" horiz-adv-x="619" 
d="M10 -46l91 126q-36 60 -36 155q0 43 8 91t21 94t30 87.5t36 70.5q80 124 216 124q88 0 142 -49l81 111l53 -40l-92 -126q31 -59 31 -144q0 -46 -8 -95.5t-21.5 -97t-31 -89.5t-37.5 -72q-39 -58 -91.5 -85.5t-123.5 -27.5q-79 0 -132 41l-83 -114zM155 214q0 -15 1 -28.5
t4 -25.5l310 427q-32 43 -96 43q-54 0 -89 -28.5t-62 -89.5q-13 -29 -25 -67.5t-21.5 -79.5t-15.5 -80.5t-6 -70.5zM282 58q54 0 89.5 28.5t61.5 89.5q12 29 24 67t21.5 78.5t15.5 81t6 74.5q0 17 -3 34l-305 -419q33 -34 90 -34z" />
    <glyph glyph-name="Ugrave" unicode="&#xd9;" horiz-adv-x="615" 
d="M265 830l55 74l169 -126l-37 -52zM227 -13q-29 0 -56.5 8t-49 26t-35 48t-13.5 74q0 29 8 69l101 477h89l-101 -475q-9 -42 -9 -71q0 -41 19 -59.5t61 -18.5q24 0 48 6.5t45 17t38.5 22.5t30.5 24l118 554h89l-146 -689h-64v68q-35 -33 -80 -57t-93 -24z" />
    <glyph glyph-name="Uacute" unicode="&#xda;" horiz-adv-x="615" 
d="M322 779l197 129l39 -80l-207 -102zM227 -13q-29 0 -56.5 8t-49 26t-35 48t-13.5 74q0 29 8 69l101 477h89l-101 -475q-9 -42 -9 -71q0 -41 19 -59.5t61 -18.5q24 0 48 6.5t45 17t38.5 22.5t30.5 24l118 554h89l-146 -689h-64v68q-35 -33 -80 -57t-93 -24z" />
    <glyph glyph-name="Ucircumflex" unicode="&#xdb;" horiz-adv-x="615" 
d="M262 775l144 129h56l96 -134l-44 -35l-89 84l-130 -84zM227 -13q-29 0 -56.5 8t-49 26t-35 48t-13.5 74q0 29 8 69l101 477h89l-101 -475q-9 -42 -9 -71q0 -41 19 -59.5t61 -18.5q24 0 48 6.5t45 17t38.5 22.5t30.5 24l118 554h89l-146 -689h-64v68q-35 -33 -80 -57
t-93 -24z" />
    <glyph glyph-name="Udieresis" unicode="&#xdc;" horiz-adv-x="615" 
d="M312 731q-23 0 -40 17t-17 41t17 41t40 17t40 -17t17 -41t-17 -41t-40 -17zM503 731q-23 0 -40 17t-17 41t17 41t40 17t40 -17t17 -41t-17 -41t-40 -17zM227 -13q-29 0 -56.5 8t-49 26t-35 48t-13.5 74q0 29 8 69l101 477h89l-101 -475q-9 -42 -9 -71q0 -41 19 -59.5
t61 -18.5q24 0 48 6.5t45 17t38.5 22.5t30.5 24l118 554h89l-146 -689h-64v68q-35 -33 -80 -57t-93 -24z" />
    <glyph glyph-name="Yacute" unicode="&#xdd;" horiz-adv-x="519" 
d="M220 279l-103 410h98l48 -223q6 -31 10 -56.5t6 -51.5q13 26 26.5 51.5t33.5 55.5l142 224h103l-275 -416l-58 -273h-90zM274 779l197 129l39 -80l-207 -102z" />
    <glyph glyph-name="Thorn" unicode="&#xde;" horiz-adv-x="542" 
d="M186 689h89l-23 -110h81q50 0 86 -12.5t59.5 -35.5t35 -54.5t11.5 -69.5q0 -47 -13.5 -93t-38.5 -77q-30 -39 -78 -57.5t-112 -18.5h-120l-34 -161h-89zM288 237q38 0 67 11t46 40q14 21 21 54.5t7 64.5q0 48 -25 71.5t-82 23.5h-87l-57 -265h110z" />
    <glyph glyph-name="germandbls" unicode="&#xdf;" horiz-adv-x="533" 
d="M-43 -82q12 9 24.5 21.5t24.5 30.5t22.5 44.5t18.5 64.5l99 460q19 89 66.5 132t120.5 43t113.5 -38t40.5 -96q0 -37 -9.5 -61.5t-24 -40.5t-31.5 -25.5t-31.5 -17.5t-24 -16t-9.5 -20q0 -11 9 -21.5t23 -24.5q14 -13 28.5 -29.5t26 -37.5t19 -46.5t7.5 -55.5
q0 -50 -14.5 -86.5t-40 -60t-59.5 -35t-72 -11.5q-40 0 -65.5 8t-39.5 15l19 64q14 -6 33.5 -12t45.5 -6q48 0 77 31t29 95q0 40 -19.5 69t-44.5 53q-19 19 -31.5 39t-12.5 44q0 26 9.5 42.5t24.5 27.5t31.5 20t31.5 22t24.5 31.5t9.5 48.5q0 64 -79 64q-45 0 -66 -29.5
t-35 -92.5l-100 -465q-7 -32 -15.5 -59t-23 -51.5t-36 -46t-54.5 -40.5z" />
    <glyph glyph-name="agrave" unicode="&#xe0;" horiz-adv-x="513" 
d="M168 -13q-29 0 -52 8.5t-40 28t-26 51t-9 77.5q0 26 3.5 59t11 67t19 67t26.5 59q31 54 72.5 82t95.5 28q42 0 70.5 -16.5t54.5 -45.5l27 49h59l-79 -374q-7 -32 -10 -65t-3 -62h-75v63q-32 -32 -68.5 -54t-76.5 -22zM181 54q38 0 70.5 20t64.5 46l58 275q-8 9 -17 17.5
t-20.5 16t-26.5 12t-35 4.5q-29 0 -53 -14t-44 -51q-12 -21 -21.5 -51.5t-16.5 -63t-11 -64t-4 -54.5q0 -49 14 -71t42 -22zM206 668l55 74l169 -126l-37 -52z" />
    <glyph glyph-name="aacute" unicode="&#xe1;" horiz-adv-x="513" 
d="M168 -13q-29 0 -52 8.5t-40 28t-26 51t-9 77.5q0 26 3.5 59t11 67t19 67t26.5 59q31 54 72.5 82t95.5 28q42 0 70.5 -16.5t54.5 -45.5l27 49h59l-79 -374q-7 -32 -10 -65t-3 -62h-75v63q-32 -32 -68.5 -54t-76.5 -22zM181 54q38 0 70.5 20t64.5 46l58 275q-8 9 -17 17.5
t-20.5 16t-26.5 12t-35 4.5q-29 0 -53 -14t-44 -51q-12 -21 -21.5 -51.5t-16.5 -63t-11 -64t-4 -54.5q0 -49 14 -71t42 -22zM223 617l197 129l39 -80l-207 -102z" />
    <glyph glyph-name="acircumflex" unicode="&#xe2;" horiz-adv-x="513" 
d="M168 -13q-29 0 -52 8.5t-40 28t-26 51t-9 77.5q0 26 3.5 59t11 67t19 67t26.5 59q31 54 72.5 82t95.5 28q42 0 70.5 -16.5t54.5 -45.5l27 49h59l-79 -374q-7 -32 -10 -65t-3 -62h-75v63q-32 -32 -68.5 -54t-76.5 -22zM181 54q38 0 70.5 20t64.5 46l58 275q-8 9 -17 17.5
t-20.5 16t-26.5 12t-35 4.5q-29 0 -53 -14t-44 -51q-12 -21 -21.5 -51.5t-16.5 -63t-11 -64t-4 -54.5q0 -49 14 -71t42 -22zM175 613l144 129h56l96 -134l-44 -35l-89 84l-130 -84z" />
    <glyph glyph-name="atilde" unicode="&#xe3;" horiz-adv-x="513" 
d="M168 -13q-29 0 -52 8.5t-40 28t-26 51t-9 77.5q0 26 3.5 59t11 67t19 67t26.5 59q31 54 72.5 82t95.5 28q42 0 70.5 -16.5t54.5 -45.5l27 49h59l-79 -374q-7 -32 -10 -65t-3 -62h-75v63q-32 -32 -68.5 -54t-76.5 -22zM181 54q38 0 70.5 20t64.5 46l58 275q-8 9 -17 17.5
t-20.5 16t-26.5 12t-35 4.5q-29 0 -53 -14t-44 -51q-12 -21 -21.5 -51.5t-16.5 -63t-11 -64t-4 -54.5q0 -49 14 -71t42 -22zM172 609q23 42 49 64.5t57 22.5q19 0 34 -5.5t28 -12.5t25.5 -12.5t27.5 -5.5q17 0 29 11.5t26 28.5l42 -30q-23 -42 -49.5 -64.5t-58.5 -22.5
q-19 0 -33.5 5.5t-27.5 12.5t-25 12.5t-27 5.5q-17 0 -29 -11.5t-27 -28.5z" />
    <glyph glyph-name="adieresis" unicode="&#xe4;" horiz-adv-x="513" 
d="M168 -13q-29 0 -52 8.5t-40 28t-26 51t-9 77.5q0 26 3.5 59t11 67t19 67t26.5 59q31 54 72.5 82t95.5 28q42 0 70.5 -16.5t54.5 -45.5l27 49h59l-79 -374q-7 -32 -10 -65t-3 -62h-75v63q-32 -32 -68.5 -54t-76.5 -22zM181 54q38 0 70.5 20t64.5 46l58 275q-8 9 -17 17.5
t-20.5 16t-26.5 12t-35 4.5q-29 0 -53 -14t-44 -51q-12 -21 -21.5 -51.5t-16.5 -63t-11 -64t-4 -54.5q0 -49 14 -71t42 -22zM422 569q-23 0 -40 17t-17 41t17 41t40 17t40 -17t17 -41t-17 -41t-40 -17zM231 569q-23 0 -40 17t-17 41t17 41t40 17t40 -17t17 -41t-17 -41
t-40 -17z" />
    <glyph glyph-name="aring" unicode="&#xe5;" horiz-adv-x="513" 
d="M168 -13q-29 0 -52 8.5t-40 28t-26 51t-9 77.5q0 26 3.5 59t11 67t19 67t26.5 59q31 54 72.5 82t95.5 28q42 0 70.5 -16.5t54.5 -45.5l27 49h59l-79 -374q-7 -32 -10 -65t-3 -62h-75v63q-32 -32 -68.5 -54t-76.5 -22zM181 54q38 0 70.5 20t64.5 46l58 275q-8 9 -17 17.5
t-20.5 16t-26.5 12t-35 4.5q-29 0 -53 -14t-44 -51q-12 -21 -21.5 -51.5t-16.5 -63t-11 -64t-4 -54.5q0 -49 14 -71t42 -22zM319 563q-45 0 -69 28.5t-24 66.5q0 5 0.5 10t1.5 10q7 41 34.5 68t69.5 27q45 0 68.5 -29t23.5 -68q0 -3 -0.5 -8t-1.5 -10q-6 -39 -33.5 -67
t-69.5 -28zM318 609q22 0 33 14t16 41q1 5 1.5 9.5t0.5 9.5q0 20 -9 32t-28 12q-22 0 -33 -13.5t-16 -41.5q-1 -5 -1.5 -9.5t-0.5 -9.5q0 -20 9 -32t28 -12z" />
    <glyph glyph-name="ae" unicode="&#xe6;" horiz-adv-x="705" 
d="M144 -13q-60 0 -93 37.5t-33 95.5q0 49 17 82t50.5 53.5t83 29t115.5 8.5h27l11 51q4 21 4.5 38.5t-6 30t-21 19.5t-38.5 7q-38 0 -71.5 -13t-68.5 -31l-31 62q41 22 83.5 39.5t100.5 17.5q42 0 71 -17t42 -50q32 34 70 50.5t77 16.5q37 0 65 -10t46 -26.5t27 -37.5
t9 -44q0 -60 -30.5 -93t-76 -49t-98.5 -19.5t-98 -3.5q-4 -20 -5.5 -38t-1.5 -33q0 -55 21 -80.5t69 -25.5q38 0 70 16t64 38l19 -63q-39 -29 -79 -43.5t-86 -14.5q-109 0 -143 90q-38 -42 -79 -66t-83 -24zM163 55q31 0 58 16.5t51 40.5l25 118h-15q-53 0 -87.5 -5.5
t-54.5 -18.5t-28.5 -34t-8.5 -52q0 -65 60 -65zM420 367q-8 -15 -15 -33t-12 -38q34 0 70.5 0.5t66 8.5t48.5 27.5t19 55.5q0 24 -15 43t-52 19q-32 0 -59.5 -19t-50.5 -64z" />
    <glyph glyph-name="ccedilla" unicode="&#xe7;" horiz-adv-x="430" 
d="M130 -213q-27 0 -47 7.5t-34 18.5l24 43q13 -8 25 -12.5t29 -4.5q22 0 31 10t9 27q0 13 -9 22t-28 9q-13 0 -20.5 -1t-15.5 -3l50 94q-106 32 -106 176q0 31 5.5 66t15 69t22.5 64t27 52q33 50 76.5 70.5t99.5 19.5q42 0 75 -13t56 -34l-39 -61q-23 16 -46 28t-52 12
q-38 0 -63.5 -16t-44.5 -60q-9 -20 -17 -46t-14.5 -54t-10.5 -55.5t-4 -49.5q0 -62 22.5 -85.5t67.5 -23.5q35 0 64 16t55 35l30 -57q-29 -27 -71 -44t-87 -17q-3 0 -6 0.5t-6 0.5l-23 -41q32 -8 45.5 -26.5t13.5 -49.5q0 -15 -5 -30.5t-16 -27.5t-30.5 -20t-47.5 -8z" />
    <glyph glyph-name="egrave" unicode="&#xe8;" horiz-adv-x="458" 
d="M202 -13q-78 0 -120.5 48t-42.5 139q0 31 5.5 65t15.5 67t23 62.5t28 50.5q35 51 81 73t95 22q75 0 111 -35.5t36 -88.5q0 -58 -31 -93t-77.5 -54t-99.5 -25.5t-98 -6.5q-2 -14 -3 -27t-1 -24q0 -55 21 -80.5t69 -25.5q38 0 70 16t64 38l19 -63q-39 -29 -79 -43.5
t-86 -14.5zM173 367q-10 -18 -18 -41.5t-15 -49.5q35 0 72 3.5t68 14.5t50.5 32t19.5 56q0 34 -15 51t-52 17q-32 0 -59.5 -19t-50.5 -64zM189 668l55 74l169 -126l-37 -52z" />
    <glyph glyph-name="eacute" unicode="&#xe9;" horiz-adv-x="458" 
d="M202 -13q-78 0 -120.5 48t-42.5 139q0 31 5.5 65t15.5 67t23 62.5t28 50.5q35 51 81 73t95 22q75 0 111 -35.5t36 -88.5q0 -58 -31 -93t-77.5 -54t-99.5 -25.5t-98 -6.5q-2 -14 -3 -27t-1 -24q0 -55 21 -80.5t69 -25.5q38 0 70 16t64 38l19 -63q-39 -29 -79 -43.5
t-86 -14.5zM173 367q-10 -18 -18 -41.5t-15 -49.5q35 0 72 3.5t68 14.5t50.5 32t19.5 56q0 34 -15 51t-52 17q-32 0 -59.5 -19t-50.5 -64zM206 617l197 129l39 -80l-207 -102z" />
    <glyph glyph-name="ecircumflex" unicode="&#xea;" horiz-adv-x="458" 
d="M202 -13q-78 0 -120.5 48t-42.5 139q0 31 5.5 65t15.5 67t23 62.5t28 50.5q35 51 81 73t95 22q75 0 111 -35.5t36 -88.5q0 -58 -31 -93t-77.5 -54t-99.5 -25.5t-98 -6.5q-2 -14 -3 -27t-1 -24q0 -55 21 -80.5t69 -25.5q38 0 70 16t64 38l19 -63q-39 -29 -79 -43.5
t-86 -14.5zM173 367q-10 -18 -18 -41.5t-15 -49.5q35 0 72 3.5t68 14.5t50.5 32t19.5 56q0 34 -15 51t-52 17q-32 0 -59.5 -19t-50.5 -64zM156 613l144 129h56l96 -134l-44 -35l-89 84l-130 -84z" />
    <glyph glyph-name="edieresis" unicode="&#xeb;" horiz-adv-x="458" 
d="M202 -13q-78 0 -120.5 48t-42.5 139q0 31 5.5 65t15.5 67t23 62.5t28 50.5q35 51 81 73t95 22q75 0 111 -35.5t36 -88.5q0 -58 -31 -93t-77.5 -54t-99.5 -25.5t-98 -6.5q-2 -14 -3 -27t-1 -24q0 -55 21 -80.5t69 -25.5q38 0 70 16t64 38l19 -63q-39 -29 -79 -43.5
t-86 -14.5zM173 367q-10 -18 -18 -41.5t-15 -49.5q35 0 72 3.5t68 14.5t50.5 32t19.5 56q0 34 -15 51t-52 17q-32 0 -59.5 -19t-50.5 -64zM403 569q-23 0 -40 17t-17 41t17 41t40 17t40 -17t17 -41t-17 -41t-40 -17zM212 569q-23 0 -40 17t-17 41t17 41t40 17t40 -17t17 -41
t-17 -41t-40 -17z" />
    <glyph glyph-name="igrave" unicode="&#xec;" horiz-adv-x="272" 
d="M139 434l-66 12l11 55h152l-106 -501h-83zM68 668l55 74l169 -126l-37 -52z" />
    <glyph glyph-name="iacute" unicode="&#xed;" horiz-adv-x="272" 
d="M139 434l-66 12l11 55h152l-106 -501h-83zM105 617l197 129l39 -80l-207 -102z" />
    <glyph glyph-name="icircumflex" unicode="&#xee;" horiz-adv-x="272" 
d="M139 434l-66 12l11 55h152l-106 -501h-83zM55 613l144 129h56l96 -134l-44 -35l-89 84l-130 -84z" />
    <glyph glyph-name="idieresis" unicode="&#xef;" horiz-adv-x="272" 
d="M139 434l-66 12l11 55h152l-106 -501h-83zM111 569q-23 0 -40 17t-17 41t17 41t40 17t40 -17t17 -41t-17 -41t-40 -17zM302 569q-23 0 -40 17t-17 41t17 41t40 17t40 -17t17 -41t-17 -41t-40 -17z" />
    <glyph glyph-name="eth" unicode="&#xf0;" horiz-adv-x="502" 
d="M184 585l94 40q-17 14 -36.5 26.5t-39.5 24.5l30 58q36 -18 66.5 -36.5t56.5 -39.5l108 46l20 -50l-87 -37q33 -41 50.5 -94t17.5 -128q0 -93 -18.5 -172t-58.5 -141q-35 -53 -78.5 -73.5t-94.5 -20.5q-85 0 -128 48.5t-43 139.5q0 31 5 63t13.5 62.5t20 58t25.5 48.5
q35 53 79 74t95 21q32 0 54 -10t37 -28q-5 37 -18.5 66t-33.5 53l-116 -49zM217 53q35 0 60 15.5t48 63.5q9 18 17 42.5t14 50.5t9.5 52t3.5 49q0 60 -22.5 86t-68.5 26q-35 0 -60.5 -16t-48.5 -64q-9 -18 -16.5 -42t-13 -50t-9 -52.5t-3.5 -48.5q0 -60 22 -86t68 -26z" />
    <glyph glyph-name="ntilde" unicode="&#xf1;" horiz-adv-x="508" 
d="M160 609q23 42 49 64.5t57 22.5q19 0 34 -5.5t28 -12.5t25.5 -12.5t27.5 -5.5q17 0 29 11.5t26 28.5l42 -30q-23 -42 -49.5 -64.5t-58.5 -22.5q-19 0 -33.5 5.5t-27.5 12.5t-25 12.5t-27 5.5q-17 0 -29 -11.5t-27 -28.5zM355 514q45 0 72 -27.5t27 -78.5q0 -10 -1.5 -21
t-3.5 -23l-77 -364h-83l76 357q5 23 5 38q0 46 -44 46q-34 0 -65.5 -16t-66.5 -41l-82 -384h-83l85 402q5 25 6 50.5t1 48.5h71v-64q41 34 80.5 55.5t82.5 21.5z" />
    <glyph glyph-name="ograve" unicode="&#xf2;" horiz-adv-x="496" 
d="M212 -12q-85 0 -129 48.5t-44 139.5q0 31 5 65t14 66.5t21 61.5t26 50q35 53 79.5 73.5t95.5 20.5q85 0 129 -48.5t44 -139.5q0 -31 -5 -65t-14 -66.5t-21 -61.5t-26 -50q-35 -53 -79.5 -73.5t-95.5 -20.5zM215 53q35 0 61 15.5t49 63.5q9 18 17 44t14 54t9.5 55.5
t3.5 50.5q0 60 -23 86t-69 26q-35 0 -61 -15.5t-49 -63.5q-9 -18 -17 -44t-14 -54t-9.5 -56t-3.5 -50q0 -60 23 -86t69 -26zM199 668l55 74l169 -126l-37 -52z" />
    <glyph glyph-name="oacute" unicode="&#xf3;" horiz-adv-x="496" 
d="M212 -12q-85 0 -129 48.5t-44 139.5q0 31 5 65t14 66.5t21 61.5t26 50q35 53 79.5 73.5t95.5 20.5q85 0 129 -48.5t44 -139.5q0 -31 -5 -65t-14 -66.5t-21 -61.5t-26 -50q-35 -53 -79.5 -73.5t-95.5 -20.5zM215 53q35 0 61 15.5t49 63.5q9 18 17 44t14 54t9.5 55.5
t3.5 50.5q0 60 -23 86t-69 26q-35 0 -61 -15.5t-49 -63.5q-9 -18 -17 -44t-14 -54t-9.5 -56t-3.5 -50q0 -60 23 -86t69 -26zM226 617l197 129l39 -80l-207 -102z" />
    <glyph glyph-name="ocircumflex" unicode="&#xf4;" horiz-adv-x="496" 
d="M212 -12q-85 0 -129 48.5t-44 139.5q0 31 5 65t14 66.5t21 61.5t26 50q35 53 79.5 73.5t95.5 20.5q85 0 129 -48.5t44 -139.5q0 -31 -5 -65t-14 -66.5t-21 -61.5t-26 -50q-35 -53 -79.5 -73.5t-95.5 -20.5zM215 53q35 0 61 15.5t49 63.5q9 18 17 44t14 54t9.5 55.5
t3.5 50.5q0 60 -23 86t-69 26q-35 0 -61 -15.5t-49 -63.5q-9 -18 -17 -44t-14 -54t-9.5 -56t-3.5 -50q0 -60 23 -86t69 -26zM162 613l144 129h56l96 -134l-44 -35l-89 84l-130 -84z" />
    <glyph glyph-name="otilde" unicode="&#xf5;" horiz-adv-x="496" 
d="M212 -12q-85 0 -129 48.5t-44 139.5q0 31 5 65t14 66.5t21 61.5t26 50q35 53 79.5 73.5t95.5 20.5q85 0 129 -48.5t44 -139.5q0 -31 -5 -65t-14 -66.5t-21 -61.5t-26 -50q-35 -53 -79.5 -73.5t-95.5 -20.5zM215 53q35 0 61 15.5t49 63.5q9 18 17 44t14 54t9.5 55.5
t3.5 50.5q0 60 -23 86t-69 26q-35 0 -61 -15.5t-49 -63.5q-9 -18 -17 -44t-14 -54t-9.5 -56t-3.5 -50q0 -60 23 -86t69 -26zM151 609q23 42 49 64.5t57 22.5q19 0 34 -5.5t28 -12.5t25.5 -12.5t27.5 -5.5q17 0 29 11.5t26 28.5l42 -30q-23 -42 -49.5 -64.5t-58.5 -22.5
q-19 0 -33.5 5.5t-27.5 12.5t-25 12.5t-27 5.5q-17 0 -29 -11.5t-27 -28.5z" />
    <glyph glyph-name="odieresis" unicode="&#xf6;" horiz-adv-x="496" 
d="M212 -12q-85 0 -129 48.5t-44 139.5q0 31 5 65t14 66.5t21 61.5t26 50q35 53 79.5 73.5t95.5 20.5q85 0 129 -48.5t44 -139.5q0 -31 -5 -65t-14 -66.5t-21 -61.5t-26 -50q-35 -53 -79.5 -73.5t-95.5 -20.5zM215 53q35 0 61 15.5t49 63.5q9 18 17 44t14 54t9.5 55.5
t3.5 50.5q0 60 -23 86t-69 26q-35 0 -61 -15.5t-49 -63.5q-9 -18 -17 -44t-14 -54t-9.5 -56t-3.5 -50q0 -60 23 -86t69 -26zM404 569q-23 0 -40 17t-17 41t17 41t40 17t40 -17t17 -41t-17 -41t-40 -17zM213 569q-23 0 -40 17t-17 41t17 41t40 17t40 -17t17 -41t-17 -41
t-40 -17z" />
    <glyph glyph-name="divide" unicode="&#xf7;" horiz-adv-x="534" 
d="M87 329h390l-16 -73h-390zM235 46q-26 0 -44.5 18.5t-18.5 45.5t18.5 45.5t44.5 18.5q27 0 45 -18.5t18 -45.5t-18 -45.5t-45 -18.5zM313 411q-26 0 -44.5 18.5t-18.5 45.5t18.5 45.5t44.5 18.5q27 0 45 -18.5t18 -45.5t-18 -45.5t-45 -18.5z" />
    <glyph glyph-name="oslash" unicode="&#xf8;" horiz-adv-x="496" 
d="M-5 -44l74 98q-30 46 -30 122q0 31 5 65t14 66.5t21 61.5t26 50q35 53 79.5 73.5t95.5 20.5q69 0 111 -33l72 96l40 -28l-79 -104q29 -47 29 -119q0 -31 -5 -65t-14 -66.5t-21 -61.5t-26 -50q-35 -53 -79.5 -73.5t-95.5 -20.5q-33 0 -60.5 8t-47.5 22l-68 -90zM121 165
q0 -22 3 -38l222 295q-23 26 -69 26q-35 0 -61 -15.5t-49 -63.5q-9 -18 -17 -44t-14.5 -54t-10.5 -56t-4 -50zM215 53q35 0 61 15.5t49 63.5q9 18 17 44t14.5 54t10.5 55.5t4 50.5q0 19 -3 34l-221 -294q23 -23 68 -23z" />
    <glyph glyph-name="ugrave" unicode="&#xf9;" horiz-adv-x="508" 
d="M184 668l55 74l169 -126l-37 -52zM149 -13q-45 0 -72 27.5t-27 78.5q0 10 1.5 21t3.5 23l77 364h83l-76 -357q-5 -23 -5 -37q0 -47 44 -47q34 0 66 16t67 41l81 384h83l-79 -374q-7 -32 -10 -65t-3 -62h-75v62q-34 -29 -74 -52t-85 -23z" />
    <glyph glyph-name="uacute" unicode="&#xfa;" horiz-adv-x="508" 
d="M241 617l197 129l39 -80l-207 -102zM149 -13q-45 0 -72 27.5t-27 78.5q0 10 1.5 21t3.5 23l77 364h83l-76 -357q-5 -23 -5 -37q0 -47 44 -47q34 0 66 16t67 41l81 384h83l-79 -374q-7 -32 -10 -65t-3 -62h-75v62q-34 -29 -74 -52t-85 -23z" />
    <glyph glyph-name="ucircumflex" unicode="&#xfb;" horiz-adv-x="508" 
d="M173 613l144 129h56l96 -134l-44 -35l-89 84l-130 -84zM149 -13q-45 0 -72 27.5t-27 78.5q0 10 1.5 21t3.5 23l77 364h83l-76 -357q-5 -23 -5 -37q0 -47 44 -47q34 0 66 16t67 41l81 384h83l-79 -374q-7 -32 -10 -65t-3 -62h-75v62q-34 -29 -74 -52t-85 -23z" />
    <glyph glyph-name="udieresis" unicode="&#xfc;" horiz-adv-x="508" 
d="M225 569q-23 0 -40 17t-17 41t17 41t40 17t40 -17t17 -41t-17 -41t-40 -17zM416 569q-23 0 -40 17t-17 41t17 41t40 17t40 -17t17 -41t-17 -41t-40 -17zM149 -13q-45 0 -72 27.5t-27 78.5q0 10 1.5 21t3.5 23l77 364h83l-76 -357q-5 -23 -5 -37q0 -47 44 -47q34 0 66 16
t67 41l81 384h83l-79 -374q-7 -32 -10 -65t-3 -62h-75v62q-34 -29 -74 -52t-85 -23z" />
    <glyph glyph-name="yacute" unicode="&#xfd;" horiz-adv-x="469" 
d="M-17 -139q61 16 99.5 46.5t64.5 92.5h-15l-49 501h86l23 -295q2 -34 3.5 -70t-0.5 -65h1q11 27 26 63t35 78l142 289h89l-278 -541q-24 -45 -46.5 -75t-47.5 -48.5t-54 -28t-65 -15.5zM223 617l197 129l39 -80l-207 -102z" />
    <glyph glyph-name="thorn" unicode="&#xfe;" horiz-adv-x="518" 
d="M183 724h83l-59 -276q26 24 63.5 45t82.5 21q25 0 47 -9t38.5 -28.5t25.5 -50.5t9 -75q0 -27 -4 -60t-11.5 -67.5t-19 -68.5t-26.5 -61q-31 -56 -74 -81.5t-95 -25.5q-42 0 -72 16t-50 39l-52 -243h-83zM227 52q35 0 61.5 14.5t47.5 53.5q11 21 21 52t17 64t11 64.5
t4 54.5q0 48 -16 68t-43 20q-38 0 -72.5 -19.5t-65.5 -45.5l-60 -282q13 -14 37 -29t58 -15z" />
    <glyph glyph-name="ydieresis" unicode="&#xff;" horiz-adv-x="469" 
d="M-17 -139q61 16 99.5 46.5t64.5 92.5h-15l-49 501h86l23 -295q2 -34 3.5 -70t-0.5 -65h1q11 27 26 63t35 78l142 289h89l-278 -541q-24 -45 -46.5 -75t-47.5 -48.5t-54 -28t-65 -15.5zM206 568q-23 0 -40 17t-17 41t17 41t40 17t40 -17t17 -41t-17 -41t-40 -17zM397 568
q-23 0 -40 17t-17 41t17 41t40 17t40 -17t17 -41t-17 -41t-40 -17z" />
    <glyph glyph-name="dotlessi" unicode="&#x131;" horiz-adv-x="272" 
d="M139 434l-66 12l11 55h152l-106 -501h-83z" />
    <glyph glyph-name="Lslash" unicode="&#x141;" horiz-adv-x="459" 
d="M38 323l76 24l72 342h89l-66 -311l153 50l-16 -77l-153 -50l-47 -223h228l-17 -78h-317l57 270l-76 -24z" />
    <glyph glyph-name="lslash" unicode="&#x142;" horiz-adv-x="266" 
d="M46 363l72 31l70 330h83l-62 -289l82 36l-17 -79l-81 -36l-57 -268q-2 -10 -2 -14q0 -22 26 -22q5 0 9.5 0.5t9.5 1.5t10 3v-56q-10 -5 -24.5 -8t-32.5 -3q-79 0 -79 77q0 21 6 51l42 198l-72 -32z" />
    <glyph glyph-name="OE" unicode="&#x152;" horiz-adv-x="808" 
d="M287 0q-107 0 -165 51t-58 166q0 35 5 75.5t13 81t19.5 78.5t24.5 68q22 51 49.5 83.5t61 51.5t73.5 26.5t87 7.5h445l-16 -76h-253l-45 -215h199l-16 -75h-198l-53 -246h265l-16 -77h-422zM369 74l115 539h-99q-36 0 -63 -6t-47.5 -20.5t-36 -38.5t-28.5 -60
q-10 -27 -19 -62.5t-16.5 -73t-12 -73.5t-4.5 -64q0 -73 30 -107t96 -34h85z" />
    <glyph glyph-name="oe" unicode="&#x153;" horiz-adv-x="771" 
d="M212 -12q-85 0 -129 48.5t-44 139.5q0 31 5 65t14 66.5t21 61.5t26 50q35 53 79.5 73.5t95.5 20.5q115 0 150 -91q34 45 78 68.5t92 23.5q75 0 111 -35.5t36 -88.5q0 -58 -31 -93t-77.5 -54t-99.5 -25.5t-98 -6.5q-2 -14 -3 -27t-1 -24q0 -55 21 -80.5t69 -25.5
q38 0 70 16t64 38l19 -63q-39 -29 -79 -43.5t-86 -14.5q-105 0 -140 87q-33 -46 -74 -66t-89 -20zM215 53q35 0 61 15.5t49 63.5q9 18 17 44t14 54t9.5 55.5t3.5 50.5q0 60 -23 86t-69 26q-35 0 -61 -15.5t-49 -63.5q-9 -18 -17 -44t-14 -54t-9.5 -56t-3.5 -50q0 -60 23 -86
t69 -26zM486 367q-10 -18 -18 -41.5t-15 -49.5q35 0 72 3.5t68 14.5t50.5 32t19.5 56q0 34 -15 51t-52 17q-32 0 -59.5 -19t-50.5 -64z" />
    <glyph glyph-name="Scaron" unicode="&#x160;" horiz-adv-x="500" 
d="M224 -13q-34 0 -66.5 6.5t-61 17t-52 25t-40.5 30.5l37 69q43 -35 85 -53t91 -18q65 0 97 35.5t32 87.5q0 25 -6 43t-18.5 34t-33 30.5t-49.5 32.5q-34 20 -57 39.5t-37.5 41t-21 47t-6.5 57.5q0 46 14.5 81.5t41 59.5t62.5 36.5t79 12.5q64 0 110 -17.5t77 -39.5
l-31 -72q-30 22 -72 37.5t-86 15.5q-51 1 -79.5 -27t-28.5 -82q0 -20 3.5 -35t13.5 -28t27 -26t44 -29q32 -19 58.5 -39t46 -44.5t30.5 -54.5t11 -69t-11 -75.5t-36.5 -65.5t-66 -46.5t-100.5 -17.5zM203 866l44 35l89 -84l130 84l33 -40l-144 -129h-56z" />
    <glyph glyph-name="scaron" unicode="&#x161;" horiz-adv-x="427" 
d="M192 -13q-25 0 -49 4.5t-45.5 12t-38.5 17.5t-29 20l28 61q26 -20 62 -34.5t75 -14.5q42 0 68 19t26 63q0 17 -5 29.5t-15.5 23t-26 20.5t-36.5 22q-18 11 -36 23t-32 27.5t-22.5 37t-8.5 51.5q0 37 13 64.5t34.5 45.5t50 26.5t59.5 8.5q43 0 75.5 -11t61.5 -31l-23 -62
q-25 16 -53 27t-61 11q-38 0 -58 -18.5t-20 -56.5q0 -14 4.5 -24.5t13.5 -20t23 -18.5t34 -21q23 -14 43.5 -26.5t35.5 -29t23.5 -39t8.5 -54.5q0 -76 -48.5 -114.5t-131.5 -38.5zM153 704l44 35l89 -84l130 84l33 -40l-144 -129h-56z" />
    <glyph glyph-name="Ydieresis" unicode="&#x178;" horiz-adv-x="519" 
d="M220 279l-103 410h98l48 -223q6 -31 10 -56.5t6 -51.5q13 26 26.5 51.5t33.5 55.5l142 224h103l-275 -416l-58 -273h-90zM262 731q-23 0 -40 17t-17 41t17 41t40 17t40 -17t17 -41t-17 -41t-40 -17zM453 731q-23 0 -40 17t-17 41t17 41t40 17t40 -17t17 -41t-17 -41
t-40 -17z" />
    <glyph glyph-name="florin" unicode="&#x192;" horiz-adv-x="366" 
d="M75 439h82l27 124q8 39 24 65.5t37 43t45.5 23.5t51.5 7q29 0 51 -6t42 -18l-31 -66q-29 16 -62 16q-29 0 -47.5 -19.5t-26.5 -54.5l-25 -115h107l-14 -68h-107l-122 -572h-86l122 572h-82z" />
    <glyph glyph-name="circumflex" unicode="&#x2c6;" 
d="M191 613l144 129h56l96 -134l-44 -35l-89 84l-130 -84z" />
    <glyph glyph-name="caron" unicode="&#x2c7;" 
d="M211 704l44 35l89 -84l130 84l33 -40l-144 -129h-56z" />
    <glyph glyph-name="breve" unicode="&#x2d8;" 
d="M346 579q-30 0 -53 11.5t-39.5 30t-25.5 41t-11 44.5l58 15q8 -31 23 -48.5t52 -17.5q38 0 57 17.5t33 48.5l56 -15q-6 -23 -19 -46t-32 -41t-44 -29t-55 -11z" />
    <glyph glyph-name="dotaccent" unicode="&#x2d9;" 
d="M342 569q-23 0 -40 17t-17 41t17 41t40 17t40 -17t17 -41t-17 -41t-40 -17z" />
    <glyph glyph-name="ring" unicode="&#x2da;" 
d="M345 563q-45 0 -69 28.5t-24 66.5q0 5 0.5 10t1.5 10q7 41 34.5 68t69.5 27q45 0 68 -29t23 -68v-9t-1 -9q-6 -39 -33.5 -67t-69.5 -28zM344 609q22 0 33 14t16 41q1 5 1.5 9.5t0.5 9.5q0 20 -9 32t-28 12q-22 0 -33 -13.5t-16 -41.5q-1 -5 -1.5 -9.5t-0.5 -9.5
q0 -20 9 -32t28 -12z" />
    <glyph glyph-name="ogonek" unicode="&#x2db;" 
d="M175 -214q-42 0 -62 22.5t-20 51.5q0 21 7.5 40t20.5 36.5t28.5 33.5t32.5 30h64q-38 -38 -64.5 -72t-26.5 -63q0 -27 28 -27q15 0 29 5.5t29 13.5l9 -47q-15 -9 -33 -16.5t-42 -7.5z" />
    <glyph glyph-name="tilde" unicode="&#x2dc;" 
d="M186 609q23 42 49 64.5t57 22.5q19 0 34 -5.5t28 -12.5t25.5 -12.5t27.5 -5.5q17 0 29 11.5t26 28.5l42 -30q-23 -42 -49.5 -64.5t-58.5 -22.5q-19 0 -33.5 5.5t-27.5 12.5t-25 12.5t-27 5.5q-17 0 -29 -11.5t-27 -28.5z" />
    <glyph glyph-name="hungarumlaut" unicode="&#x2dd;" 
d="M186 567l128 202l75 -53l-155 -182zM369 567l128 202l74 -53l-154 -182z" />
    <glyph glyph-name="endash" unicode="&#x2013;" horiz-adv-x="550" 
d="M64 314h444l-16 -73h-444z" />
    <glyph glyph-name="emdash" unicode="&#x2014;" horiz-adv-x="757" 
d="M64 314h650l-16 -73h-650z" />
    <glyph glyph-name="quoteleft" unicode="&#x2018;" horiz-adv-x="244" 
d="M180 444q-28 0 -46.5 18.5t-18.5 56.5q0 27 9.5 55t28.5 52t48.5 43t69.5 28v-43q-29 -14 -50 -35.5t-26 -47.5q15 -4 31.5 -20t16.5 -43t-18.5 -45.5t-44.5 -18.5z" />
    <glyph glyph-name="quoteright" unicode="&#x2019;" horiz-adv-x="245" 
d="M106 488q29 14 50 35.5t26 47.5q-15 4 -31.5 20t-16.5 43t18.5 45.5t44.5 18.5q28 0 46.5 -18.5t18.5 -56.5q0 -27 -9.5 -55t-28.5 -52t-48.5 -43t-69.5 -28v43z" />
    <glyph glyph-name="quotesinglbase" unicode="&#x201a;" horiz-adv-x="245" 
d="M-15 -82q29 14 50 35.5t26 47.5q-15 4 -31.5 20t-16.5 43t18.5 45.5t44.5 18.5q28 0 46.5 -18.5t18.5 -56.5q0 -27 -9.5 -55t-28.5 -52t-48.5 -43t-69.5 -28v43z" />
    <glyph glyph-name="quotedblleft" unicode="&#x201c;" horiz-adv-x="439" 
d="M375 445q-28 0 -46.5 18.5t-18.5 56.5q0 27 9.5 55t28.5 52t48.5 43t69.5 28v-43q-29 -14 -50 -35.5t-26 -47.5q15 -4 31.5 -20t16.5 -43t-18.5 -45.5t-44.5 -18.5zM181 445q-28 0 -46.5 18.5t-18.5 56.5q0 27 9.5 55t28.5 52t48.5 43t69.5 28v-43q-29 -14 -50 -35.5
t-26 -47.5q15 -4 31.5 -20t16.5 -43t-18.5 -45.5t-44.5 -18.5z" />
    <glyph glyph-name="quotedblright" unicode="&#x201d;" horiz-adv-x="439" 
d="M300 488q29 14 50 35.5t26 47.5q-15 4 -31.5 20t-16.5 43t18.5 45.5t44.5 18.5q28 0 46.5 -18.5t18.5 -56.5q0 -27 -9.5 -55t-28.5 -52t-48.5 -43t-69.5 -28v43zM106 488q29 14 50 35.5t26 47.5q-15 4 -31.5 20t-16.5 43t18.5 45.5t44.5 18.5q28 0 46.5 -18.5t18.5 -56.5
q0 -27 -9.5 -55t-28.5 -52t-48.5 -43t-69.5 -28v43z" />
    <glyph glyph-name="quotedblbase" unicode="&#x201e;" horiz-adv-x="439" 
d="M186 -82q29 14 50 35.5t26 47.5q-15 4 -31.5 20t-16.5 43t18.5 45.5t44.5 18.5q28 0 46.5 -18.5t18.5 -56.5q0 -27 -9.5 -55t-28.5 -52t-48.5 -43t-69.5 -28v43zM-8 -82q29 14 50 35.5t26 47.5q-15 4 -31.5 20t-16.5 43t18.5 45.5t44.5 18.5q28 0 46.5 -18.5t18.5 -56.5
q0 -27 -9.5 -55t-28.5 -52t-48.5 -43t-69.5 -28v43z" />
    <glyph glyph-name="dagger" unicode="&#x2020;" horiz-adv-x="372" 
d="M194 486h-97l15 71h97l28 132h78l-28 -132h97l-15 -71h-97l-62 -292h-78z" />
    <glyph glyph-name="daggerdbl" unicode="&#x2021;" horiz-adv-x="372" 
d="M160 326h-97l15 71h97l19 89h-97l15 71h97l28 132h78l-28 -132h97l-15 -71h-97l-19 -89h97l-15 -71h-97l-28 -132h-78z" />
    <glyph glyph-name="bullet" unicode="&#x2022;" horiz-adv-x="350" 
d="M183 216q-48 0 -75 31t-27 79q0 27 9 50t25.5 40.5t38.5 27.5t48 10q47 0 72.5 -31.5t25.5 -76.5q0 -26 -8.5 -49.5t-24 -41.5t-37 -28.5t-47.5 -10.5z" />
    <glyph glyph-name="ellipsis" unicode="&#x2026;" horiz-adv-x="708" 
d="M532 -6q-27 0 -46 19t-19 47t19 47t46 19q28 0 46.5 -19t18.5 -47t-18.5 -47t-46.5 -19zM92 -6q-27 0 -46 19t-19 47t19 47t46 19q28 0 46.5 -19t18.5 -47t-18.5 -47t-46.5 -19zM312 -6q-27 0 -46 19t-19 47t19 47t46 19q28 0 46.5 -19t18.5 -47t-18.5 -47t-46.5 -19z
" />
    <glyph glyph-name="perthousand" unicode="&#x2030;" horiz-adv-x="1155" 
d="M223 302q-63 0 -98 40.5t-35 106.5q0 51 20.5 98t58.5 73q19 14 42 20.5t48 6.5q61 0 96 -40t35 -103q0 -49 -17 -94.5t-49 -71.5q-42 -36 -101 -36zM579 -11q-63 0 -98 40.5t-35 106.5q0 51 20.5 98t58.5 73q19 14 42 20.5t48 6.5q61 0 96 -40t35 -103q0 -49 -17 -94.5
t-49 -71.5q-42 -36 -101 -36zM924 -11q-63 0 -98 40.5t-35 106.5q0 51 20.5 98t58.5 73q19 14 42 20.5t48 6.5q61 0 96 -40t35 -103q0 -49 -17 -94.5t-49 -71.5q-42 -36 -101 -36zM614 636h75l-468 -636h-75zM584 50q37 0 56 31q7 12 12.5 27.5t9 32t5 33t1.5 29.5
q0 38 -15 54t-44 16q-28 0 -44 -16q-10 -10 -17.5 -26.5t-13 -35.5t-8 -39t-2.5 -37q0 -37 15 -53t45 -16zM929 50q37 0 56 31q7 12 12.5 27.5t9 32t5 33t1.5 29.5q0 38 -15 54t-44 16q-28 0 -44 -16q-10 -10 -17.5 -26.5t-13 -35.5t-8 -39t-2.5 -37q0 -37 15 -53t45 -16z
M228 363q37 0 56 31q7 12 12.5 27.5t9 32t5 33t1.5 29.5q0 38 -15 54t-44 16q-28 0 -44 -16q-10 -10 -17.5 -26.5t-13 -35.5t-8 -39t-2.5 -37q0 -37 15 -53t45 -16z" />
    <glyph glyph-name="guilsinglleft" unicode="&#x2039;" horiz-adv-x="319" 
d="M53 256l182 214l56 -44l-147 -183l77 -187l-70 -29z" />
    <glyph glyph-name="guilsinglright" unicode="&#x203a;" horiz-adv-x="320" 
d="M24 71l147 183l-77 187l70 29l98 -229l-182 -214z" />
    <glyph glyph-name="fraction" unicode="&#x2044;" horiz-adv-x="260" 
d="M339 636h75l-468 -636h-75z" />
    <glyph glyph-name="Euro" unicode="&#x20ac;" horiz-adv-x="592" 
d="M85 429h87q10 33 23 61.5t28 51.5q35 52 87.5 79.5t120.5 27.5q55 0 92.5 -14.5t60.5 -34.5l-34 -65q-25 19 -55 31t-70 12q-87 0 -130 -72q-17 -30 -31 -77h210l-14 -65h-212q-4 -22 -7.5 -43.5t-5.5 -42.5h207l-14 -65h-195q2 -76 33.5 -114.5t105.5 -38.5
q35 0 65.5 12.5t56.5 28.5l21 -66q-27 -18 -65.5 -32.5t-86.5 -14.5q-107 0 -161 58t-59 167h-104l14 65h92q3 43 12 86h-86z" />
    <glyph glyph-name="trademark" unicode="&#x2122;" horiz-adv-x="760" 
d="M456 689h95l11 -155q1 -19 1 -35.5v-30.5q0 -16 -1 -29h2q3 13 8 27q5 12 11.5 28t15.5 35l79 160h99l-80 -380h-66l38 178q5 25 11.5 50.5t11.5 45.5q6 24 13 46h-2q-8 -20 -17 -42q-8 -19 -18.5 -43t-23.5 -49l-64 -126h-63l-10 126q-2 23 -2.5 47t-0.5 44q0 23 1 43
h-2q-2 -22 -6 -46q-3 -20 -7.5 -45.5t-9.5 -50.5l-38 -178h-66zM222 627h-95l13 62h258l-13 -62h-95l-67 -318h-68z" />
    <glyph glyph-name="minus" unicode="&#x2212;" horiz-adv-x="533" 
d="M86 329h390l-16 -73h-390z" />
    <glyph glyph-name="uni2219" unicode="&#x2219;" horiz-adv-x="268" 
d="M150 268q-27 0 -46 19t-19 47t19 47t46 19q28 0 46.5 -19t18.5 -47t-18.5 -47t-46.5 -19z" />
    <glyph glyph-name="uni2224" unicode="&#x2224;" horiz-adv-x="268" 
d="M150 268q-27 0 -46 19t-19 47t19 47t46 19q28 0 46.5 -19t18.5 -47t-18.5 -47t-46.5 -19z" />
    <glyph glyph-name="uni2227" unicode="&#x2227;" horiz-adv-x="268" 
d="M150 268q-27 0 -46 19t-19 47t19 47t46 19q28 0 46.5 -19t18.5 -47t-18.5 -47t-46.5 -19z" />
    <glyph glyph-name="uni22C5" unicode="&#x22c5;" horiz-adv-x="268" 
d="M150 268q-27 0 -46 19t-19 47t19 47t46 19q28 0 46.5 -19t18.5 -47t-18.5 -47t-46.5 -19z" />
    <glyph glyph-name="ff" unicode="&#xfb00;" horiz-adv-x="548" 
d="M83 501h54l15 75q8 41 23 69t35.5 44.5t44 23.5t48.5 7q31 0 48 -5t32 -16l-22 -63q-14 8 -26 12t-32 4q-25 0 -43 -19t-26 -61l-14 -71h173l17 85q8 41 23 69t35 44.5t44.5 23.5t51.5 7q30 0 50.5 -6.5t33.5 -16.5l-22 -63q-14 8 -27.5 13t-33.5 5q-29 0 -47 -21
t-26 -59l-16 -81h91l-14 -66h-89l-70 -363q-6 -32 -14.5 -59.5t-23 -51.5t-36.5 -45.5t-55 -40.5l-40 55q12 9 25 21.5t25 30.5t22.5 44.5t17.5 64.5l66 344h-173l-72 -375q-6 -32 -14.5 -59.5t-23 -51.5t-36.5 -45.5t-55 -40.5l-40 55q12 9 25 21.5t25 30.5t22.5 44.5
t17.5 64.5l68 356h-56z" />
    <glyph glyph-name="fi" unicode="&#xfb01;" horiz-adv-x="511" 
d="M378 435h-173l-71 -375q-6 -32 -15 -59.5t-23 -51.5t-36 -45.5t-55 -40.5l-40 55q12 9 25 21t25 30.5t22 45t18 64.5l68 356h-54l14 66h52l14 70q16 81 63.5 120t116.5 39q42 0 73.5 -11t52.5 -27l-25 -70q-17 11 -43 20.5t-55 9.5q-46 0 -69.5 -21t-32.5 -68l-12 -62
h257l-106 -501h-83z" />
    <glyph glyph-name="fl" unicode="&#xfb02;" horiz-adv-x="518" 
d="M388 88q-2 -10 -2 -14q0 -22 26 -22q5 0 9.5 0.5t9.5 1.5t10 3v-56q-10 -5 -24.5 -8t-32.5 -3q-79 0 -79 77q0 21 6 51l114 537q-10 3 -29 6.5t-48 3.5q-58 0 -83.5 -29.5t-36.5 -89.5l-9 -45h92l-14 -66h-90l-71 -375q-6 -32 -14.5 -59.5t-23 -51.5t-36.5 -45.5
t-55 -40.5l-40 55q12 9 25 21.5t25 30.5t22.5 44.5t17.5 64.5l67 356h-55l14 66h54l12 64q17 89 69.5 128.5t132.5 39.5q24 0 43.5 -2.5t33.5 -6.5h95z" />
    <glyph glyph-name="ffi" unicode="&#xfb03;" horiz-adv-x="767" 
d="M634 435h-171l-69 -363q-6 -32 -14.5 -59.5t-23 -51.5t-36.5 -45.5t-55 -40.5l-40 55q12 9 25 21.5t25 30.5t22.5 44.5t17.5 64.5l66 344h-173l-72 -375q-6 -32 -14.5 -59.5t-23 -51.5t-36.5 -45.5t-55 -40.5l-40 55q12 9 25 21.5t25 30.5t22.5 44.5t17.5 64.5l68 356
h-56l14 66h54l15 75q8 41 23 69t35.5 44.5t44 23.5t48.5 7q31 0 48 -5t32 -16l-22 -63q-14 8 -26 12t-32 4q-25 0 -43 -18.5t-26 -61.5l-14 -71h173l14 70q16 81 63.5 120t116.5 39q42 0 73.5 -11t52.5 -27l-25 -70q-17 11 -43 20.5t-55 9.5q-46 0 -69.5 -21.5t-32.5 -67.5
l-12 -62h255l-106 -501h-83z" />
    <glyph glyph-name="ffl" unicode="&#xfb04;" horiz-adv-x="774" 
d="M644 88q-2 -10 -2 -14q0 -22 26 -22q5 0 9.5 0.5t9.5 1.5t10 3v-56q-10 -5 -24.5 -8t-32.5 -3q-79 0 -79 77q0 21 6 51l114 537q-10 3 -29 6.5t-48 3.5q-58 0 -83.5 -31t-36.5 -88l-9 -45h92l-14 -66h-90l-69 -363q-6 -32 -14.5 -59.5t-23 -51.5t-36.5 -45.5t-55 -40.5
l-40 55q12 9 25 21.5t25 30.5t22.5 44.5t17.5 64.5l65 344h-172l-72 -375q-6 -32 -14.5 -59.5t-23 -51.5t-36.5 -45.5t-55 -40.5l-40 55q12 9 25 21.5t25 30.5t22.5 44.5t17.5 64.5l68 356h-56l14 66h54l15 75q8 41 23 69t35.5 44.5t44 23.5t48.5 7q31 0 48 -5t32 -16
l-22 -63q-14 8 -26 12t-32 4q-25 0 -43 -18.5t-26 -61.5l-14 -71h173l12 64q17 88 69.5 128t132.5 40q24 0 44 -2.5t34 -6.5h94z" />
    <glyph glyph-name="f_j" horiz-adv-x="511" 
d="M187 -147q23 15 39.5 29t28 32t19.5 41.5t15 56.5l89 423h-173l-71 -375q-6 -32 -15 -59.5t-23 -51.5t-36 -45.5t-55 -40.5l-40 55q12 9 25 21t25 30.5t22 45t18 64.5l68 356h-54l14 66h52l14 70q16 81 63.5 120t116.5 39q42 0 73.5 -11t52.5 -27l-25 -70
q-17 11 -43 20.5t-55 9.5q-46 0 -69.5 -21t-32.5 -68l-12 -62h257l-104 -490q-11 -52 -24.5 -86t-32.5 -57.5t-44 -40t-59 -33.5z" />
    </font>
</defs>
</svg>
